<svg width="166" height="30" viewBox="0 0 166 30" fill="none" xmlns="http://www.w3.org/2000/svg">
<path fill-rule="evenodd" clip-rule="evenodd" d="M98.6818 17.937L104.248 15.6245C103.941 14.8474 103.022 14.3042 101.938 14.3042C100.545 14.3042 98.6119 15.5304 98.6818 17.937ZM105.213 20.1769L107.335 21.5912C106.652 22.605 105.001 24.3501 102.148 24.3501C98.6119 24.3501 96.0574 21.6128 96.0574 18.1252C96.0574 14.4199 98.6361 11.8976 101.841 11.8976C105.073 11.8976 106.652 14.4683 107.171 15.8611L107.453 16.5683L99.1282 20.0102C99.7654 21.2605 100.755 21.8978 102.148 21.8978C103.538 21.8978 104.506 21.2121 105.213 20.1769ZM91.7228 23.9736H94.4575V5.67277H91.7228V23.9736ZM87.2592 18.1467C87.2592 15.9552 85.7964 14.35 83.933 14.35C82.0481 14.35 80.467 15.9552 80.467 18.1467C80.467 20.3167 82.0481 21.8978 83.933 21.8978C85.7964 21.8978 87.2592 20.3167 87.2592 18.1467ZM89.6631 12.2768V23.4547C89.6631 28.0527 86.9527 29.9404 83.7448 29.9404C80.7251 29.9404 78.9101 27.9129 78.2271 26.2619L80.6095 25.2697C81.0343 26.2834 82.0723 27.4854 83.7475 27.4854C85.7991 27.4854 87.0737 26.2135 87.0737 23.8311V22.9357H86.9796C86.3665 23.6913 85.186 24.3501 83.7018 24.3501C80.588 24.3501 77.735 21.637 77.735 18.1467C77.735 14.6323 80.588 11.8976 83.7018 11.8976C85.1887 11.8976 86.3665 12.5564 86.9796 13.2878H87.0737V12.2741C87.071 12.2768 89.6631 12.2768 89.6631 12.2768ZM59.8133 18.1252C59.8133 15.8826 58.2161 14.3526 56.3634 14.3526C54.5107 14.3526 52.9135 15.8853 52.9135 18.1252C52.9135 20.3409 54.5107 21.8978 56.3634 21.8978C58.2134 21.8978 59.8133 20.3409 59.8133 18.1252ZM62.4968 18.1252C62.4968 21.7096 59.7407 24.3501 56.3607 24.3501C52.9807 24.3501 50.2246 21.7096 50.2246 18.1252C50.2246 14.5167 52.9807 11.9003 56.3607 11.9003C59.7434 11.9003 62.4968 14.5167 62.4968 18.1252ZM73.5672 18.1252C73.5672 15.8826 71.9699 14.3526 70.1173 14.3526C68.2646 14.3526 66.6674 15.8853 66.6674 18.1252C66.6674 20.3409 68.2646 21.8978 70.1173 21.8978C71.9699 21.8978 73.5672 20.3409 73.5672 18.1252ZM76.2534 18.1252C76.2534 21.7096 73.4973 24.3501 70.1173 24.3501C66.7373 24.3501 63.9811 21.7096 63.9811 18.1252C63.9811 14.5167 66.7373 11.9003 70.1173 11.9003C73.4973 11.9003 76.2534 14.5167 76.2534 18.1252ZM39.7135 24.3501C34.3841 24.3501 29.9043 20.0102 29.9043 14.6807C29.9043 9.35123 34.3867 5.01129 39.7162 5.01129C42.666 5.01129 44.7633 6.16753 46.3444 7.67871L44.481 9.54214C43.349 8.48001 41.8163 7.65451 39.7162 7.65451C35.8253 7.65451 32.7815 10.7925 32.7815 14.6834C32.7815 18.5743 35.8253 21.7096 39.7162 21.7096C42.2384 21.7096 43.677 20.6958 44.5993 19.7762C45.3549 19.0233 45.8497 17.937 46.0379 16.4527H39.7162V13.8122H48.6058C48.7026 14.2827 48.7483 14.8501 48.7483 15.4632C48.7483 17.4449 48.2052 19.8972 46.4627 21.6423C44.7606 23.409 42.5907 24.3501 39.7135 24.3501Z" fill="#5F6368"/>
<path d="M113.912 23.8031V7.55725H116L121.649 17.45H121.74L127.39 7.55725H129.477V23.8031H127.39V14.16L127.481 11.4372H127.39L122.307 20.3543H121.082L116 11.4372H115.909L116 14.16V23.8031H113.912Z" fill="#63666A"/>
<path d="M135.894 24.166C134.715 24.166 133.728 23.8257 132.933 23.145C132.139 22.4643 131.742 21.568 131.742 20.4449C131.742 19.231 132.207 18.2894 133.149 17.5973C134.091 16.9053 135.248 16.565 136.62 16.565C137.846 16.565 138.855 16.7918 139.638 17.2456V16.928C139.638 16.1112 139.355 15.4532 138.799 14.9653C138.243 14.4775 137.551 14.2279 136.734 14.2279C136.133 14.2279 135.577 14.3754 135.089 14.659C134.601 14.9426 134.261 15.3397 134.079 15.8389L132.173 15.022C132.434 14.3527 132.933 13.7401 133.694 13.1728C134.454 12.6056 135.452 12.322 136.689 12.322C138.107 12.322 139.287 12.7417 140.228 13.5699C141.17 14.3981 141.635 15.5779 141.635 17.0868V23.803H139.638V22.2601H139.547C138.719 23.5307 137.494 24.166 135.894 24.166ZM136.235 22.2601C137.097 22.2601 137.88 21.9424 138.583 21.2958C139.287 20.6491 139.638 19.889 139.638 19.0154C139.048 18.5276 138.163 18.2894 136.984 18.2894C135.974 18.2894 135.202 18.5049 134.692 18.9474C134.181 19.3898 133.92 19.9004 133.92 20.4903C133.92 21.0348 134.159 21.4659 134.624 21.7836C135.089 22.1013 135.633 22.2601 136.235 22.2601Z" fill="#63666A"/>
<path d="M149.777 24.166C148.926 24.166 148.166 23.9845 147.497 23.6215C146.827 23.2584 146.317 22.8046 145.988 22.2601H145.897L145.988 23.803V28.704H143.9V12.685H145.897V14.2279H145.988C146.317 13.6833 146.827 13.2296 147.497 12.8665C148.166 12.5035 148.926 12.322 149.777 12.322C151.218 12.322 152.454 12.8892 153.498 14.0237C154.542 15.1582 155.064 16.565 155.064 18.244C155.064 19.923 154.542 21.3298 153.498 22.4643C152.454 23.5988 151.218 24.166 149.777 24.166ZM149.437 22.2601C150.401 22.2601 151.241 21.897 151.933 21.1596C152.625 20.4222 152.976 19.4579 152.976 18.244C152.976 17.0301 152.625 16.0658 151.933 15.3284C151.241 14.5909 150.401 14.2279 149.437 14.2279C148.45 14.2279 147.622 14.5909 146.929 15.317C146.237 16.0431 145.897 17.0187 145.897 18.244C145.897 19.4692 146.237 20.4449 146.929 21.171C147.622 21.8971 148.461 22.2601 149.437 22.2601Z" fill="#63666A"/>
<path d="M161.11 24.166C159.873 24.166 158.841 23.8597 158.035 23.2584C157.23 22.6572 156.628 21.897 156.254 20.9895L158.114 20.218C158.704 21.6134 159.714 22.3055 161.132 22.3055C161.779 22.3055 162.312 22.158 162.732 21.8744C163.152 21.5907 163.356 21.205 163.356 20.7399C163.356 20.0138 162.845 19.526 161.836 19.265L159.589 18.7205C158.875 18.539 158.205 18.1986 157.57 17.6881C156.935 17.1776 156.617 16.4969 156.617 15.6347C156.617 14.6477 157.048 13.8535 157.922 13.2409C158.795 12.6283 159.828 12.322 161.019 12.322C162.006 12.322 162.879 12.5489 163.651 12.9913C164.422 13.4338 164.978 14.0804 165.307 14.9086L163.492 15.6574C163.084 14.6704 162.233 14.1825 160.951 14.1825C160.327 14.1825 159.805 14.3073 159.385 14.5682C158.965 14.8292 158.75 15.1695 158.75 15.612C158.75 16.2473 159.238 16.6784 160.225 16.9053L162.426 17.4272C163.469 17.6654 164.241 18.0852 164.74 18.6751C165.239 19.265 165.489 19.9344 165.489 20.6718C165.489 21.6702 165.08 22.4983 164.263 23.1677C163.447 23.8257 162.392 24.166 161.11 24.166Z" fill="#63666A"/>
<path d="M5.76562 22.229C6.69331 23.3879 7.63443 24.8399 8.1292 25.7192C8.73152 26.862 8.9789 27.6337 9.42795 29.0105C9.69147 29.7687 9.93885 30 10.4632 30C11.0359 30 11.2968 29.6128 11.4984 29.0105C11.9152 27.7117 12.2406 26.7249 12.7488 25.7811C13.7518 23.9741 15.0209 22.3661 16.2551 20.8227C16.594 20.3897 18.7585 17.8406 19.7319 15.8186C19.7319 15.8186 20.9204 13.6083 20.9204 10.5187C20.9204 7.63076 19.7454 5.62213 19.7454 5.62213L16.3466 6.53368L14.2761 11.9707L13.7652 12.7128L13.6576 12.8527L13.5178 13.0221L13.2866 13.299L12.9478 13.6378L11.1085 15.1356L6.52122 17.7922L5.76562 22.229Z" fill="#34A853"/>
<path d="M1.01562 15.4474C2.14229 18.0126 4.29074 20.2525 5.7589 22.2289L13.5299 13.022C13.5299 13.022 12.4328 14.4578 10.4565 14.4578C8.24616 14.4578 6.45533 12.6966 6.45533 10.4729C6.45533 8.94285 7.36688 7.89417 7.36688 7.89417L2.09658 9.30048L1.01562 15.4474Z" fill="#FBBC04"/>
<path d="M13.6282 0.479492C16.2069 1.31306 18.4172 3.05818 19.7456 5.63955L13.5341 13.0395C13.5341 13.0395 14.4457 11.9747 14.4457 10.4608C14.4457 8.18866 12.5312 6.47581 10.4607 6.47581C8.49776 6.47581 7.37109 7.89825 7.37109 7.89825V3.23027L13.6282 0.479492Z" fill="#4285F4"/>
<path d="M2.4375 3.73761C3.98095 1.89839 6.68601 0 10.4236 0C12.2306 0 13.6046 0.47863 13.6046 0.47863L7.36631 7.8947H2.9484L2.4375 3.73761Z" fill="#1A73E8"/>
<path d="M1.01911 15.4487C1.01911 15.4487 0 13.4239 0 10.5064C0 7.7422 1.08095 5.33023 2.45499 3.75452L7.38381 7.90892L1.01911 15.4487Z" fill="#EA4335"/>
</svg>
