<svg width="173" height="30" viewBox="0 0 173 30" fill="none" xmlns="http://www.w3.org/2000/svg">
<g clip-path="url(#clip0_2936_15678)">
<path d="M12.7059 29.25C13.7647 28.3676 15.1324 26.1618 15.7059 24.4853C15.8824 23.9559 15.8824 23.9118 15.5735 23.8676C15.3971 23.8235 14.5588 23.647 13.6765 23.5147C12.8382 23.3387 11.3382 22.9412 10.4118 22.6323C7.05883 21.5294 4.72059 20.1618 2.69118 18.1323C-0.13235 15.3088 -0.749997 12.1765 0.838238 8.95587C4.27941 2.16176 17.7353 -1.45589 29.0735 1.45587C31.8966 2.16176 34.8088 3.44117 36.7941 4.80882C38.25 5.82352 40.0147 7.67646 40.5882 8.86764C42.2206 12.0441 41.6912 15.0882 38.9559 17.9559C35.7794 21.3088 30.3529 23.5147 23.8235 24.0882L21.9706 24.2647L20.9559 25.2353C18.1765 27.8382 15.3529 29.3823 12.8824 29.6912L12.0882 29.7794L12.7059 29.25Z" fill="#2E67B2"/>
<path d="M12.96 7.30721C13.7383 7.18015 14.8977 7.08441 16.1837 7.08441C17.7719 7.08441 18.8833 7.32265 19.6461 7.92618C20.2809 8.43441 20.6303 9.18088 20.6303 10.1651C20.6303 11.531 19.6615 12.4681 18.7408 12.8016V12.8488C19.4868 13.151 19.8997 13.8653 20.1697 14.85C20.5033 16.0566 20.8368 17.4543 21.0428 17.8672H18.5656C18.3909 17.5654 18.1368 16.6919 17.8196 15.3741C17.5337 14.0404 17.0731 13.6747 16.0884 13.6588H15.3578V17.8676H12.96V7.30721ZM15.3578 11.9126H16.3108C17.5174 11.9126 18.2321 11.3091 18.2321 10.3721C18.2321 9.38779 17.565 8.895 16.4537 8.87956C15.8661 8.87956 15.5325 8.92676 15.3578 8.95897V11.9126Z" fill="white"/>
<path d="M24.7125 7.16425V13.3257C24.7125 15.1681 25.4113 16.1051 26.6502 16.1051C27.9207 16.1051 28.6196 15.2153 28.6196 13.3257V7.16425H31.0332V13.1669C31.0332 16.4695 29.366 18.0419 26.5712 18.0419C23.8716 18.0419 22.2834 16.5494 22.2834 13.1351V7.16425H24.7125Z" fill="white"/>
</g>
<path d="M163.895 7.78125L166.58 18.0645L169.256 7.78125H173.006V22H170.125V18.1523L170.389 12.2246L167.547 22H165.594L162.752 12.2246L163.016 18.1523V22H160.145V7.78125H163.895Z" fill="#2E67B2"/>
<path d="M158.084 16.1699C158.084 18.0775 157.632 19.5586 156.727 20.6133C155.828 21.668 154.578 22.1953 152.977 22.1953C151.382 22.1953 150.128 21.6745 149.217 20.6328C148.305 19.5846 147.843 18.1198 147.83 16.2383V13.8066C147.83 11.8535 148.283 10.3301 149.188 9.23633C150.092 8.13607 151.349 7.58594 152.957 7.58594C154.539 7.58594 155.786 8.1263 156.697 9.20703C157.609 10.2812 158.071 11.7917 158.084 13.7383V16.1699ZM155.203 13.7871C155.203 12.5046 155.021 11.5508 154.656 10.9258C154.292 10.3008 153.725 9.98828 152.957 9.98828C152.195 9.98828 151.632 10.291 151.268 10.8965C150.903 11.4954 150.714 12.4102 150.701 13.6406V16.1699C150.701 17.4134 150.887 18.3314 151.258 18.9238C151.629 19.5098 152.202 19.8027 152.977 19.8027C153.725 19.8027 154.282 19.5163 154.646 18.9434C155.011 18.3639 155.197 17.4688 155.203 16.2578V13.7871Z" fill="#2E67B2"/>
<path d="M146.307 17.2637C146.235 18.8848 145.779 20.112 144.939 20.9453C144.1 21.7786 142.915 22.1953 141.385 22.1953C139.777 22.1953 138.543 21.668 137.684 20.6133C136.831 19.5521 136.404 18.0417 136.404 16.082V13.6895C136.404 11.7363 136.847 10.2324 137.732 9.17773C138.618 8.11654 139.848 7.58594 141.424 7.58594C142.973 7.58594 144.148 8.01888 144.949 8.88477C145.757 9.75065 146.215 10.9941 146.326 12.6152H143.445C143.419 11.6126 143.263 10.9225 142.977 10.5449C142.697 10.1608 142.179 9.96875 141.424 9.96875C140.656 9.96875 140.112 10.2389 139.793 10.7793C139.474 11.3132 139.305 12.1953 139.285 13.4258V16.1113C139.285 17.5241 139.441 18.4941 139.754 19.0215C140.073 19.5488 140.617 19.8125 141.385 19.8125C142.14 19.8125 142.661 19.6302 142.947 19.2656C143.234 18.8945 143.396 18.2272 143.436 17.2637H146.307Z" fill="#2E67B2"/>
<path d="M130.936 20.5938C130.936 20.151 131.082 19.7865 131.375 19.5C131.674 19.2135 132.062 19.0703 132.537 19.0703C132.999 19.0703 133.383 19.2135 133.689 19.5C133.995 19.7799 134.148 20.1445 134.148 20.5938C134.148 21.0495 133.992 21.4173 133.68 21.6973C133.374 21.9707 132.993 22.1074 132.537 22.1074C132.075 22.1074 131.691 21.9674 131.385 21.6875C131.085 21.4076 130.936 21.043 130.936 20.5938Z" fill="#2E67B2"/>
<path d="M128.67 7.78125V17.625C128.657 19.1029 128.25 20.2357 127.449 21.0234C126.648 21.8047 125.499 22.1953 124.002 22.1953C122.479 22.1953 121.313 21.7982 120.506 21.0039C119.705 20.2096 119.305 19.0605 119.305 17.5566V7.78125H122.195V17.5664C122.195 18.3737 122.326 18.9499 122.586 19.2949C122.846 19.64 123.318 19.8125 124.002 19.8125C124.686 19.8125 125.154 19.6432 125.408 19.3047C125.662 18.9596 125.792 18.3965 125.799 17.6152V7.78125H128.67Z" fill="#2E67B2"/>
<path d="M112.654 16.8047H111.229V22H108.357V7.78125H112.938C114.376 7.78125 115.486 8.1556 116.268 8.9043C117.055 9.64648 117.449 10.7044 117.449 12.0781C117.449 13.9661 116.762 15.2878 115.389 16.043L117.879 21.8633V22H114.793L112.654 16.8047ZM111.229 14.4121H112.859C113.432 14.4121 113.862 14.2233 114.148 13.8457C114.435 13.4616 114.578 12.9505 114.578 12.3125C114.578 10.8867 114.021 10.1738 112.908 10.1738H111.229V14.4121Z" fill="#2E67B2"/>
<path d="M101.414 18.0938L103.807 7.78125H107.01L102.908 22H99.9199L95.8477 7.78125H99.0312L101.414 18.0938Z" fill="#2E67B2"/>
<path d="M90.0371 14.168L92.1758 7.78125H95.3008L91.4922 16.8438V22H88.582V16.8438L84.7637 7.78125H87.8887L90.0371 14.168Z" fill="#2E67B2"/>
<path d="M78.123 19.6172H83.9824V22H74.7637V20.2715L80.5645 10.1738H74.7051V7.78125H83.875V9.4707L78.123 19.6172Z" fill="#2E67B2"/>
<path d="M73.4941 10.1738H69.9785V22H67.0977V10.1738H63.6406V7.78125H73.4941V10.1738Z" fill="#2E67B2"/>
<path d="M63.0645 16.1699C63.0645 18.0775 62.612 19.5586 61.707 20.6133C60.8086 21.668 59.5586 22.1953 57.957 22.1953C56.362 22.1953 55.1087 21.6745 54.1973 20.6328C53.2858 19.5846 52.8236 18.1198 52.8105 16.2383V13.8066C52.8105 11.8535 53.263 10.3301 54.168 9.23633C55.0729 8.13607 56.3294 7.58594 57.9375 7.58594C59.5195 7.58594 60.7663 8.1263 61.6777 9.20703C62.5892 10.2812 63.0514 11.7917 63.0645 13.7383V16.1699ZM60.1836 13.7871C60.1836 12.5046 60.0013 11.5508 59.6367 10.9258C59.2721 10.3008 58.7057 9.98828 57.9375 9.98828C57.1758 9.98828 56.6126 10.291 56.248 10.8965C55.8835 11.4954 55.6947 12.4102 55.6816 13.6406V16.1699C55.6816 17.4134 55.8672 18.3314 56.2383 18.9238C56.6094 19.5098 57.1823 19.8027 57.957 19.8027C58.7057 19.8027 59.2624 19.5163 59.627 18.9434C59.9915 18.3639 60.1771 17.4688 60.1836 16.2578V13.7871Z" fill="#2E67B2"/>
<defs>
<clipPath id="clip0_2936_15678">
<rect width="41.9118" height="30" fill="white"/>
</clipPath>
</defs>
</svg>
