<svg width="171" height="30" viewBox="0 0 171 30" fill="none" xmlns="http://www.w3.org/2000/svg">
<path d="M45.3905 23.1725H48.277V6.56952H44.0716C39.8436 6.56952 37.6279 8.74004 37.6279 11.9431C37.6279 14.4979 38.8413 16.0052 41.0193 17.5578L37.2435 23.1725H40.3712L44.5766 16.887L43.122 15.9073C41.3509 14.7165 40.4918 13.782 40.4918 11.7773C40.4918 10.0062 41.7353 8.8154 44.1018 8.8154H45.3905V23.1725ZM101.123 23.4061C102.442 23.4061 103.369 23.1725 104.062 22.6675V20.3538C103.346 20.8512 102.487 21.1602 101.296 21.1602C99.2616 21.1602 98.425 19.5851 98.425 17.1056C98.425 14.4979 99.4575 13.164 101.319 13.164C102.419 13.164 103.49 13.5408 104.062 13.9026V11.4909C103.467 11.1517 102.419 10.9181 101.01 10.9181C97.3775 10.9181 95.4858 13.5182 95.4858 17.1734C95.4858 21.1904 97.3247 23.4061 101.123 23.4061ZM83.352 22.3585V20.0373C82.4702 20.6402 80.9855 21.1602 79.5988 21.1602C77.5187 21.1602 76.7349 20.188 76.6143 18.1758H83.4726V16.676C83.4726 12.4932 81.6337 10.9181 78.7849 10.9181C75.3256 10.9181 73.6751 13.5634 73.6751 17.196C73.6751 21.3788 75.7326 23.4061 79.3652 23.4061C81.1739 23.4061 82.5154 22.9313 83.352 22.3585ZM92.4335 23.1725H95.6516L91.092 16.789L95.109 11.1517H92.2375L88.2281 16.789V11.1517H85.3793V23.1725H88.2281V17.3618L92.4335 23.1725ZM72.9817 20.9266H71.7156V11.1517H63.4254V12.1842C63.4254 15.1159 63.237 18.9143 62.2346 20.9266H61.3453V25.9158H63.9756V23.1725H70.3515V25.9158H72.9817V20.9266ZM57.3133 11.1517V15.9073H53.5149V11.1517H50.6661V23.1725H53.5149V18.1532H57.3133V23.1725H60.1546V11.1517H57.3133ZM78.7396 13.164C80.149 13.164 80.5785 14.3321 80.5785 15.8394V16.0731H76.6143C76.6897 14.1663 77.3755 13.164 78.7396 13.164ZM68.8743 20.9266H64.8574C65.6487 19.1103 65.8673 15.8394 65.8673 13.7594V13.3976H68.8743V20.9266ZM118.902 23.1725H122.271L116.369 14.4527L121.72 6.56952H118.781L113.641 14.2116V6.56952H110.755V23.1725H113.641V15.3797L118.902 23.1725ZM131.97 14.9727C131.97 12.0636 130.485 10.9633 127.478 10.9633C125.594 10.9633 124.11 11.5587 123.25 12.0636V14.4301C124.012 13.8498 125.685 13.2318 127.147 13.2318C128.503 13.2318 129.129 13.7066 129.129 15.0029V15.6661H128.669C124.321 15.6661 122.391 17.1056 122.391 19.5399C122.391 21.9742 123.868 23.3383 126.069 23.3383C127.742 23.3383 128.458 22.7881 129.008 22.2153H129.129C129.151 22.5243 129.249 22.9313 129.34 23.1725H132.113C132.015 22.1927 131.97 21.213 131.97 20.2332V14.9727ZM129.129 20.3011C128.767 20.8286 128.096 21.2582 127.094 21.2582C125.903 21.2582 125.3 20.5875 125.3 19.5625C125.3 18.1984 126.28 17.701 128.722 17.701H129.129V20.3011ZM136.891 11.1517H134.261V26.6317H137.102V21.7632C137.826 22.8333 138.874 23.4061 140.094 23.4061C142.86 23.4061 144.775 21.1904 144.775 17.1508C144.775 13.1338 142.913 10.9181 140.238 10.9181C138.896 10.9181 137.796 11.5361 137.035 12.7042L136.891 11.1517ZM139.379 21.1602C137.871 21.1602 137.102 19.9469 137.102 17.1734C137.102 14.3774 137.916 13.164 139.522 13.164C141.074 13.164 141.835 14.3774 141.835 17.1508C141.835 19.9469 141.021 21.1602 139.379 21.1602ZM154.783 13.3976V11.1517H145.249V13.3976H148.596V23.1725H151.437V13.3976H154.783ZM156.456 11.1517V23.1725H160.782C163.578 23.1725 165.56 21.7405 165.56 18.9143C165.56 16.2389 163.789 14.8296 160.827 14.8296H159.298V11.1517H156.456ZM166.608 11.1517V23.1725H169.457V11.1517H166.608ZM160.616 20.9266H159.298V17.0754H160.684C161.905 17.0754 162.621 17.6256 162.621 19.0123C162.621 20.399 161.83 20.9266 160.616 20.9266Z" fill="black"/>
<path d="M15 1.875C8.78663 1.875 3.75 6.91162 3.75 13.125C3.75 16.2306 5.00831 19.0425 7.04344 21.0782C9.07913 23.115 13.875 26.0625 14.1563 29.1562C14.1984 29.6201 14.5343 30 15 30C15.4658 30 15.8016 29.6201 15.8438 29.1562C16.125 26.0625 20.9209 23.115 22.9566 21.0782C24.9917 19.0425 26.25 16.2306 26.25 13.125C26.25 6.91162 21.2134 1.875 15 1.875Z" fill="#FF4433"/>
<path d="M15.0001 17.0628C17.1747 17.0628 18.9375 15.2999 18.9375 13.1253C18.9375 10.9507 17.1747 9.18781 15.0001 9.18781C12.8255 9.18781 11.0626 10.9507 11.0626 13.1253C11.0626 15.2999 12.8255 17.0628 15.0001 17.0628Z" fill="white"/>
</svg>
