<svg width="24" height="23" viewBox="0 0 24 23" fill="none" xmlns="http://www.w3.org/2000/svg">
<g clip-path="url(#clip0_2988_2611)">
<path fill-rule="evenodd" clip-rule="evenodd" d="M23.0273 22.1301C24.4657 22.5384 22.6153 17.466 22.6153 17.466C23.4393 15.029 24.2553 6.70947 23.7433 4.17364C23.2313 1.63703 21.3113 1.72485 17.7833 1.03096C14.1921 0.318875 5.16011 -0.0885979 3.20011 0.0158417C1.25211 0.116325 -0.179888 1.43211 0.0201124 4.07474C0.225712 6.70947 3.35051 16.5284 4.90011 18.9653C6.44411 21.4022 8.72651 20.9765 10.0881 20.8136C11.9553 20.5857 18.9841 18.9653 18.9841 18.9653C18.3553 18.1662 21.5897 21.7219 23.0273 22.1301ZM13.6001 6.7965L14.8513 4.16652H18.5953L14.5025 11.8745V16.416H10.2065V11.8745L7.91851 7.56556L6.10811 4.16652H9.85211L12.3513 9.40828L13.6001 6.7965Z" fill="#ED484A"/>
</g>
<defs>
<clipPath id="clip0_2988_2611">
<rect width="24" height="22.1538" fill="white"/>
</clipPath>
</defs>
</svg>
