<svg width="1296" height="400" viewBox="0 0 1296 400" fill="none" xmlns="http://www.w3.org/2000/svg">
<rect width="1296" height="400" rx="10" fill="#0D192B"/>
<mask id="mask0_5549_45076" style="mask-type:alpha" maskUnits="userSpaceOnUse" x="0" y="0" width="1296" height="400">
<rect width="1296" height="400" rx="10" fill="#0D192B"/>
</mask>
<g mask="url(#mask0_5549_45076)">
<g clip-path="url(#clip0_5549_45076)">
<path d="M174.885 87.7378C174.013 86.1665 172.74 84.8534 171.198 83.9311C169.655 83.0087 167.896 82.5099 166.099 82.4849C159.595 82.6299 135.179 89.1722 135.179 89.1722C135.179 89.1722 110.763 95.7145 105.096 98.9825C103.552 99.9028 102.279 101.214 101.404 102.784C100.529 104.355 100.084 106.128 100.113 107.925C100.656 114.419 101.794 120.85 103.511 127.136C105.171 133.489 107.414 139.674 110.212 145.614C111.114 147.121 112.39 148.371 113.916 149.241C115.441 150.112 117.166 150.574 118.923 150.583C125.464 150.58 149.88 144.038 149.88 144.038C149.88 144.038 174.296 137.495 179.963 134.227C181.507 133.307 182.781 131.996 183.656 130.425C184.531 128.855 184.976 127.082 184.946 125.285C184.407 118.84 183.283 112.457 181.586 106.216C179.927 99.8632 177.684 93.6775 174.885 87.7378Z" stroke="#263141" stroke-width="2" stroke-linecap="round" stroke-linejoin="round"/>
<path d="M131.066 108.958C130.567 107.095 130.317 106.163 130.567 105.539C130.785 104.995 131.229 104.572 131.783 104.38C132.418 104.16 133.337 104.454 135.174 105.042L153.218 110.813C154.813 111.322 155.61 111.577 155.994 112.07C156.329 112.501 156.476 113.049 156.401 113.59C156.315 114.209 155.752 114.828 154.626 116.067L141.885 130.086C140.588 131.514 139.939 132.228 139.279 132.355C138.703 132.466 138.108 132.322 137.647 131.959C137.118 131.544 136.868 130.612 136.369 128.749L131.066 108.958Z" stroke="#263141" stroke-width="2" stroke-linecap="round" stroke-linejoin="round"/>
</g>
<g clip-path="url(#clip1_5549_45076)">
<path d="M228.823 331.683C228.852 329.886 228.407 328.113 227.532 326.543C226.657 324.973 225.384 323.661 223.84 322.741C218.135 319.615 193.719 313.072 193.719 313.072C193.719 313.072 169.303 306.53 162.761 306.527C160.964 306.552 159.205 307.051 157.662 307.973C156.119 308.896 154.847 310.209 153.974 311.78C151.197 317.675 148.967 323.813 147.312 330.116C145.572 336.447 144.422 342.926 143.876 349.469C143.903 351.225 144.383 352.945 145.269 354.462C146.156 355.979 147.418 357.241 148.935 358.127C154.601 361.396 179.018 367.938 179.018 367.938C179.018 367.938 203.434 374.48 209.975 374.483C211.772 374.458 213.531 373.959 215.074 373.037C216.617 372.115 217.889 370.802 218.762 369.23C221.518 363.379 223.735 357.289 225.387 351.036C227.126 344.705 228.276 338.226 228.823 331.683Z" stroke="#263141" stroke-width="2" stroke-linecap="round" stroke-linejoin="round"/>
<path d="M180.264 328.151C180.763 326.288 181.013 325.356 181.541 324.94C182.002 324.578 182.598 324.434 183.173 324.545C183.834 324.672 184.482 325.386 185.78 326.813L198.521 340.833C199.647 342.072 200.21 342.691 200.296 343.31C200.371 343.851 200.224 344.399 199.888 344.83C199.505 345.323 198.707 345.577 197.113 346.087L179.069 351.858C177.232 352.446 176.313 352.74 175.677 352.52C175.123 352.328 174.68 351.905 174.462 351.361C174.212 350.737 174.462 349.805 174.961 347.942L180.264 328.151Z" stroke="#263141" stroke-width="2" stroke-linecap="round" stroke-linejoin="round"/>
</g>
<g clip-path="url(#clip2_5549_45076)">
<path d="M99.6382 247.693C99.6545 246.711 99.4113 245.742 98.9332 244.884C98.4552 244.026 97.7592 243.31 96.9156 242.807C93.7986 241.099 80.4578 237.524 80.4578 237.524C80.4578 237.524 67.117 233.95 63.5428 233.948C62.5608 233.961 61.5998 234.234 60.7568 234.738C59.9139 235.242 59.2188 235.959 58.7419 236.818C57.2246 240.039 56.0059 243.393 55.1014 246.837C54.1511 250.296 53.5227 253.836 53.224 257.411C53.239 258.371 53.5013 259.31 53.9856 260.139C54.4698 260.968 55.1596 261.658 55.9882 262.142C59.0844 263.928 72.4252 267.502 72.4252 267.502C72.4252 267.502 85.766 271.077 89.3402 271.079C90.3223 271.065 91.2833 270.792 92.1262 270.288C92.9692 269.784 93.6642 269.067 94.1412 268.208C95.647 265.011 96.8585 261.684 97.7609 258.267C98.7112 254.808 99.3396 251.268 99.6382 247.693Z" stroke="#263141" stroke-width="2" stroke-linecap="round" stroke-linejoin="round"/>
<path d="M73.1062 245.763C73.379 244.745 73.5154 244.236 73.8043 244.009C74.056 243.811 74.3814 243.732 74.6959 243.793C75.0567 243.862 75.4112 244.252 76.1201 245.032L83.0817 252.692C83.6968 253.369 84.0044 253.708 84.0514 254.046C84.0924 254.341 84.0121 254.641 83.8289 254.876C83.6192 255.145 83.1836 255.285 82.3125 255.563L72.4534 258.716C71.4495 259.037 70.9475 259.198 70.6002 259.078C70.2975 258.973 70.0552 258.742 69.9362 258.445C69.7996 258.104 69.936 257.595 70.2087 256.576L73.1062 245.763Z" stroke="#263141" stroke-width="2" stroke-linecap="round" stroke-linejoin="round"/>
</g>
<g clip-path="url(#clip3_5549_45076)">
<path d="M299.765 126.31C298.54 125.96 297.244 125.94 296.009 126.251C294.774 126.562 293.643 127.193 292.729 128.081C289.543 131.413 280.587 146.926 280.587 146.926C280.587 146.926 271.63 162.439 270.428 166.916C270.116 168.151 270.135 169.446 270.483 170.671C270.832 171.897 271.497 173.008 272.413 173.894C275.939 176.876 279.731 179.529 283.742 181.818C287.756 184.169 291.98 186.145 296.359 187.719C297.566 188.023 298.831 188.009 300.032 187.681C301.233 187.353 302.328 186.72 303.213 185.844C306.49 182.565 315.446 167.052 315.446 167.052C315.446 167.052 324.403 151.539 325.605 147.062C325.917 145.827 325.898 144.531 325.55 143.306C325.201 142.081 324.536 140.969 323.62 140.084C320.121 137.124 316.359 134.489 312.382 132.212C308.367 129.86 304.143 127.885 299.765 126.31Z" stroke="#263141" stroke-width="2" stroke-linecap="round" stroke-linejoin="round"/>
<path d="M288.441 158.901C287.257 158.218 286.665 157.876 286.477 157.438C286.314 157.056 286.324 156.622 286.506 156.248C286.714 155.82 287.321 155.507 288.537 154.88L300.47 148.73C301.524 148.187 302.052 147.915 302.491 147.97C302.875 148.018 303.223 148.219 303.456 148.527C303.723 148.88 303.752 149.473 303.808 150.658L304.449 164.067C304.514 165.433 304.547 166.116 304.28 166.51C304.047 166.854 303.676 167.08 303.264 167.13C302.79 167.186 302.199 166.845 301.015 166.161L288.441 158.901Z" stroke="#263141" stroke-width="2" stroke-linecap="round" stroke-linejoin="round"/>
</g>
<path d="M196.775 209.6C196.631 209.024 196.338 208.497 195.925 208.072C195.512 207.646 194.994 207.337 194.424 207.176C192.339 206.667 184 206.667 184 206.667C184 206.667 175.661 206.667 173.576 207.224C173.006 207.385 172.488 207.695 172.075 208.12C171.662 208.546 171.369 209.073 171.225 209.648C170.843 211.764 170.657 213.91 170.667 216.06C170.654 218.226 170.84 220.389 171.225 222.52C171.383 223.078 171.683 223.585 172.095 223.992C172.507 224.4 173.017 224.694 173.576 224.847C175.661 225.405 184 225.405 184 225.405C184 225.405 192.339 225.405 194.424 224.847C194.994 224.686 195.512 224.377 195.925 223.951C196.338 223.526 196.631 222.998 196.775 222.423C197.154 220.323 197.34 218.194 197.332 216.06C197.346 213.894 197.159 211.731 196.775 209.6Z" stroke="#263141" stroke-width="2" stroke-linecap="round" stroke-linejoin="round"/>
<path d="M181 212.62C181 211.984 181 211.666 181.133 211.488C181.249 211.333 181.426 211.236 181.619 211.223C181.84 211.207 182.108 211.379 182.643 211.723L187.9 215.103C188.365 215.401 188.597 215.551 188.677 215.74C188.747 215.906 188.747 216.093 188.677 216.259C188.597 216.449 188.365 216.598 187.9 216.897L182.643 220.277C182.108 220.621 181.84 220.793 181.619 220.777C181.426 220.763 181.249 220.666 181.133 220.512C181 220.334 181 220.016 181 219.379V212.62Z" stroke="#263141" stroke-width="2" stroke-linecap="round" stroke-linejoin="round"/>
<g clip-path="url(#clip4_5549_45076)">
<path d="M65.1351 342.069C64.6266 341.764 64.0465 341.598 63.4536 341.589C62.8607 341.58 62.2759 341.728 61.7583 342.017C59.9242 343.131 54.0277 349.028 54.0277 349.028C54.0277 349.028 48.1312 354.924 47.0513 356.793C46.762 357.31 46.6144 357.895 46.6234 358.488C46.6324 359.081 46.7978 359.661 47.1027 360.17C48.3289 361.935 49.7146 363.585 51.2423 365.098C52.7643 366.639 54.4254 368.036 56.2046 369.272C56.711 369.553 57.2815 369.7 57.861 369.697C58.4405 369.694 59.0094 369.542 59.5129 369.254C61.3812 368.175 67.2778 362.278 67.2778 362.278C67.2778 362.278 73.1743 356.381 74.2542 354.513C74.5435 353.996 74.6911 353.411 74.6821 352.818C74.673 352.225 74.5077 351.645 74.2028 351.136C72.9857 349.384 71.6116 347.746 70.0975 346.243C68.5755 344.701 66.9143 343.304 65.1351 342.069Z" stroke="#263141" stroke-width="2" stroke-linecap="round" stroke-linejoin="round"/>
<path d="M56.1163 355.359C55.6663 354.909 55.4414 354.684 55.4098 354.465C55.3823 354.273 55.4392 354.079 55.5659 353.933C55.7112 353.765 56.0221 353.698 56.644 353.563L62.751 352.235C63.2906 352.118 63.5604 352.059 63.7514 352.137C63.9183 352.204 64.0506 352.337 64.1184 352.504C64.1959 352.695 64.1372 352.964 64.0199 353.504L62.6923 359.611C62.5571 360.233 62.4895 360.544 62.3219 360.689C62.1757 360.816 61.9818 360.873 61.7904 360.845C61.5707 360.814 61.3457 360.589 60.8958 360.139L56.1163 355.359Z" stroke="#263141" stroke-width="2" stroke-linecap="round" stroke-linejoin="round"/>
</g>
<g clip-path="url(#clip5_5549_45076)">
<path d="M25.6556 146.897C25.4307 146.492 25.1028 146.153 24.7052 145.916C24.3076 145.678 23.8543 145.549 23.391 145.543C21.7149 145.58 15.4221 147.266 15.4221 147.266C15.4221 147.266 9.12925 148.953 7.66878 149.795C7.27085 150.032 6.94255 150.37 6.71706 150.775C6.49156 151.179 6.37685 151.636 6.38452 152.1C6.5244 153.773 6.81754 155.431 7.26025 157.051C7.68796 158.688 8.26609 160.282 8.98728 161.813C9.21976 162.202 9.54851 162.524 9.94178 162.748C10.335 162.972 10.7795 163.092 11.2323 163.094C12.9182 163.093 19.211 161.407 19.211 161.407C19.211 161.407 25.5039 159.721 26.9643 158.878C27.3623 158.641 27.6906 158.303 27.9161 157.899C28.1416 157.494 28.2563 157.037 28.2486 156.574C28.1097 154.913 27.8199 153.268 27.3827 151.659C26.955 150.022 26.3768 148.428 25.6556 146.897Z" stroke="#263141" stroke-width="2" stroke-linecap="round" stroke-linejoin="round"/>
<path d="M14.3621 152.366C14.2334 151.886 14.169 151.646 14.2335 151.485C14.2896 151.344 14.4039 151.235 14.5467 151.186C14.7105 151.129 14.9473 151.205 15.4208 151.356L20.0714 152.844C20.4823 152.975 20.6877 153.041 20.7867 153.168C20.8731 153.279 20.9109 153.42 20.8916 153.56C20.8694 153.719 20.7244 153.879 20.4342 154.198L17.1504 157.811C16.816 158.179 16.6488 158.363 16.4786 158.396C16.3303 158.425 16.1768 158.387 16.0581 158.294C15.9218 158.187 15.8574 157.947 15.7288 157.467L14.3621 152.366Z" stroke="#263141" stroke-width="2" stroke-linecap="round" stroke-linejoin="round"/>
</g>
<g clip-path="url(#clip6_5549_45076)">
<path d="M44.4553 68.9226C45.2276 69.1432 46.0444 69.1562 46.8232 68.9602C47.6021 68.7642 48.3154 68.366 48.8912 67.8061C50.9002 65.7055 56.5475 55.924 56.5475 55.924C56.5475 55.924 62.1948 46.1425 62.9527 43.3196C63.1497 42.5409 63.1378 41.7241 62.9182 40.9516C62.6985 40.1791 62.2789 39.4782 61.7016 38.9197C59.4783 37.0394 57.0872 35.367 54.5583 33.9235C52.0268 32.4407 49.3637 31.1951 46.6029 30.2025C45.8416 30.0112 45.0439 30.0195 44.2868 30.2266C43.5296 30.4337 42.8387 30.8325 42.2808 31.3846C40.2149 33.4524 34.5676 43.2339 34.5676 43.2339C34.5676 43.2339 28.9203 53.0154 28.1624 55.8383C27.9654 56.6169 27.9773 57.4337 28.1969 58.2063C28.4166 58.9788 28.8362 59.6797 29.4135 60.2381C31.6201 62.1043 33.992 63.7656 36.4999 65.2015C39.0314 66.6843 41.6945 67.93 44.4553 68.9226Z" stroke="#263141" stroke-width="2" stroke-linecap="round" stroke-linejoin="round"/>
<path d="M51.5955 48.373C52.3419 48.804 52.7152 49.0194 52.8335 49.2957C52.9366 49.5365 52.93 49.8102 52.8156 50.0458C52.6842 50.3161 52.3011 50.5135 51.5349 50.9084L44.0105 54.7862C43.3457 55.1288 43.0133 55.3001 42.7363 55.2657C42.4942 55.2355 42.2746 55.1088 42.1275 54.9142C41.9592 54.6915 41.9413 54.318 41.9056 53.5709L41.5017 45.1157C41.4605 44.2547 41.44 43.8242 41.6084 43.5753C41.7552 43.3584 41.9889 43.2159 42.249 43.1848C42.5474 43.1491 42.9207 43.3646 43.6671 43.7956L51.5955 48.373Z" stroke="#263141" stroke-width="2" stroke-linecap="round" stroke-linejoin="round"/>
</g>
<g clip-path="url(#clip7_5549_45076)">
<path d="M270.591 58.7205C270.601 58.1276 270.454 57.5426 270.165 57.0246C269.877 56.5066 269.456 56.074 268.947 55.7704C267.065 54.7391 259.01 52.5808 259.01 52.5808C259.01 52.5808 250.956 50.4225 248.798 50.4215C248.205 50.4298 247.624 50.5943 247.115 50.8986C246.606 51.2029 246.187 51.6361 245.899 52.1544C244.983 54.0993 244.247 56.1241 243.701 58.2034C243.127 60.2921 242.748 62.4294 242.567 64.5879C242.576 65.1673 242.735 65.7347 243.027 66.235C243.319 66.7354 243.736 67.1519 244.236 67.4443C246.106 68.5224 254.16 70.6807 254.16 70.6807C254.16 70.6807 262.215 72.839 264.373 72.84C264.966 72.8318 265.546 72.6672 266.055 72.3629C266.564 72.0587 266.984 71.6255 267.272 71.1071C268.181 69.1769 268.913 67.1678 269.457 65.1049C270.031 63.0162 270.411 60.879 270.591 58.7205Z" stroke="#263141" stroke-width="2" stroke-linecap="round" stroke-linejoin="round"/>
<path d="M254.572 57.5553C254.736 56.9406 254.819 56.6332 254.993 56.496C255.145 56.3765 255.342 56.3289 255.531 56.3655C255.749 56.4075 255.963 56.643 256.391 57.1139L260.595 61.739C260.966 62.1476 261.152 62.352 261.18 62.5561C261.205 62.7345 261.156 62.9153 261.046 63.0574C260.919 63.22 260.656 63.3041 260.13 63.4723L254.177 65.3761C253.571 65.57 253.268 65.6669 253.059 65.5943C252.876 65.5311 252.73 65.3916 252.658 65.2121C252.575 65.0061 252.658 64.6988 252.822 64.0841L254.572 57.5553Z" stroke="#263141" stroke-width="2" stroke-linecap="round" stroke-linejoin="round"/>
</g>
<g clip-path="url(#clip8_5549_45076)">
<path d="M454.885 307.738C454.013 306.167 452.74 304.853 451.198 303.931C449.655 303.009 447.896 302.51 446.099 302.485C439.595 302.63 415.179 309.172 415.179 309.172C415.179 309.172 390.763 315.715 385.096 318.983C383.552 319.903 382.279 321.214 381.404 322.784C380.529 324.355 380.084 326.128 380.113 327.925C380.656 334.419 381.794 340.85 383.511 347.136C385.171 353.489 387.414 359.674 390.212 365.614C391.114 367.121 392.39 368.371 393.916 369.241C395.441 370.112 397.166 370.574 398.923 370.583C405.464 370.58 429.88 364.038 429.88 364.038C429.88 364.038 454.296 357.495 459.963 354.227C461.507 353.307 462.781 351.996 463.656 350.425C464.531 348.855 464.976 347.082 464.946 345.285C464.407 338.84 463.283 332.457 461.586 326.216C459.927 319.863 457.684 313.678 454.885 307.738Z" stroke="#263141" stroke-width="2" stroke-linecap="round" stroke-linejoin="round"/>
<path d="M411.066 328.958C410.567 327.095 410.317 326.163 410.567 325.539C410.785 324.995 411.229 324.572 411.783 324.38C412.418 324.16 413.337 324.454 415.174 325.042L433.218 330.813C434.813 331.322 435.61 331.577 435.994 332.07C436.329 332.501 436.476 333.049 436.401 333.59C436.315 334.209 435.752 334.828 434.626 336.067L421.885 350.086C420.588 351.514 419.939 352.228 419.279 352.355C418.703 352.466 418.108 352.322 417.647 351.959C417.118 351.544 416.868 350.612 416.369 348.749L411.066 328.958Z" stroke="#263141" stroke-width="2" stroke-linecap="round" stroke-linejoin="round"/>
</g>
<g clip-path="url(#clip9_5549_45076)">
<path d="M579.765 346.31C578.54 345.96 577.244 345.94 576.009 346.251C574.774 346.562 573.643 347.193 572.729 348.081C569.543 351.413 560.587 366.926 560.587 366.926C560.587 366.926 551.63 382.439 550.428 386.916C550.116 388.151 550.135 389.446 550.483 390.671C550.832 391.897 551.497 393.008 552.413 393.894C555.939 396.876 559.731 399.529 563.742 401.818C567.756 404.169 571.98 406.145 576.359 407.719C577.566 408.023 578.831 408.009 580.032 407.681C581.233 407.353 582.328 406.72 583.213 405.844C586.49 402.565 595.446 387.052 595.446 387.052C595.446 387.052 604.403 371.539 605.605 367.062C605.917 365.827 605.898 364.531 605.55 363.306C605.201 362.081 604.536 360.969 603.62 360.084C600.121 357.124 596.359 354.489 592.382 352.212C588.367 349.86 584.143 347.885 579.765 346.31Z" stroke="#263141" stroke-width="2" stroke-linecap="round" stroke-linejoin="round"/>
<path d="M568.441 378.901C567.257 378.218 566.665 377.876 566.477 377.438C566.314 377.056 566.324 376.622 566.506 376.248C566.714 375.82 567.321 375.507 568.537 374.88L580.47 368.73C581.524 368.187 582.052 367.915 582.491 367.97C582.875 368.018 583.223 368.219 583.456 368.527C583.723 368.88 583.752 369.473 583.808 370.658L584.449 384.067C584.514 385.433 584.547 386.116 584.28 386.51C584.047 386.854 583.676 387.08 583.264 387.13C582.79 387.186 582.199 386.845 581.015 386.161L568.441 378.901Z" stroke="#263141" stroke-width="2" stroke-linecap="round" stroke-linejoin="round"/>
</g>
<g clip-path="url(#clip10_5549_45076)">
<path d="M305.656 366.897C305.431 366.492 305.103 366.153 304.705 365.916C304.308 365.678 303.854 365.549 303.391 365.543C301.715 365.58 295.422 367.266 295.422 367.266C295.422 367.266 289.129 368.953 287.669 369.795C287.271 370.032 286.943 370.37 286.717 370.775C286.492 371.179 286.377 371.636 286.385 372.1C286.524 373.773 286.818 375.431 287.26 377.051C287.688 378.688 288.266 380.282 288.987 381.813C289.22 382.202 289.549 382.524 289.942 382.748C290.335 382.972 290.78 383.092 291.232 383.094C292.918 383.093 299.211 381.407 299.211 381.407C299.211 381.407 305.504 379.721 306.964 378.878C307.362 378.641 307.691 378.303 307.916 377.899C308.142 377.494 308.256 377.037 308.249 376.574C308.11 374.913 307.82 373.268 307.383 371.659C306.955 370.022 306.377 368.428 305.656 366.897Z" stroke="#263141" stroke-width="2" stroke-linecap="round" stroke-linejoin="round"/>
<path d="M294.362 372.366C294.233 371.886 294.169 371.646 294.233 371.485C294.29 371.344 294.404 371.235 294.547 371.186C294.711 371.129 294.947 371.205 295.421 371.356L300.071 372.844C300.482 372.975 300.688 373.041 300.787 373.168C300.873 373.279 300.911 373.42 300.892 373.56C300.869 373.719 300.724 373.879 300.434 374.198L297.15 377.811C296.816 378.179 296.649 378.363 296.479 378.396C296.33 378.425 296.177 378.387 296.058 378.294C295.922 378.187 295.857 377.947 295.729 377.467L294.362 372.366Z" stroke="#263141" stroke-width="2" stroke-linecap="round" stroke-linejoin="round"/>
</g>
<g clip-path="url(#clip11_5549_45076)">
<path d="M324.455 288.923C325.228 289.143 326.044 289.156 326.823 288.96C327.602 288.764 328.315 288.366 328.891 287.806C330.9 285.705 336.548 275.924 336.548 275.924C336.548 275.924 342.195 266.143 342.953 263.32C343.15 262.541 343.138 261.724 342.918 260.952C342.699 260.179 342.279 259.478 341.702 258.92C339.478 257.039 337.087 255.367 334.558 253.924C332.027 252.441 329.364 251.195 326.603 250.202C325.842 250.011 325.044 250.02 324.287 250.227C323.53 250.434 322.839 250.833 322.281 251.385C320.215 253.452 314.568 263.234 314.568 263.234C314.568 263.234 308.92 273.015 308.162 275.838C307.965 276.617 307.977 277.434 308.197 278.206C308.417 278.979 308.836 279.68 309.413 280.238C311.62 282.104 313.992 283.766 316.5 285.202C319.031 286.684 321.695 287.93 324.455 288.923Z" stroke="#263141" stroke-width="2" stroke-linecap="round" stroke-linejoin="round"/>
<path d="M331.595 268.373C332.342 268.804 332.715 269.019 332.833 269.296C332.937 269.537 332.93 269.81 332.816 270.046C332.684 270.316 332.301 270.514 331.535 270.908L324.011 274.786C323.346 275.129 323.013 275.3 322.736 275.266C322.494 275.236 322.275 275.109 322.128 274.914C321.959 274.692 321.941 274.318 321.906 273.571L321.502 265.116C321.461 264.255 321.44 263.824 321.608 263.575C321.755 263.358 321.989 263.216 322.249 263.185C322.547 263.149 322.921 263.365 323.667 263.796L331.595 268.373Z" stroke="#263141" stroke-width="2" stroke-linecap="round" stroke-linejoin="round"/>
</g>
<g clip-path="url(#clip12_5549_45076)">
<path d="M550.591 278.72C550.601 278.128 550.454 277.543 550.165 277.025C549.877 276.507 549.456 276.074 548.947 275.77C547.065 274.739 539.01 272.581 539.01 272.581C539.01 272.581 530.956 270.423 528.798 270.422C528.205 270.43 527.624 270.594 527.115 270.899C526.606 271.203 526.187 271.636 525.899 272.154C524.983 274.099 524.247 276.124 523.701 278.203C523.127 280.292 522.748 282.429 522.567 284.588C522.576 285.167 522.735 285.735 523.027 286.235C523.319 286.735 523.736 287.152 524.236 287.444C526.106 288.522 534.16 290.681 534.16 290.681C534.16 290.681 542.215 292.839 544.373 292.84C544.966 292.832 545.546 292.667 546.055 292.363C546.564 292.059 546.984 291.625 547.272 291.107C548.181 289.177 548.913 287.168 549.457 285.105C550.031 283.016 550.411 280.879 550.591 278.72Z" stroke="#263141" stroke-width="2" stroke-linecap="round" stroke-linejoin="round"/>
<path d="M534.572 277.555C534.736 276.941 534.819 276.633 534.993 276.496C535.145 276.377 535.342 276.329 535.531 276.365C535.749 276.408 535.963 276.643 536.391 277.114L540.595 281.739C540.966 282.148 541.152 282.352 541.18 282.556C541.205 282.734 541.156 282.915 541.046 283.057C540.919 283.22 540.656 283.304 540.13 283.472L534.177 285.376C533.571 285.57 533.268 285.667 533.059 285.594C532.876 285.531 532.73 285.392 532.658 285.212C532.575 285.006 532.658 284.699 532.822 284.084L534.572 277.555Z" stroke="#263141" stroke-width="2" stroke-linecap="round" stroke-linejoin="round"/>
</g>
<g clip-path="url(#clip13_5549_45076)">
<path d="M598.823 161.683C598.852 159.886 598.407 158.112 597.532 156.542C596.657 154.972 595.384 153.661 593.84 152.74C588.135 149.614 563.719 143.072 563.719 143.072C563.719 143.072 539.303 136.53 532.761 136.527C530.964 136.552 529.205 137.05 527.662 137.973C526.119 138.895 524.847 140.208 523.974 141.779C521.197 147.675 518.967 153.813 517.312 160.116C515.572 166.447 514.422 172.925 513.876 179.468C513.903 181.225 514.383 182.945 515.269 184.461C516.156 185.978 517.418 187.241 518.935 188.127C524.601 191.395 549.018 197.937 549.018 197.937C549.018 197.937 573.434 204.48 579.975 204.483C581.772 204.458 583.531 203.959 585.074 203.037C586.617 202.114 587.889 200.801 588.762 199.23C591.518 193.379 593.735 187.289 595.387 181.036C597.126 174.704 598.276 168.226 598.823 161.683Z" stroke="#263141" stroke-width="2" stroke-linecap="round" stroke-linejoin="round"/>
<path d="M550.264 158.151C550.763 156.287 551.013 155.356 551.541 154.94C552.002 154.578 552.598 154.433 553.173 154.544C553.834 154.672 554.482 155.385 555.78 156.813L568.521 170.833C569.647 172.071 570.21 172.691 570.296 173.31C570.371 173.85 570.224 174.398 569.888 174.829C569.505 175.322 568.707 175.577 567.113 176.087L549.069 181.858C547.232 182.445 546.313 182.739 545.677 182.519C545.123 182.327 544.68 181.905 544.462 181.361C544.212 180.736 544.462 179.804 544.961 177.941L550.264 158.151Z" stroke="#263141" stroke-width="2" stroke-linecap="round" stroke-linejoin="round"/>
</g>
<g clip-path="url(#clip14_5549_45076)">
<path d="M469.638 77.693C469.654 76.711 469.411 75.7422 468.933 74.8842C468.455 74.0263 467.759 73.3098 466.916 72.8069C463.799 71.0988 450.458 67.5242 450.458 67.5242C450.458 67.5242 437.117 63.9495 433.543 63.9478C432.561 63.9615 431.6 64.2341 430.757 64.738C429.914 65.242 429.219 65.9595 428.742 66.818C427.225 70.0392 426.006 73.3928 425.101 76.8367C424.151 80.296 423.523 83.8359 423.224 87.4109C423.239 88.3706 423.501 89.3103 423.986 90.139C424.47 90.9677 425.16 91.6576 425.988 92.1419C429.084 93.9275 442.425 97.5022 442.425 97.5022C442.425 97.5022 455.766 101.077 459.34 101.079C460.322 101.065 461.283 100.792 462.126 100.288C462.969 99.7844 463.664 99.0669 464.141 98.2084C465.647 95.0114 466.859 91.684 467.761 88.2673C468.711 84.8079 469.34 81.2681 469.638 77.693Z" stroke="#263141" stroke-width="2" stroke-linecap="round" stroke-linejoin="round"/>
<path d="M443.106 75.7631C443.379 74.745 443.515 74.236 443.804 74.0088C444.056 73.8108 444.381 73.7319 444.696 73.7926C445.057 73.8622 445.411 74.2522 446.12 75.0322L453.082 82.6924C453.697 83.3692 454.004 83.7077 454.051 84.0458C454.092 84.3412 454.012 84.6407 453.829 84.876C453.619 85.1454 453.184 85.2847 452.312 85.5633L442.453 88.7164C441.449 89.0375 440.948 89.198 440.6 89.0778C440.298 88.9731 440.055 88.7421 439.936 88.4448C439.8 88.1036 439.936 87.5945 440.209 86.5764L443.106 75.7631Z" stroke="#263141" stroke-width="2" stroke-linecap="round" stroke-linejoin="round"/>
</g>
<g clip-path="url(#clip15_5549_45076)">
<path d="M689.765 -3.68952C688.54 -4.0395 687.244 -4.06008 686.009 -3.74917C684.774 -3.43827 683.643 -2.80689 682.729 -1.91882C679.543 1.41269 670.587 16.9258 670.587 16.9258C670.587 16.9258 661.63 32.4389 660.428 36.916C660.116 38.1508 660.135 39.4463 660.483 40.6715C660.832 41.8967 661.497 43.0083 662.413 43.8939C665.939 46.8761 669.731 49.5285 673.742 51.8178C677.756 54.1695 681.98 56.145 686.359 57.7192C687.566 58.0226 688.831 58.0094 690.032 57.681C691.233 57.3525 692.328 56.72 693.213 55.8444C696.49 52.5649 705.446 37.0518 705.446 37.0518C705.446 37.0518 714.403 21.5388 715.605 17.0616C715.917 15.8268 715.898 14.5314 715.55 13.3061C715.201 12.0809 714.536 10.9694 713.62 10.0837C710.121 7.1241 706.359 4.48931 702.382 2.21194C698.367 -0.139759 694.143 -2.11532 689.765 -3.68952Z" stroke="#263141" stroke-width="2" stroke-linecap="round" stroke-linejoin="round"/>
<path d="M678.441 28.9014C677.257 28.2179 676.665 27.8761 676.477 27.438C676.314 27.0561 676.324 26.622 676.506 26.2484C676.714 25.8197 677.321 25.5066 678.537 24.8803L690.47 18.7303C691.524 18.1869 692.052 17.9152 692.491 17.9699C692.875 18.0176 693.223 18.2187 693.456 18.5273C693.723 18.8804 693.752 19.4728 693.808 20.6577L694.449 34.0674C694.514 35.4328 694.547 36.1156 694.28 36.5103C694.047 36.8544 693.676 37.0804 693.264 37.1297C692.79 37.1863 692.199 36.8446 691.015 36.1611L678.441 28.9014Z" stroke="#263141" stroke-width="2" stroke-linecap="round" stroke-linejoin="round"/>
</g>
<path d="M566.775 39.5997C566.631 39.0245 566.338 38.4974 565.925 38.0718C565.512 37.6461 564.994 37.337 564.424 37.1756C562.339 36.6665 554 36.6665 554 36.6665C554 36.6665 545.661 36.6665 543.576 37.2241C543.006 37.3855 542.488 37.6946 542.075 38.1203C541.662 38.5459 541.369 39.0729 541.225 39.6482C540.843 41.7639 540.657 43.9101 540.667 46.06C540.654 48.226 540.84 50.3886 541.225 52.5202C541.383 53.0776 541.683 53.5846 542.095 53.9922C542.507 54.3999 543.017 54.6944 543.576 54.8474C545.661 55.4049 554 55.4049 554 55.4049C554 55.4049 562.339 55.4049 564.424 54.8474C564.994 54.686 565.512 54.3768 565.925 53.9512C566.338 53.5255 566.631 52.9985 566.775 52.4233C567.154 50.3235 567.34 48.1936 567.332 46.06C567.346 43.894 567.159 41.7313 566.775 39.5997Z" stroke="#263141" stroke-width="2" stroke-linecap="round" stroke-linejoin="round"/>
<path d="M551 42.6203C551 41.9839 551 41.6657 551.133 41.4881C551.249 41.3333 551.426 41.2364 551.619 41.2226C551.84 41.2068 552.108 41.3789 552.643 41.723L557.9 45.1026C558.365 45.4012 558.597 45.5505 558.677 45.7404C558.747 45.9062 558.747 46.0934 558.677 46.2593C558.597 46.4492 558.365 46.5985 557.9 46.8971L552.643 50.2767C552.108 50.6208 551.84 50.7928 551.619 50.777C551.426 50.7633 551.249 50.6664 551.133 50.5116C551 50.334 551 50.0158 551 49.3794V42.6203Z" stroke="#263141" stroke-width="2" stroke-linecap="round" stroke-linejoin="round"/>
<g clip-path="url(#clip16_5549_45076)">
<path d="M435.135 172.068C434.627 171.763 434.047 171.598 433.454 171.589C432.861 171.58 432.276 171.727 431.758 172.017C429.924 173.131 424.028 179.027 424.028 179.027C424.028 179.027 418.131 184.924 417.051 186.792C416.762 187.31 416.614 187.895 416.623 188.488C416.632 189.081 416.798 189.661 417.103 190.169C418.329 191.935 419.715 193.585 421.242 195.097C422.764 196.638 424.425 198.036 426.205 199.271C426.711 199.553 427.281 199.699 427.861 199.696C428.44 199.693 429.009 199.541 429.513 199.254C431.381 198.174 437.278 192.278 437.278 192.278C437.278 192.278 443.174 186.381 444.254 184.513C444.544 183.995 444.691 183.41 444.682 182.817C444.673 182.224 444.508 181.644 444.203 181.136C442.986 179.383 441.612 177.745 440.097 176.242C438.575 174.701 436.914 173.304 435.135 172.068Z" stroke="#263141" stroke-width="2" stroke-linecap="round" stroke-linejoin="round"/>
<path d="M426.116 185.359C425.666 184.909 425.441 184.684 425.41 184.464C425.382 184.273 425.439 184.079 425.566 183.933C425.711 183.765 426.022 183.697 426.644 183.562L432.751 182.235C433.291 182.117 433.56 182.059 433.751 182.136C433.918 182.204 434.051 182.336 434.118 182.503C434.196 182.694 434.137 182.964 434.02 183.503L432.692 189.611C432.557 190.232 432.49 190.543 432.322 190.689C432.176 190.815 431.982 190.872 431.79 190.845C431.571 190.813 431.346 190.588 430.896 190.138L426.116 185.359Z" stroke="#263141" stroke-width="2" stroke-linecap="round" stroke-linejoin="round"/>
</g>
<g clip-path="url(#clip17_5549_45076)">
<path d="M375.656 16.8967C375.431 16.4917 375.103 16.1533 374.705 15.9156C374.308 15.6778 373.854 15.5493 373.391 15.5428C371.715 15.5802 365.422 17.2664 365.422 17.2664C365.422 17.2664 359.129 18.9525 357.669 19.7948C357.271 20.032 356.943 20.37 356.717 20.7747C356.492 21.1794 356.377 21.6364 356.385 22.0996C356.524 23.7733 356.818 25.4307 357.26 27.0508C357.688 28.6881 358.266 30.2824 358.987 31.8132C359.22 32.2017 359.549 32.5237 359.942 32.748C360.335 32.9724 360.78 33.0915 361.232 33.0939C362.918 33.0931 369.211 31.4069 369.211 31.4069C369.211 31.4069 375.504 29.7208 376.964 28.8785C377.362 28.6413 377.691 28.3033 377.916 27.8986C378.142 27.4939 378.256 27.0369 378.249 26.5737C378.11 24.9126 377.82 23.2676 377.383 21.6591C376.955 20.0218 376.377 18.4275 375.656 16.8967Z" stroke="#263141" stroke-width="2" stroke-linecap="round" stroke-linejoin="round"/>
<path d="M364.362 22.3659C364.233 21.8856 364.169 21.6455 364.233 21.4846C364.29 21.3443 364.404 21.2354 364.547 21.186C364.711 21.1293 364.947 21.205 365.421 21.3565L370.071 22.8438C370.482 22.9752 370.688 23.0409 370.787 23.168C370.873 23.279 370.911 23.4202 370.892 23.5596C370.869 23.7191 370.724 23.8787 370.434 24.198L367.15 27.8113C366.816 28.1792 366.649 28.3632 366.479 28.396C366.33 28.4246 366.177 28.3874 366.058 28.294C365.922 28.1868 365.857 27.9467 365.729 27.4665L364.362 22.3659Z" stroke="#263141" stroke-width="2" stroke-linecap="round" stroke-linejoin="round"/>
</g>
<g clip-path="url(#clip18_5549_45076)">
<path d="M154.315 14.9226C155.087 15.1432 155.904 15.1562 156.683 14.9602C157.461 14.7642 158.175 14.366 158.751 13.8061C160.76 11.7055 166.407 1.92399 166.407 1.92399C166.407 1.92399 172.054 -7.85749 172.812 -10.6804C173.009 -11.4591 172.997 -12.2759 172.778 -13.0484C172.558 -13.8209 172.138 -14.5218 171.561 -15.0803C169.338 -16.9606 166.947 -18.633 164.418 -20.0765C161.886 -21.5593 159.223 -22.8049 156.462 -23.7975C155.701 -23.9888 154.903 -23.9805 154.146 -23.7734C153.389 -23.5663 152.698 -23.1675 152.14 -22.6154C150.074 -20.5476 144.427 -10.7661 144.427 -10.7661C144.427 -10.7661 138.78 -0.984632 138.022 1.83832C137.825 2.61693 137.837 3.43375 138.056 4.20628C138.276 4.97881 138.696 5.6797 139.273 6.23814C141.479 8.10425 143.851 9.76557 146.359 11.2015C148.891 12.6843 151.554 13.93 154.315 14.9226Z" stroke="#263141" stroke-width="2" stroke-linecap="round" stroke-linejoin="round"/>
<path d="M161.455 -5.62701C162.201 -5.19604 162.575 -4.98055 162.693 -4.70426C162.796 -4.46348 162.789 -4.1898 162.675 -3.95421C162.544 -3.68388 162.161 -3.48645 161.394 -3.09159L153.87 0.786181C153.205 1.12882 152.873 1.30014 152.596 1.26566C152.354 1.23554 152.134 1.10877 151.987 0.914212C151.819 0.691542 151.801 0.317993 151.765 -0.429106L151.361 -8.88431C151.32 -9.74527 151.299 -10.1758 151.468 -10.4247C151.615 -10.6416 151.848 -10.7841 152.108 -10.8152C152.407 -10.8509 152.78 -10.6354 153.527 -10.2044L161.455 -5.62701Z" stroke="#263141" stroke-width="2" stroke-linecap="round" stroke-linejoin="round"/>
</g>
<g clip-path="url(#clip19_5549_45076)">
<path d="M814.885 207.738C814.013 206.167 812.74 204.853 811.198 203.931C809.655 203.009 807.896 202.51 806.099 202.485C799.595 202.63 775.179 209.172 775.179 209.172C775.179 209.172 750.763 215.715 745.096 218.983C743.552 219.903 742.279 221.214 741.404 222.784C740.529 224.355 740.084 226.128 740.113 227.925C740.656 234.419 741.794 240.85 743.511 247.136C745.171 253.489 747.414 259.674 750.212 265.614C751.114 267.121 752.39 268.371 753.916 269.241C755.441 270.112 757.166 270.574 758.923 270.583C765.464 270.58 789.88 264.038 789.88 264.038C789.88 264.038 814.296 257.495 819.963 254.227C821.507 253.307 822.781 251.996 823.656 250.425C824.531 248.855 824.976 247.082 824.946 245.285C824.407 238.84 823.283 232.457 821.586 226.216C819.927 219.863 817.684 213.678 814.885 207.738Z" stroke="#263141" stroke-width="2" stroke-linecap="round" stroke-linejoin="round"/>
<path d="M771.066 228.958C770.567 227.095 770.317 226.163 770.567 225.539C770.785 224.995 771.229 224.572 771.783 224.38C772.418 224.16 773.337 224.454 775.174 225.042L793.218 230.813C794.813 231.322 795.61 231.577 795.994 232.07C796.329 232.501 796.476 233.049 796.401 233.59C796.315 234.209 795.752 234.828 794.626 236.067L781.885 250.086C780.588 251.514 779.939 252.228 779.279 252.355C778.703 252.466 778.108 252.322 777.647 251.959C777.118 251.544 776.868 250.612 776.369 248.749L771.066 228.958Z" stroke="#263141" stroke-width="2" stroke-linecap="round" stroke-linejoin="round"/>
</g>
<g clip-path="url(#clip20_5549_45076)">
<path d="M739.638 367.693C739.654 366.711 739.411 365.742 738.933 364.884C738.455 364.026 737.759 363.31 736.916 362.807C733.799 361.099 720.458 357.524 720.458 357.524C720.458 357.524 707.117 353.95 703.543 353.948C702.561 353.961 701.6 354.234 700.757 354.738C699.914 355.242 699.219 355.959 698.742 356.818C697.225 360.039 696.006 363.393 695.101 366.837C694.151 370.296 693.523 373.836 693.224 377.411C693.239 378.371 693.501 379.31 693.986 380.139C694.47 380.968 695.16 381.658 695.988 382.142C699.084 383.928 712.425 387.502 712.425 387.502C712.425 387.502 725.766 391.077 729.34 391.079C730.322 391.065 731.283 390.792 732.126 390.288C732.969 389.784 733.664 389.067 734.141 388.208C735.647 385.011 736.859 381.684 737.761 378.267C738.711 374.808 739.34 371.268 739.638 367.693Z" stroke="#263141" stroke-width="2" stroke-linecap="round" stroke-linejoin="round"/>
<path d="M713.106 365.763C713.379 364.745 713.515 364.236 713.804 364.009C714.056 363.811 714.381 363.732 714.696 363.793C715.057 363.862 715.411 364.252 716.12 365.032L723.082 372.692C723.697 373.369 724.004 373.708 724.051 374.046C724.092 374.341 724.012 374.641 723.829 374.876C723.619 375.145 723.184 375.285 722.312 375.563L712.453 378.716C711.449 379.037 710.948 379.198 710.6 379.078C710.298 378.973 710.055 378.742 709.936 378.445C709.8 378.104 709.936 377.595 710.209 376.576L713.106 365.763Z" stroke="#263141" stroke-width="2" stroke-linecap="round" stroke-linejoin="round"/>
</g>
<g clip-path="url(#clip21_5549_45076)">
<path d="M939.765 246.31C938.54 245.96 937.244 245.94 936.009 246.251C934.774 246.562 933.643 247.193 932.729 248.081C929.543 251.413 920.587 266.926 920.587 266.926C920.587 266.926 911.63 282.439 910.428 286.916C910.116 288.151 910.135 289.446 910.483 290.671C910.832 291.897 911.497 293.008 912.413 293.894C915.939 296.876 919.731 299.529 923.742 301.818C927.756 304.169 931.98 306.145 936.359 307.719C937.566 308.023 938.831 308.009 940.032 307.681C941.233 307.353 942.328 306.72 943.213 305.844C946.49 302.565 955.446 287.052 955.446 287.052C955.446 287.052 964.403 271.539 965.605 267.062C965.917 265.827 965.898 264.531 965.55 263.306C965.201 262.081 964.536 260.969 963.62 260.084C960.121 257.124 956.359 254.489 952.382 252.212C948.367 249.86 944.143 247.885 939.765 246.31Z" stroke="#263141" stroke-width="2" stroke-linecap="round" stroke-linejoin="round"/>
<path d="M928.441 278.901C927.257 278.218 926.665 277.876 926.477 277.438C926.314 277.056 926.324 276.622 926.506 276.248C926.714 275.82 927.321 275.507 928.537 274.88L940.47 268.73C941.524 268.187 942.052 267.915 942.491 267.97C942.875 268.018 943.223 268.219 943.456 268.527C943.723 268.88 943.752 269.473 943.808 270.658L944.449 284.067C944.514 285.433 944.547 286.116 944.28 286.51C944.047 286.854 943.676 287.08 943.264 287.13C942.79 287.186 942.199 286.845 941.015 286.161L928.441 278.901Z" stroke="#263141" stroke-width="2" stroke-linecap="round" stroke-linejoin="round"/>
</g>
<path d="M836.775 329.6C836.631 329.024 836.338 328.497 835.925 328.072C835.512 327.646 834.994 327.337 834.424 327.176C832.339 326.667 824 326.667 824 326.667C824 326.667 815.661 326.667 813.576 327.224C813.006 327.385 812.488 327.695 812.075 328.12C811.662 328.546 811.369 329.073 811.225 329.648C810.843 331.764 810.657 333.91 810.667 336.06C810.654 338.226 810.84 340.389 811.225 342.52C811.383 343.078 811.683 343.585 812.095 343.992C812.507 344.4 813.017 344.694 813.576 344.847C815.661 345.405 824 345.405 824 345.405C824 345.405 832.339 345.405 834.424 344.847C834.994 344.686 835.512 344.377 835.925 343.951C836.338 343.526 836.631 342.998 836.775 342.423C837.154 340.323 837.34 338.194 837.332 336.06C837.346 333.894 837.159 331.731 836.775 329.6Z" stroke="#263141" stroke-width="2" stroke-linecap="round" stroke-linejoin="round"/>
<path d="M821 332.62C821 331.984 821 331.666 821.133 331.488C821.249 331.333 821.426 331.236 821.619 331.223C821.84 331.207 822.108 331.379 822.643 331.723L827.9 335.103C828.365 335.401 828.597 335.551 828.677 335.74C828.747 335.906 828.747 336.093 828.677 336.259C828.597 336.449 828.365 336.598 827.9 336.897L822.643 340.277C822.108 340.621 821.84 340.793 821.619 340.777C821.426 340.763 821.249 340.666 821.133 340.512C821 340.334 821 340.016 821 339.379V332.62Z" stroke="#263141" stroke-width="2" stroke-linecap="round" stroke-linejoin="round"/>
<g clip-path="url(#clip22_5549_45076)">
<path d="M665.656 266.897C665.431 266.492 665.103 266.153 664.705 265.916C664.308 265.678 663.854 265.549 663.391 265.543C661.715 265.58 655.422 267.266 655.422 267.266C655.422 267.266 649.129 268.953 647.669 269.795C647.271 270.032 646.943 270.37 646.717 270.775C646.492 271.179 646.377 271.636 646.385 272.1C646.524 273.773 646.818 275.431 647.26 277.051C647.688 278.688 648.266 280.282 648.987 281.813C649.22 282.202 649.549 282.524 649.942 282.748C650.335 282.972 650.78 283.092 651.232 283.094C652.918 283.093 659.211 281.407 659.211 281.407C659.211 281.407 665.504 279.721 666.964 278.878C667.362 278.641 667.691 278.303 667.916 277.899C668.142 277.494 668.256 277.037 668.249 276.574C668.11 274.913 667.82 273.268 667.383 271.659C666.955 270.022 666.377 268.428 665.656 266.897Z" stroke="#263141" stroke-width="2" stroke-linecap="round" stroke-linejoin="round"/>
<path d="M654.362 272.366C654.233 271.886 654.169 271.646 654.233 271.485C654.29 271.344 654.404 271.235 654.547 271.186C654.711 271.129 654.947 271.205 655.421 271.356L660.071 272.844C660.482 272.975 660.688 273.041 660.787 273.168C660.873 273.279 660.911 273.42 660.892 273.56C660.869 273.719 660.724 273.879 660.434 274.198L657.15 277.811C656.816 278.179 656.649 278.363 656.479 278.396C656.33 278.425 656.177 278.387 656.058 278.294C655.922 278.187 655.857 277.947 655.729 277.467L654.362 272.366Z" stroke="#263141" stroke-width="2" stroke-linecap="round" stroke-linejoin="round"/>
</g>
<g clip-path="url(#clip23_5549_45076)">
<path d="M684.455 188.923C685.228 189.143 686.044 189.156 686.823 188.96C687.602 188.764 688.315 188.366 688.891 187.806C690.9 185.705 696.548 175.924 696.548 175.924C696.548 175.924 702.195 166.143 702.953 163.32C703.15 162.541 703.138 161.724 702.918 160.952C702.699 160.179 702.279 159.478 701.702 158.92C699.478 157.039 697.087 155.367 694.558 153.924C692.027 152.441 689.364 151.195 686.603 150.202C685.842 150.011 685.044 150.02 684.287 150.227C683.53 150.434 682.839 150.833 682.281 151.385C680.215 153.452 674.568 163.234 674.568 163.234C674.568 163.234 668.92 173.015 668.162 175.838C667.965 176.617 667.977 177.434 668.197 178.206C668.417 178.979 668.836 179.68 669.413 180.238C671.62 182.104 673.992 183.766 676.5 185.202C679.031 186.684 681.695 187.93 684.455 188.923Z" stroke="#263141" stroke-width="2" stroke-linecap="round" stroke-linejoin="round"/>
<path d="M691.595 168.373C692.342 168.804 692.715 169.019 692.833 169.296C692.937 169.537 692.93 169.81 692.816 170.046C692.684 170.316 692.301 170.514 691.535 170.908L684.011 174.786C683.346 175.129 683.013 175.3 682.736 175.266C682.494 175.236 682.275 175.109 682.128 174.914C681.959 174.692 681.941 174.318 681.906 173.571L681.502 165.116C681.461 164.255 681.44 163.824 681.608 163.575C681.755 163.358 681.989 163.216 682.249 163.185C682.547 163.149 682.921 163.365 683.667 163.796L691.595 168.373Z" stroke="#263141" stroke-width="2" stroke-linecap="round" stroke-linejoin="round"/>
</g>
<g clip-path="url(#clip24_5549_45076)">
<path d="M910.591 178.72C910.601 178.128 910.454 177.543 910.165 177.025C909.877 176.507 909.456 176.074 908.947 175.77C907.065 174.739 899.01 172.581 899.01 172.581C899.01 172.581 890.956 170.423 888.798 170.422C888.205 170.43 887.624 170.594 887.115 170.899C886.606 171.203 886.187 171.636 885.899 172.154C884.983 174.099 884.247 176.124 883.701 178.203C883.127 180.292 882.748 182.429 882.567 184.588C882.576 185.167 882.735 185.735 883.027 186.235C883.319 186.735 883.736 187.152 884.236 187.444C886.106 188.522 894.16 190.681 894.16 190.681C894.16 190.681 902.215 192.839 904.373 192.84C904.966 192.832 905.546 192.667 906.055 192.363C906.564 192.059 906.984 191.625 907.272 191.107C908.181 189.177 908.913 187.168 909.457 185.105C910.031 183.016 910.411 180.879 910.591 178.72Z" stroke="#263141" stroke-width="2" stroke-linecap="round" stroke-linejoin="round"/>
<path d="M894.572 177.555C894.736 176.941 894.819 176.633 894.993 176.496C895.145 176.377 895.342 176.329 895.531 176.365C895.749 176.408 895.963 176.643 896.391 177.114L900.595 181.739C900.966 182.148 901.152 182.352 901.18 182.556C901.205 182.734 901.156 182.915 901.046 183.057C900.919 183.22 900.656 183.304 900.13 183.472L894.177 185.376C893.571 185.57 893.268 185.667 893.059 185.594C892.876 185.531 892.73 185.392 892.658 185.212C892.575 185.006 892.658 184.699 892.822 184.084L894.572 177.555Z" stroke="#263141" stroke-width="2" stroke-linecap="round" stroke-linejoin="round"/>
</g>
<g clip-path="url(#clip25_5549_45076)">
<path d="M964.455 408.923C965.228 409.143 966.044 409.156 966.823 408.96C967.602 408.764 968.315 408.366 968.891 407.806C970.9 405.705 976.548 395.924 976.548 395.924C976.548 395.924 982.195 386.143 982.953 383.32C983.15 382.541 983.138 381.724 982.918 380.952C982.699 380.179 982.279 379.478 981.702 378.92C979.478 377.039 977.087 375.367 974.558 373.924C972.027 372.441 969.364 371.195 966.603 370.202C965.842 370.011 965.044 370.02 964.287 370.227C963.53 370.434 962.839 370.833 962.281 371.385C960.215 373.452 954.568 383.234 954.568 383.234C954.568 383.234 948.92 393.015 948.162 395.838C947.965 396.617 947.977 397.434 948.197 398.206C948.417 398.979 948.836 399.68 949.413 400.238C951.62 402.104 953.992 403.766 956.5 405.202C959.031 406.684 961.695 407.93 964.455 408.923Z" stroke="#263141" stroke-width="2" stroke-linecap="round" stroke-linejoin="round"/>
<path d="M971.595 388.373C972.342 388.804 972.715 389.019 972.833 389.296C972.937 389.537 972.93 389.81 972.816 390.046C972.684 390.316 972.301 390.514 971.535 390.908L964.011 394.786C963.346 395.129 963.013 395.3 962.736 395.266C962.494 395.236 962.275 395.109 962.128 394.914C961.959 394.692 961.941 394.318 961.906 393.571L961.502 385.116C961.461 384.255 961.44 383.824 961.608 383.575C961.755 383.358 961.989 383.216 962.249 383.185C962.547 383.149 962.921 383.365 963.667 383.796L971.595 388.373Z" stroke="#263141" stroke-width="2" stroke-linecap="round" stroke-linejoin="round"/>
</g>
<g clip-path="url(#clip26_5549_45076)">
<path d="M1170.59 388.72C1170.6 388.128 1170.45 387.543 1170.17 387.025C1169.88 386.507 1169.46 386.074 1168.95 385.77C1167.07 384.739 1159.01 382.581 1159.01 382.581C1159.01 382.581 1150.96 380.423 1148.8 380.422C1148.2 380.43 1147.62 380.594 1147.12 380.899C1146.61 381.203 1146.19 381.636 1145.9 382.154C1144.98 384.099 1144.25 386.124 1143.7 388.203C1143.13 390.292 1142.75 392.429 1142.57 394.588C1142.58 395.167 1142.73 395.735 1143.03 396.235C1143.32 396.735 1143.74 397.152 1144.24 397.444C1146.11 398.522 1154.16 400.681 1154.16 400.681C1154.16 400.681 1162.22 402.839 1164.37 402.84C1164.97 402.832 1165.55 402.667 1166.06 402.363C1166.56 402.059 1166.98 401.625 1167.27 401.107C1168.18 399.177 1168.91 397.168 1169.46 395.105C1170.03 393.016 1170.41 390.879 1170.59 388.72Z" stroke="#263141" stroke-width="2" stroke-linecap="round" stroke-linejoin="round"/>
<path d="M1154.57 387.555C1154.74 386.941 1154.82 386.633 1154.99 386.496C1155.15 386.377 1155.34 386.329 1155.53 386.365C1155.75 386.408 1155.96 386.643 1156.39 387.114L1160.59 391.739C1160.97 392.148 1161.15 392.352 1161.18 392.556C1161.2 392.734 1161.16 392.915 1161.05 393.057C1160.92 393.22 1160.66 393.304 1160.13 393.472L1154.18 395.376C1153.57 395.57 1153.27 395.667 1153.06 395.594C1152.88 395.531 1152.73 395.392 1152.66 395.212C1152.58 395.006 1152.66 394.699 1152.82 394.084L1154.57 387.555Z" stroke="#263141" stroke-width="2" stroke-linecap="round" stroke-linejoin="round"/>
</g>
<g clip-path="url(#clip27_5549_45076)">
<path d="M1184.89 37.7378C1184.01 36.1665 1182.74 34.8534 1181.2 33.9311C1179.65 33.0087 1177.9 32.5099 1176.1 32.4849C1169.6 32.6299 1145.18 39.1722 1145.18 39.1722C1145.18 39.1722 1120.76 45.7145 1115.1 48.9825C1113.55 49.9028 1112.28 51.2143 1111.4 52.7845C1110.53 54.3546 1110.08 56.1278 1110.11 57.925C1110.66 64.4191 1111.79 70.8497 1113.51 77.1359C1115.17 83.4886 1117.41 89.6742 1120.21 95.614C1121.11 97.1214 1122.39 98.3706 1123.92 99.2411C1125.44 100.112 1127.17 100.574 1128.92 100.583C1135.46 100.58 1159.88 94.0376 1159.88 94.0376C1159.88 94.0376 1184.3 87.4953 1189.96 84.2273C1191.51 83.307 1192.78 81.9955 1193.66 80.4254C1194.53 78.8552 1194.98 77.082 1194.95 75.2848C1194.41 68.8397 1193.28 62.457 1191.59 56.2158C1189.93 49.8632 1187.68 43.6775 1184.89 37.7378Z" stroke="#263141" stroke-width="2" stroke-linecap="round" stroke-linejoin="round"/>
<path d="M1141.07 58.9583C1140.57 57.095 1140.32 56.1633 1140.57 55.5389C1140.79 54.9947 1141.23 54.5719 1141.78 54.3803C1142.42 54.1603 1143.34 54.4541 1145.17 55.0418L1163.22 60.8126C1164.81 61.3225 1165.61 61.5774 1165.99 62.0704C1166.33 62.5011 1166.48 63.0492 1166.4 63.5899C1166.31 64.2087 1165.75 64.8281 1164.63 66.0668L1151.89 80.0865C1150.59 81.514 1149.94 82.2278 1149.28 82.3552C1148.7 82.4662 1148.11 82.3218 1147.65 81.9594C1147.12 81.5437 1146.87 80.612 1146.37 78.7487L1141.07 58.9583Z" stroke="#263141" stroke-width="2" stroke-linecap="round" stroke-linejoin="round"/>
</g>
<g clip-path="url(#clip28_5549_45076)">
<path d="M1238.82 281.683C1238.85 279.886 1238.41 278.113 1237.53 276.543C1236.66 274.973 1235.38 273.661 1233.84 272.741C1228.13 269.615 1203.72 263.072 1203.72 263.072C1203.72 263.072 1179.3 256.53 1172.76 256.527C1170.96 256.552 1169.2 257.051 1167.66 257.973C1166.12 258.896 1164.85 260.209 1163.97 261.78C1161.2 267.675 1158.97 273.813 1157.31 280.116C1155.57 286.447 1154.42 292.926 1153.88 299.469C1153.9 301.225 1154.38 302.945 1155.27 304.462C1156.16 305.979 1157.42 307.241 1158.93 308.127C1164.6 311.396 1189.02 317.938 1189.02 317.938C1189.02 317.938 1213.43 324.48 1219.98 324.483C1221.77 324.458 1223.53 323.959 1225.07 323.037C1226.62 322.115 1227.89 320.802 1228.76 319.23C1231.52 313.379 1233.74 307.289 1235.39 301.036C1237.13 294.705 1238.28 288.226 1238.82 281.683Z" stroke="#263141" stroke-width="2" stroke-linecap="round" stroke-linejoin="round"/>
<path d="M1190.26 278.151C1190.76 276.288 1191.01 275.356 1191.54 274.94C1192 274.578 1192.6 274.434 1193.17 274.545C1193.83 274.672 1194.48 275.386 1195.78 276.813L1208.52 290.833C1209.65 292.072 1210.21 292.691 1210.3 293.31C1210.37 293.851 1210.22 294.399 1209.89 294.83C1209.5 295.323 1208.71 295.577 1207.11 296.087L1189.07 301.858C1187.23 302.446 1186.31 302.74 1185.68 302.52C1185.12 302.328 1184.68 301.905 1184.46 301.361C1184.21 300.737 1184.46 299.805 1184.96 297.942L1190.26 278.151Z" stroke="#263141" stroke-width="2" stroke-linecap="round" stroke-linejoin="round"/>
</g>
<g clip-path="url(#clip29_5549_45076)">
<path d="M1109.64 197.693C1109.65 196.711 1109.41 195.742 1108.93 194.884C1108.46 194.026 1107.76 193.31 1106.92 192.807C1103.8 191.099 1090.46 187.524 1090.46 187.524C1090.46 187.524 1077.12 183.95 1073.54 183.948C1072.56 183.961 1071.6 184.234 1070.76 184.738C1069.91 185.242 1069.22 185.959 1068.74 186.818C1067.22 190.039 1066.01 193.393 1065.1 196.837C1064.15 200.296 1063.52 203.836 1063.22 207.411C1063.24 208.371 1063.5 209.31 1063.99 210.139C1064.47 210.968 1065.16 211.658 1065.99 212.142C1069.08 213.928 1082.43 217.502 1082.43 217.502C1082.43 217.502 1095.77 221.077 1099.34 221.079C1100.32 221.065 1101.28 220.792 1102.13 220.288C1102.97 219.784 1103.66 219.067 1104.14 218.208C1105.65 215.011 1106.86 211.684 1107.76 208.267C1108.71 204.808 1109.34 201.268 1109.64 197.693Z" stroke="#263141" stroke-width="2" stroke-linecap="round" stroke-linejoin="round"/>
<path d="M1083.11 195.763C1083.38 194.745 1083.52 194.236 1083.8 194.009C1084.06 193.811 1084.38 193.732 1084.7 193.793C1085.06 193.862 1085.41 194.252 1086.12 195.032L1093.08 202.692C1093.7 203.369 1094 203.708 1094.05 204.046C1094.09 204.341 1094.01 204.641 1093.83 204.876C1093.62 205.145 1093.18 205.285 1092.31 205.563L1082.45 208.716C1081.45 209.037 1080.95 209.198 1080.6 209.078C1080.3 208.973 1080.06 208.742 1079.94 208.445C1079.8 208.104 1079.94 207.595 1080.21 206.576L1083.11 195.763Z" stroke="#263141" stroke-width="2" stroke-linecap="round" stroke-linejoin="round"/>
</g>
<g clip-path="url(#clip30_5549_45076)">
<path d="M1299.76 86.3105C1298.54 85.9605 1297.24 85.9399 1296.01 86.2508C1294.77 86.5617 1293.64 87.1931 1292.73 88.0812C1289.54 91.4127 1280.59 106.926 1280.59 106.926C1280.59 106.926 1271.63 122.439 1270.43 126.916C1270.12 128.151 1270.13 129.446 1270.48 130.671C1270.83 131.897 1271.5 133.008 1272.41 133.894C1275.94 136.876 1279.73 139.529 1283.74 141.818C1287.76 144.169 1291.98 146.145 1296.36 147.719C1297.57 148.023 1298.83 148.009 1300.03 147.681C1301.23 147.353 1302.33 146.72 1303.21 145.844C1306.49 142.565 1315.45 127.052 1315.45 127.052C1315.45 127.052 1324.4 111.539 1325.6 107.062C1325.92 105.827 1325.9 104.531 1325.55 103.306C1325.2 102.081 1324.54 100.969 1323.62 100.084C1320.12 97.1241 1316.36 94.4893 1312.38 92.2119C1308.37 89.8602 1304.14 87.8847 1299.76 86.3105Z" stroke="#263141" stroke-width="2" stroke-linecap="round" stroke-linejoin="round"/>
<path d="M1288.44 118.901C1287.26 118.218 1286.66 117.876 1286.48 117.438C1286.31 117.056 1286.32 116.622 1286.51 116.248C1286.71 115.82 1287.32 115.507 1288.54 114.88L1300.47 108.73C1301.52 108.187 1302.05 107.915 1302.49 107.97C1302.87 108.018 1303.22 108.219 1303.46 108.527C1303.72 108.88 1303.75 109.473 1303.81 110.658L1304.45 124.067C1304.51 125.433 1304.55 126.116 1304.28 126.51C1304.05 126.854 1303.68 127.08 1303.26 127.13C1302.79 127.186 1302.2 126.845 1301.01 126.161L1288.44 118.901Z" stroke="#263141" stroke-width="2" stroke-linecap="round" stroke-linejoin="round"/>
</g>
<path d="M1206.77 159.6C1206.63 159.024 1206.34 158.497 1205.92 158.072C1205.51 157.646 1204.99 157.337 1204.42 157.176C1202.34 156.667 1194 156.667 1194 156.667C1194 156.667 1185.66 156.667 1183.58 157.224C1183.01 157.385 1182.49 157.695 1182.07 158.12C1181.66 158.546 1181.37 159.073 1181.22 159.648C1180.84 161.764 1180.66 163.91 1180.67 166.06C1180.65 168.226 1180.84 170.389 1181.22 172.52C1181.38 173.078 1181.68 173.585 1182.1 173.992C1182.51 174.4 1183.02 174.694 1183.58 174.847C1185.66 175.405 1194 175.405 1194 175.405C1194 175.405 1202.34 175.405 1204.42 174.847C1204.99 174.686 1205.51 174.377 1205.92 173.951C1206.34 173.526 1206.63 172.998 1206.77 172.423C1207.15 170.323 1207.34 168.194 1207.33 166.06C1207.35 163.894 1207.16 161.731 1206.77 159.6Z" stroke="#263141" stroke-width="2" stroke-linecap="round" stroke-linejoin="round"/>
<path d="M1191 162.62C1191 161.984 1191 161.666 1191.13 161.488C1191.25 161.333 1191.43 161.236 1191.62 161.223C1191.84 161.207 1192.11 161.379 1192.64 161.723L1197.9 165.103C1198.36 165.401 1198.6 165.551 1198.68 165.74C1198.75 165.906 1198.75 166.093 1198.68 166.259C1198.6 166.449 1198.36 166.598 1197.9 166.897L1192.64 170.277C1192.11 170.621 1191.84 170.793 1191.62 170.777C1191.43 170.763 1191.25 170.666 1191.13 170.512C1191 170.334 1191 170.016 1191 169.379V162.62Z" stroke="#263141" stroke-width="2" stroke-linecap="round" stroke-linejoin="round"/>
<g clip-path="url(#clip31_5549_45076)">
<path d="M1075.14 292.069C1074.63 291.764 1074.05 291.598 1073.45 291.589C1072.86 291.58 1072.28 291.728 1071.76 292.017C1069.92 293.131 1064.03 299.028 1064.03 299.028C1064.03 299.028 1058.13 304.924 1057.05 306.793C1056.76 307.31 1056.61 307.895 1056.62 308.488C1056.63 309.081 1056.8 309.661 1057.1 310.17C1058.33 311.935 1059.71 313.585 1061.24 315.098C1062.76 316.639 1064.43 318.036 1066.2 319.272C1066.71 319.553 1067.28 319.7 1067.86 319.697C1068.44 319.694 1069.01 319.542 1069.51 319.254C1071.38 318.175 1077.28 312.278 1077.28 312.278C1077.28 312.278 1083.17 306.381 1084.25 304.513C1084.54 303.996 1084.69 303.411 1084.68 302.818C1084.67 302.225 1084.51 301.645 1084.2 301.136C1082.99 299.384 1081.61 297.746 1080.1 296.243C1078.58 294.701 1076.91 293.304 1075.14 292.069Z" stroke="#263141" stroke-width="2" stroke-linecap="round" stroke-linejoin="round"/>
<path d="M1066.12 305.359C1065.67 304.909 1065.44 304.684 1065.41 304.465C1065.38 304.273 1065.44 304.079 1065.57 303.933C1065.71 303.765 1066.02 303.698 1066.64 303.563L1072.75 302.235C1073.29 302.118 1073.56 302.059 1073.75 302.137C1073.92 302.204 1074.05 302.337 1074.12 302.504C1074.2 302.695 1074.14 302.964 1074.02 303.504L1072.69 309.611C1072.56 310.233 1072.49 310.544 1072.32 310.689C1072.18 310.816 1071.98 310.873 1071.79 310.845C1071.57 310.814 1071.35 310.589 1070.9 310.139L1066.12 305.359Z" stroke="#263141" stroke-width="2" stroke-linecap="round" stroke-linejoin="round"/>
</g>
<g clip-path="url(#clip32_5549_45076)">
<path d="M1035.66 96.8967C1035.43 96.4917 1035.1 96.1533 1034.71 95.9156C1034.31 95.6778 1033.85 95.5493 1033.39 95.5428C1031.71 95.5802 1025.42 97.2664 1025.42 97.2664C1025.42 97.2664 1019.13 98.9525 1017.67 99.7948C1017.27 100.032 1016.94 100.37 1016.72 100.775C1016.49 101.179 1016.38 101.636 1016.38 102.1C1016.52 103.773 1016.82 105.431 1017.26 107.051C1017.69 108.688 1018.27 110.282 1018.99 111.813C1019.22 112.202 1019.55 112.524 1019.94 112.748C1020.34 112.972 1020.78 113.092 1021.23 113.094C1022.92 113.093 1029.21 111.407 1029.21 111.407C1029.21 111.407 1035.5 109.721 1036.96 108.878C1037.36 108.641 1037.69 108.303 1037.92 107.899C1038.14 107.494 1038.26 107.037 1038.25 106.574C1038.11 104.913 1037.82 103.268 1037.38 101.659C1036.95 100.022 1036.38 98.4275 1035.66 96.8967Z" stroke="#263141" stroke-width="2" stroke-linecap="round" stroke-linejoin="round"/>
<path d="M1024.36 102.366C1024.23 101.886 1024.17 101.646 1024.23 101.485C1024.29 101.344 1024.4 101.235 1024.55 101.186C1024.71 101.129 1024.95 101.205 1025.42 101.356L1030.07 102.844C1030.48 102.975 1030.69 103.041 1030.79 103.168C1030.87 103.279 1030.91 103.42 1030.89 103.56C1030.87 103.719 1030.72 103.879 1030.43 104.198L1027.15 107.811C1026.82 108.179 1026.65 108.363 1026.48 108.396C1026.33 108.425 1026.18 108.387 1026.06 108.294C1025.92 108.187 1025.86 107.947 1025.73 107.467L1024.36 102.366Z" stroke="#263141" stroke-width="2" stroke-linecap="round" stroke-linejoin="round"/>
</g>
<g clip-path="url(#clip33_5549_45076)">
<path d="M1054.46 18.9226C1055.23 19.1432 1056.04 19.1562 1056.82 18.9602C1057.6 18.7642 1058.32 18.366 1058.89 17.8061C1060.9 15.7055 1066.55 5.92399 1066.55 5.92399C1066.55 5.92399 1072.19 -3.85749 1072.95 -6.68045C1073.15 -7.45905 1073.14 -8.27587 1072.92 -9.0484C1072.7 -9.82094 1072.28 -10.5218 1071.7 -11.0803C1069.48 -12.9606 1067.09 -14.633 1064.56 -16.0765C1062.03 -17.5593 1059.36 -18.8049 1056.6 -19.7975C1055.84 -19.9888 1055.04 -19.9805 1054.29 -19.7734C1053.53 -19.5663 1052.84 -19.1675 1052.28 -18.6154C1050.21 -16.5476 1044.57 -6.76611 1044.57 -6.76611C1044.57 -6.76611 1038.92 3.01537 1038.16 5.83832C1037.97 6.61693 1037.98 7.43375 1038.2 8.20628C1038.42 8.97881 1038.84 9.6797 1039.41 10.2381C1041.62 12.1043 1043.99 13.7656 1046.5 15.2015C1049.03 16.6843 1051.69 17.93 1054.46 18.9226Z" stroke="#263141" stroke-width="2" stroke-linecap="round" stroke-linejoin="round"/>
<path d="M1061.6 -1.62701C1062.34 -1.19604 1062.72 -0.980551 1062.83 -0.704256C1062.94 -0.463478 1062.93 -0.189798 1062.82 0.0457866C1062.68 0.316121 1062.3 0.513549 1061.53 0.908408L1054.01 4.78618C1053.35 5.12882 1053.01 5.30014 1052.74 5.26566C1052.49 5.23554 1052.27 5.10877 1052.13 4.91421C1051.96 4.69154 1051.94 4.31799 1051.91 3.57089L1051.5 -4.88431C1051.46 -5.74527 1051.44 -6.17575 1051.61 -6.42467C1051.76 -6.6416 1051.99 -6.7841 1052.25 -6.8152C1052.55 -6.8509 1052.92 -6.63541 1053.67 -6.20444L1061.6 -1.62701Z" stroke="#263141" stroke-width="2" stroke-linecap="round" stroke-linejoin="round"/>
</g>
<g clip-path="url(#clip34_5549_45076)">
<path d="M1280.59 8.72048C1280.6 8.12758 1280.45 7.5426 1280.17 7.02461C1279.88 6.50662 1279.46 6.07398 1278.95 5.77037C1277.07 4.73909 1269.01 2.5808 1269.01 2.5808C1269.01 2.5808 1260.96 0.422522 1258.8 0.4215C1258.2 0.42975 1257.62 0.594323 1257.12 0.898596C1256.61 1.20287 1256.19 1.63607 1255.9 2.15443C1254.98 4.09931 1254.25 6.12413 1253.7 8.20344C1253.13 10.2921 1252.75 12.4294 1252.57 14.5879C1252.58 15.1673 1252.73 15.7347 1253.03 16.235C1253.32 16.7354 1253.74 17.1519 1254.24 17.4443C1256.11 18.5224 1264.16 20.6807 1264.16 20.6807C1264.16 20.6807 1272.22 22.839 1274.37 22.84C1274.97 22.8318 1275.55 22.6672 1276.06 22.3629C1276.56 22.0587 1276.98 21.6255 1277.27 21.1071C1278.18 19.1769 1278.91 17.1678 1279.46 15.1049C1280.03 13.0162 1280.41 10.879 1280.59 8.72048Z" stroke="#263141" stroke-width="2" stroke-linecap="round" stroke-linejoin="round"/>
<path d="M1264.57 7.55525C1264.74 6.94056 1264.82 6.63321 1264.99 6.49605C1265.15 6.37651 1265.34 6.32888 1265.53 6.36549C1265.75 6.40751 1265.96 6.64298 1266.39 7.11393L1270.59 11.739C1270.97 12.1476 1271.15 12.352 1271.18 12.5561C1271.2 12.7345 1271.16 12.9153 1271.05 13.0574C1270.92 13.22 1270.66 13.3041 1270.13 13.4723L1264.18 15.3761C1263.57 15.57 1263.27 15.6669 1263.06 15.5943C1262.88 15.5311 1262.73 15.3916 1262.66 15.2121C1262.58 15.0061 1262.66 14.6988 1262.82 14.0841L1264.57 7.55525Z" stroke="#263141" stroke-width="2" stroke-linecap="round" stroke-linejoin="round"/>
</g>
<g clip-path="url(#clip35_5549_45076)">
<path d="M948.823 61.6833C948.852 59.8861 948.407 58.1129 947.532 56.5427C946.657 54.9726 945.384 53.6611 943.84 52.7408C938.135 49.6147 913.719 43.0724 913.719 43.0724C913.719 43.0724 889.303 36.5301 882.761 36.527C880.964 36.552 879.205 37.0509 877.662 37.9732C876.119 38.8956 874.847 40.2087 873.974 41.78C871.197 47.6754 868.967 53.8131 867.312 60.116C865.572 66.4473 864.422 72.9259 863.876 79.4689C863.903 81.2254 864.383 82.945 865.269 84.4618C866.156 85.9786 867.418 87.2411 868.935 88.1275C874.601 91.3955 899.018 97.9378 899.018 97.9378C899.018 97.9378 923.434 104.48 929.975 104.483C931.772 104.458 933.531 103.959 935.074 103.037C936.617 102.115 937.889 100.802 938.762 99.2303C941.518 93.3792 943.735 87.2894 945.387 81.0362C947.126 74.7049 948.276 68.2263 948.823 61.6833Z" stroke="#263141" stroke-width="2" stroke-linecap="round" stroke-linejoin="round"/>
<path d="M900.264 58.1512C900.763 56.2879 901.013 55.3563 901.541 54.9405C902.002 54.5782 902.598 54.4338 903.173 54.5448C903.834 54.6721 904.482 55.3859 905.78 56.8135L918.521 70.8331C919.647 72.0719 920.21 72.6913 920.296 73.3101C920.371 73.8508 920.224 74.3989 919.888 74.8296C919.505 75.3225 918.707 75.5775 917.113 76.0874L899.069 81.8582C897.232 82.4458 896.313 82.7396 895.677 82.5197C895.123 82.328 894.68 81.9052 894.462 81.361C894.212 80.7366 894.462 79.8049 894.961 77.9417L900.264 58.1512Z" stroke="#263141" stroke-width="2" stroke-linecap="round" stroke-linejoin="round"/>
</g>
<g clip-path="url(#clip36_5549_45076)">
<path d="M839.638 -22.307C839.654 -23.289 839.411 -24.2578 838.933 -25.1158C838.455 -25.9737 837.759 -26.6902 836.916 -27.1931C833.799 -28.9012 820.458 -32.4758 820.458 -32.4758C820.458 -32.4758 807.117 -36.0505 803.543 -36.0522C802.561 -36.0385 801.6 -35.7659 800.757 -35.262C799.914 -34.758 799.219 -34.0405 798.742 -33.182C797.225 -29.9608 796.006 -26.6072 795.101 -23.1633C794.151 -19.704 793.523 -16.1641 793.224 -12.5891C793.239 -11.6294 793.501 -10.6897 793.986 -9.861C794.47 -9.03226 795.16 -8.34241 795.988 -7.8581C799.084 -6.07247 812.425 -2.49782 812.425 -2.49782C812.425 -2.49782 825.766 1.07684 829.34 1.07853C830.322 1.06487 831.283 0.792293 832.126 0.288341C832.969 -0.215611 833.664 -0.933091 834.141 -1.79163C835.647 -4.98861 836.859 -8.31605 837.761 -11.7327C838.711 -15.1921 839.34 -18.7319 839.638 -22.307Z" stroke="#263141" stroke-width="2" stroke-linecap="round" stroke-linejoin="round"/>
<path d="M813.106 -24.2369C813.379 -25.255 813.515 -25.764 813.804 -25.9912C814.056 -26.1892 814.381 -26.2681 814.696 -26.2074C815.057 -26.1378 815.411 -25.7478 816.12 -24.9678L823.082 -17.3076C823.697 -16.6308 824.004 -16.2923 824.051 -15.9542C824.092 -15.6588 824.012 -15.3593 823.829 -15.124C823.619 -14.8546 823.184 -14.7153 822.312 -14.4367L812.453 -11.2836C811.449 -10.9625 810.948 -10.802 810.6 -10.9222C810.298 -11.0269 810.055 -11.2579 809.936 -11.5552C809.8 -11.8964 809.936 -12.4055 810.209 -13.4236L813.106 -24.2369Z" stroke="#263141" stroke-width="2" stroke-linecap="round" stroke-linejoin="round"/>
</g>
<g clip-path="url(#clip37_5549_45076)">
<path d="M785.135 72.0687C784.627 71.7637 784.047 71.5984 783.454 71.5894C782.861 71.5803 782.276 71.7279 781.758 72.0173C779.924 73.1314 774.028 79.028 774.028 79.028C774.028 79.028 768.131 84.9245 767.051 86.7929C766.762 87.3105 766.614 87.8953 766.623 88.4882C766.632 89.0811 766.798 89.6611 767.103 90.1697C768.329 91.9355 769.715 93.5851 771.242 95.0977C772.764 96.639 774.425 98.0362 776.205 99.2716C776.711 99.5535 777.281 99.7 777.861 99.697C778.44 99.694 779.009 99.5416 779.513 99.2545C781.381 98.1746 787.278 92.278 787.278 92.278C787.278 92.278 793.174 86.3815 794.254 84.5131C794.544 83.9955 794.691 83.4107 794.682 82.8178C794.673 82.2249 794.508 81.6449 794.203 81.1363C792.986 79.3838 791.612 77.7458 790.097 76.2425C788.575 74.7013 786.914 73.3041 785.135 72.0687Z" stroke="#263141" stroke-width="2" stroke-linecap="round" stroke-linejoin="round"/>
<path d="M776.116 85.3592C775.666 84.9093 775.441 84.6843 775.41 84.4646C775.382 84.2732 775.439 84.0793 775.566 83.9331C775.711 83.7655 776.022 83.6979 776.644 83.5627L782.751 82.2351C783.291 82.1178 783.56 82.0591 783.751 82.1366C783.918 82.2044 784.051 82.3367 784.118 82.5036C784.196 82.6945 784.137 82.9644 784.02 83.504L782.692 89.611C782.557 90.2329 782.49 90.5438 782.322 90.6891C782.176 90.8158 781.982 90.8727 781.79 90.8452C781.571 90.8136 781.346 90.5886 780.896 90.1387L776.116 85.3592Z" stroke="#263141" stroke-width="2" stroke-linecap="round" stroke-linejoin="round"/>
</g>
</g>
<defs>
<clipPath id="clip0_5549_45076">
<rect width="97" height="97" fill="white" transform="translate(83.1016 82.2051) rotate(-15)"/>
</clipPath>
<clipPath id="clip1_5549_45076">
<rect width="97" height="97" fill="white" transform="translate(152.102 281) rotate(15)"/>
</clipPath>
<clipPath id="clip2_5549_45076">
<rect width="53" height="53" fill="white" transform="translate(57.7188 220) rotate(15)"/>
</clipPath>
<clipPath id="clip3_5549_45076">
<rect width="68.7394" height="68.7394" fill="white" transform="translate(251 169.53) rotate(-60)"/>
</clipPath>
<clipPath id="clip4_5549_45076">
<rect width="32" height="32" fill="white" transform="translate(38 355.627) rotate(-45)"/>
</clipPath>
<clipPath id="clip5_5549_45076">
<rect width="25" height="25" fill="white" transform="translate(2 145.471) rotate(-15)"/>
</clipPath>
<clipPath id="clip6_5549_45076">
<rect width="43.3423" height="43.3423" fill="white" transform="translate(75.2031 41.6709) rotate(120)"/>
</clipPath>
<clipPath id="clip7_5549_45076">
<rect width="32" height="32" fill="white" transform="translate(245.281 42) rotate(15)"/>
</clipPath>
<clipPath id="clip8_5549_45076">
<rect width="97" height="97" fill="white" transform="translate(363.102 302.205) rotate(-15)"/>
</clipPath>
<clipPath id="clip9_5549_45076">
<rect width="68.7394" height="68.7394" fill="white" transform="translate(531 389.53) rotate(-60)"/>
</clipPath>
<clipPath id="clip10_5549_45076">
<rect width="25" height="25" fill="white" transform="translate(282 365.471) rotate(-15)"/>
</clipPath>
<clipPath id="clip11_5549_45076">
<rect width="43.3423" height="43.3423" fill="white" transform="translate(355.203 261.671) rotate(120)"/>
</clipPath>
<clipPath id="clip12_5549_45076">
<rect width="32" height="32" fill="white" transform="translate(525.281 262) rotate(15)"/>
</clipPath>
<clipPath id="clip13_5549_45076">
<rect width="97" height="97" fill="white" transform="translate(522.102 111) rotate(15)"/>
</clipPath>
<clipPath id="clip14_5549_45076">
<rect width="53" height="53" fill="white" transform="translate(427.719 50) rotate(15)"/>
</clipPath>
<clipPath id="clip15_5549_45076">
<rect width="68.7394" height="68.7394" fill="white" transform="translate(641 39.5303) rotate(-60)"/>
</clipPath>
<clipPath id="clip16_5549_45076">
<rect width="32" height="32" fill="white" transform="translate(408 185.627) rotate(-45)"/>
</clipPath>
<clipPath id="clip17_5549_45076">
<rect width="25" height="25" fill="white" transform="translate(352 15.4707) rotate(-15)"/>
</clipPath>
<clipPath id="clip18_5549_45076">
<rect width="43.3423" height="43.3423" fill="white" transform="translate(185.062 -12.3291) rotate(120)"/>
</clipPath>
<clipPath id="clip19_5549_45076">
<rect width="97" height="97" fill="white" transform="translate(723.102 202.205) rotate(-15)"/>
</clipPath>
<clipPath id="clip20_5549_45076">
<rect width="53" height="53" fill="white" transform="translate(697.719 340) rotate(15)"/>
</clipPath>
<clipPath id="clip21_5549_45076">
<rect width="68.7394" height="68.7394" fill="white" transform="translate(891 289.53) rotate(-60)"/>
</clipPath>
<clipPath id="clip22_5549_45076">
<rect width="25" height="25" fill="white" transform="translate(642 265.471) rotate(-15)"/>
</clipPath>
<clipPath id="clip23_5549_45076">
<rect width="43.3423" height="43.3423" fill="white" transform="translate(715.203 161.671) rotate(120)"/>
</clipPath>
<clipPath id="clip24_5549_45076">
<rect width="32" height="32" fill="white" transform="translate(885.281 162) rotate(15)"/>
</clipPath>
<clipPath id="clip25_5549_45076">
<rect width="43.3423" height="43.3423" fill="white" transform="translate(995.203 381.671) rotate(120)"/>
</clipPath>
<clipPath id="clip26_5549_45076">
<rect width="32" height="32" fill="white" transform="translate(1145.28 372) rotate(15)"/>
</clipPath>
<clipPath id="clip27_5549_45076">
<rect width="97" height="97" fill="white" transform="translate(1093.1 32.2051) rotate(-15)"/>
</clipPath>
<clipPath id="clip28_5549_45076">
<rect width="97" height="97" fill="white" transform="translate(1162.1 231) rotate(15)"/>
</clipPath>
<clipPath id="clip29_5549_45076">
<rect width="53" height="53" fill="white" transform="translate(1067.72 170) rotate(15)"/>
</clipPath>
<clipPath id="clip30_5549_45076">
<rect width="68.7394" height="68.7394" fill="white" transform="translate(1251 129.53) rotate(-60)"/>
</clipPath>
<clipPath id="clip31_5549_45076">
<rect width="32" height="32" fill="white" transform="translate(1048 305.627) rotate(-45)"/>
</clipPath>
<clipPath id="clip32_5549_45076">
<rect width="25" height="25" fill="white" transform="translate(1012 95.4707) rotate(-15)"/>
</clipPath>
<clipPath id="clip33_5549_45076">
<rect width="43.3423" height="43.3423" fill="white" transform="translate(1085.2 -8.3291) rotate(120)"/>
</clipPath>
<clipPath id="clip34_5549_45076">
<rect width="32" height="32" fill="white" transform="translate(1255.28 -8) rotate(15)"/>
</clipPath>
<clipPath id="clip35_5549_45076">
<rect width="97" height="97" fill="white" transform="translate(872.102 11) rotate(15)"/>
</clipPath>
<clipPath id="clip36_5549_45076">
<rect width="53" height="53" fill="white" transform="translate(797.719 -50) rotate(15)"/>
</clipPath>
<clipPath id="clip37_5549_45076">
<rect width="32" height="32" fill="white" transform="translate(758 85.6274) rotate(-45)"/>
</clipPath>
</defs>
</svg>
