<svg width="478" height="495" viewBox="0 0 478 495" fill="none" xmlns="http://www.w3.org/2000/svg">
<path fill-rule="evenodd" clip-rule="evenodd" d="M246.589 4.88393C255.144 1.58944 264.052 0.000449558 272.859 0H272.866C294.044 0.00108105 314.637 9.18796 328.331 25.9345L462.745 189.965C481.489 212.91 483.113 244.804 466.769 269.482L346.876 450.248C330.164 475.386 294.312 501.309 264.479 493.626L57.9601 440.443C28.1262 432.76 11.1658 393.283 9.78363 363.439L0.0721961 149.343C0.0239295 148.306 0 147.271 0 146.24C0 118.217 17.6775 92.8246 44.8476 82.3464L246.589 4.88393Z" fill="#60EED1"/>
<path fill-rule="evenodd" clip-rule="evenodd" d="M246.589 4.88393C255.144 1.58944 264.052 0.000449558 272.859 0H272.866C294.044 0.00108105 314.637 9.18796 328.331 25.9345L462.745 189.965C481.489 212.91 483.113 244.804 466.769 269.482L346.876 450.248C330.164 475.386 294.312 501.309 264.479 493.626L57.9601 440.443C28.1262 432.76 11.1658 393.283 9.78363 363.439L0.0721961 149.343C0.0239295 148.306 0 147.271 0 146.24C0 118.217 17.6775 92.8246 44.8476 82.3464L246.589 4.88393Z" fill="white"/>
</svg>
