<svg width="131" height="40" viewBox="0 0 131 40" fill="none" xmlns="http://www.w3.org/2000/svg">
<path d="M10.3797 25.2109V27.2849H13.783V13.5426H10.1064V19.8092C10.1064 21.334 10.0122 22.3764 9.82496 22.942C9.63933 23.5087 9.29149 23.9594 8.78633 24.3034C8.28171 24.6469 7.71013 24.8168 7.07323 24.8168C6.57569 24.8168 6.15109 24.6986 5.7978 24.4586C5.44342 24.2196 5.1903 23.8826 5.03244 23.4488C4.87566 23.0188 4.79727 22.0634 4.79727 20.5893V13.5426H1.12231V22.0955C1.12231 23.1478 1.18981 23.9545 1.32373 24.5212C1.46036 25.0835 1.70042 25.5892 2.04446 26.035C2.38849 26.4792 2.89583 26.8429 3.5692 27.1319C4.24039 27.4177 4.98344 27.5592 5.7978 27.5592C7.63827 27.5592 9.16411 26.7781 10.3797 25.2109ZM15.4166 13.5426H19.0349V18.635H24.2216V13.5426H27.8372V27.2849H24.2216V21.5566H19.0349V27.2849H15.4166V13.5426ZM36.5072 13.5426H29.1524V17.8403L32.8279 16.4255V27.3045H36.5072V16.4255L40.1865 17.8403V13.5426H36.5072ZM45.5495 16.861C46.2262 16.2344 47.0318 15.9296 48.0122 15.9296C48.998 15.9296 49.7786 16.2758 50.3992 16.9867C50.7841 17.4353 50.9871 17.9492 51.1118 18.4941H44.5239C44.739 17.8495 45.0721 17.3041 45.5495 16.861ZM51.612 22.7852C51.612 22.7852 50.974 24.1929 49.7215 24.8168C49.2544 25.0492 48.6692 25.1657 47.9871 25.1657C46.7732 25.1657 45.8429 24.7133 45.1478 23.7819C44.6448 23.1156 44.3438 22.3661 44.2305 21.5131H54.6016C54.6016 21.5131 55.0393 17.7815 53.1634 15.3923C51.8989 13.7799 50.2016 12.9122 47.9844 12.9122C45.7155 12.9122 43.8887 13.7015 42.5523 15.2578C41.3275 16.6792 40.7026 18.4587 40.7026 20.5468C40.7026 22.5784 41.3275 24.3366 42.5523 25.7786C43.9056 27.3736 45.7357 28.1831 47.9844 28.1831C49.5663 28.1831 50.9582 27.7492 52.1215 26.8989C54.2473 25.341 55.0752 22.7852 55.0752 22.7852H51.612ZM64.7153 23.648C64.1589 24.3274 63.4611 24.6671 62.6255 24.6671C61.7523 24.6671 61.0131 24.2969 60.4056 23.5577C59.7992 22.8173 59.4949 21.6736 59.4949 20.1249C59.4949 18.7771 59.7845 17.7564 60.3669 17.0689C60.9494 16.3803 61.6777 16.0395 62.5618 16.0395C63.4066 16.0395 64.1154 16.3874 64.687 17.0891C65.2602 17.7897 65.5481 18.862 65.5481 20.3068C65.5481 21.8555 65.2694 22.967 64.7153 23.648ZM67.5791 15.0575C66.473 13.8093 65.129 13.1828 63.5449 13.1828C62.6331 13.1828 61.8051 13.4043 61.0594 13.8447C60.3152 14.2867 59.7235 14.8496 59.288 15.5338V13.5317H55.9125V32.3893H59.5308V25.5282C60.2074 26.2566 60.8498 26.7688 61.4627 27.0682C62.0757 27.3682 62.7632 27.5195 63.5171 27.5195C65.1012 27.5195 66.4501 26.8842 67.5661 25.6142C68.6782 24.3432 69.2351 22.5637 69.2351 20.2736C69.2351 18.0444 68.6836 16.3046 67.5791 15.0575ZM91.754 22.2958C91.6675 19.6671 95.8329 18.3269 98.712 19.8081V24.7357C95.5324 26.0601 91.9195 24.887 91.754 22.2958ZM98.712 27.2849H102.775V20.5338C102.775 18.3084 102.915 16.8501 101.988 15.4119C101.058 13.9721 99.2117 13.4043 97.9091 13.4043H90.4666C89.7688 13.4321 89.9348 12.5948 89.9903 12.4266C91.754 5.77241 93.177 3.81491 95.5814 4.01142C96.6168 4.15077 97.2575 4.17854 97.7349 4.76644C98.1268 5.24167 98.2678 5.29828 99.0212 4.15077C99.4932 3.36908 99.8595 2.75341 100.139 2.27873C100.391 1.83127 101.036 1.24499 100.083 1.13231C88.6474 0.880275 88.483 5.40987 84.5691 12.8458C84.1494 13.5448 83.6992 13.517 82.3878 13.517H78.5566C73.3847 13.517 70.701 17.5708 70.3951 19.8359C70.143 21.2039 70.0021 22.378 70.6732 23.8337C71.2035 24.9229 72.4898 26.4052 74.3918 27.2435C74.8969 27.4389 75.2034 27.0764 75.2301 27.0486C75.7918 26.5429 77.524 25.0067 78.0275 24.6154C78.334 24.335 77.9693 24.1679 77.7461 24.1412C74.5322 23.7487 73.3569 22.8821 72.799 20.7553C72.6308 19.1642 73.3847 15.6139 79.1445 15.5567C81.4662 15.6139 83.3372 15.3351 82.4711 17.4021C79.3405 25.175 78.6122 26.6017 75.3417 32.8896C73.3569 35.7981 70.8992 36.2183 66.8693 34.9581C65.8241 34.6304 65.498 35.355 65.3543 35.6664C65.1399 36.1258 64.7643 36.9695 64.6233 37.2684C64.399 37.7246 64.5797 37.8824 64.9047 37.8797C70.5252 37.8226 76.0956 36.748 80.3732 31.8836C84.372 26.7672 85.2947 22.6578 87.9218 17.4581C88.342 16.536 88.9604 15.6971 90.0263 15.6971H96.3354C98.356 15.6971 98.712 16.536 98.712 17.6263C97.2575 17.1794 96.0289 16.9818 94.2989 17.1794C90.5777 17.5708 88.2282 19.0792 88.0638 22.4352C88.09 24.9523 90.5222 27.5516 94.7975 27.4667C96.5727 27.55 97.7681 27.3007 98.712 26.3186V27.2849ZM108.411 27.2849V21.3693C108.936 21.3693 109.334 21.4848 109.601 21.7107C109.865 21.9387 110.184 22.4483 110.547 23.2457L112.152 27.2849H115.994L114.199 23.4194C114.148 23.3241 114.1 23.2349 114.059 23.1505C113.275 21.4864 112.317 20.4989 111.183 20.1821C111.97 19.8914 112.568 19.1152 112.988 17.8599C113.294 16.9274 113.581 16.3672 113.843 16.1773C114.109 15.9982 114.716 15.9067 115.663 15.9067L115.65 13.5012C114.975 13.4598 114.5 13.4375 114.23 13.4375C113.341 13.4375 112.626 13.6275 112.08 14.0042C111.536 14.3825 111.034 15.2431 110.573 16.5904C110.222 17.6013 109.924 18.2556 109.678 18.5567C109.43 18.8566 109.007 19.0411 108.411 19.1097V13.5426H104.793V27.2849H108.411ZM128.785 17.6383L125.237 18.2632C125.117 17.5588 124.841 17.0308 124.415 16.6754C123.988 16.3183 123.433 16.1402 122.751 16.1402C121.846 16.1402 121.123 16.4522 120.584 17.076C120.042 17.7009 119.773 18.745 119.773 20.2071C119.773 21.838 120.045 22.9872 120.592 23.6546C121.139 24.3285 121.874 24.6643 122.792 24.6643C123.479 24.6643 124.043 24.4651 124.481 24.0699C124.92 23.6731 125.229 22.9899 125.408 22.0209L128.959 22.6116C128.591 24.2648 127.884 25.5108 126.838 26.3562C125.796 27.2011 124.394 27.6207 122.638 27.6207C120.642 27.6207 119.052 26.9888 117.865 25.7242C116.679 24.4586 116.085 22.7057 116.085 20.4684C116.085 18.2039 116.682 16.4402 117.871 15.1784C119.063 13.9165 120.676 13.2862 122.704 13.2862C124.369 13.2862 125.687 13.6444 126.67 14.3624C127.651 15.0788 128.357 16.1696 128.785 17.6383ZM54.4209 33.6473H56.2042L57.1318 35.2565L58.0316 33.6473H59.7992L58.1694 36.1786L59.9527 38.8775H58.1313L57.0986 37.1976L56.0611 38.8775H54.2554L56.0638 36.1525L54.4209 33.6473ZM49.4096 36.8819L48.8374 35.0017L48.2659 36.8819H49.4096ZM49.752 38.018H47.9207L47.6594 38.8775H46.009L47.9741 33.6473H49.7454L51.7051 38.8775H50.0132L49.752 38.018ZM39.7951 33.6473H43.7945V34.7736H41.4178V35.68H43.4521V36.7387H41.4178V38.8775H39.7951V33.6473ZM33.1872 35.7622H33.8747C33.9487 35.7622 34.0924 35.7398 34.3047 35.6919C34.413 35.6707 34.5007 35.6163 34.5698 35.5297C34.639 35.4426 34.6722 35.3403 34.6722 35.2276C34.6722 35.0588 34.6204 34.9304 34.5089 34.84C34.4038 34.7513 34.1997 34.7045 33.9024 34.7045H33.1872L33.1872 35.7622ZM31.5644 38.8775V33.6473H34.2633C34.7636 33.6473 35.1468 33.6898 35.4125 33.7747C35.6765 33.8596 35.8888 34.0197 36.0521 34.2494C36.2154 34.4829 36.2949 34.7654 36.2949 35.0986C36.2949 35.3866 36.2312 35.6386 36.1104 35.8482C35.983 36.0594 35.8142 36.2292 35.597 36.3604C35.4588 36.4442 35.2677 36.5134 35.0249 36.5678C35.2187 36.6326 35.3591 36.6974 35.4484 36.7616C35.5078 36.8052 35.5943 36.8966 35.707 37.037C35.8197 37.1808 35.8953 37.288 35.934 37.3637L36.7206 38.8775H34.8937L34.0233 37.2787C33.9155 37.0703 33.8164 36.938 33.7315 36.8754C33.6118 36.7932 33.4789 36.7534 33.3303 36.7534H33.1872V38.8775H31.5644ZM23.7028 33.6473H28.0364V34.7654H25.3255V35.5961H27.8372V36.662H25.3255V37.6886H28.1132V38.8775H23.7028V33.6473ZM15.4999 33.6473H20.4187V34.9396H18.7682V38.8775H17.1531V34.9396H15.4999V33.6473ZM7.22946 33.6473H8.74223L10.7101 36.5384V33.6473H12.2348V38.8775H10.7101L8.75312 36.0011V38.8775H7.22946V33.6473ZM1.88115 33.6473H3.50393V38.8778H1.88115V33.6473Z" fill="#09ABB0"/>
</svg>
