<svg width="137" height="40" viewBox="0 0 137 40" fill="none" xmlns="http://www.w3.org/2000/svg">
<g clip-path="url(#clip0_2963_3150)">
<path d="M13.5693 0.239258H10.3137C9.9646 0.239258 9.68018 0.523071 9.68018 0.872803V4.00391L4.52393 12.9242V0.872803C4.52393 0.523071 4.24072 0.239258 3.89038 0.239258H0.633545C0.283203 0.239258 0 0.523071 0 0.872803V39.3567C0 39.7058 0.283203 39.9902 0.633545 39.9902H3.89038C4.24072 39.9902 4.52393 39.7058 4.52393 39.3567V25.1111L9.68018 16.1768V39.3567C9.68018 39.7058 9.9646 39.9902 10.3137 39.9902H13.5693C13.9197 39.9902 14.2041 39.7058 14.2041 39.3567V0.872803C14.2041 0.523071 13.9197 0.239258 13.5693 0.239258Z" fill="#263141"/>
<path d="M117.422 0H114.165C113.816 0 113.531 0.283203 113.531 0.633545V3.76404L108.374 12.6849V0.633545C108.374 0.283203 108.091 0 107.742 0H104.485C104.135 0 103.85 0.283203 103.85 0.633545V39.1174C103.85 39.4666 104.135 39.751 104.485 39.751H107.742C108.091 39.751 108.374 39.4666 108.374 39.1174V24.8718L113.531 15.9375V39.1174C113.531 39.4666 113.816 39.751 114.165 39.751H117.422C117.771 39.751 118.054 39.4666 118.054 39.1174V0.633545C118.054 0.283203 117.771 0 117.422 0Z" fill="#263141"/>
<path d="M44.0186 32.7916H40.6445C40.3955 32.7916 40.1929 32.589 40.1929 32.34V25.2953C40.7373 24.3541 41.3733 23.2555 42.019 22.1398L44.5642 26.5477C44.5642 26.5477 45.1636 27.4327 45.1636 28.5692V31.8944C45.0915 32.213 44.8474 32.7916 44.0186 32.7916ZM43.5547 8.2677C44.6851 8.27746 44.7656 9.40784 44.5654 9.87354C44.4421 10.1604 42.2998 14.1008 40.1929 17.9106V8.71997C40.1929 8.47034 40.3955 8.2677 40.6445 8.2677H43.5547ZM44.1064 18.5204C44.7192 17.4602 45.2344 16.5624 45.5518 16.0076C46.9861 13.4917 48.3435 11.444 48.3435 9.31629V4.10388C48.2959 1.32312 45.5786 0.0914318 44.2212 0.128053C43.9636 0.128053 38.2373 0.121949 36.3013 0.120118C35.9521 0.119508 35.6702 0.403321 35.6702 0.753053V39.2357C35.6702 39.5861 35.9521 39.8693 36.3025 39.8693C38.418 39.8644 45.144 39.8522 45.5652 39.8522C46.9214 39.8888 49.6387 38.6583 49.6875 35.8776V35.6823V31.7199V29.5165C49.6875 28.1505 49.1309 27.2228 49.1309 27.2228L44.1064 18.5204Z" fill="#263141"/>
<path d="M126.707 9.99255C126.508 9.52747 126.587 8.3971 127.717 8.38794H131.453C131.804 8.38794 132.087 8.67114 132.087 9.02087V19.8442C129.714 15.584 126.851 10.327 126.707 9.99255ZM127.051 0.247682C125.695 0.211061 122.977 1.44275 122.93 4.22351V9.43591C122.93 11.5636 124.287 13.6113 125.721 16.1272C125.968 16.5599 126.338 17.2039 126.777 17.968L123.699 23.3007C123.699 23.3007 123.143 24.2272 123.143 25.5944C123.143 26.7858 123.146 36.6173 123.147 39.359C123.147 39.7094 123.43 39.9913 123.779 39.9913H127.036C127.385 39.9913 127.668 39.7081 127.668 39.359C127.668 36.566 127.667 26.4293 127.667 26.2413C127.667 25.1061 128.267 24.2211 128.267 24.2211L129.327 22.3839C130.413 24.2638 131.462 26.0753 132.087 27.1544V39.3566C132.087 39.7057 132.371 39.9901 132.72 39.9901H136.157C136.406 39.9901 136.609 39.7875 136.609 39.5372V0.692018C136.609 0.441774 136.409 0.239137 136.158 0.239747C134.309 0.240968 127.375 0.247682 127.051 0.247682Z" fill="#263141"/>
<path d="M84.6582 33.4363C84.7021 33.1605 84.4897 32.9114 84.2114 32.9114H76.6943C75.9936 32.9114 75.4272 32.345 75.4272 31.6456L75.4198 9.66498C75.4198 8.9649 75.9874 8.39728 76.6869 8.39728H82.3876C82.6659 8.39728 82.8783 8.14887 82.8344 7.8736L81.7065 0.856995C81.6503 0.506043 81.3476 0.247864 80.9912 0.247864H75.3857C74.1601 0.163025 70.8813 0.91803 70.9106 4.75409V35.481C70.8813 39.3445 74.2102 40.0831 75.4125 39.9854V39.9818H82.9882C83.3447 39.9818 83.6474 39.723 83.7036 39.3727L84.6582 33.4363Z" fill="#263141"/>
<path d="M18.3374 32.9114C18.0591 32.9114 17.8467 33.1605 17.8918 33.4363L18.8427 39.3567C18.8989 39.7083 19.2016 39.9671 19.5581 39.9671H26.7285C27.9541 40.0513 31.2317 39.2957 31.2036 35.4603V29.806H31.2061V22.9651C31.2061 17.7399 27.627 17.4927 27.627 17.4927H27.6185C28.1689 16.5387 28.6718 15.6714 28.9062 15.2588C30.3405 12.743 31.1914 11.5638 31.1914 9.43609V4.22369C31.1426 1.44293 28.4253 0.202691 27.0678 0.239312H20.1599C19.8047 0.239312 19.5019 0.497491 19.4458 0.847833L18.3178 7.86382C18.2739 8.13848 18.4863 8.38812 18.7646 8.38812H25.5615C26.0095 8.37347 26.5661 8.60967 26.7004 9.33233L26.7016 9.8969C26.7016 9.8969 26.6382 12.035 25.6372 13.6634C24.9939 14.7107 23.2873 17.4927 23.2873 17.4927H21.6577C21.3476 17.4927 21.0827 17.718 21.0327 18.0256L20.4883 21.4124C20.4443 21.6871 20.6567 21.9373 20.935 21.9373H23.3862C24.2724 21.9373 24.6924 21.9324 24.8193 21.9373C25.4944 21.9605 26.7065 22.3133 26.7065 24.0809V26.0047H26.704C26.7004 27.721 26.6979 29.6912 26.6966 31.6468C26.6966 32.3462 26.1278 32.9114 25.4296 32.9114H18.3374Z" fill="#263141"/>
<path d="M66.7261 32.9114H58.8452V21.897H62.5342C62.8125 21.897 63.0249 21.6479 62.981 21.3721L62.4365 17.9828C62.3791 17.6312 62.0764 17.3737 61.7212 17.3737H58.8452V8.38806H66.814C67.0923 8.38806 67.3047 8.13843 67.2607 7.86377L66.1353 0.855102C66.0791 0.50476 65.7764 0.246582 65.4211 0.246582L54.7754 0.239258C54.5251 0.239258 54.3225 0.441895 54.3225 0.692139V39.5374C54.3225 39.7876 54.5251 39.989 54.7754 39.989L65.5029 39.9816C65.8594 39.9816 66.1621 39.7241 66.2183 39.3737L67.1716 33.4362C67.2168 33.1603 67.0044 32.9114 66.7261 32.9114Z" fill="#263141"/>
<path d="M100.566 7.84485L99.4446 0.856323C99.3872 0.505371 99.0845 0.247803 98.7305 0.247803H86.6565C86.3013 0.247803 85.9986 0.505981 85.9424 0.856323L84.8194 7.84485C84.7754 8.11951 84.9878 8.36853 85.2662 8.36853L90.4175 8.37342V39.3665C90.4175 39.7168 90.7007 40 91.0511 40H94.3079C94.6582 40 94.9414 39.7168 94.9414 39.3665C94.9414 39.3665 94.9427 17.5684 94.9439 8.36853H100.121C100.399 8.36853 100.612 8.11951 100.566 7.84485Z" fill="#263141"/>
</g>
<defs>
<clipPath id="clip0_2963_3150">
<rect width="136.609" height="40" fill="white"/>
</clipPath>
</defs>
</svg>
