<svg width="135" height="40" viewBox="0 0 135 40" fill="none" xmlns="http://www.w3.org/2000/svg">
<g clip-path="url(#clip0_2963_3115)">
<mask id="mask0_2963_3115" style="mask-type:luminance" maskUnits="userSpaceOnUse" x="62" y="0" width="73" height="40">
<path d="M62.9032 0.387207H134.581V39.3549H62.9677L62.9032 0.387207Z" fill="white"/>
</mask>
<g mask="url(#mask0_2963_3115)">
<path d="M134.581 2.9034L134.387 3.93566C132.968 4.06469 131.806 4.45179 131.097 4.96792C129.695 6.06748 128.715 7.61698 128.323 9.35501L123.484 25.6776C122.554 29.775 120.393 33.4898 117.29 36.3228C114.461 38.4191 111.002 39.4887 107.484 39.355C105.443 39.3865 103.412 39.059 101.484 38.3873C99.7419 37.7421 98.5161 37.0324 97.6774 36.2582L97.4838 35.9357H87.4838L82.3226 18.6453L81.4193 18.7744L80.5161 18.7099L77.2903 29.484C76.7742 30.9679 76.5806 32.0647 76.5806 32.7744C76.5806 33.4195 76.8387 34.0002 77.4193 34.3873C77.9355 34.7744 79.0968 35.0324 80.8387 35.0324L80.5161 35.9357H62.9032L63.2258 35.0324C64.9677 35.0324 66.258 34.7744 67.0967 34.0647C67.9355 33.4195 68.6451 31.9357 69.3548 29.6131L76.129 6.83888C76.5161 5.54856 76.7097 4.5163 76.7097 3.80663C76.7097 3.09695 76.4516 2.5163 76 2.19372C75.5484 1.80663 74.4516 1.54856 72.7742 1.41953L73.0322 0.322754H88.129C92.4516 0.322754 95.4838 1.09695 97.2903 2.58082C97.3548 2.70985 97.4838 2.9034 97.6129 2.9034H115.677L115.355 3.93566C113.93 3.86987 112.523 4.27826 111.355 5.09695C110.387 5.80663 109.613 7.22598 109.032 9.41953L104.323 24.9034C103.654 26.9495 103.264 29.076 103.161 31.226C103.161 32.6453 103.806 33.8711 104.968 34.9679C106.358 36.1175 108.135 36.6942 109.935 36.5808C111.544 36.6981 113.156 36.3973 114.614 35.7077C116.073 35.0181 117.328 33.9632 118.258 32.6453C119.419 30.9679 120.452 28.5808 121.419 25.5486L126.194 9.41953C126.452 8.45179 126.581 7.67759 126.581 7.09695C126.581 6.00017 126.194 5.16146 125.419 4.5163C124.839 4.19372 123.677 3.93566 121.935 3.93566L122.258 2.9034H134.581ZM82.4516 17.1615C85.0322 17.1615 87.2258 16.3228 88.9032 14.5808C90.5806 12.8389 91.4838 10.5163 91.4838 7.67759C91.4838 6.00017 90.9677 4.70985 90.129 3.80663C89.6444 3.35974 89.0748 3.01515 88.454 2.79345C87.8332 2.57174 87.1741 2.47748 86.5161 2.5163L85.2258 2.58082L80.8387 17.0969L82.4516 17.1615ZM100.903 9.41953C101.238 8.39371 101.454 7.3331 101.548 6.25824C101.548 5.61308 101.29 5.09695 100.774 4.70985C100.387 4.45179 99.6774 4.25824 98.5806 4.06469C99.4838 5.35501 99.8709 6.77437 99.8709 8.38727C99.8709 10.7744 98.9032 12.9679 96.8387 14.9679C94.8095 16.5355 92.4479 17.6169 89.9355 18.1292L93.2258 28.9034C94.129 31.7421 94.9032 33.484 95.5484 34.0647C95.8064 34.3228 96.0645 34.5163 96.4516 34.6453L95.8064 33.355C95.4193 32.1937 95.1613 31.226 95.1613 30.4518C95.1613 29.1615 95.5484 27.355 96.258 24.9679L100.903 9.41953Z" fill="#651213"/>
</g>
<mask id="mask1_2963_3115" style="mask-type:luminance" maskUnits="userSpaceOnUse" x="62" y="0" width="73" height="40">
<path d="M93.2258 29.0322L89.9355 18.258C93.1613 17.3548 95.5484 16.3225 96.8388 15.0322C97.7711 14.204 98.5218 13.1918 99.0437 12.0592C99.5655 10.9267 99.8472 9.69833 99.871 8.45154C99.9225 6.90869 99.4695 5.39114 98.5807 4.12896C99.3509 4.17732 100.1 4.39778 100.774 4.77412C101.29 5.0967 101.548 5.61283 101.548 6.32251C101.548 6.96767 101.355 8.06445 100.903 9.41928L96.2581 25.1612C95.6511 26.9547 95.2823 28.8201 95.1613 30.7096C95.2294 32.1942 95.6733 33.6371 96.4517 34.9032C96.0646 34.7741 95.8065 34.5806 95.5484 34.387C94.4427 32.8122 93.6539 31.0373 93.2258 29.1612V29.0322ZM85.1613 2.58057H86.4517C87.755 2.54708 89.0227 3.00807 90 3.8709C90.9033 4.77412 91.2904 6.06445 91.2904 7.74186C91.2904 10.5806 90.5162 12.9032 88.7742 14.6451C87.0968 16.387 84.9033 17.2257 82.3226 17.2257H80.7097L85.1613 2.58057ZM72.8388 0.32251L72.5807 1.41928C74.3226 1.54832 75.4194 1.80638 75.8065 2.19348C76.0558 2.38019 76.2564 2.62431 76.3911 2.90511C76.5259 3.1859 76.5909 3.49508 76.5807 3.80638C76.5807 4.58057 76.3871 5.54832 76 6.83864L69.1613 29.8064C68.5162 32.129 67.742 33.6773 66.9033 34.3225C66.1291 34.9677 64.8387 35.2257 63.0323 35.2257L62.7097 36.129H80.3871L80.7742 35.2257C78.9678 35.2257 77.8065 35.0322 77.2904 34.5806C77.0342 34.4111 76.8237 34.1813 76.6775 33.9112C76.5312 33.6412 76.4536 33.3393 76.4517 33.0322C76.4517 32.258 76.6452 31.1612 77.0968 29.6128L80.3871 18.8386H81.2904L82.1936 18.7096L87.3549 36.129H97.4194C97.5484 36.129 97.6129 36.387 97.6775 36.4515C98.5162 37.2257 99.742 37.9999 101.548 38.6451C103.456 39.3093 105.464 39.6368 107.484 39.6128C111.484 39.6128 114.839 38.5806 117.419 36.5806C120.53 33.7277 122.692 29.99 123.613 25.8709L128.452 9.41928C129.097 7.35477 130 5.93541 131.226 5.03219C132 4.45154 133.161 4.06445 134.516 3.93541L134.774 2.96767H122.387L122.065 3.99993C123.806 3.99993 124.968 4.19348 125.548 4.64509C126.323 5.16122 126.71 5.99993 126.71 7.0967C126.71 7.74186 126.581 8.51606 126.323 9.41928L121.548 25.6773C120.858 28.2197 119.769 30.6367 118.323 32.8386C117.463 34.0703 116.31 35.0681 114.968 35.7419C113.548 36.387 111.936 36.7741 110 36.7741C107.871 36.7741 106.129 36.258 104.968 35.1612C104.423 34.7016 103.985 34.1287 103.684 33.4825C103.383 32.8362 103.227 32.1321 103.226 31.4193C103.226 29.8064 103.613 27.7419 104.387 25.0967L109.032 9.41928C109.677 7.29025 110.452 5.8709 111.419 5.0967C112.594 4.29632 114.001 3.91037 115.419 3.99993L115.742 2.96767H97.6129C97.4839 2.96767 97.3549 2.70961 97.2258 2.58057C95.4839 1.0967 92.3871 0.32251 88.0646 0.32251H72.8388Z" fill="white"/>
</mask>
<g mask="url(#mask1_2963_3115)">
<path d="M93.2258 29.0322L89.9355 18.258C93.1613 17.3548 95.5484 16.3225 96.8388 15.0322C97.7711 14.204 98.5218 13.1918 99.0437 12.0592C99.5655 10.9267 99.8472 9.69833 99.871 8.45154C99.9225 6.90869 99.4695 5.39114 98.5807 4.12896C99.3509 4.17732 100.1 4.39778 100.774 4.77412C101.29 5.0967 101.548 5.61283 101.548 6.32251C101.548 6.96767 101.355 8.06445 100.903 9.41928L96.2581 25.1612C95.6511 26.9547 95.2823 28.8201 95.1613 30.7096C95.2294 32.1942 95.6733 33.6371 96.4517 34.9032C96.0646 34.7741 95.8065 34.5806 95.5484 34.387C94.4427 32.8122 93.6539 31.0373 93.2258 29.1612V29.0322ZM85.1613 2.58057H86.4517C87.755 2.54708 89.0227 3.00807 90 3.8709C90.9033 4.77412 91.2904 6.06445 91.2904 7.74186C91.2904 10.5806 90.5162 12.9032 88.7742 14.6451C87.0968 16.387 84.9033 17.2257 82.3226 17.2257H80.7097L85.1613 2.58057ZM72.8388 0.32251L72.5807 1.41928C74.3226 1.54832 75.4194 1.80638 75.8065 2.19348C76.0558 2.38019 76.2564 2.62431 76.3911 2.90511C76.5259 3.1859 76.5909 3.49508 76.5807 3.80638C76.5807 4.58057 76.3871 5.54832 76 6.83864L69.1613 29.8064C68.5162 32.129 67.742 33.6773 66.9033 34.3225C66.1291 34.9677 64.8387 35.2257 63.0323 35.2257L62.7097 36.129H80.3871L80.7742 35.2257C78.9678 35.2257 77.8065 35.0322 77.2904 34.5806C77.0342 34.4111 76.8237 34.1813 76.6775 33.9112C76.5312 33.6412 76.4536 33.3393 76.4517 33.0322C76.4517 32.258 76.6452 31.1612 77.0968 29.6128L80.3871 18.8386H81.2904L82.1936 18.7096L87.3549 36.129H97.4194C97.5484 36.129 97.6129 36.387 97.6775 36.4515C98.5162 37.2257 99.742 37.9999 101.548 38.6451C103.456 39.3093 105.464 39.6368 107.484 39.6128C111.484 39.6128 114.839 38.5806 117.419 36.5806C120.53 33.7277 122.692 29.99 123.613 25.8709L128.452 9.41928C129.097 7.35477 130 5.93541 131.226 5.03219C132 4.45154 133.161 4.06445 134.516 3.93541L134.774 2.96767H122.387L122.065 3.99993C123.806 3.99993 124.968 4.19348 125.548 4.64509C126.323 5.16122 126.71 5.99993 126.71 7.0967C126.71 7.74186 126.581 8.51606 126.323 9.41928L121.548 25.6773C120.858 28.2197 119.769 30.6367 118.323 32.8386C117.463 34.0703 116.31 35.0681 114.968 35.7419C113.548 36.387 111.936 36.7741 110 36.7741C107.871 36.7741 106.129 36.258 104.968 35.1612C104.423 34.7016 103.985 34.1287 103.684 33.4825C103.383 32.8362 103.227 32.1321 103.226 31.4193C103.226 29.8064 103.613 27.7419 104.387 25.0967L109.032 9.41928C109.677 7.29025 110.452 5.8709 111.419 5.0967C112.594 4.29632 114.001 3.91037 115.419 3.99993L115.742 2.96767H97.6129C97.4839 2.96767 97.3549 2.70961 97.2258 2.58057C95.4839 1.0967 92.3871 0.32251 88.0646 0.32251H72.8388Z" fill="url(#paint0_linear_2963_3115)"/>
</g>
<mask id="mask2_2963_3115" style="mask-type:luminance" maskUnits="userSpaceOnUse" x="0" y="0" width="80" height="39">
<path d="M41.2903 33.2904C41.2903 32.5808 41.5484 31.484 41.9355 30.0646L48.7097 6.96785C48.9397 6.01338 49.2639 5.0841 49.6774 4.19366L49.871 4.25817C50.4516 4.70979 50.7097 5.22592 50.7097 5.87108C50.7097 6.51624 50.3871 8.06463 49.6774 10.4517L43.5484 31.4195C43.0968 33.0324 42.7097 34.2582 42.3226 35.0324L42.0645 34.8388C41.8241 34.6585 41.629 34.4248 41.4947 34.156C41.3603 33.8873 41.2903 33.5909 41.2903 33.2904ZM42.5806 0.387207L25.2903 25.1614L22.6452 0.387207H9.67742L9.35484 1.29043C10.7097 1.29043 11.7419 1.48398 12.3226 1.67753C12.9677 1.93559 13.6129 2.51624 14.3871 3.29043L6.45161 30.0001C6.00075 31.8152 4.95616 33.4275 3.48387 34.5808C2.54331 35.2414 1.40493 35.5601 0.258065 35.484L0 36.4517H12L12.2581 35.484C10.7742 35.484 9.74194 35.1614 9.09678 34.5808C8.45161 34.0646 8.19355 33.3549 8.19355 32.4517C8.19355 31.8066 8.32258 31.0324 8.64516 30.0001L15.4839 6.06463L18.7742 36.3872H20L40.8387 6.64527L34 30.0001C33.3548 32.1937 32.5161 33.6775 31.6129 34.3872C30.7097 35.1614 29.2258 35.484 27.2903 35.484L26.9677 36.4517H41.4194C41.1613 36.4517 40.9032 36.9033 40.5807 37.0969C39.871 37.3549 38.7742 37.5485 37.3548 37.5485L37.0968 38.5162H54.7742L55.0323 37.613C53.5484 37.613 52.4516 37.3549 51.871 36.9033C51.2258 36.4517 50.9677 35.8711 50.9677 35.0969C50.9677 34.4517 51.2258 33.4195 51.6129 31.9356L55.4839 18.7743L59.3548 31.0324C59.871 32.7743 60.129 34.0646 60.129 34.9033C60.1365 35.5749 59.882 36.2229 59.4194 36.7098C58.9032 37.2259 58.129 37.484 57.0968 37.613L56.7742 38.5162H72.5161L72.8387 37.613C71.5484 37.484 70.5807 37.0969 69.8065 36.3227C68.3273 33.9295 67.2384 31.3162 66.5807 28.5808L62.3226 15.2904L68.0645 10.1291L70.5807 7.87108C72.5774 6.34018 74.7418 5.0415 77.0323 4.00011C77.6774 3.80656 78.5161 3.5485 79.6129 3.48398L79.871 2.45172H66.129L65.871 3.48398C66.8387 3.61301 67.4839 3.87108 67.8065 4.25817C68.2581 4.64527 68.4516 5.1614 68.4516 5.67753C68.4439 6.18475 68.2868 6.67844 68 7.09688C67.8065 7.41946 66.7097 8.38721 64.9032 10.1291L55.4839 18.7743L57.9355 10.1291C58.2609 8.73545 58.7145 7.37483 59.2903 6.06463C59.7428 5.23526 60.4117 4.54408 61.2258 4.06463C61.871 3.67753 62.7742 3.48398 63.9355 3.48398L64.1936 2.45172H51.0323C52.2022 1.64207 53.613 1.25522 55.0323 1.35495L55.3548 0.387207H42.5806Z" fill="white"/>
</mask>
<g mask="url(#mask2_2963_3115)">
<path d="M41.2903 33.2904C41.2903 32.5808 41.5484 31.484 41.9355 30.0646L48.7097 6.96785C48.9397 6.01338 49.2639 5.0841 49.6774 4.19366L49.871 4.25817C50.4516 4.70979 50.7097 5.22592 50.7097 5.87108C50.7097 6.51624 50.3871 8.06463 49.6774 10.4517L43.5484 31.4195C43.0968 33.0324 42.7097 34.2582 42.3226 35.0324L42.0645 34.8388C41.8241 34.6585 41.629 34.4248 41.4947 34.156C41.3603 33.8873 41.2903 33.5909 41.2903 33.2904ZM42.5806 0.387207L25.2903 25.1614L22.6452 0.387207H9.67742L9.35484 1.29043C10.7097 1.29043 11.7419 1.48398 12.3226 1.67753C12.9677 1.93559 13.6129 2.51624 14.3871 3.29043L6.45161 30.0001C6.00075 31.8152 4.95616 33.4275 3.48387 34.5808C2.54331 35.2414 1.40493 35.5601 0.258065 35.484L0 36.4517H12L12.2581 35.484C10.7742 35.484 9.74194 35.1614 9.09678 34.5808C8.45161 34.0646 8.19355 33.3549 8.19355 32.4517C8.19355 31.8066 8.32258 31.0324 8.64516 30.0001L15.4839 6.06463L18.7742 36.3872H20L40.8387 6.64527L34 30.0001C33.3548 32.1937 32.5161 33.6775 31.6129 34.3872C30.7097 35.1614 29.2258 35.484 27.2903 35.484L26.9677 36.4517H41.4194C41.1613 36.4517 40.9032 36.9033 40.5807 37.0969C39.871 37.3549 38.7742 37.5485 37.3548 37.5485L37.0968 38.5162H54.7742L55.0323 37.613C53.5484 37.613 52.4516 37.3549 51.871 36.9033C51.2258 36.4517 50.9677 35.8711 50.9677 35.0969C50.9677 34.4517 51.2258 33.4195 51.6129 31.9356L55.4839 18.7743L59.3548 31.0324C59.871 32.7743 60.129 34.0646 60.129 34.9033C60.1365 35.5749 59.882 36.2229 59.4194 36.7098C58.9032 37.2259 58.129 37.484 57.0968 37.613L56.7742 38.5162H72.5161L72.8387 37.613C71.5484 37.484 70.5807 37.0969 69.8065 36.3227C68.3273 33.9295 67.2384 31.3162 66.5807 28.5808L62.3226 15.2904L68.0645 10.1291L70.5807 7.87108C72.5774 6.34018 74.7418 5.0415 77.0323 4.00011C77.6774 3.80656 78.5161 3.5485 79.6129 3.48398L79.871 2.45172H66.129L65.871 3.48398C66.8387 3.61301 67.4839 3.87108 67.8065 4.25817C68.2581 4.64527 68.4516 5.1614 68.4516 5.67753C68.4439 6.18475 68.2868 6.67844 68 7.09688C67.8065 7.41946 66.7097 8.38721 64.9032 10.1291L55.4839 18.7743L57.9355 10.1291C58.2609 8.73545 58.7145 7.37483 59.2903 6.06463C59.7428 5.23526 60.4117 4.54408 61.2258 4.06463C61.871 3.67753 62.7742 3.48398 63.9355 3.48398L64.1936 2.45172H51.0323C52.2022 1.64207 53.613 1.25522 55.0323 1.35495L55.3548 0.387207H42.5806Z" fill="url(#paint1_linear_2963_3115)"/>
</g>
</g>
<defs>
<linearGradient id="paint0_linear_2963_3115" x1="98.7742" y1="0.387026" x2="98.7742" y2="39.7419" gradientUnits="userSpaceOnUse">
<stop stop-color="#E23836"/>
<stop offset="1" stop-color="#8C2322"/>
</linearGradient>
<linearGradient id="paint1_linear_2963_3115" x1="39.871" y1="0.387207" x2="39.871" y2="38.7098" gradientUnits="userSpaceOnUse">
<stop stop-color="#1D4677"/>
<stop offset="1" stop-color="#367ABE"/>
</linearGradient>
<clipPath id="clip0_2963_3115">
<rect width="134.839" height="40" fill="white"/>
</clipPath>
</defs>
</svg>
