<svg width="150" height="40" viewBox="0 0 150 40" fill="none" xmlns="http://www.w3.org/2000/svg">
<g clip-path="url(#clip0_2963_3167)">
<path fill-rule="evenodd" clip-rule="evenodd" d="M0 0V37.3333L37.3333 0H0Z" fill="#92CFAE"/>
<path fill-rule="evenodd" clip-rule="evenodd" d="M2.66663 40.0001H40V2.66675L2.66663 40.0001Z" fill="#2A8288"/>
<path fill-rule="evenodd" clip-rule="evenodd" d="M60.9706 19.1329C65.3114 19.1329 67.619 17.0072 67.619 13.0354V12.811C67.619 8.55953 65.2012 6.88132 60.9706 6.88132H56.4649V19.1329H60.9706ZM47.619 0H61.1903C70.7506 0 76.1904 4.30742 76.1904 12.7557V12.9788C76.1904 21.4265 70.4214 25.4548 61.4647 25.4548H56.4649V40H47.619V0Z" fill="#263141"/>
<path fill-rule="evenodd" clip-rule="evenodd" d="M93.8006 33.1187C98.0595 33.1187 100.216 31.2167 100.216 27.5799V27.3568C100.216 23.776 98.0595 21.8181 93.5851 21.8181H88.6252V33.1187H93.8006ZM94.1242 40H80V0H105.122V7.04914H88.6796L88.6252 15.4402H94.3935C103.289 15.4402 108.571 19.4126 108.571 27.4121V27.6365C108.571 35.4682 103.666 40 94.1242 40Z" fill="#263141"/>
<path fill-rule="evenodd" clip-rule="evenodd" d="M115 0.0558623H124.288V17.2627L138.621 0H148.483L132.257 18.9386L149.286 40H138.449L124.288 22.0669V40H115V0.0558623Z" fill="#263141"/>
</g>
<defs>
<clipPath id="clip0_2963_3167">
<rect width="150" height="40" fill="white"/>
</clipPath>
</defs>
</svg>
