<svg width="40" height="40" viewBox="0 0 40 40" fill="none" xmlns="http://www.w3.org/2000/svg">
<g clip-path="url(#clip0_2963_3104)">
<path d="M40 0H0V40H40V0Z" fill="#221F73"/>
<path d="M2.5 25.1001H11.58L10.34 27.2401H7.96V34.3201H5.68V27.2401H2.5V25.1001Z" fill="white"/>
<path d="M24.14 27.2201C23.88 27.2201 23.7 27.3801 23.7 27.6401V31.7401C23.7 32.0201 23.88 32.1601 24.14 32.1601H28.84V34.3001H24.14C22.5 34.3001 21.42 33.3001 21.42 31.7401V27.6601C21.42 26.1001 22.48 25.0801 24.14 25.0801H29.4L28.16 27.2201H24.14Z" fill="white"/>
<path d="M17.34 25.1001H13.08L11.84 27.2401H17.32C17.6 27.2401 17.74 27.4001 17.74 27.6601V28.6401H14.2C12.56 28.6401 11.36 29.8401 11.36 31.4801C11.36 33.1201 12.56 34.3201 14.2 34.3201H20.02V27.6601C20.04 26.1201 18.96 25.1001 17.34 25.1001ZM17.76 32.2401H14.48C14.02 32.2401 13.68 31.9001 13.68 31.4201C13.68 30.9401 14.02 30.6001 14.48 30.6001H17.76V32.2401Z" fill="white"/>
<path d="M32.56 27.2201C32.3 27.2201 32.12 27.3801 32.12 27.6401V31.7401C32.12 32.0201 32.3 32.1601 32.56 32.1601H37.26V34.3001H32.56C30.92 34.3001 29.84 33.3001 29.84 31.7401V27.6601C29.84 26.1001 30.9 25.0801 32.56 25.0801H37.82L36.58 27.2201H32.56Z" fill="white"/>
</g>
<defs>
<clipPath id="clip0_2963_3104">
<rect width="40" height="40" fill="white"/>
</clipPath>
</defs>
</svg>
