<svg width="212" height="40" viewBox="0 0 212 40" fill="none" xmlns="http://www.w3.org/2000/svg">
<g clip-path="url(#clip0_2963_3065)">
<path fill-rule="evenodd" clip-rule="evenodd" d="M15.0074 18.5627V5.7542H16.1032C16.9248 5.7542 18.2951 5.61753 18.2951 9.45276V14.7954C18.2951 18.631 16.9244 18.5627 16.1032 18.5627H15.0074ZM6.58242 33.9052H4.52794V35.0018H19.4588C23.0895 35.0018 26.8568 33.699 26.8568 27.8089C26.8568 23.7687 25.4181 19.9326 19.8013 19.3843V18.9048C22.5416 18.7002 26.3772 17.3982 26.3772 11.7139C26.3772 5.27505 21.3767 4.59009 19.7338 4.59009H4.52753V5.75461H6.58201L6.58242 33.9052ZM15.0074 33.9052V19.6585H16.1032C16.9248 19.6585 18.2951 19.5901 18.2951 23.4258V30.1363C18.2951 33.9723 16.9244 33.9052 16.1032 33.9052H15.0074Z" fill="#263141"/>
<path fill-rule="evenodd" clip-rule="evenodd" d="M30.35 5.75436H28.2263V4.58984H47.1304V15.4801H46.4454C45.5534 5.8227 40.7599 5.75395 39.2533 5.75395H38.7054V19.1103H39.1158C41.8556 19.1103 42.9518 15.6863 42.8148 12.6036H43.5681V26.6445H42.8148C42.9518 23.5622 41.8556 20.2061 39.1158 20.2061H38.7054V33.905C44.4584 34.0425 46.445 28.699 46.9245 23.2889H47.6774V35.0016H28.2255V33.905H30.3492V5.75436H30.35Z" fill="#263141"/>
<path fill-rule="evenodd" clip-rule="evenodd" d="M57.8168 5.75436V33.9054H52.2688C54.7341 30.2756 55.0082 25.0009 55.0082 17.4671V8.22089C55.0082 5.82351 55.7619 5.75477 56.3782 5.75477H57.8168V5.75436ZM51.4468 4.59025V5.75477H52.5425C53.2275 5.75477 54.1866 5.89226 54.1866 8.56296V17.4675C54.1866 29.7964 52.4742 33.9058 49.8035 33.9058H49.3923V40.0005H50.0772C50.2139 35.482 51.8584 35.0024 55.4882 35.0024H62.7482C66.3789 35.0024 68.0225 35.482 68.1596 40.0005H68.8446V33.9054H66.2418V5.75436H68.2963V4.58984H51.4468V4.59025Z" fill="#263141"/>
<path fill-rule="evenodd" clip-rule="evenodd" d="M77.4042 7.87784C77.4042 5.96003 78.0208 5.1384 79.0483 5.1384C80.0074 5.1384 80.6919 5.96044 80.6919 7.87784V31.8516C80.6919 33.6994 80.0074 34.5223 79.0483 34.5223C78.0208 34.5223 77.4042 33.699 77.4042 31.8516V7.87784ZM68.5001 19.8639C68.5001 27.3985 72.0615 35.6843 79.0478 35.6843C86.0333 35.6843 89.5265 27.3985 89.5265 19.8639C89.5265 12.2614 86.0333 3.97388 79.0478 3.97388C72.0615 3.97388 68.5001 12.2614 68.5001 19.8639Z" fill="#263141"/>
<path fill-rule="evenodd" clip-rule="evenodd" d="M93.2271 8.0834H93.1587V30.1365C93.1587 33.5633 94.3229 33.9054 95.2816 33.9054H95.8294V35.002H90.2131V33.9054C91.103 33.9725 92.3367 33.4929 92.3367 30.1365V5.75436H90.2131V4.58984H100.761L103.432 16.9875H103.569L106.308 4.58984H116.857V5.75436H114.801V33.9054H116.857V35.002H104.322V33.9054H106.376V8.22089H106.24L100.281 35.002H99.1168L93.2271 8.0834Z" fill="#263141"/>
<path fill-rule="evenodd" clip-rule="evenodd" d="M126.718 7.87784C126.718 5.96003 127.402 5.1384 128.362 5.1384C129.389 5.1384 130.005 5.96044 130.005 7.87784V31.8516C130.005 33.6994 129.389 34.5223 128.362 34.5223C127.402 34.5223 126.718 33.699 126.718 31.8516V7.87784ZM117.882 19.8639C117.882 27.3985 121.375 35.6843 128.362 35.6843C135.346 35.6843 138.909 27.3985 138.909 19.8639C138.909 12.2614 135.346 3.97388 128.362 3.97388C121.375 3.97388 117.882 12.2614 117.882 19.8639Z" fill="#263141"/>
<path fill-rule="evenodd" clip-rule="evenodd" d="M159.387 14.59H158.634C157.948 9.65899 155.552 5.82294 152.812 5.82294C149.798 5.82294 149.662 10.2752 149.662 12.3984V26.439C149.662 27.8085 149.73 33.0128 153.154 33.0128C156.989 33.0128 158.497 27.7397 159.045 23.6987L159.73 23.9045C159.113 28.9738 157.195 35.6835 151.305 35.6835C144.249 35.6835 140.825 27.0552 140.825 19.7951C140.825 11.096 145.073 3.97305 151.305 3.97305C152.539 3.97305 154.386 4.38386 156.1 5.9592L158.36 3.28809H159.045L159.387 14.59Z" fill="#263141"/>
<path fill-rule="evenodd" clip-rule="evenodd" d="M167.198 5.7542C163.293 6.09668 161.924 12.193 161.65 15.4804H160.964V4.59009H181.855V15.4804H181.101C180.827 12.1934 179.456 6.09668 175.618 5.7542V33.9052H178.086V35.0018H164.661V33.9052H167.195V5.7542H167.195H167.198Z" fill="#263141"/>
<path fill-rule="evenodd" clip-rule="evenodd" d="M193.774 25.8231H193.909L197.06 7.80909V5.7542H196.033V4.59009H207.539V5.7542H205.485V33.9052H207.539V35.0018H196.033V33.9052H197.06V12.6038H196.925L193.774 30.5487V33.9052H194.801V35.0018H183.291V33.9052H185.349V5.7542H183.291V4.59009H194.801V5.7542H193.774V25.8231Z" fill="#263141"/>
</g>
<defs>
<clipPath id="clip0_2963_3065">
<rect width="211.136" height="40" fill="white"/>
</clipPath>
</defs>
</svg>
