<svg width="157" height="256" viewBox="0 0 157 256" fill="none" xmlns="http://www.w3.org/2000/svg">
<g clip-path="url(#clip0_3001_2783)">
<path d="M128.002 242.847L105.464 248.886L100.935 231.983C100.534 230.488 99.5565 229.214 98.2166 228.441C96.8768 227.667 95.2846 227.457 93.7902 227.858L48.7137 239.936C47.2193 240.337 45.9452 241.314 45.1716 242.654C44.3981 243.994 44.1884 245.586 44.5889 247.08L55.1573 286.522L32.619 292.562C31.1247 292.962 29.8506 293.94 29.077 295.279C28.3035 296.619 28.0938 298.211 28.4942 299.706L40.5725 344.782C40.9729 346.277 41.9505 347.551 43.2904 348.324C44.6302 349.098 46.2224 349.308 47.7168 348.907L149.139 321.731C150.633 321.331 151.908 320.353 152.681 319.013C153.455 317.673 153.664 316.081 153.264 314.587L135.146 246.972C134.746 245.478 133.768 244.204 132.429 243.43C131.089 242.656 129.497 242.447 128.002 242.847ZM61.601 333.109L50.3318 336.128L47.3123 324.859L58.5814 321.84L61.601 333.109ZM55.5619 310.57L44.2927 313.59L41.2732 302.321L52.5423 299.301L55.5619 310.57ZM89.7738 325.56L78.5047 328.579L75.4851 317.31L86.7542 314.291L89.7738 325.56ZM83.7347 303.022L72.4656 306.041L69.446 294.772L80.7151 291.752L83.7347 303.022ZM77.6956 280.483L66.4264 283.503L63.4069 272.234L74.676 269.214L77.6956 280.483ZM71.6565 257.945L60.3873 260.965L57.3678 249.695L68.6369 246.676L71.6565 257.945ZM112.312 319.521L101.043 322.54L98.0234 311.271L109.293 308.252L112.312 319.521ZM106.273 296.982L95.0038 300.002L91.9843 288.733L103.253 285.713L106.273 296.982ZM100.234 274.444L88.9647 277.464L85.9452 266.195L97.2143 263.175L100.234 274.444ZM94.1947 251.906L82.9256 254.925L79.9061 243.656L91.1752 240.637L94.1947 251.906ZM140.485 311.972L129.216 314.991L126.196 303.722L137.465 300.703L140.485 311.972ZM134.446 289.434L123.177 292.453L120.157 281.184L131.426 278.164L134.446 289.434ZM128.407 266.895L117.138 269.915L114.118 258.646L125.387 255.626L128.407 266.895Z" fill="white" fill-opacity="0.06"/>
</g>
<path d="M133 -53.3334C96.242 -53.3334 66.3337 -23.425 66.3337 13.2916C66.092 67 130.467 111.533 133 113.333C133 113.333 199.909 67 199.667 13.3333C199.667 -23.425 169.759 -53.3334 133 -53.3334ZM133 46.6666C114.584 46.6666 99.667 31.75 99.667 13.3333C99.667 -5.08338 114.584 -20 133 -20C151.417 -20 166.334 -5.08338 166.334 13.3333C166.334 31.75 151.417 46.6666 133 46.6666Z" fill="white" fill-opacity="0.06"/>
<defs>
<clipPath id="clip0_3001_2783">
<rect width="140" height="140" fill="white" transform="translate(0.617188 240.745) rotate(-15)"/>
</clipPath>
</defs>
</svg>
