<svg width="353" height="174" viewBox="0 0 353 174" fill="none" xmlns="http://www.w3.org/2000/svg">
<g clip-path="url(#clip0_5302_4318)">
<path d="M146.2 107.148L120.442 114.05L115.265 94.7317C114.808 93.0238 113.69 91.5677 112.159 90.6836C110.628 89.7996 108.808 89.56 107.1 90.0176L55.5843 103.821C53.8764 104.279 52.4203 105.396 51.5363 106.927C50.6522 108.459 50.4126 110.278 50.8703 111.986L62.9485 157.063L37.1905 163.965C35.4826 164.422 34.0265 165.54 33.1424 167.071C32.2584 168.602 32.0188 170.422 32.4764 172.13L46.2801 223.646C46.7377 225.354 47.855 226.81 49.3863 227.694C50.9175 228.578 52.7372 228.817 54.4451 228.36L170.356 197.301C172.064 196.844 173.52 195.726 174.404 194.195C175.288 192.664 175.528 190.844 175.07 189.136L154.365 111.862C153.907 110.155 152.79 108.698 151.259 107.814C149.727 106.93 147.908 106.691 146.2 107.148ZM70.3127 210.304L57.4336 213.755L53.9827 200.876L66.8617 197.425L70.3127 210.304ZM63.4108 184.546L50.5318 187.997L47.0809 175.118L59.9599 171.667L63.4108 184.546ZM102.51 201.677L89.6312 205.128L86.1802 192.249L99.0593 188.798L102.51 201.677ZM95.6083 175.919L82.7293 179.37L79.2784 166.491L92.1574 163.04L95.6083 175.919ZM88.7065 150.161L75.8275 153.612L72.3766 140.733L85.2556 137.282L88.7065 150.161ZM81.8047 124.403L68.9256 127.854L65.4747 114.975L78.3537 111.524L81.8047 124.403ZM128.268 194.775L115.389 198.226L111.938 185.347L124.817 181.896L128.268 194.775ZM121.366 169.017L108.487 172.468L105.036 159.589L117.915 156.138L121.366 169.017ZM114.465 143.259L101.586 146.71L98.1346 133.831L111.014 130.38L114.465 143.259ZM107.563 117.501L94.6837 120.952L91.2327 108.073L104.112 104.622L107.563 117.501ZM160.466 186.148L147.587 189.599L144.136 176.72L157.015 173.269L160.466 186.148ZM153.564 160.39L140.685 163.841L137.234 150.962L150.113 147.511L153.564 160.39ZM146.662 134.632L133.783 138.083L130.332 125.204L143.211 121.753L146.662 134.632Z" fill="white" fill-opacity="0.06"/>
</g>
<path d="M253 -39.3325C216.242 -39.3325 186.334 -9.42419 186.334 27.2925C186.092 81.0008 250.467 125.534 253 127.334C253 127.334 319.909 81.0008 319.667 27.3341C319.667 -9.42418 289.759 -39.3325 253 -39.3325ZM253 60.6675C234.584 60.6675 219.667 45.7508 219.667 27.3341C219.667 8.91748 234.584 -5.99919 253 -5.99919C271.417 -5.99919 286.334 8.91748 286.334 27.3341C286.334 45.7508 271.417 60.6675 253 60.6675Z" fill="white" fill-opacity="0.06"/>
<defs>
<clipPath id="clip0_5302_4318">
<rect width="160" height="160" fill="white" transform="translate(0.617188 104.746) rotate(-15)"/>
</clipPath>
</defs>
</svg>
