<svg width="212" height="40" viewBox="0 0 212 40" fill="none" xmlns="http://www.w3.org/2000/svg">
<g clip-path="url(#clip0_2955_2777)">
<path fill-rule="evenodd" clip-rule="evenodd" d="M15.0072 18.5629V5.75444H16.103C16.9246 5.75444 18.295 5.61778 18.295 9.453V14.7956C18.295 18.6313 16.9242 18.5629 16.103 18.5629H15.0072ZM6.58224 33.9055H4.52775V35.0021H19.4587C23.0893 35.0021 26.8566 33.6992 26.8566 27.8091C26.8566 23.7689 25.4179 19.9329 19.8011 19.3846V18.905C22.5414 18.7004 26.377 17.3984 26.377 11.7141C26.377 5.2753 21.3765 4.59033 19.7336 4.59033H4.52734V5.75485H6.58183L6.58224 33.9055ZM15.0072 33.9055V19.6587H16.103C16.9246 19.6587 18.295 19.5904 18.295 23.426V30.1365C18.295 33.9726 16.9242 33.9055 16.103 33.9055H15.0072Z" fill="#263141"/>
<path fill-rule="evenodd" clip-rule="evenodd" d="M30.35 5.75436H28.2264V4.58984H47.1304V15.4801H46.4455C45.5534 5.8227 40.7599 5.75395 39.2533 5.75395H38.7054V19.1103H39.1159C41.8557 19.1103 42.9519 15.6863 42.8148 12.6036H43.5681V26.6445H42.8148C42.9519 23.5622 41.8557 20.2061 39.1159 20.2061H38.7054V33.905C44.4585 34.0425 46.445 28.699 46.9246 23.2889H47.6775V35.0016H28.2256V33.905H30.3492V5.75436H30.35Z" fill="#263141"/>
<path fill-rule="evenodd" clip-rule="evenodd" d="M57.8167 5.75436V33.9054H52.2686C54.7339 30.2756 55.0081 25.0009 55.0081 17.4671V8.22089C55.0081 5.82351 55.7618 5.75477 56.378 5.75477H57.8167V5.75436ZM51.4466 4.59025V5.75477H52.5424C53.2273 5.75477 54.1864 5.89226 54.1864 8.56296V17.4675C54.1864 29.7964 52.474 33.9058 49.8033 33.9058H49.3921V40.0005H50.0771C50.2137 35.482 51.8582 35.0024 55.488 35.0024H62.7481C66.3787 35.0024 68.0224 35.482 68.1594 40.0005H68.8444V33.9054H66.2416V5.75436H68.2961V4.58984H51.4466V4.59025Z" fill="#263141"/>
<path fill-rule="evenodd" clip-rule="evenodd" d="M77.4041 7.87809C77.4041 5.96027 78.0208 5.13864 79.0482 5.13864C80.0073 5.13864 80.6919 5.96068 80.6919 7.87809V31.8518C80.6919 33.6997 80.0073 34.5225 79.0482 34.5225C78.0208 34.5225 77.4041 33.6993 77.4041 31.8518V7.87809ZM68.5 19.8641C68.5 27.3987 72.0615 35.6846 79.0478 35.6846C86.0333 35.6846 89.5264 27.3987 89.5264 19.8641C89.5264 12.2616 86.0333 3.97412 79.0478 3.97412C72.0615 3.97412 68.5 12.2616 68.5 19.8641Z" fill="#263141"/>
<path fill-rule="evenodd" clip-rule="evenodd" d="M93.2269 8.0834H93.1586V30.1365C93.1586 33.5633 94.3227 33.9054 95.2814 33.9054H95.8293V35.002H90.2129V33.9054C91.1029 33.9725 92.3365 33.4929 92.3365 30.1365V5.75436H90.2129V4.58984H100.761L103.431 16.9875H103.569L106.308 4.58984H116.857V5.75436H114.801V33.9054H116.857V35.002H104.322V33.9054H106.376V8.22089H106.24L100.281 35.002H99.1166L93.2269 8.0834Z" fill="#263141"/>
<path fill-rule="evenodd" clip-rule="evenodd" d="M126.718 7.87809C126.718 5.96027 127.402 5.13864 128.361 5.13864C129.389 5.13864 130.005 5.96068 130.005 7.87809V31.8518C130.005 33.6997 129.389 34.5225 128.361 34.5225C127.402 34.5225 126.718 33.6993 126.718 31.8518V7.87809ZM117.882 19.8641C117.882 27.3987 121.375 35.6846 128.361 35.6846C135.346 35.6846 138.909 27.3987 138.909 19.8641C138.909 12.2616 135.346 3.97412 128.361 3.97412C121.375 3.97412 117.882 12.2616 117.882 19.8641Z" fill="#263141"/>
<path fill-rule="evenodd" clip-rule="evenodd" d="M159.387 14.59H158.634C157.948 9.65899 155.552 5.82294 152.812 5.82294C149.798 5.82294 149.662 10.2752 149.662 12.3984V26.439C149.662 27.8085 149.73 33.0128 153.154 33.0128C156.989 33.0128 158.498 27.7397 159.045 23.6987L159.73 23.9045C159.113 28.9738 157.196 35.6835 151.305 35.6835C144.25 35.6835 140.825 27.0552 140.825 19.7951C140.825 11.096 145.073 3.97305 151.305 3.97305C152.539 3.97305 154.386 4.38386 156.1 5.9592L158.36 3.28809H159.045L159.387 14.59Z" fill="#263141"/>
<path fill-rule="evenodd" clip-rule="evenodd" d="M167.199 5.75444C163.294 6.09692 161.924 12.1933 161.651 15.4806H160.965V4.59033H181.855V15.4806H181.102C180.828 12.1937 179.457 6.09692 175.619 5.75444V33.9055H178.086V35.0021H164.661V33.9055H167.195V5.75444H167.196H167.199Z" fill="#263141"/>
<path fill-rule="evenodd" clip-rule="evenodd" d="M193.774 25.8234H193.909L197.06 7.80933V5.75444H196.033V4.59033H207.539V5.75444H205.485V33.9055H207.539V35.0021H196.033V33.9055H197.06V12.6041H196.925L193.774 30.549V33.9055H194.801V35.0021H183.291V33.9055H185.349V5.75444H183.291V4.59033H194.801V5.75444H193.774V25.8234Z" fill="#263141"/>
</g>
<defs>
<clipPath id="clip0_2955_2777">
<rect width="211.136" height="40" fill="white"/>
</clipPath>
</defs>
</svg>
