<svg width="131" height="40" viewBox="0 0 131 40" fill="none" xmlns="http://www.w3.org/2000/svg">
<path d="M10.3794 25.2106V27.2846H13.7827V13.5423H10.1061V19.809C10.1061 21.3337 10.012 22.3762 9.82472 22.9418C9.63909 23.5084 9.29124 23.9592 8.78608 24.3032C8.28146 24.6467 7.70989 24.8165 7.07299 24.8165C6.57544 24.8165 6.15085 24.6984 5.79756 24.4583C5.44318 24.2194 5.19005 23.8824 5.03219 23.4486C4.87542 23.0185 4.79703 22.0632 4.79703 20.589V13.5423H1.12207V22.0953C1.12207 23.1475 1.18957 23.9543 1.32348 24.5209C1.46012 25.0833 1.70018 25.589 2.04421 26.0348C2.38825 26.479 2.89559 26.8426 3.56896 27.1317C4.24015 27.4175 4.9832 27.559 5.79756 27.559C7.63803 27.559 9.16387 26.7778 10.3794 25.2106ZM15.4164 13.5423H19.0347V18.6348H24.2213V13.5423H27.837V27.2846H24.2213V21.5564H19.0347V27.2846H15.4164V13.5423ZM36.5069 13.5423H29.1521V17.84L32.8276 16.4252V27.3042H36.5069V16.4252L40.1863 17.84V13.5423H36.5069ZM45.5493 16.8607C46.2259 16.2342 47.0316 15.9293 48.0119 15.9293C48.9978 15.9293 49.7784 16.2755 50.399 16.9865C50.7838 17.435 50.9869 17.9489 51.1115 18.4938H44.5237C44.7387 17.8493 45.0719 17.3038 45.5493 16.8607ZM51.6118 22.785C51.6118 22.785 50.9738 24.1927 49.7212 24.8165C49.2542 25.049 48.669 25.1655 47.9869 25.1655C46.773 25.1655 45.8427 24.7131 45.1475 23.7817C44.6445 23.1154 44.3435 22.3658 44.2303 21.5128H54.6014C54.6014 21.5128 55.0391 17.7812 53.1632 15.3921C51.8987 13.7797 50.2014 12.912 47.9842 12.912C45.7153 12.912 43.8884 13.7013 42.552 15.2576C41.3272 16.6789 40.7023 18.4584 40.7023 20.5466C40.7023 22.5781 41.3272 24.3364 42.552 25.7784C43.9053 27.3734 45.7354 28.1828 47.9842 28.1828C49.5661 28.1828 50.958 27.749 52.1213 26.8987C54.247 25.3407 55.075 22.785 55.075 22.785H51.6118ZM64.715 23.6478C64.1587 24.3271 63.4608 24.6668 62.6252 24.6668C61.7521 24.6668 61.0128 24.2967 60.4053 23.5574C59.7989 22.8171 59.4946 21.6734 59.4946 20.1247C59.4946 18.7769 59.7842 17.7562 60.3667 17.0687C60.9491 16.3801 61.6775 16.0393 62.5615 16.0393C63.4064 16.0393 64.1151 16.3871 64.6867 17.0888C65.2599 17.7894 65.5479 18.8618 65.5479 20.3065C65.5479 21.8552 65.2692 22.9668 64.715 23.6478ZM67.5789 15.0573C66.4727 13.8091 65.1287 13.1825 63.5446 13.1825C62.6328 13.1825 61.8049 13.4041 61.0591 13.8445C60.315 14.2865 59.7233 14.8493 59.2878 15.5336V13.5314H55.9122V32.3891H59.5306V25.528C60.2072 26.2563 60.8495 26.7686 61.4625 27.068C62.0754 27.3679 62.7629 27.5193 63.5169 27.5193C65.101 27.5193 66.4499 26.884 67.5658 25.614C68.6779 24.3429 69.2348 22.5634 69.2348 20.2733C69.2348 18.0442 68.6834 16.3044 67.5789 15.0573ZM91.7538 22.2956C91.6672 19.6669 95.8327 18.3267 98.7118 19.8079V24.7354C95.5322 26.0598 91.9193 24.8867 91.7538 22.2956ZM98.7118 27.2846H102.774V20.5335C102.774 18.3082 102.915 16.8498 101.988 15.4117C101.057 13.9718 99.2115 13.4041 97.9089 13.4041H90.4664C89.7685 13.4318 89.9346 12.5946 89.9901 12.4264C91.7538 5.77217 93.1768 3.81466 95.5812 4.01118C96.6165 4.15053 97.2573 4.17829 97.7347 4.7662C98.1266 5.24142 98.2676 5.29804 99.021 4.15053C99.4929 3.36883 99.8593 2.75316 100.139 2.27848C100.391 1.83102 101.036 1.24475 100.083 1.13207C88.6471 0.880031 88.4828 5.40963 84.5688 12.8456C84.1491 13.5445 83.6989 13.5167 82.3876 13.5167H78.5564C73.3845 13.5167 70.7008 17.5706 70.3948 19.8356C70.1428 21.2036 70.0018 22.3778 70.673 23.8334C71.2032 24.9227 72.4895 26.405 74.3915 27.2433C74.8967 27.4387 75.2031 27.0761 75.2298 27.0484C75.7916 26.5427 77.5238 25.0065 78.0273 24.6151C78.3338 24.3348 77.969 24.1676 77.7458 24.141C74.532 23.7485 73.3567 22.8819 72.7987 20.7551C72.6305 19.1639 73.3845 15.6136 79.1443 15.5565C81.466 15.6136 83.3369 15.3349 82.4709 17.4018C79.3403 25.1747 78.6119 26.6015 75.3414 32.8893C73.3567 35.7978 70.8989 36.2181 66.869 34.9579C65.8239 34.6302 65.4978 35.3547 65.3541 35.6661C65.1396 36.1255 64.764 36.9693 64.623 37.2682C64.3987 37.7243 64.5795 37.8822 64.9045 37.8795C70.5249 37.8223 76.0954 36.7477 80.3729 31.8834C84.3718 26.767 85.2944 22.6576 87.9215 17.4579C88.3418 16.5358 88.9602 15.6969 90.026 15.6969H96.3351C98.3558 15.6969 98.7118 16.5358 98.7118 17.6261C97.2573 17.1792 96.0286 16.9816 94.2987 17.1792C90.5774 17.5706 88.228 19.079 88.0636 22.435C88.0897 24.9521 90.5219 27.5514 94.7973 27.4665C96.5724 27.5497 97.7679 27.3004 98.7118 26.3184V27.2846ZM108.411 27.2846V21.3691C108.935 21.3691 109.333 21.4845 109.601 21.7104C109.865 21.9385 110.184 22.448 110.547 23.2455L112.151 27.2846H115.994L114.199 23.4192C114.148 23.3239 114.1 23.2346 114.058 23.1502C113.275 21.4861 112.317 20.4987 111.182 20.1819C111.97 19.8912 112.568 19.1149 112.988 17.8596C113.294 16.9271 113.581 16.367 113.843 16.177C114.108 15.9979 114.715 15.9065 115.663 15.9065L115.649 13.501C114.975 13.4596 114.5 13.4373 114.23 13.4373C113.34 13.4373 112.626 13.6273 112.08 14.0039C111.536 14.3823 111.033 15.2429 110.573 16.5902C110.222 17.6011 109.924 18.2554 109.678 18.5564C109.43 18.8564 109.007 19.0409 108.411 19.1095V13.5423H104.793V27.2846H108.411ZM128.785 17.6381L125.237 18.263C125.116 17.5586 124.84 17.0306 124.415 16.6751C123.987 16.318 123.433 16.14 122.751 16.14C121.846 16.14 121.122 16.4519 120.584 17.0758C120.042 17.7007 119.773 18.7448 119.773 20.2069C119.773 21.8378 120.045 22.9869 120.592 23.6543C121.139 24.3282 121.874 24.6641 122.791 24.6641C123.479 24.6641 124.043 24.4649 124.481 24.0697C124.92 23.6728 125.229 22.9897 125.408 22.0207L128.958 22.6113C128.591 24.2645 127.884 25.5106 126.838 26.356C125.796 27.2008 124.393 27.6205 122.638 27.6205C120.642 27.6205 119.052 26.9885 117.865 25.724C116.679 24.4583 116.084 22.7055 116.084 20.4682C116.084 18.2037 116.682 16.4399 117.87 15.1781C119.063 13.9163 120.676 13.2859 122.704 13.2859C124.368 13.2859 125.687 13.6441 126.67 14.3621C127.651 15.0785 128.357 16.1694 128.785 17.6381ZM54.4207 33.6471H56.204L57.1316 35.2562L58.0314 33.6471H59.7989L58.1691 36.1783L59.9524 38.8773H58.131L57.0984 37.1974L56.0608 38.8773H54.2552L56.0635 36.1522L54.4207 33.6471ZM49.4093 36.8817L48.8372 35.0014L48.2656 36.8817H49.4093ZM49.7517 38.0177H47.9205L47.6592 38.8773H46.0087L47.9738 33.6471H49.7452L51.7049 38.8773H50.013L49.7517 38.0177ZM39.7949 33.6471H43.7943V34.7734H41.4176V35.6797H43.4519V36.7385H41.4176V38.8773H39.7949V33.6471ZM33.1869 35.7619H33.8744C33.9485 35.7619 34.0922 35.7396 34.3045 35.6917C34.4128 35.6705 34.5004 35.616 34.5696 35.5295C34.6387 35.4424 34.6719 35.34 34.6719 35.2274C34.6719 35.0586 34.6202 34.9301 34.5086 34.8398C34.4035 34.751 34.1994 34.7042 33.9022 34.7042H33.1869L33.1869 35.7619ZM31.5642 38.8773V33.6471H34.2631C34.7634 33.6471 35.1466 33.6895 35.4122 33.7745C35.6763 33.8594 35.8886 34.0194 36.0519 34.2491C36.2152 34.4827 36.2947 34.7652 36.2947 35.0983C36.2947 35.3863 36.231 35.6383 36.1101 35.8479C35.9827 36.0591 35.814 36.229 35.5968 36.3602C35.4585 36.444 35.2674 36.5131 35.0247 36.5676C35.2185 36.6323 35.3589 36.6971 35.4482 36.7614C35.5075 36.8049 35.5941 36.8964 35.7067 37.0368C35.8194 37.1805 35.8951 37.2878 35.9337 37.3634L36.7203 38.8773H34.8935L34.023 37.2785C33.9153 37.07 33.8162 36.9377 33.7313 36.8751C33.6115 36.7929 33.4787 36.7532 33.3301 36.7532H33.1869V38.8773H31.5642ZM23.7026 33.6471H28.0362V34.7652H25.3253V35.5959H27.837V36.6617H25.3253V37.6884H28.113V38.8773H23.7026V33.6471ZM15.4996 33.6471H20.4185V34.9394H18.768V38.8773H17.1529V34.9394H15.4996V33.6471ZM7.22922 33.6471H8.74199L10.7098 36.5382V33.6471H12.2346V38.8773H10.7098L8.75288 36.0009V38.8773H7.22922V33.6471ZM1.8809 33.6471H3.50369V38.8775H1.8809V33.6471Z" fill="#09ABB0"/>
</svg>
