<svg width="82" height="70" viewBox="0 0 82 70" fill="none" xmlns="http://www.w3.org/2000/svg">
<g clip-path="url(#clip0_2907_7760)">
<path d="M35.0059 69.152C53.9812 69.152 69.3698 53.7634 69.3698 34.7882C69.3698 15.8129 53.9812 0.424316 35.0059 0.424316C16.0186 0.436433 0.64209 15.8129 0.64209 34.8003C0.64209 53.7755 16.0186 69.152 35.0059 69.152Z" fill="white"/>
<path d="M19.5326 61.7602L18.2724 60.9968L19.884 58.3432L19.2054 57.9434L17.2788 61.1423L19.8718 62.7175L21.8106 59.5065L21.132 59.1066L19.5326 61.7602Z" fill="#0067AA"/>
<path d="M17.9092 56.9502L17.061 57.9923L16.3945 57.4591C16.2491 57.3379 16.0916 57.2531 15.9341 57.2047C15.7766 57.1562 15.6312 57.1441 15.4737 57.1562C15.3282 57.1683 15.1828 57.2168 15.0496 57.3016C14.9163 57.3864 14.7951 57.4833 14.686 57.6287C14.5649 57.7742 14.4801 57.9196 14.4316 58.065C14.371 58.2104 14.3589 58.3558 14.3589 58.4891C14.371 58.6345 14.4195 58.7677 14.4922 58.901C14.577 59.0343 14.686 59.1676 14.8436 59.2888L16.1643 60.3551L18.5029 57.447L17.9092 56.9502ZM15.9705 59.3615L15.3888 58.901C15.3161 58.8405 15.2677 58.792 15.2192 58.7314C15.1828 58.6708 15.1465 58.6102 15.1465 58.5375C15.1344 58.4769 15.1465 58.4042 15.1707 58.3315C15.195 58.2588 15.2313 58.1861 15.2919 58.1134C15.4131 57.9559 15.5464 57.8832 15.6796 57.8832C15.8129 57.8832 15.9462 57.9317 16.0795 58.0407L16.6611 58.5012L15.9705 59.3615Z" fill="#0067AA"/>
<path d="M15.0249 55.9806C15.1461 55.7625 15.2188 55.5443 15.2551 55.3141C15.2794 55.0839 15.2551 54.8537 15.1703 54.6235C15.0855 54.3932 14.9522 54.163 14.7462 53.9449C14.5523 53.7389 14.3464 53.5935 14.1282 53.4966C13.898 53.3996 13.6678 53.3633 13.4376 53.3633C13.2074 53.3754 12.965 53.4239 12.7348 53.5329C12.5046 53.642 12.2865 53.7874 12.0805 53.9691C11.8745 54.163 11.717 54.369 11.5958 54.5871C11.4746 54.8052 11.4019 55.0354 11.3898 55.2778C11.3656 55.508 11.4019 55.7382 11.4746 55.9684C11.5594 56.1987 11.6927 56.4168 11.8745 56.6228C12.0805 56.8409 12.2986 56.9984 12.5288 57.0953C12.759 57.1923 12.9892 57.2286 13.2195 57.2286C13.4497 57.2165 13.6799 57.1559 13.898 57.0469C14.1282 56.9378 14.3342 56.7924 14.5402 56.5985C14.7341 56.4047 14.9037 56.1987 15.0249 55.9806ZM14.0071 56.0169C13.8738 56.1502 13.7284 56.2471 13.583 56.3198C13.4376 56.3925 13.2922 56.441 13.1468 56.4531C13.0014 56.4652 12.8681 56.4531 12.7348 56.4047C12.6015 56.3562 12.4803 56.2714 12.3713 56.1623C12.2622 56.0411 12.1895 55.92 12.1532 55.7867C12.1168 55.6534 12.1047 55.508 12.1289 55.3747C12.1532 55.2293 12.2016 55.096 12.2865 54.9506C12.3713 54.8052 12.4803 54.6719 12.6136 54.5508C12.7469 54.4175 12.8923 54.3205 13.0377 54.2478C13.1831 54.1751 13.3285 54.1267 13.4739 54.1145C13.6193 54.1024 13.7526 54.1145 13.8859 54.163C14.0192 54.2115 14.1404 54.2963 14.2494 54.4053C14.3585 54.5265 14.4312 54.6477 14.4675 54.781C14.5039 54.9143 14.516 55.0597 14.4918 55.193C14.4675 55.3384 14.4191 55.4716 14.3342 55.617C14.2494 55.7625 14.1404 55.8957 14.0071 56.0169Z" fill="#0067AA"/>
<path d="M11.5717 53.3634C11.7414 53.2543 11.8747 53.1089 11.9716 52.9514C12.0685 52.7939 12.1412 52.6121 12.1655 52.4183C12.1897 52.2244 12.1776 52.0305 12.1291 51.8124C12.0807 51.6064 11.9837 51.3883 11.8626 51.1702L12.2018 50.94L11.7777 50.322L11.4385 50.5522C11.2931 50.3463 11.1234 50.1887 10.9417 50.0676C10.7599 49.9464 10.5782 49.8616 10.3964 49.8131C10.2146 49.7646 10.0208 49.7646 9.83901 49.7889C9.65726 49.8252 9.4755 49.8979 9.30587 50.007C9.23316 50.0554 9.14835 50.1281 9.07564 50.2008C9.00294 50.2735 8.93024 50.3705 8.86965 50.4674C8.80907 50.5644 8.7606 50.6734 8.72425 50.8067C8.6879 50.9279 8.67578 51.0612 8.67578 51.2066C8.67578 51.352 8.71213 51.5095 8.7606 51.667C8.80907 51.8366 8.89389 52.0063 9.01506 52.188L8.67578 52.4183L9.09988 53.0362L9.43915 52.806C9.57244 52.9878 9.69361 53.121 9.8269 53.2422C9.96019 53.3513 10.0935 53.4361 10.2268 53.4967C10.36 53.5573 10.4933 53.5936 10.6145 53.6057C10.7357 53.6178 10.8568 53.6178 10.978 53.5936C11.0992 53.5694 11.2082 53.5451 11.3052 53.4967C11.4021 53.4603 11.499 53.4119 11.5717 53.3634ZM9.4755 51.8972C9.37857 51.7518 9.31798 51.6064 9.30587 51.4852C9.29375 51.3641 9.29375 51.2429 9.3301 51.1339C9.36645 51.0248 9.41492 50.94 9.48762 50.8552C9.56032 50.7703 9.63303 50.7098 9.71784 50.6492C9.86325 50.5522 9.99654 50.4917 10.1298 50.4674C10.2631 50.4432 10.3843 50.4432 10.4933 50.4795C10.6024 50.5159 10.6993 50.5522 10.7963 50.6249C10.8811 50.6976 10.9538 50.7703 11.0144 50.8552L9.4755 51.8972ZM10.8568 52.8908C10.7599 52.9272 10.6509 52.9393 10.5418 52.9393C10.4327 52.9272 10.3237 52.8908 10.2146 52.8302C10.1056 52.7697 9.99654 52.6606 9.88748 52.5152L11.4142 51.4852C11.4748 51.5701 11.5112 51.667 11.5475 51.7761C11.5839 51.8851 11.5839 51.9942 11.5717 52.1032C11.5596 52.2123 11.5112 52.3334 11.4506 52.4425C11.3779 52.5515 11.2809 52.6606 11.1355 52.7575C11.0507 52.806 10.9659 52.8545 10.8568 52.8908Z" fill="#0067AA"/>
<path d="M9.63287 48.8679C9.81463 48.6983 9.96003 48.5044 10.0448 48.2984C10.1418 48.0924 10.1781 47.8743 10.166 47.6441C10.1539 47.4139 10.0933 47.1715 9.97215 46.9171C9.88733 46.7353 9.77827 46.5778 9.6571 46.4445C9.53593 46.3112 9.39053 46.2022 9.22089 46.1295C9.06337 46.0568 8.88161 46.0083 8.67563 45.9962C8.48175 45.9841 8.26365 46.0083 8.03342 46.0689L8.3727 46.7717C8.43329 46.7596 8.50599 46.7474 8.59081 46.7474C8.67563 46.7353 8.76044 46.7474 8.85738 46.7717C8.95432 46.7959 9.03914 46.8444 9.13607 46.9171C9.22089 46.9898 9.30571 47.0988 9.37841 47.2442C9.439 47.3775 9.46323 47.4987 9.46323 47.632C9.46323 47.7532 9.42688 47.8864 9.35418 48.0076C9.29359 48.1288 9.19666 48.2378 9.06337 48.3469C8.9422 48.4559 8.78468 48.5529 8.60292 48.6377C8.43329 48.7225 8.28788 48.771 8.14248 48.8073C8.00919 48.8316 7.88802 48.8437 7.77897 48.8437C7.66991 48.8437 7.57298 48.8195 7.48816 48.7831C7.40334 48.7468 7.33064 48.7104 7.28217 48.6619C7.22158 48.6135 7.17312 48.565 7.13676 48.5165C7.10041 48.4681 7.06406 48.4196 7.05195 48.3711C7.00348 48.2742 6.96713 48.1773 6.95501 48.0924C6.94289 48.0076 6.93078 47.9349 6.94289 47.8622C6.95501 47.7895 6.96713 47.7289 6.99136 47.6805C7.01559 47.6199 7.03983 47.5714 7.07618 47.5351C7.11253 47.4866 7.13676 47.4502 7.17312 47.4139C7.20947 47.3775 7.24582 47.3533 7.27005 47.3291L6.93078 46.6263C6.85807 46.6626 6.78537 46.7232 6.71267 46.7838C6.63997 46.8444 6.56726 46.9292 6.49456 47.014C6.43398 47.0988 6.37339 47.2079 6.32492 47.3169C6.27646 47.4381 6.25222 47.5593 6.24011 47.6926C6.22799 47.8259 6.24011 47.9834 6.26434 48.1409C6.28857 48.2984 6.34916 48.4681 6.44609 48.6619C6.50668 48.7952 6.57938 48.9164 6.67632 49.0254C6.76114 49.1345 6.87019 49.2314 6.99136 49.3163C7.11253 49.4011 7.2337 49.4738 7.3791 49.5222C7.52451 49.5707 7.66991 49.6071 7.83955 49.6071C8.00919 49.6192 8.17883 49.5949 8.3727 49.5586C8.55446 49.5222 8.76044 49.4495 8.96643 49.3526C9.22089 49.1951 9.45111 49.0376 9.63287 48.8679Z" fill="#0067AA"/>
<path d="M7.22177 45.5965C7.48835 45.5117 7.71857 45.4026 7.93668 45.2572C8.14266 45.1118 8.3123 44.9422 8.43347 44.7483C8.55464 44.5544 8.62735 44.3363 8.6637 44.094C8.68793 43.8517 8.6637 43.5851 8.57888 43.2943C8.49406 43.0277 8.37289 42.8096 8.21537 42.6278C8.05785 42.4461 7.86397 42.3007 7.65798 42.2037C7.43988 42.1068 7.20965 42.0583 6.9552 42.0462C6.70074 42.0341 6.44628 42.0705 6.17971 42.1553C5.91313 42.2401 5.68291 42.3491 5.47692 42.5067C5.27093 42.6521 5.11341 42.8338 4.99224 43.0277C4.87107 43.2337 4.79837 43.4518 4.76202 43.6941C4.73778 43.9365 4.76202 44.1909 4.83472 44.4575C4.91954 44.7483 5.05283 44.9785 5.21035 45.1603C5.36787 45.342 5.56174 45.4875 5.76773 45.5723C5.97372 45.6571 6.21606 45.7056 6.4584 45.7056C6.70074 45.7177 6.9552 45.6813 7.22177 45.5965ZM5.68291 44.6393C5.58597 44.5423 5.51327 44.409 5.4648 44.2636C5.41634 44.1061 5.40422 43.9607 5.42845 43.8274C5.45269 43.6941 5.50116 43.5608 5.58597 43.4397C5.67079 43.3185 5.77985 43.2216 5.91313 43.1246C6.04642 43.0398 6.20394 42.9671 6.3857 42.9065C6.56745 42.8459 6.73709 42.8217 6.89461 42.8217C7.05213 42.8217 7.20965 42.8459 7.34294 42.8944C7.47623 42.9429 7.5974 43.0156 7.69434 43.1246C7.79127 43.2216 7.86397 43.3549 7.91244 43.5003C7.96091 43.6578 7.97303 43.8032 7.94879 43.9365C7.92456 44.0698 7.87609 44.203 7.79127 44.3242C7.70645 44.4454 7.5974 44.5423 7.46411 44.6393C7.33082 44.7362 7.1733 44.8089 6.99155 44.8574C6.80979 44.918 6.64016 44.9422 6.48263 44.9422C6.313 44.9422 6.16759 44.9179 6.0343 44.8695C5.90102 44.8089 5.77985 44.7362 5.68291 44.6393Z" fill="#0067AA"/>
<path d="M7.67026 40.2527L6.11928 40.4587L6.0587 39.974C6.2768 39.9255 6.48279 39.8407 6.66455 39.7438C6.85842 39.6468 7.01594 39.5135 7.14923 39.3681C7.28251 39.2106 7.37945 39.0289 7.44004 38.8229C7.50062 38.6169 7.51274 38.3745 7.47639 38.108C7.44004 37.8535 7.36733 37.6233 7.24616 37.4294C7.12499 37.2355 6.96747 37.0659 6.78572 36.9447C6.59184 36.8236 6.37374 36.7266 6.11928 36.6782C5.86482 36.6297 5.58613 36.6297 5.28321 36.666C5.02875 36.7024 4.79853 36.7509 4.61677 36.8357C4.43502 36.9084 4.26538 37.0053 4.14421 37.1144C4.02304 37.2234 3.91398 37.3325 3.82916 37.4658C3.74435 37.5991 3.69588 37.7202 3.64741 37.8535C3.61106 37.9868 3.58682 38.1201 3.57471 38.2534C3.57471 38.3867 3.57471 38.5078 3.58682 38.6169C3.61106 38.7865 3.64741 38.944 3.70799 39.0773C3.76858 39.2106 3.84128 39.3439 3.93822 39.453C4.02304 39.562 4.13209 39.6589 4.24114 39.7317C4.3502 39.8165 4.48348 39.8771 4.60465 39.9255C4.73794 39.974 4.87123 40.0103 5.01663 40.0346C5.16204 40.0588 5.29532 40.0709 5.44073 40.0588L5.50131 40.5435L3.95033 40.7495L4.04727 41.4886L7.75508 41.0039L7.67026 40.2527ZM5.07722 39.2712C4.90758 39.247 4.77429 39.1985 4.65312 39.1379C4.54407 39.0773 4.44713 38.9804 4.38655 38.8835C4.32596 38.7744 4.27749 38.6532 4.26538 38.5199C4.25326 38.3867 4.25326 38.2534 4.28961 38.1322C4.32596 38.011 4.38655 37.902 4.48348 37.805C4.58042 37.7081 4.70159 37.6354 4.85911 37.5627C5.01663 37.5021 5.19839 37.4537 5.41649 37.4173C5.6346 37.3931 5.82847 37.381 5.99811 37.4052C6.16775 37.4294 6.30104 37.4779 6.42221 37.5385C6.54338 37.6112 6.6282 37.696 6.68878 37.805C6.74937 37.9141 6.79783 38.0353 6.80995 38.1686C6.82207 38.3018 6.82207 38.4351 6.78572 38.5563C6.74937 38.6775 6.68878 38.7865 6.59184 38.8713C6.49491 38.9683 6.37374 39.041 6.21622 39.1137C6.0587 39.1743 5.87694 39.2227 5.64672 39.2591C5.42861 39.2954 5.24686 39.2954 5.07722 39.2712Z" fill="#0067AA"/>
<path d="M3.63492 35.2244C3.69551 35.3456 3.78033 35.4304 3.86515 35.5031C3.94997 35.5758 4.03478 35.6243 4.1196 35.6727C4.20442 35.7091 4.28924 35.7454 4.36194 35.7576C4.43465 35.7697 4.50735 35.7818 4.55582 35.7818L4.58005 35.0669C4.55582 35.0669 4.53158 35.0669 4.49523 35.0548C4.45888 35.0426 4.42253 35.0305 4.37406 35.0063C4.33771 34.9821 4.28924 34.9578 4.25289 34.9215C4.21654 34.8851 4.18019 34.8367 4.14384 34.7761C4.10749 34.7155 4.08325 34.6549 4.07113 34.5701C4.0469 34.4974 4.0469 34.4004 4.0469 34.3035C4.0469 34.2187 4.05902 34.146 4.07113 34.0612C4.08325 33.9764 4.1196 33.9158 4.15595 33.8431C4.19231 33.7825 4.25289 33.734 4.32559 33.6855C4.39829 33.6492 4.48311 33.625 4.58005 33.6371C4.66487 33.6371 4.73757 33.6613 4.79816 33.6855C4.85874 33.7219 4.90721 33.7582 4.94356 33.8067C4.97991 33.8552 5.01626 33.9158 5.02838 33.9763C5.05261 34.0369 5.05261 34.1096 5.05261 34.1823L5.02838 34.8245L5.59788 34.8367L5.62211 34.1702C5.62211 34.1096 5.63423 34.0369 5.64635 33.9642C5.65846 33.8915 5.6827 33.8309 5.71905 33.7704C5.7554 33.7098 5.81599 33.6613 5.88869 33.625C5.96139 33.5886 6.05833 33.5644 6.16738 33.5765C6.24008 33.5765 6.31278 33.6007 6.38549 33.625C6.45819 33.6613 6.51877 33.7098 6.56724 33.7704C6.61571 33.8309 6.66418 33.9158 6.68841 34.0127C6.71264 34.1096 6.73688 34.2308 6.72476 34.3762C6.72476 34.5337 6.70053 34.6549 6.66418 34.764C6.62783 34.873 6.57936 34.9578 6.51877 35.0184C6.45819 35.079 6.3976 35.1275 6.33702 35.1517C6.26431 35.1759 6.20373 35.1881 6.14315 35.1881L6.11891 35.903C6.27643 35.903 6.42184 35.8908 6.53089 35.8545C6.65206 35.8181 6.76111 35.7697 6.84593 35.697C6.93075 35.6243 7.01557 35.5394 7.07616 35.4425C7.13674 35.3456 7.18521 35.2365 7.22156 35.1275C7.25791 35.0184 7.29426 34.8972 7.30638 34.764C7.33061 34.6428 7.33061 34.5095 7.34273 34.3762C7.35485 34.1218 7.33061 33.9036 7.27003 33.6977C7.20944 33.5038 7.13674 33.3341 7.02769 33.2009C6.91863 33.0676 6.79746 32.9585 6.66418 32.8858C6.51877 32.8131 6.37337 32.7768 6.20373 32.7646C6.08256 32.7646 5.97351 32.7646 5.87657 32.7889C5.77963 32.8131 5.70693 32.8373 5.63423 32.8737C5.56153 32.9101 5.51306 32.9585 5.46459 33.007C5.41612 33.0555 5.37977 33.1039 5.35554 33.1524C5.3313 33.2009 5.30707 33.2493 5.28284 33.2978C5.27072 33.3463 5.24649 33.3947 5.24649 33.4311H5.23437C5.19802 33.3099 5.14955 33.213 5.10108 33.1403C5.0405 33.0676 4.97991 33.007 4.90721 32.9585C4.83451 32.9101 4.77392 32.8858 4.70122 32.8616C4.62852 32.8374 4.55582 32.8374 4.49523 32.8252C4.37406 32.8252 4.25289 32.8495 4.13172 32.8979C4.01055 32.9464 3.88938 33.0191 3.79244 33.1282C3.69551 33.2372 3.59857 33.3705 3.53799 33.5401C3.46528 33.7098 3.42893 33.9158 3.42893 34.1581C3.41682 34.3883 3.44105 34.5822 3.4774 34.7518C3.51375 34.9699 3.56222 35.1032 3.63492 35.2244Z" fill="#0067AA"/>
<path d="M7.8154 29.6503L6.50676 29.3474L6.70063 28.5113C6.7491 28.3174 6.7491 28.1478 6.72486 27.9903C6.70063 27.8327 6.65216 27.6873 6.56734 27.554C6.48252 27.4329 6.38559 27.3238 6.2523 27.239C6.11901 27.1542 5.97361 27.0936 5.80397 27.0451C5.62222 27.0088 5.45258 26.9845 5.29506 27.0088C5.13753 27.0209 5.00425 27.0694 4.88308 27.1421C4.76191 27.2148 4.65285 27.3117 4.56804 27.445C4.48322 27.5783 4.42263 27.7358 4.37416 27.9297L3.99854 29.5897L7.64576 30.4137L7.8154 29.6503ZM6.03419 28.4871L5.86456 29.2141L4.78614 28.9717L4.95578 28.2447C4.98001 28.1599 5.00425 28.0872 5.0406 28.0145C5.07695 27.9539 5.12542 27.9054 5.17389 27.857C5.23447 27.8206 5.29506 27.7964 5.36776 27.7843C5.44046 27.7722 5.52528 27.7843 5.62222 27.7964C5.81609 27.8449 5.93726 27.9176 5.99784 28.0387C6.05843 28.172 6.07054 28.3174 6.03419 28.4871Z" fill="#0067AA"/>
<path d="M8.55484 26.7664L7.91263 26.2575L8.3852 24.9609L9.19704 24.9973L9.48785 24.1976L5.52558 24.1733L5.22266 25.0094L8.28826 27.5419L8.55484 26.7664ZM7.3916 25.8455L6.15567 24.8882V24.8761L7.70664 24.9367L7.3916 25.8455Z" fill="#0067AA"/>
<path d="M10.5902 22.0652C10.6023 22.0288 10.6266 21.9804 10.6629 21.9198C10.6993 21.8471 10.7235 21.7744 10.7477 21.6774C10.772 21.5926 10.7841 21.4836 10.7962 21.3866C10.7962 21.2776 10.7841 21.1685 10.7477 21.0595C10.7114 20.9504 10.6508 20.8414 10.5539 20.7444C10.469 20.6354 10.3358 20.5384 10.1661 20.4536C9.99649 20.3688 9.83896 20.3082 9.70568 20.2961C9.57239 20.284 9.4391 20.284 9.33005 20.3203C9.221 20.3567 9.12406 20.4051 9.02712 20.4778C8.9423 20.5505 8.85749 20.6232 8.7969 20.6959C8.73632 20.7687 8.67573 20.8535 8.63938 20.9262C8.59091 20.9989 8.55456 21.0716 8.53033 21.12L8.09411 21.944L7.35498 21.5563L8.25163 19.8356L7.68214 19.5327L6.43408 21.9319L9.74203 23.6646L10.5902 22.0652ZM8.63938 22.2106L9.01501 21.4957C9.05136 21.423 9.09983 21.3503 9.13618 21.2897C9.18465 21.217 9.23311 21.1685 9.2937 21.1322C9.35428 21.0958 9.42699 21.0716 9.49969 21.0595C9.57239 21.0595 9.66933 21.0837 9.76626 21.1322C9.8632 21.1806 9.9359 21.2412 9.97225 21.3139C10.0086 21.3866 10.0328 21.4472 10.0328 21.5199C10.0328 21.5926 10.0207 21.6653 9.99648 21.738C9.97225 21.8107 9.9359 21.8713 9.91167 21.944L9.52392 22.6953L8.63938 22.2106Z" fill="#0067AA"/>
<path d="M9.35441 18.8663C9.49982 19.0723 9.69369 19.2541 9.92391 19.4116C10.1541 19.5691 10.3844 19.6903 10.6146 19.7751C10.8569 19.8599 11.0871 19.8841 11.3174 19.872C11.5476 19.8599 11.7657 19.7872 11.9838 19.6539C12.2019 19.5327 12.3958 19.351 12.5654 19.1087C12.7229 18.8905 12.832 18.6482 12.8805 18.418C12.9289 18.1756 12.9289 17.9454 12.8805 17.7152C12.832 17.485 12.7351 17.2669 12.5897 17.0609C12.4443 16.8549 12.2625 16.6731 12.0323 16.5035C11.8021 16.3339 11.5718 16.2248 11.3295 16.1521C11.0871 16.0794 10.8448 16.0552 10.6146 16.0794C10.3844 16.1036 10.1541 16.1763 9.94815 16.2975C9.74216 16.4187 9.54829 16.5883 9.39076 16.8185C9.20901 17.0609 9.09996 17.3032 9.05149 17.5456C9.00302 17.7879 9.00302 18.0181 9.05149 18.2483C9.09996 18.4543 9.19689 18.6724 9.35441 18.8663ZM9.75428 17.6061C9.77851 17.4607 9.82698 17.3275 9.92391 17.2063C10.0208 17.073 10.1299 16.9761 10.2511 16.9155C10.3722 16.8549 10.5176 16.8185 10.6509 16.8185C10.7963 16.8185 10.9417 16.8428 11.0993 16.8912C11.2568 16.9518 11.4022 17.0245 11.5597 17.1336C11.7172 17.2426 11.8384 17.3638 11.9353 17.4971C12.0323 17.6304 12.105 17.7637 12.1534 17.897C12.1898 18.0302 12.2019 18.1756 12.1898 18.3089C12.1656 18.4543 12.105 18.5876 12.0202 18.7088C11.9232 18.8421 11.8142 18.939 11.693 18.9996C11.5718 19.0602 11.4264 19.0965 11.2931 19.0965C11.1477 19.0965 11.0023 19.0723 10.8448 19.0238C10.6873 18.9754 10.5419 18.8905 10.3844 18.7815C10.2268 18.6724 10.1057 18.5513 10.0087 18.418C9.9118 18.2847 9.83909 18.1514 9.80274 18.0181C9.74216 17.8848 9.73004 17.7394 9.75428 17.6061Z" fill="#0067AA"/>
<path d="M12.2866 14.4072L14.5404 16.5398L15.0735 15.9703L12.8319 13.8377L13.6195 13.0138L13.1469 12.5654L11.0386 14.795L11.5111 15.2312L12.2866 14.4072Z" fill="#0067AA"/>
<path d="M16.8667 14.2857L15.8125 12.9892L16.9515 12.0683L18.0057 13.3648L18.6116 12.868L16.2609 9.95996L15.655 10.4568L16.5517 11.5594L15.4127 12.4803L14.516 11.3777L13.9102 11.8744L16.2609 14.7825L16.8667 14.2857Z" fill="#0067AA"/>
<path d="M19.9689 11.9959L19.9326 9.0636L19.9447 9.05148L21.2412 11.2325L21.8834 10.8448L19.9689 7.63379L19.2904 8.04577L19.3267 10.9902H19.3146L18.006 8.80914L17.3638 9.19688L19.2904 12.3958L19.9689 11.9959Z" fill="#0067AA"/>
<path d="M23.3739 10.1417L22.8771 8.9785L23.0831 8.46958L24.7916 9.548L25.7004 9.14814L23.3497 7.75468L24.1494 5.75537L23.2285 6.14312L22.5136 8.10607L21.9078 6.71262L21.1929 7.01554L22.659 10.4568L23.3739 10.1417Z" fill="#0067AA"/>
<path d="M25.591 8.05806C25.7243 8.26405 25.894 8.4458 26.0757 8.56697C26.2696 8.70026 26.4877 8.78508 26.73 8.82143C26.9724 8.85778 27.2389 8.83355 27.5298 8.76085C27.7963 8.68814 28.0266 8.57909 28.2083 8.42157C28.3901 8.26405 28.5476 8.08229 28.6445 7.8763C28.7536 7.67031 28.802 7.44009 28.8263 7.18563C28.8384 6.93118 28.8142 6.67672 28.7415 6.39803C28.6688 6.13145 28.5597 5.88911 28.4143 5.68312C28.2689 5.47714 28.0993 5.3075 27.9054 5.17421C27.7115 5.04092 27.4934 4.96822 27.2511 4.91975C27.0087 4.8834 26.7543 4.89552 26.4877 4.96822C26.1969 5.05304 25.9545 5.16209 25.7728 5.31961C25.5789 5.47714 25.4335 5.65889 25.3366 5.86488C25.2396 6.07087 25.1912 6.30109 25.1791 6.55555C25.1669 6.81001 25.2033 7.06446 25.276 7.33104C25.3487 7.59761 25.4577 7.83995 25.591 8.05806ZM25.9667 6.61613C25.9667 6.4465 26.003 6.30109 26.0515 6.1678C26.0999 6.03452 26.1848 5.92546 26.2938 5.82853C26.4029 5.73159 26.524 5.65889 26.6816 5.62254C26.8391 5.58619 26.9845 5.57407 27.1178 5.59831C27.2511 5.62254 27.3843 5.68312 27.4934 5.76794C27.6025 5.85276 27.7115 5.97393 27.7963 6.10722C27.8811 6.24051 27.9539 6.41015 28.0023 6.5919C28.0508 6.77366 28.075 6.94329 28.075 7.11293C28.075 7.27045 28.0387 7.42797 27.9902 7.56126C27.9417 7.69455 27.8569 7.8036 27.7479 7.90054C27.6388 7.99747 27.5176 8.07018 27.3601 8.10653C27.2026 8.14288 27.0572 8.155 26.9239 8.13076C26.7906 8.10653 26.6573 8.04594 26.5483 7.96112C26.4392 7.8763 26.3302 7.75513 26.2454 7.62185C26.1605 7.48856 26.0878 7.31892 26.0394 7.14928C25.9909 6.97964 25.9545 6.77366 25.9667 6.61613Z" fill="#0067AA"/>
<path d="M31.6255 7.86402C31.8315 7.83979 32.0254 7.79132 32.1829 7.71862C32.3525 7.64592 32.4858 7.5611 32.5948 7.45205C32.7039 7.34299 32.7766 7.22182 32.8251 7.07642C32.8735 6.93101 32.8857 6.76138 32.8614 6.59174C32.8493 6.50692 32.8372 6.43422 32.813 6.3494C32.7887 6.26458 32.7524 6.19188 32.7039 6.10706C32.6554 6.03435 32.5827 5.96165 32.4979 5.90107C32.4131 5.84048 32.304 5.79201 32.1708 5.76778C32.2435 5.71931 32.3162 5.65873 32.3646 5.61026C32.4131 5.54967 32.4616 5.48909 32.4858 5.4285C32.51 5.36792 32.5343 5.29522 32.5343 5.2104C32.5464 5.13769 32.5343 5.05288 32.5221 4.95594C32.51 4.89535 32.4979 4.82265 32.4737 4.74995C32.4494 4.67725 32.4131 4.61666 32.3767 4.54396C32.3404 4.48338 32.2798 4.42279 32.2192 4.36221C32.1586 4.30162 32.0738 4.25315 31.989 4.2168C31.9042 4.18045 31.7951 4.15622 31.674 4.13198C31.5528 4.11987 31.4195 4.11987 31.2741 4.1441L29.4565 4.37432L29.917 8.08213L31.6255 7.86402ZM32.0011 6.38575C32.0496 6.44633 32.0738 6.53115 32.0859 6.6402C32.0981 6.72502 32.0859 6.79773 32.0738 6.87043C32.0496 6.94313 32.0132 6.9916 31.9648 7.04007C31.9163 7.08853 31.8557 7.12489 31.783 7.16124C31.7103 7.18547 31.6376 7.2097 31.5528 7.22182L30.5834 7.34299L30.4623 6.3494L31.4074 6.22823C31.4801 6.21611 31.5528 6.21611 31.6376 6.21611C31.7103 6.21611 31.783 6.22823 31.8436 6.26458C31.9042 6.28881 31.9526 6.33728 32.0011 6.38575ZM31.262 4.7863C31.3347 4.77418 31.3953 4.77418 31.4559 4.77418C31.5164 4.77418 31.577 4.79842 31.6255 4.82265C31.674 4.84689 31.7103 4.88324 31.7467 4.93171C31.783 4.98017 31.7951 5.04076 31.8072 5.12558C31.8194 5.19828 31.8072 5.27098 31.783 5.31945C31.7588 5.38004 31.7224 5.4285 31.6861 5.46485C31.6376 5.50121 31.5891 5.53756 31.5286 5.56179C31.468 5.58602 31.4074 5.59814 31.3347 5.61026L30.3774 5.73143L30.2805 4.90747L31.262 4.7863Z" fill="#0067AA"/>
<path d="M35.7333 7.23364C35.8666 7.4154 36.0362 7.5608 36.2422 7.66986C36.4482 7.77891 36.6905 7.8395 36.9692 7.86373C37.1631 7.87585 37.357 7.86373 37.5387 7.82738C37.7205 7.79103 37.878 7.71832 38.0355 7.60927C38.1809 7.51234 38.3142 7.37905 38.4233 7.20941C38.5323 7.03977 38.6172 6.8459 38.6777 6.61568L37.9022 6.55509C37.878 6.61568 37.8538 6.67626 37.8174 6.76108C37.7811 6.83378 37.7326 6.90648 37.6599 6.97919C37.5872 7.05189 37.5024 7.10036 37.3933 7.14883C37.2843 7.19729 37.151 7.20941 36.9814 7.19729C36.836 7.18518 36.7148 7.14883 36.6057 7.07612C36.4967 7.00342 36.4119 6.9186 36.3392 6.79743C36.2665 6.67626 36.218 6.54297 36.1938 6.38545C36.1695 6.22793 36.1574 6.04618 36.1695 5.84019C36.1816 5.65843 36.218 5.50091 36.2543 5.36762C36.3028 5.23434 36.3513 5.12528 36.4119 5.02835C36.4724 4.93141 36.533 4.85871 36.6057 4.81024C36.6784 4.76177 36.7511 4.71331 36.8117 4.68907C36.8844 4.66484 36.945 4.6406 37.0177 4.6406C37.0783 4.62849 37.1389 4.62849 37.1873 4.6406C37.2964 4.65272 37.3933 4.66484 37.4782 4.70119C37.563 4.72542 37.6236 4.76177 37.6841 4.81024C37.7447 4.84659 37.7811 4.89506 37.8174 4.94353C37.8538 4.992 37.878 5.04046 37.9022 5.08893C37.9265 5.1374 37.9386 5.18587 37.9507 5.23434C37.9628 5.28281 37.9749 5.31916 37.9749 5.35551L38.7504 5.41609C38.7504 5.33127 38.7383 5.24645 38.7262 5.14952C38.702 5.05258 38.6777 4.95565 38.6293 4.84659C38.5808 4.74966 38.5202 4.6406 38.4475 4.54367C38.3748 4.44673 38.2779 4.36191 38.1688 4.27709C38.0598 4.19227 37.9265 4.13169 37.769 4.0711C37.6114 4.01052 37.4418 3.98628 37.2358 3.96205C37.0904 3.94993 36.9571 3.96205 36.8117 3.97417C36.6663 3.9984 36.533 4.03475 36.3997 4.09534C36.2664 4.15592 36.1453 4.22862 36.0362 4.32556C35.9272 4.4225 35.8181 4.54367 35.7333 4.67695C35.6485 4.81024 35.5637 4.97988 35.5152 5.16163C35.4546 5.34339 35.4183 5.54938 35.394 5.7796C35.3698 6.08253 35.3819 6.3491 35.4425 6.59144C35.5152 6.8459 35.6 7.05189 35.7333 7.23364Z" fill="#0067AA"/>
<path d="M41.4886 8.43362C41.6704 8.4215 41.8279 8.38515 41.9612 8.31245C42.0945 8.25187 42.2157 8.15493 42.3126 8.03376C42.4095 7.91259 42.4701 7.76719 42.5186 7.58543C42.5307 7.51273 42.5428 7.42791 42.5549 7.34309C42.5549 7.25827 42.5549 7.17345 42.5307 7.07652C42.5065 6.9917 42.4701 6.90688 42.4095 6.82206C42.3489 6.73724 42.2641 6.66454 42.1551 6.57972C42.2399 6.55548 42.3247 6.53125 42.3853 6.4949C42.458 6.45855 42.5065 6.41008 42.5549 6.36161C42.6034 6.31314 42.6397 6.25256 42.6761 6.17986C42.7125 6.10715 42.7367 6.03445 42.7609 5.93752C42.773 5.87693 42.7852 5.80423 42.7852 5.73153C42.7852 5.65883 42.773 5.58612 42.7609 5.5013C42.7488 5.41649 42.7125 5.34378 42.6761 5.27108C42.6276 5.19838 42.5792 5.12568 42.5065 5.05297C42.4338 4.99239 42.3489 4.9318 42.2399 4.87122C42.1308 4.82275 42.0097 4.77428 41.8521 4.73793L40.0346 4.3623L39.2349 8.00953L40.907 8.37304C41.113 8.43362 41.3069 8.44574 41.4886 8.43362ZM40.6283 5.14991L41.5856 5.3559C41.6462 5.36802 41.7189 5.39225 41.7673 5.41648C41.8279 5.44072 41.8764 5.47707 41.9127 5.51342C41.9491 5.54977 41.9733 5.59824 41.9975 5.65883C42.0097 5.71941 42.0097 5.78 41.9975 5.86481C41.9854 5.93752 41.9491 5.9981 41.9127 6.04657C41.8764 6.09504 41.8279 6.13139 41.7673 6.15562C41.7067 6.17986 41.6583 6.19197 41.5856 6.19197C41.525 6.19197 41.4523 6.19197 41.3917 6.16774L40.4466 5.96175L40.6283 5.14991ZM40.3254 6.5676L41.2584 6.77359C41.3311 6.78571 41.4038 6.80994 41.4765 6.83418C41.5492 6.85841 41.6098 6.89476 41.6583 6.94323C41.7067 6.9917 41.7431 7.05228 41.7673 7.12498C41.7916 7.19769 41.7916 7.28251 41.7673 7.39156C41.7431 7.47638 41.7189 7.54908 41.6704 7.59755C41.6219 7.65813 41.5734 7.69448 41.5129 7.71872C41.4523 7.74295 41.3796 7.76719 41.3069 7.76719C41.2342 7.76719 41.1494 7.76719 41.0645 7.74295L40.1073 7.53696L40.3254 6.5676Z" fill="#0067AA"/>
<path d="M42.7971 8.71227C42.7729 8.7365 42.7365 8.77285 42.7002 8.80921L43.4636 9.0879C43.4757 9.07578 43.4878 9.05155 43.512 9.02731C43.5242 9.00308 43.5484 8.97884 43.5726 8.95461C43.5969 8.91826 43.6211 8.88191 43.6453 8.83344C43.6696 8.78497 43.7059 8.72439 43.7423 8.65168L43.8877 8.32452C43.9483 8.17912 44.021 8.08218 44.0937 8.0216C44.1664 7.96101 44.2391 7.92466 44.3239 7.91255C44.4087 7.90043 44.4935 7.91255 44.5905 7.93678C44.6874 7.96101 44.7843 7.99737 44.8934 8.03372L45.5477 8.27606L45.0388 9.6574L45.7416 9.92397L47.026 6.42215L45.5598 5.87689C45.4629 5.84054 45.3659 5.80419 45.269 5.76783C45.1721 5.73148 45.0751 5.70725 44.9782 5.69513C44.8813 5.6709 44.7843 5.6709 44.6753 5.6709C44.5783 5.6709 44.4814 5.69513 44.3845 5.71937C44.3118 5.7436 44.2512 5.77995 44.1906 5.8163C44.13 5.85265 44.0694 5.90112 44.0088 5.96171C43.9483 6.02229 43.8998 6.08288 43.8513 6.14346C43.8028 6.21616 43.7665 6.28887 43.7423 6.37369C43.6938 6.50697 43.6696 6.64026 43.6696 6.76143C43.6696 6.8826 43.6938 7.00377 43.7423 7.11282C43.7786 7.19764 43.815 7.25823 43.8634 7.3067C43.9119 7.35516 43.9482 7.39151 43.9846 7.42787C43.8634 7.42787 43.7665 7.42787 43.6817 7.4521C43.5969 7.47633 43.5242 7.51269 43.4757 7.56115C43.4151 7.60962 43.3666 7.68232 43.3182 7.75503C43.2697 7.82773 43.2212 7.92466 43.1728 8.0216L43.0152 8.33664C42.9789 8.40934 42.9547 8.46993 42.9304 8.50628C42.9062 8.55475 42.8819 8.5911 42.8698 8.61533C42.8456 8.6638 42.8214 8.68804 42.7971 8.71227ZM44.445 6.71296C44.4693 6.64026 44.5056 6.59179 44.542 6.54332C44.5783 6.49486 44.6147 6.47062 44.651 6.44639C44.6874 6.42215 44.7359 6.41004 44.7722 6.39792C44.8086 6.3858 44.857 6.3858 44.8934 6.3858C44.9176 6.3858 44.954 6.3858 44.9903 6.39792C45.0267 6.41004 45.063 6.42215 45.0994 6.42215C45.1357 6.43427 45.1721 6.44639 45.1963 6.4585C45.2205 6.47062 45.2448 6.47062 45.2569 6.48274L46.0808 6.78566L45.7416 7.71867L44.9176 7.41575C44.8813 7.40363 44.8449 7.39151 44.7964 7.36728C44.748 7.34305 44.7116 7.33093 44.6632 7.3067C44.6147 7.28246 44.5783 7.24611 44.542 7.22188C44.5056 7.18553 44.4693 7.14917 44.445 7.10071C44.4208 7.05224 44.4087 7.00377 44.4087 6.94319C44.4087 6.85837 44.4208 6.78566 44.445 6.71296Z" fill="#0067AA"/>
<path d="M47.4265 9.54811L46.7964 9.20883C46.7237 9.35424 46.6752 9.47541 46.651 9.60869C46.6268 9.72986 46.6268 9.85103 46.651 9.96009C46.6752 10.0691 46.7116 10.1782 46.7722 10.2751C46.8327 10.3721 46.9054 10.469 46.9903 10.5538C47.0751 10.6386 47.172 10.7235 47.2811 10.7962C47.3901 10.8689 47.4992 10.9294 47.6082 10.99C47.8263 11.1112 48.0444 11.1839 48.2504 11.2203C48.4564 11.2566 48.6382 11.2566 48.8078 11.2203C48.9775 11.1839 49.1229 11.1233 49.2561 11.0264C49.3894 10.9294 49.4864 10.8083 49.5591 10.6629C49.6197 10.5538 49.656 10.4569 49.6802 10.3599C49.7045 10.263 49.7166 10.1782 49.7045 10.1055C49.7045 10.0328 49.6924 9.96009 49.6681 9.8995C49.6439 9.83892 49.6197 9.77833 49.5833 9.72986C49.547 9.6814 49.5106 9.63293 49.4743 9.59658C49.4379 9.56023 49.4016 9.52387 49.3773 9.49964V9.48752C49.4985 9.51176 49.6075 9.51176 49.6924 9.49964C49.7893 9.48752 49.862 9.45117 49.9347 9.41482C50.0074 9.37847 50.068 9.33 50.1165 9.26942C50.1649 9.20883 50.2013 9.16036 50.2376 9.09978C50.2982 8.99073 50.3224 8.88167 50.3346 8.74839C50.3467 8.6151 50.3224 8.48181 50.274 8.33641C50.2255 8.191 50.1407 8.05772 50.0195 7.92443C49.8983 7.79114 49.7287 7.65785 49.5227 7.5488C49.3167 7.43975 49.135 7.36705 48.9775 7.33069C48.8078 7.29434 48.6624 7.28223 48.5291 7.28223C48.3958 7.29434 48.2747 7.31858 48.1777 7.35493C48.0808 7.4034 47.9839 7.45186 47.9112 7.51245C47.8385 7.57304 47.7779 7.63362 47.7294 7.69421C47.6809 7.75479 47.6446 7.81538 47.6203 7.86384L48.2504 8.20312C48.2626 8.17889 48.2747 8.15465 48.2989 8.13042C48.3231 8.10618 48.3595 8.06983 48.3958 8.0456C48.4322 8.02136 48.4807 7.99713 48.5291 7.9729C48.5776 7.94866 48.6382 7.93655 48.6988 7.93655C48.7593 7.93655 48.8321 7.93655 48.9169 7.96078C48.9896 7.9729 49.0744 8.00925 49.1713 8.05772C49.244 8.09407 49.3046 8.14253 49.3773 8.191C49.4379 8.23947 49.4864 8.30006 49.5348 8.36064C49.5712 8.42123 49.5954 8.49393 49.5954 8.57875C49.5954 8.66357 49.5712 8.74839 49.5227 8.8332C49.4864 8.90591 49.4379 8.96649 49.3894 9.00284C49.341 9.03919 49.2804 9.07555 49.2198 9.08766C49.1592 9.09978 49.0986 9.09978 49.0259 9.08766C48.9532 9.07555 48.8926 9.05131 48.8321 9.01496L48.2625 8.71203L47.996 9.22095L48.5897 9.53599C48.6503 9.56023 48.6988 9.59658 48.7593 9.64504C48.8199 9.69351 48.8684 9.74198 48.9048 9.80257C48.9411 9.86315 48.9653 9.93585 48.9653 10.0207C48.9653 10.1055 48.9411 10.1903 48.8805 10.2994C48.8442 10.3599 48.7957 10.4205 48.7351 10.469C48.6745 10.5175 48.6018 10.5538 48.5291 10.5659C48.4443 10.5902 48.3595 10.5902 48.2504 10.5659C48.1414 10.5538 48.0323 10.5054 47.9112 10.4448C47.7779 10.3721 47.6688 10.2994 47.5961 10.2145C47.5234 10.1297 47.4628 10.057 47.4265 9.9722C47.3901 9.88739 47.378 9.81468 47.3901 9.74198C47.378 9.65716 47.3901 9.59658 47.4265 9.54811Z" fill="#0067AA"/>
<path d="M50.2617 12.4564L52.9396 11.2689L51.4613 13.3288L52.0793 13.765L54.2604 10.7237L53.6182 10.2632L50.9282 11.4628H50.9161L52.4065 9.3908L51.8006 8.95459L49.6074 11.996L50.2617 12.4564Z" fill="#0067AA"/>
<path d="M54.5386 16.0548L55.5201 15.1339L56.1017 15.764C56.235 15.9094 56.3683 16.0063 56.5258 16.079C56.6712 16.1517 56.8166 16.1881 56.9741 16.1881C57.1195 16.1881 57.2771 16.1639 57.4225 16.1033C57.5679 16.0427 57.7012 15.9579 57.8344 15.8367C57.9677 15.7034 58.0768 15.5822 58.1495 15.4368C58.2222 15.3036 58.2707 15.1582 58.2828 15.0249C58.2949 14.8795 58.2707 14.7462 58.2101 14.6008C58.1495 14.4554 58.0525 14.31 57.9193 14.1646L56.756 12.9165L54.0176 15.4611L54.5386 16.0548ZM56.8045 13.9465L57.3134 14.4917C57.374 14.5523 57.4225 14.625 57.4467 14.6856C57.483 14.7462 57.4952 14.8189 57.4952 14.8795C57.4952 14.94 57.483 15.0127 57.4467 15.0733C57.4103 15.1339 57.3619 15.2066 57.2892 15.2793C57.1438 15.4126 57.0105 15.4732 56.8772 15.4611C56.7439 15.449 56.6227 15.3763 56.5016 15.243L55.9927 14.6977L56.8045 13.9465Z" fill="#0067AA"/>
<path d="M57.241 17.4363C57.0835 17.6301 56.9745 17.8483 56.926 18.0664C56.8654 18.2845 56.8654 18.5268 56.9139 18.7691C56.9623 19.0115 57.0714 19.2538 57.241 19.4962C57.3985 19.7264 57.5803 19.896 57.7863 20.0293C57.9923 20.1626 58.2104 20.2353 58.4527 20.2595C58.683 20.2838 58.9253 20.2595 59.1676 20.199C59.41 20.1263 59.6523 20.0172 59.8825 19.8597C60.1128 19.7022 60.3066 19.5204 60.452 19.3144C60.5974 19.1084 60.7065 18.8903 60.755 18.6601C60.8155 18.4299 60.8155 18.1996 60.7671 17.9573C60.7186 17.715 60.6217 17.4847 60.4642 17.2545C60.2945 17.0122 60.1006 16.8183 59.8947 16.6971C59.6887 16.576 59.4584 16.4911 59.2282 16.4669C58.998 16.4427 58.7678 16.4669 58.5254 16.5517C58.2831 16.6244 58.0529 16.7456 57.8226 16.9031C57.5924 17.0606 57.3985 17.2424 57.241 17.4363ZM58.271 17.5453C58.4285 17.4363 58.5739 17.3636 58.7314 17.303C58.8889 17.2545 59.0343 17.2303 59.1798 17.2303C59.3252 17.2424 59.4584 17.2788 59.5796 17.3393C59.7008 17.3999 59.8098 17.509 59.9068 17.6301C60.0037 17.7634 60.0522 17.8967 60.0764 18.0421C60.1006 18.1875 60.0885 18.3208 60.0401 18.4541C59.9916 18.5874 59.9189 18.7207 59.822 18.854C59.725 18.9873 59.5917 19.0963 59.4342 19.2054C59.2767 19.3144 59.1313 19.3871 58.9738 19.4477C58.8162 19.4962 58.6708 19.5204 58.5254 19.5204C58.38 19.5083 58.2467 19.4719 58.1256 19.4113C58.0044 19.3508 57.8953 19.2417 57.7984 19.1205C57.7015 18.9873 57.653 18.854 57.6288 18.7086C57.6045 18.5632 57.6167 18.4299 57.6651 18.2966C57.7136 18.1633 57.7863 18.03 57.8832 17.8967C57.9802 17.7634 58.1135 17.6544 58.271 17.5453Z" fill="#0067AA"/>
<path d="M59.6278 21.0352C59.446 21.2048 59.3006 21.3987 59.2158 21.6047C59.131 21.8107 59.0825 22.0288 59.0946 22.259C59.1067 22.4892 59.1673 22.7316 59.2885 22.986C59.3733 23.1678 59.4824 23.3253 59.6035 23.4586C59.7247 23.5919 59.8701 23.7009 60.0397 23.7736C60.2094 23.8463 60.379 23.8948 60.585 23.9069C60.7789 23.919 60.997 23.8948 61.2272 23.8342L60.8879 23.1314C60.8273 23.1435 60.7546 23.1556 60.6698 23.1556C60.585 23.1678 60.5002 23.1556 60.4033 23.1314C60.3063 23.1072 60.2215 23.0587 60.1246 22.986C60.0276 22.9133 59.9549 22.8043 59.8822 22.6588C59.8216 22.5256 59.7853 22.4044 59.7974 22.2711C59.7974 22.1499 59.8338 22.0166 59.8943 21.8955C59.9549 21.7743 60.0519 21.6653 60.173 21.5562C60.2942 21.4471 60.4517 21.3502 60.6335 21.2654C60.8031 21.1806 60.9485 21.1321 61.0939 21.0958C61.2272 21.0715 61.3484 21.0473 61.4574 21.0594C61.5665 21.0594 61.6634 21.0836 61.7482 21.12C61.8331 21.1563 61.9058 21.1927 61.9663 21.2412C62.0269 21.2896 62.0754 21.3381 62.1117 21.3866C62.1481 21.435 62.1845 21.4835 62.1966 21.532C62.245 21.6289 62.2814 21.7258 62.2935 21.8107C62.3056 21.8955 62.3177 21.9682 62.3056 22.0409C62.2935 22.1136 62.2814 22.1742 62.2572 22.2226C62.2329 22.2832 62.2087 22.3317 62.1723 22.368C62.136 22.4165 62.1117 22.4529 62.0754 22.4892C62.039 22.5256 62.0027 22.5498 61.9785 22.574L62.3177 23.2768C62.3904 23.2405 62.4631 23.1799 62.5358 23.1193C62.6085 23.0587 62.6812 22.9739 62.7418 22.8891C62.8024 22.8043 62.863 22.6952 62.9115 22.574C62.9599 22.4529 62.9842 22.3317 62.9963 22.1984C63.0084 22.0651 62.9963 21.9076 62.9721 21.7501C62.9357 21.5926 62.8872 21.4229 62.7903 21.229C62.7297 21.0958 62.657 20.9867 62.5601 20.8655C62.4753 20.7565 62.3662 20.6595 62.245 20.5747C62.1239 20.4899 62.0027 20.4293 61.8573 20.3687C61.7119 20.3203 61.5665 20.296 61.3968 20.2839C61.2272 20.2718 61.0576 20.296 60.8637 20.3324C60.6819 20.3687 60.476 20.4414 60.27 20.5505C60.0397 20.708 59.8216 20.8534 59.6278 21.0352Z" fill="#0067AA"/>
<path d="M62.6816 24.1127C62.4877 24.1248 62.2817 24.1733 62.0636 24.246C61.7849 24.3429 61.5426 24.4641 61.3366 24.6095C61.1306 24.7549 60.9731 24.9367 60.8519 25.1305C60.7308 25.3244 60.6702 25.5425 60.6459 25.7727C60.6217 26.003 60.6581 26.2574 60.755 26.5119C60.8156 26.7057 60.9004 26.8633 61.0095 27.0208C61.1185 27.1662 61.2518 27.2874 61.3972 27.3843C61.5547 27.4812 61.7244 27.5539 61.9182 27.5903C62.1121 27.6266 62.3302 27.6266 62.5604 27.5903L62.306 26.8511C62.2454 26.8511 62.1727 26.8511 62.0879 26.8511C62.0031 26.8511 61.9182 26.8269 61.8213 26.7906C61.7365 26.7542 61.6517 26.6936 61.5668 26.6209C61.482 26.5361 61.4214 26.4149 61.3608 26.2695C61.3124 26.1362 61.3003 26.003 61.3245 25.8818C61.3487 25.7606 61.3972 25.6394 61.4699 25.5304C61.5547 25.4213 61.6517 25.3244 61.7971 25.2275C61.9303 25.1305 62.1 25.0578 62.2939 24.9972C62.4756 24.9367 62.6331 24.9003 62.7664 24.8882C62.8997 24.8761 63.033 24.8761 63.1299 24.9003C63.239 24.9245 63.3238 24.9488 63.4086 24.9972C63.4813 25.0457 63.554 25.0942 63.6025 25.1426C63.651 25.1911 63.6994 25.2517 63.7358 25.3123C63.7721 25.3729 63.7964 25.4213 63.8085 25.4698C63.8448 25.5789 63.8691 25.6758 63.8691 25.7606C63.8691 25.8454 63.8691 25.9181 63.857 25.9908C63.8448 26.0635 63.8206 26.1241 63.7843 26.1726C63.7479 26.2211 63.7237 26.2695 63.6873 26.3059C63.651 26.3422 63.6146 26.3786 63.5783 26.4149C63.5419 26.4392 63.5056 26.4755 63.4692 26.4876L63.7237 27.2268C63.7964 27.1904 63.8812 27.1541 63.966 27.0935C64.0508 27.0329 64.1356 26.9723 64.2083 26.8875C64.2811 26.8027 64.3537 26.7057 64.4143 26.5967C64.4749 26.4876 64.5234 26.3665 64.5476 26.2332C64.5719 26.0999 64.584 25.9545 64.5719 25.7849C64.5597 25.6273 64.5234 25.4456 64.4628 25.2517C64.4143 25.1184 64.3537 24.9851 64.281 24.864C64.2083 24.7428 64.1114 24.6337 64.0145 24.5368C63.9054 24.4399 63.7842 24.355 63.651 24.2945C63.5177 24.2218 63.3723 24.1854 63.2026 24.1491C63.0572 24.1006 62.8755 24.0885 62.6816 24.1127Z" fill="#0067AA"/>
<path d="M61.6759 29.3473L64.4022 30.4014L64.4143 30.4135L61.9061 30.8134L62.0273 31.5525L65.7229 30.9709L65.6018 30.1833L62.8512 29.1291V29.117L65.3594 28.7172L65.2504 27.978L61.5547 28.5596L61.6759 29.3473Z" fill="#0067AA"/>
<path d="M62.1484 33.1278L64.693 34.594V34.6061L62.1606 34.6182V35.3695L65.9047 35.3574L65.8926 34.5698L63.348 33.0915V33.0794H65.8926V32.3281L62.1484 32.3402V33.1278Z" fill="#0067AA"/>
<path d="M25.4697 23.1678C28.2809 24.5734 31.298 25.3125 34.4484 25.361V11.3779C30.5225 14.5041 27.4327 18.5633 25.4697 23.1678Z" fill="#0067AA"/>
<path d="M35.1152 11.3779V25.361C38.2657 25.3125 41.2828 24.5734 44.0939 23.1678C42.1431 18.5633 39.0411 14.5041 35.1152 11.3779Z" fill="#0067AA"/>
<path d="M25.2275 46.2024C28.1235 44.7726 31.2133 44.0092 34.4486 43.9607V35.3213H23.0586C23.1071 39.0897 23.8341 42.7369 25.2275 46.2024Z" fill="#0067AA"/>
<path d="M34.4484 58.61V44.627C31.298 44.6754 28.2809 45.4146 25.4697 46.8201C27.4327 51.4125 30.5225 55.4838 34.4484 58.61Z" fill="#0067AA"/>
<path d="M23.0708 34.6545H34.4608V26.0151C31.2256 25.9666 28.1236 25.2032 25.2397 23.7734C23.8342 27.251 23.1072 30.8982 23.0708 34.6545Z" fill="#0067AA"/>
<path d="M44.0939 46.8201C41.2828 45.4146 38.2657 44.6754 35.1152 44.627V58.61C39.0411 55.4838 42.1431 51.4125 44.0939 46.8201Z" fill="#0067AA"/>
<path d="M44.3363 23.7856C41.4403 25.2155 38.3505 25.9788 35.1152 26.0273V34.6546H46.5052C46.4568 30.8983 45.7297 27.2511 44.3363 23.7856Z" fill="#0067AA"/>
<path d="M46.5052 35.3213H35.1152V43.9607C38.3505 44.0092 41.4524 44.7726 44.3363 46.2024C45.7297 42.7369 46.4568 39.0897 46.5052 35.3213Z" fill="#0067AA"/>
<path d="M80.6266 5.92522L80.5782 5.64653H80.2995H54.2358C48.6862 1.95084 42.0218 0 34.9455 0C15.6794 0 0 15.6794 0 34.9455C0 48.8437 8.17899 60.9849 21.3865 66.7042L21.7016 66.8374C25.6881 68.5338 30.1471 69.5517 34.9334 69.8909C45.463 70.618 60.2943 67.4918 70.3635 56.5016C80.6872 45.2449 84.1406 28.2205 80.6266 5.92522ZM21.6652 66.1104C8.70002 60.5003 0.666436 48.5892 0.666436 34.9455C0.666436 16.0429 16.0429 0.654319 34.9576 0.654319C41.8764 0.654319 48.4075 2.55669 53.848 6.16756L53.9571 6.24026C63.2629 12.4684 68.2673 22.7921 67.6978 34.5698C67.3464 41.7552 63.1781 49.1345 56.8046 53.8117C53.1574 56.4895 47.0625 59.3491 39.4288 59.8823C51.1823 57.6891 60.1125 47.3654 60.1125 34.9818C60.1125 21.0109 48.7468 9.65726 34.788 9.65726C20.817 9.65726 9.46339 21.023 9.46339 34.9818C9.46339 45.6084 16.0308 54.7204 25.3246 58.4767L21.6652 66.1104ZM34.788 59.7005L34.3154 59.3613C30.1835 56.1502 26.9361 51.9214 24.8762 47.1231C22.368 48.4802 20.1142 50.3462 18.3452 52.5878L17.8241 52.1759C19.6538 49.8494 22.0045 47.8864 24.6097 46.493C23.1799 42.9306 22.4286 39.1743 22.3922 35.309H10.6751V34.6547H22.4044C22.4407 30.7893 23.192 27.0331 24.6218 23.4707C22.0166 22.0772 19.6659 20.1142 17.8362 17.7878L18.3573 17.3758C20.1264 19.6174 22.3801 21.4956 24.8884 22.8406C26.9361 18.0544 30.1956 13.8255 34.3275 10.6145L34.788 10.2752L35.2605 10.6145C39.3924 13.8255 42.6398 18.0544 44.6997 22.8406C47.2079 21.4835 49.4617 19.6174 51.2307 17.3758L51.7518 17.7878C49.9221 20.1142 47.5714 22.0651 44.9663 23.4707C46.3961 27.0331 47.1473 30.7893 47.1837 34.6547H58.8887V35.3211H47.1594C47.1231 39.1864 46.3718 42.9427 44.942 46.5051C47.5472 47.8986 49.8858 49.8615 51.7275 52.188L51.2065 52.6C49.4374 50.3583 47.1837 48.4802 44.6754 47.1352C42.6277 51.9214 39.3803 56.1502 35.2363 59.3613L34.788 59.7005ZM69.8667 56.0654C59.9671 66.8738 45.354 69.9515 34.9818 69.2366C30.4016 68.9216 26.1364 67.9401 22.2953 66.3649C22.2953 66.3649 22.2953 66.3649 22.2953 66.3528C22.574 65.7712 25.7365 59.1795 25.9425 58.7433C26.1849 58.8281 26.4272 58.9008 26.6696 58.9735C28.0024 59.4218 29.3838 59.7732 30.8136 59.9913C42.2278 62.0876 52.2001 58.0163 57.2044 54.3327C63.7234 49.5344 68.0007 41.9733 68.3642 34.582C68.3884 33.964 68.4127 33.346 68.4127 32.7281C68.4127 21.847 63.6628 12.3472 55.1809 6.27661H55.193C55.193 6.27661 55.1809 6.27661 55.1809 6.2645H80.0208C80.869 11.7535 81.3052 16.9154 81.3052 21.75C81.2931 36.2783 77.4762 47.7653 69.8667 56.0654Z" fill="#0067AA"/>
<path d="M29.2142 31.2376L15.9097 50.952L29.8806 39.2833V54.2842L40.3497 38.7502L53.6542 19.0358L39.6954 30.7045V15.7036L29.2142 31.2376Z" fill="url(#paint0_linear_2907_7760)"/>
<path d="M25.9304 58.7553C25.7244 59.1916 22.5619 65.7711 22.2832 66.3648C26.1243 67.9522 30.3895 68.9215 34.9697 69.2366C45.3419 69.9515 59.955 66.8737 69.8546 56.0654C77.4641 47.7652 81.2931 36.2662 81.2931 21.7863C81.2931 16.9516 80.8569 11.7898 80.0087 6.30078H55.1688C63.6386 12.3714 68.4006 21.8711 68.4006 32.7522C68.4006 33.3581 68.3885 33.976 68.3521 34.6061C67.9886 41.9854 63.7113 49.5585 57.1923 54.3569C51.4852 58.5494 39.3318 63.2386 25.9304 58.7553Z" fill="url(#paint1_radial_2907_7760)"/>
<path d="M81.2932 21.7862C81.2932 20.5866 81.269 19.3628 81.2084 18.1147H65.1533C65.8319 19.5324 66.4135 21.0107 66.8861 22.5375H81.2811C81.2932 22.2951 81.2932 22.0407 81.2932 21.7862Z" fill="#D52B1E"/>
<path d="M65.153 18.1151H81.2081C81.1475 16.6732 81.0505 15.1949 80.9172 13.6924H62.5479C63.5414 15.098 64.4139 16.5762 65.153 18.1151Z" fill="#0039A6"/>
<path d="M62.5479 13.7044H80.9173C80.784 12.2504 80.6265 10.7842 80.4326 9.28174H58.7432C60.1609 10.6388 61.4331 12.1171 62.5479 13.7044Z" fill="white"/>
</g>
<defs>
<linearGradient id="paint0_linear_2907_7760" x1="54.9971" y1="27.9219" x2="-38.9477" y2="60.7843" gradientUnits="userSpaceOnUse">
<stop stop-color="#FFEB3B"/>
<stop offset="0.4187" stop-color="#FFC107"/>
<stop offset="0.5672" stop-color="#FFC60D"/>
<stop offset="0.7591" stop-color="#FFD31D"/>
<stop offset="0.9742" stop-color="#FFE837"/>
<stop offset="1" stop-color="#FFEB3B"/>
</linearGradient>
<radialGradient id="paint1_radial_2907_7760" cx="0" cy="0" r="1" gradientUnits="userSpaceOnUse" gradientTransform="translate(40.7327 35.7343) rotate(29.241) scale(39.3732 44.293)">
<stop stop-color="#FFEB3B"/>
<stop offset="0.3463" stop-color="#F3D800"/>
<stop offset="0.572" stop-color="#FFF6CA"/>
<stop offset="0.5931" stop-color="#FEF3BD"/>
<stop offset="0.7699" stop-color="#F4D750"/>
<stop offset="0.8485" stop-color="#F0CC25"/>
<stop offset="1" stop-color="#FDD835"/>
</radialGradient>
<clipPath id="clip0_2907_7760">
<rect width="81.9595" height="70" fill="white"/>
</clipPath>
</defs>
</svg>
