<svg width="88" height="24" viewBox="0 0 88 24" fill="none" xmlns="http://www.w3.org/2000/svg">
<mask id="mask0_2963_2914" style="mask-type:alpha" maskUnits="userSpaceOnUse" x="0" y="0" width="25" height="24">
<path fill-rule="evenodd" clip-rule="evenodd" d="M5.96509 0.0109086L6.992 0L17.6735 0.00436401C17.8356 0.00581856 17.9367 0.00799956 18.0371 0.0109086C18.5665 0.0247268 19.1011 0.0552727 19.6247 0.149091C20.1493 0.237591 20.6578 0.403267 21.1338 0.640728C21.608 0.879273 22.0429 1.19055 22.4189 1.56364C22.7951 1.93495 23.11 2.36354 23.352 2.83345C23.5993 3.31127 23.7542 3.80073 23.8495 4.32582C23.944 4.84364 23.9753 5.37164 23.9891 5.89527C23.9964 6.13527 23.9993 6.37527 24 6.616L24.0015 7.04436V16.5258C24.0015 16.8109 24.0015 17.0967 24 17.3825C23.9985 17.6225 23.9964 17.8625 23.9891 18.1025C23.9745 18.6262 23.944 19.1549 23.8495 19.672C23.7597 20.1917 23.592 20.6948 23.352 21.1644C23.1099 21.6344 22.795 22.0632 22.4189 22.4349C22.0415 22.8079 21.6078 23.1193 21.1338 23.3578C20.6578 23.5953 20.1493 23.761 19.6247 23.8495C19.1011 23.9425 18.5665 23.9731 18.0371 23.9876L16.4415 24L6.328 23.9942C6.20701 23.9929 6.08604 23.9904 5.96509 23.9869C5.43564 23.9738 4.90109 23.9425 4.37745 23.8495C3.85315 23.7609 3.34485 23.5953 2.86909 23.3578C1.91676 22.8785 1.13999 22.1109 0.649454 21.1644C0.409803 20.6946 0.242111 20.1916 0.152 19.672C0.0574543 19.1549 0.0269088 18.6262 0.0130907 18.1033C0.00581793 17.8633 0.00363655 17.6225 0.00218201 17.3825L0 16.9527V7.47273C0 7.18764 1.88635e-07 6.90182 0.00218201 6.61673C0.00363655 6.37673 0.0065452 6.13673 0.0130907 5.896C0.0276361 5.37236 0.0581816 4.84436 0.152 4.32655C0.242058 3.80696 0.409752 3.30388 0.649454 2.83418C1.13928 1.88733 1.91593 1.11959 2.86836 0.640728C3.34437 0.403257 3.85291 0.237581 4.37745 0.149091C4.90109 0.0559999 5.43564 0.0254541 5.96509 0.0109086Z" fill="white"/>
</mask>
<g mask="url(#mask0_2963_2914)">
<path d="M0 -0.00146484H24.0022V24.0007H0V-0.00146484Z" fill="#19AA1E"/>
<path fill-rule="evenodd" clip-rule="evenodd" d="M0 -0.00146484H24.0022V7.87345L0 4.12363V-0.00146484Z" fill="#FFB919"/>
<path fill-rule="evenodd" clip-rule="evenodd" d="M0 21.3745L24.0022 17.6247V24H0V21.3745Z" fill="#82D714"/>
<path fill-rule="evenodd" clip-rule="evenodd" d="M0 3.64941L8.37818 4.95851C9.42109 4.29814 10.6618 3.93596 12.0007 3.93596C13.8553 3.93596 15.5222 4.6305 16.7353 5.84941C16.888 6.0036 17.032 6.16432 17.168 6.3316L24.0022 7.39923V8.34832L17.8618 7.38832C18.3214 8.26688 18.5621 9.24337 18.5636 10.2349C18.5636 11.5207 18.2764 12.8029 17.6815 14.0901L17.664 14.1294L17.4109 14.6705H16.8145C15.5811 14.6705 14.7636 15.0392 14.2284 15.693C13.8087 16.2058 13.5658 16.8981 13.4844 17.653L13.4815 17.6763L13.4698 17.7971L13.4647 17.8494L13.4545 17.952C13.4233 18.2894 13.4029 18.5752 13.392 18.808L24.0022 17.1498V18.0989L0 21.8494V20.9003L10.6218 19.2407L10.6175 19.0276L10.616 18.968L10.6145 18.9367L10.6131 18.8894C10.6036 18.6312 10.5796 18.3003 10.5418 17.8989L10.5345 17.8225L10.5215 17.6909C10.4458 16.9316 10.2065 16.2312 9.78691 15.7105C9.25818 15.0523 8.44873 14.6778 7.22473 14.6705H6.59055L6.33818 14.1294C5.73164 12.8291 5.43782 11.5338 5.43782 10.2349C5.43782 8.60142 6.10036 7.02178 7.26691 5.84941L7.36873 5.74978L0 4.59778V3.64941Z" fill="white"/>
<path fill-rule="evenodd" clip-rule="evenodd" d="M12.0009 4.87347C15.3522 4.87347 17.6264 7.45238 17.6264 10.2349C17.6264 11.352 17.3828 12.5142 16.814 13.7331C13.5173 13.7331 12.7035 16.0938 12.5493 17.5804L12.5391 17.6786C12.4875 18.2095 12.4569 18.6349 12.4489 18.9549L11.5559 19.0946V19.0655C11.5434 18.5928 11.5114 18.1209 11.4599 17.6509L11.4577 17.6247C11.3151 16.1418 10.5188 13.7331 7.18858 13.7331C6.61912 12.5142 6.37549 11.352 6.37549 10.2349C6.37549 7.45238 8.6504 4.87347 12.0009 4.87347Z" fill="#0073FA"/>
</g>
<path fill-rule="evenodd" clip-rule="evenodd" d="M38.4467 4C34.7492 4 31.9769 6.30324 32.0001 10.3032H35.4365C35.3892 8.70324 36.3841 7.15124 38.4467 7.15124C40.0103 7.15124 41.006 8.21791 41.006 9.57562C41.006 10.9821 39.9151 11.7577 38.1623 12.6309C35.8634 13.7699 34.4889 14.3032 32.0001 15.1512V19.7577H44.7972V16.6057H36.6452C37.8329 16.099 38.9892 15.5429 40.0343 15.0301C42.8067 13.6731 44.4416 12.1455 44.4416 9.40648C44.4416 6.10895 42.0249 4 38.4467 4ZM50.0111 7.39352H56.6467V4.24229H46.6932V19.7577H50.0111V7.39352ZM61.8605 4.24229H58.5427V19.7577H61.8365L68.022 9.84229V19.7577H71.3398V4.24229H68.022L61.8605 14.1577V4.24229ZM88.0001 13.939H84.5638C84.0423 15.661 82.4547 16.8488 80.5827 16.8488C77.8569 16.8488 76.0794 14.4488 76.0794 12C76.0794 9.55124 77.8096 7.15124 80.6772 7.15124C82.5732 7.15124 84.0423 8.33981 84.5638 10.061H88.0001C87.5027 6.59429 84.8249 4 80.5827 4C75.8903 4 72.7616 7.3699 72.7616 12C72.7616 16.6301 75.8903 20 80.5827 20C84.8249 20 87.5027 17.4552 88.0001 13.939Z" fill="#262626"/>
</svg>
