<svg width="133" height="24" viewBox="0 0 133 24" fill="none" xmlns="http://www.w3.org/2000/svg">
<path fill-rule="evenodd" clip-rule="evenodd" d="M78.9459 14.3496L83.3987 12.4996C83.1535 11.8779 82.4178 11.4434 81.5509 11.4434C80.4366 11.4434 78.8899 12.4243 78.9459 14.3496ZM84.171 16.1415L85.8682 17.273C85.3218 18.084 84.001 19.4801 81.7187 19.4801C78.8899 19.4801 76.8463 17.2902 76.8463 14.5002C76.8463 11.5359 78.9093 9.51812 81.4735 9.51812C84.0591 9.51812 85.3219 11.5746 85.737 12.6889L85.9629 13.2547L79.3029 16.0081C79.8128 17.0084 80.6044 17.5182 81.7187 17.5182C82.8308 17.5182 83.6052 16.9697 84.171 16.1415ZM73.3787 19.1789H75.5664V4.53822H73.3787V19.1789ZM69.8078 14.5174C69.8078 12.7642 68.6376 11.48 67.1468 11.48C65.6389 11.48 64.374 12.7642 64.374 14.5174C64.374 16.2534 65.6389 17.5182 67.1468 17.5182C68.6376 17.5182 69.8078 16.2534 69.8078 14.5174ZM71.7309 9.82143V18.7637C71.7309 22.4422 69.5626 23.9523 66.9962 23.9523C64.5805 23.9523 63.1285 22.3303 62.5821 21.0095L64.488 20.2158C64.8279 21.0268 65.6582 21.9883 66.9984 21.9883C68.6397 21.9883 69.6594 20.9708 69.6594 19.0649V18.3486H69.5841C69.0936 18.953 68.1493 19.4801 66.9618 19.4801C64.4708 19.4801 62.1884 17.3096 62.1884 14.5174C62.1884 11.7058 64.4708 9.51812 66.9618 9.51812C68.1514 9.51812 69.0936 10.0452 69.5841 10.6303H69.6594V9.81928C69.6572 9.82143 71.7309 9.82143 71.7309 9.82143ZM47.851 14.5002C47.851 12.7061 46.5732 11.4821 45.0911 11.4821C43.609 11.4821 42.3312 12.7083 42.3312 14.5002C42.3312 16.2727 43.609 17.5182 45.0911 17.5182C46.5711 17.5182 47.851 16.2727 47.851 14.5002ZM49.9979 14.5002C49.9979 17.3677 47.7929 19.4801 45.089 19.4801C42.385 19.4801 40.18 17.3677 40.18 14.5002C40.18 11.6133 42.385 9.52027 45.089 9.52027C47.7951 9.52027 49.9979 11.6133 49.9979 14.5002ZM58.8541 14.5002C58.8541 12.7061 57.5764 11.4821 56.0942 11.4821C54.6121 11.4821 53.3343 12.7083 53.3343 14.5002C53.3343 16.2727 54.6121 17.5182 56.0942 17.5182C57.5764 17.5182 58.8541 16.2727 58.8541 14.5002ZM61.0031 14.5002C61.0031 17.3677 58.7982 19.4801 56.0942 19.4801C53.3902 19.4801 51.1853 17.3677 51.1853 14.5002C51.1853 11.6133 53.3902 9.52027 56.0942 9.52027C58.7982 9.52027 61.0031 11.6133 61.0031 14.5002ZM31.7712 19.4801C27.5076 19.4801 23.9238 16.0081 23.9238 11.7446C23.9238 7.48098 27.5098 4.00903 31.7734 4.00903C34.1332 4.00903 35.8111 4.93403 37.0759 6.14297L35.5852 7.63371C34.6796 6.78401 33.4534 6.12361 31.7734 6.12361C28.6607 6.12361 26.2256 8.634 26.2256 11.7467C26.2256 14.8594 28.6607 17.3677 31.7734 17.3677C33.7911 17.3677 34.942 16.5567 35.6798 15.821C36.2843 15.2187 36.6801 14.3496 36.8307 13.1622H31.7734V11.0497H38.8851C38.9625 11.4262 38.9991 11.8801 38.9991 12.3705C38.9991 13.9559 38.5645 15.9178 37.1706 17.3139C35.8089 18.7272 34.0729 19.4801 31.7712 19.4801Z" fill="#5F6368"/>
<path d="M91.1309 19.0425V6.04578H92.8008L97.3206 13.96H97.3932L101.913 6.04578H103.583V19.0425H101.913V11.328L101.986 9.14974H101.913L97.847 16.2834H96.8668L92.8008 9.14974H92.7282L92.8008 11.328V19.0425H91.1309Z" fill="#63666A"/>
<path d="M108.716 19.3328C107.772 19.3328 106.983 19.0605 106.348 18.516C105.712 17.9714 105.395 17.2544 105.395 16.3559C105.395 15.3848 105.767 14.6315 106.52 14.0778C107.273 13.5242 108.199 13.2519 109.297 13.2519C110.277 13.2519 111.085 13.4335 111.711 13.7965V13.5424C111.711 12.8889 111.484 12.3625 111.04 11.9722C110.595 11.582 110.041 11.3823 109.388 11.3823C108.907 11.3823 108.462 11.5003 108.072 11.7272C107.682 11.9541 107.409 12.2717 107.264 12.6711L105.739 12.0176C105.948 11.4821 106.348 10.992 106.956 10.5382C107.564 10.0844 108.362 9.85754 109.352 9.85754C110.486 9.85754 111.43 10.1934 112.183 10.8559C112.937 11.5184 113.309 12.4623 113.309 13.6694V19.0424H111.711V17.808H111.639C110.976 18.8246 109.996 19.3328 108.716 19.3328ZM108.989 17.808C109.678 17.808 110.305 17.5539 110.867 17.0366C111.43 16.5193 111.711 15.9112 111.711 15.2123C111.239 14.8221 110.532 14.6315 109.588 14.6315C108.78 14.6315 108.163 14.8039 107.754 15.1579C107.346 15.5118 107.137 15.9203 107.137 16.3922C107.137 16.8279 107.328 17.1727 107.7 17.4269C108.072 17.681 108.508 17.808 108.989 17.808Z" fill="#63666A"/>
<path d="M119.822 19.3328C119.142 19.3328 118.534 19.1876 117.998 18.8972C117.463 18.6067 117.054 18.2437 116.791 17.808H116.718L116.791 19.0424V22.9632H115.121V10.148H116.718V11.3823H116.791C117.054 10.9467 117.463 10.5836 117.998 10.2932C118.534 10.0028 119.142 9.85754 119.822 9.85754C120.975 9.85754 121.964 10.3113 122.799 11.2189C123.634 12.1265 124.052 13.2519 124.052 14.5952C124.052 15.9384 123.634 17.0638 122.799 17.9714C121.964 18.879 120.975 19.3328 119.822 19.3328ZM119.55 17.808C120.322 17.808 120.993 17.5176 121.547 16.9277C122.1 16.3377 122.382 15.5663 122.382 14.5952C122.382 13.6241 122.1 12.8526 121.547 12.2627C120.993 11.6727 120.322 11.3823 119.55 11.3823C118.761 11.3823 118.098 11.6727 117.544 12.2536C116.991 12.8344 116.718 13.615 116.718 14.5952C116.718 15.5754 116.991 16.3559 117.544 16.9368C118.098 17.5176 118.77 17.808 119.55 17.808Z" fill="#63666A"/>
<path d="M128.888 19.3328C127.899 19.3328 127.073 19.0878 126.429 18.6067C125.784 18.1257 125.303 17.5176 125.004 16.7915L126.492 16.1744C126.964 17.2907 127.772 17.8444 128.907 17.8444C129.424 17.8444 129.85 17.7264 130.186 17.4995C130.522 17.2726 130.685 16.964 130.685 16.5919C130.685 16.011 130.277 15.6208 129.469 15.412L127.672 14.9764C127.1 14.8311 126.565 14.5589 126.057 14.1505C125.548 13.742 125.294 13.1975 125.294 12.5077C125.294 11.7181 125.639 11.0828 126.338 10.5927C127.037 10.1026 127.863 9.85754 128.816 9.85754C129.605 9.85754 130.304 10.0391 130.921 10.393C131.539 10.747 131.983 11.2643 132.246 11.9269L130.794 12.5259C130.468 11.7363 129.787 11.346 128.761 11.346C128.262 11.346 127.845 11.4458 127.509 11.6546C127.173 11.8633 127.001 12.1356 127.001 12.4896C127.001 12.9978 127.391 13.3427 128.18 13.5242L129.941 13.9417C130.776 14.1323 131.393 14.4681 131.793 14.9401C132.192 15.412 132.392 15.9475 132.392 16.5374C132.392 17.3361 132.065 17.9986 131.412 18.5341C130.758 19.0605 129.914 19.3328 128.888 19.3328Z" fill="#63666A"/>
<path d="M4.61328 17.7832C5.35543 18.7103 6.10833 19.872 6.50414 20.5754C6.986 21.4896 7.1839 22.107 7.54314 23.2084C7.75396 23.815 7.95186 24 8.37133 24C8.82953 24 9.03819 23.6902 9.19953 23.2084C9.53295 22.1694 9.79324 21.3799 10.1998 20.6249C11.0022 19.1793 12.0175 17.8929 13.0049 16.6581C13.2759 16.3118 15.0076 14.2725 15.7863 12.6549C15.7863 12.6549 16.7371 10.8866 16.7371 8.41495C16.7371 6.10462 15.7971 4.49771 15.7971 4.49771L13.078 5.22695L11.4217 9.57657L11.0129 10.1703L10.9269 10.2821L10.815 10.4177L10.63 10.6392L10.359 10.9103L8.88761 12.1085L5.21775 14.2338L4.61328 17.7832Z" fill="#34A853"/>
<path d="M0.8125 12.3579C1.71383 14.4101 3.4326 16.202 4.60712 17.7831L10.8239 10.4175C10.8239 10.4175 9.94627 11.5663 8.36517 11.5663C6.59693 11.5663 5.16427 10.1573 5.16427 8.37826C5.16427 7.15425 5.89351 6.31531 5.89351 6.31531L1.67726 7.44036L0.8125 12.3579Z" fill="#FBBC04"/>
<path d="M10.9022 0.383606C12.9652 1.05046 14.7334 2.44656 15.7961 4.51166L10.8269 10.4316C10.8269 10.4316 11.5562 9.57976 11.5562 8.36866C11.5562 6.55094 10.0245 5.18066 8.36815 5.18066C6.79782 5.18066 5.89648 6.31862 5.89648 6.31862V2.58423L10.9022 0.383606Z" fill="#4285F4"/>
<path d="M1.94922 2.99009C3.18398 1.51871 5.34803 0 8.33812 0C9.78369 0 10.8829 0.382904 10.8829 0.382904L5.89227 6.31577H2.35794L1.94922 2.99009Z" fill="#1A73E8"/>
<path d="M0.815285 12.3589C0.815285 12.3589 0 10.7391 0 8.40513C0 6.19375 0.864761 4.26417 1.964 3.0036L5.90705 6.32712L0.815285 12.3589Z" fill="#EA4335"/>
</svg>
