<svg width="116" height="24" viewBox="0 0 116 24" fill="none" xmlns="http://www.w3.org/2000/svg">
<g clip-path="url(#clip0_2963_2927)">
<path d="M12.7266 24C19.3541 24 24.7267 18.6274 24.7267 12C24.7267 5.37258 19.3541 0 12.7266 0C6.09918 0 0.726562 5.37258 0.726562 12C0.726562 18.6274 6.09918 24 12.7266 24Z" fill="#CE2457"/>
<path fill-rule="evenodd" clip-rule="evenodd" d="M12.135 4.78282C8.41463 5.08706 5.49023 8.20283 5.49023 12.0016C5.49023 16.0019 8.73315 19.2448 12.7334 19.2448C16.7337 19.2448 19.9766 16.0019 19.9766 12.0016C19.9766 8.20238 17.0516 5.08637 13.3306 4.78271L13.1354 9.54023C14.3215 9.73245 15.227 10.7613 15.227 12.0016C15.227 13.3788 14.1106 14.4953 12.7334 14.4953C11.3562 14.4953 10.2398 13.3788 10.2398 12.0016C10.2398 10.7617 11.1447 9.7332 12.3302 9.54045L12.135 4.78282Z" fill="white"/>
<path d="M12.7255 4.27526C13.589 4.27526 14.2889 3.5753 14.2889 2.71185C14.2889 1.8484 13.589 1.14844 12.7255 1.14844C11.8621 1.14844 11.1621 1.8484 11.1621 2.71185C11.1621 3.5753 11.8621 4.27526 12.7255 4.27526Z" fill="white"/>
<path d="M41.0699 11.9975C41.0699 13.6503 40.4653 14.9852 39.3234 16.066C38.1813 17.1467 36.7707 17.6552 35.0913 17.6552C33.4119 17.6552 32.0683 17.1467 30.8592 16.066C29.7843 14.9852 29.1797 13.6503 29.1797 11.9975C29.1797 10.3447 29.7843 9.00975 30.9263 7.92908C32.0683 6.8484 33.479 6.33984 35.0913 6.33984C36.7035 6.33984 38.1813 6.8484 39.3234 7.92908C40.4653 9.00975 41.0699 10.3447 41.0699 11.9975ZM38.8531 11.9975C38.8531 11.044 38.5172 10.2176 37.7783 9.58185C37.1065 8.94615 36.1661 8.6283 35.0913 8.6283C34.0164 8.6283 33.1431 8.94615 32.4042 9.58185C31.6653 10.2176 31.3293 11.044 31.3293 11.9975C31.3293 12.9511 31.6653 13.7774 32.4042 14.4131C33.0759 15.0488 34.0164 15.3667 35.0913 15.3667C36.1661 15.3667 37.1065 15.0488 37.7783 14.4131C38.5172 13.7774 38.8531 12.9511 38.8531 11.9975Z" fill="black"/>
<path d="M48.1622 17.1479H45.6767V8.82023H41.8477V6.84961H51.9241V8.82023H48.1622V17.1479Z" fill="black"/>
<path d="M57.4906 17.4044C55.7441 17.4044 54.3334 17.1502 53.1914 16.6416V14.6074C54.4678 15.1795 55.8112 15.4338 57.1548 15.4338C58.1624 15.4338 58.9014 15.3067 59.506 15.0523C60.0433 14.7981 60.3793 14.4166 60.3793 13.9717C60.3793 13.0817 59.5732 12.7003 57.8938 12.7003H55.8112V10.8568H57.8938C59.3044 10.8568 59.9762 10.4754 59.9762 9.71257C59.9762 8.88615 59.0357 8.5047 57.222 8.5047C56.0128 8.5047 54.8036 8.75902 53.5273 9.2676V7.29691C54.6693 6.85193 56.08 6.59766 57.7594 6.59766C59.1029 6.59766 60.2449 6.85193 61.1854 7.36048C62.0587 7.86907 62.5289 8.5683 62.5289 9.33112C62.5289 10.4754 61.9243 11.2382 60.7823 11.6196C62.193 12.0646 62.932 12.891 62.932 14.1624C62.932 15.1159 62.4617 15.9423 61.4541 16.5145C60.4465 17.1502 59.1029 17.4044 57.4906 17.4044Z" fill="black"/>
<path d="M76.4865 11.9975C76.4865 13.6503 75.882 14.9852 74.7401 16.066C73.5981 17.1467 72.1874 17.6552 70.5079 17.6552C68.8285 17.6552 67.485 17.1467 66.2758 16.066C65.1339 14.9852 64.5293 13.6503 64.5293 11.9975C64.5293 10.3447 65.1339 9.00975 66.2758 7.92908C67.485 6.8484 68.8957 6.33984 70.5751 6.33984C72.2545 6.33984 73.6653 6.8484 74.8072 7.92908C75.882 9.00975 76.4865 10.3447 76.4865 11.9975ZM74.337 11.9975C74.337 11.044 74.0011 10.2176 73.2621 9.58185C72.5904 8.94615 71.6499 8.6283 70.5751 8.6283C69.5003 8.6283 68.627 8.94615 67.8881 9.58185C67.1491 10.2176 66.8133 11.044 66.8133 11.9975C66.8133 12.9511 67.1491 13.7774 67.8881 14.4131C68.5599 15.0488 69.5003 15.3667 70.5751 15.3667C71.6499 15.3667 72.5904 15.0488 73.2621 14.4131C73.9339 13.7774 74.337 12.9511 74.337 11.9975Z" fill="black"/>
<path d="M85.2196 17.1479H78.7036V6.84961H84.8836C85.9584 6.84961 86.8314 7.10389 87.5034 7.5489C88.1754 7.99388 88.4439 8.6931 88.4439 9.45593C88.4439 9.9645 88.3096 10.4095 88.0404 10.7909C87.7719 11.1723 87.4359 11.4902 86.9656 11.6809C88.4439 12.0623 89.1826 12.9523 89.1826 14.3508C89.1826 15.2408 88.8466 15.94 88.1079 16.4486C87.4359 16.8935 86.4954 17.1479 85.2196 17.1479ZM81.1891 8.6931V10.9816H84.2791C84.8161 10.9816 85.2196 10.8545 85.5549 10.6638C85.8241 10.4731 86.0251 10.1552 86.0251 9.83738C86.0251 9.07455 85.4881 8.6931 84.3459 8.6931H81.1891ZM81.1891 12.7616V15.3044H84.7494C85.3539 15.3044 85.7566 15.1772 86.0926 14.9865C86.4286 14.7322 86.5629 14.4779 86.5629 14.033C86.5629 13.6515 86.4286 13.3337 86.0926 13.0794C85.7566 12.8252 85.2864 12.7616 84.7494 12.7616H81.1891Z" fill="black"/>
<path d="M93.8161 17.142H91.4648V6.84375H93.9503V13.8364L100.064 6.84375H102.415V17.142H99.9293V10.1494L93.8161 17.142Z" fill="black"/>
<path d="M107.485 17.142H105V6.84375H107.485V17.142Z" fill="black"/>
<path d="M110.107 11.803L115.087 17.0793H111.872L107.144 11.9302L111.557 6.9082H114.646L110.107 11.803Z" fill="black"/>
</g>
<defs>
<clipPath id="clip0_2963_2927">
<rect width="115.5" height="24" fill="white"/>
</clipPath>
</defs>
</svg>
