<svg width="139" height="24" viewBox="0 0 139 24" fill="none" xmlns="http://www.w3.org/2000/svg">
<g clip-path="url(#clip0_2963_2864)">
<path d="M10.1646 23.4C11.0117 22.6941 12.1058 20.9294 12.5646 19.5882C12.7058 19.1647 12.7058 19.1294 12.4587 19.0941C12.3175 19.0588 11.647 18.9177 10.9411 18.8118C10.2705 18.671 9.07049 18.353 8.32932 18.1059C5.64696 17.2235 3.77637 16.1294 2.15285 14.5059C-0.105978 12.2471 -0.600096 9.74119 0.670493 7.16472C3.42343 1.72942 14.1881 -1.16469 23.2587 1.16472C25.5172 1.72942 27.847 2.75295 29.4352 3.84707C30.5999 4.65884 32.0117 6.14119 32.4705 7.09413C33.7764 9.63531 33.3528 12.0706 31.1646 14.3647C28.6234 17.0471 24.2823 18.8118 19.0587 19.2706L17.5764 19.4118L16.7646 20.1882C14.5411 22.2706 12.2823 23.5059 10.3058 23.753L9.67049 23.8235L10.1646 23.4Z" fill="#2E67B2"/>
<path d="M10.3682 5.84578C10.9908 5.74413 11.9183 5.66754 12.9471 5.66754C14.2177 5.66754 15.1068 5.85813 15.717 6.34095C16.2249 6.74754 16.5044 7.34472 16.5044 8.13213C16.5044 9.22484 15.7293 9.97448 14.9928 10.2413V10.2791C15.5896 10.5208 15.9199 11.0922 16.1359 11.88C16.4028 12.8453 16.6696 13.9634 16.8344 14.2938H14.8526C14.7129 14.0524 14.5096 13.3535 14.2558 12.2993C14.0271 11.2324 13.6586 10.9398 12.8709 10.9271H12.2864V14.2941H10.3682V5.84578ZM12.2864 9.53013H13.0488C14.014 9.53013 14.5858 9.04731 14.5858 8.29766C14.5858 7.51025 14.0522 7.11601 13.1631 7.10366C12.693 7.10366 12.4262 7.14142 12.2864 7.16719V9.53013Z" fill="white"/>
<path d="M19.77 5.73141V10.6606C19.77 12.1345 20.329 12.8841 21.3201 12.8841C22.3365 12.8841 22.8956 12.1722 22.8956 10.6606V5.73141H24.8265V10.5335C24.8265 13.1757 23.4928 14.4335 21.2569 14.4335C19.0972 14.4335 17.8267 13.2395 17.8267 10.5081V5.73141H19.77Z" fill="white"/>
</g>
<path d="M131.109 6.22504L133.258 14.4516L135.398 6.22504H138.398V17.6H136.094V14.5219L136.305 9.77972L134.031 17.6H132.469L130.195 9.77972L130.406 14.5219V17.6H128.109V6.22504H131.109Z" fill="#2E67B2"/>
<path d="M126.469 12.9359C126.469 14.462 126.107 15.6469 125.383 16.4906C124.664 17.3344 123.664 17.7563 122.383 17.7563C121.107 17.7563 120.104 17.3396 119.375 16.5063C118.646 15.6677 118.276 14.4958 118.266 12.9906V11.0453C118.266 9.48282 118.628 8.26407 119.352 7.38907C120.076 6.50886 121.081 6.06876 122.367 6.06876C123.633 6.06876 124.63 6.50105 125.359 7.36563C126.089 8.22501 126.458 9.43334 126.469 10.9906V12.9359ZM124.164 11.0297C124.164 10.0037 124.018 9.24063 123.727 8.74063C123.435 8.24063 122.982 7.99063 122.367 7.99063C121.758 7.99063 121.307 8.23282 121.016 8.71719C120.724 9.19636 120.573 9.92813 120.562 10.9125V12.9359C120.562 13.9307 120.711 14.6651 121.008 15.1391C121.305 15.6078 121.763 15.8422 122.383 15.8422C122.982 15.8422 123.427 15.613 123.719 15.1547C124.01 14.6912 124.159 13.975 124.164 13.0063V11.0297Z" fill="#2E67B2"/>
<path d="M117.047 13.8109C116.99 15.1078 116.625 16.0896 115.953 16.7563C115.281 17.4229 114.333 17.7563 113.109 17.7563C111.823 17.7563 110.836 17.3344 110.148 16.4906C109.466 15.6417 109.125 14.4333 109.125 12.8656V10.9516C109.125 9.38907 109.479 8.18594 110.187 7.34219C110.896 6.49324 111.88 6.06876 113.141 6.06876C114.38 6.06876 115.32 6.41511 115.961 7.10782C116.607 7.80053 116.974 8.79532 117.062 10.0922H114.758C114.737 9.29011 114.612 8.73803 114.383 8.43594C114.159 8.12865 113.745 7.97501 113.141 7.97501C112.526 7.97501 112.091 8.19115 111.836 8.62344C111.581 9.05053 111.445 9.75626 111.43 10.7406V12.8891C111.43 14.0193 111.555 14.7953 111.805 15.2172C112.06 15.6391 112.495 15.85 113.109 15.85C113.714 15.85 114.13 15.7042 114.359 15.4125C114.589 15.1156 114.719 14.5818 114.75 13.8109H117.047Z" fill="#2E67B2"/>
<path d="M104.742 16.475C104.742 16.1208 104.859 15.8292 105.094 15.6C105.333 15.3708 105.643 15.2563 106.023 15.2563C106.393 15.2563 106.701 15.3708 106.945 15.6C107.19 15.824 107.312 16.1156 107.312 16.475C107.312 16.8396 107.187 17.1339 106.937 17.3578C106.693 17.5766 106.388 17.6859 106.023 17.6859C105.654 17.6859 105.346 17.574 105.102 17.35C104.862 17.126 104.742 16.8344 104.742 16.475Z" fill="#2E67B2"/>
<path d="M102.93 6.22504V14.1C102.919 15.2823 102.594 16.1886 101.953 16.8188C101.312 17.4438 100.393 17.7563 99.1953 17.7563C97.9766 17.7563 97.0443 17.4386 96.3984 16.8032C95.7578 16.1677 95.4375 15.2485 95.4375 14.0453V6.22504H97.75V14.0532C97.75 14.699 97.8542 15.1599 98.0625 15.436C98.2708 15.712 98.6484 15.85 99.1953 15.85C99.7422 15.85 100.117 15.7146 100.32 15.4438C100.523 15.1677 100.628 14.7172 100.633 14.0922V6.22504H102.93Z" fill="#2E67B2"/>
<path d="M90.1211 13.4438H88.9805V17.6H86.6836V6.22504H90.3477C91.4987 6.22504 92.3867 6.52452 93.0117 7.12347C93.6419 7.71722 93.957 8.56358 93.957 9.66254C93.957 11.173 93.4076 12.2302 92.3086 12.8344L94.3008 17.4907V17.6H91.832L90.1211 13.4438ZM88.9805 11.5297H90.2852C90.7435 11.5297 91.0872 11.3787 91.3164 11.0766C91.5456 10.7693 91.6602 10.3605 91.6602 9.85004C91.6602 8.70941 91.2148 8.1391 90.3242 8.1391H88.9805V11.5297Z" fill="#2E67B2"/>
<path d="M81.1289 14.475L83.043 6.22504H85.6055L82.3242 17.6H79.9336L76.6758 6.22504H79.2227L81.1289 14.475Z" fill="#2E67B2"/>
<path d="M72.0234 11.3344L73.7344 6.22504H76.2344L73.1875 13.475V17.6H70.8594V13.475L67.8047 6.22504H70.3047L72.0234 11.3344Z" fill="#2E67B2"/>
<path d="M62.5 15.6938H67.1875V17.6H59.8125V16.2172L64.4531 8.1391H59.7656V6.22504H67.1016V7.5766L62.5 15.6938Z" fill="#2E67B2"/>
<path d="M58.7891 8.1391H55.9766V17.6H53.6719V8.1391H50.9062V6.22504H58.7891V8.1391Z" fill="#2E67B2"/>
<path d="M50.4492 12.9359C50.4492 14.462 50.0872 15.6469 49.3633 16.4906C48.6445 17.3344 47.6445 17.7563 46.3633 17.7563C45.0872 17.7563 44.0846 17.3396 43.3555 16.5063C42.6263 15.6677 42.2565 14.4958 42.2461 12.9906V11.0453C42.2461 9.48282 42.6081 8.26407 43.332 7.38907C44.056 6.50886 45.0612 6.06876 46.3477 6.06876C47.6133 6.06876 48.6107 6.50105 49.3398 7.36563C50.069 8.22501 50.4388 9.43334 50.4492 10.9906V12.9359ZM48.1445 11.0297C48.1445 10.0037 47.9987 9.24063 47.707 8.74063C47.4154 8.24063 46.9622 7.99063 46.3477 7.99063C45.7383 7.99063 45.2878 8.23282 44.9961 8.71719C44.7044 9.19636 44.5534 9.92813 44.543 10.9125V12.9359C44.543 13.9307 44.6914 14.6651 44.9883 15.1391C45.2852 15.6078 45.7435 15.8422 46.3633 15.8422C46.9622 15.8422 47.4076 15.613 47.6992 15.1547C47.9909 14.6912 48.1393 13.975 48.1445 13.0063V11.0297Z" fill="#2E67B2"/>
<defs>
<clipPath id="clip0_2963_2864">
<rect width="33.5294" height="24" fill="white"/>
</clipPath>
</defs>
</svg>
