<svg width="151" height="24" viewBox="0 0 151 24" fill="none" xmlns="http://www.w3.org/2000/svg">
<g clip-path="url(#clip0_2963_2888)" filter="url(#filter0_i_2963_2888)">
<path d="M11.0867 1.84861C11.3802 1.25415 11.5269 0.956922 11.726 0.861956C11.8993 0.779332 12.1007 0.779332 12.274 0.861956C12.4731 0.956922 12.6198 1.25415 12.9133 1.84861L15.6971 7.48841C15.7838 7.66391 15.8271 7.75166 15.8904 7.81979C15.9464 7.88011 16.0136 7.92899 16.0883 7.96371C16.1726 8.00292 16.2695 8.01708 16.4631 8.04538L22.6902 8.95556C23.3459 9.05141 23.6738 9.09933 23.8255 9.25949C23.9576 9.39884 24.0196 9.59032 23.9945 9.78062C23.9656 9.99935 23.7283 10.2305 23.2535 10.6929L18.7493 15.0801C18.6089 15.2169 18.5386 15.2852 18.4933 15.3666C18.4532 15.4386 18.4275 15.5178 18.4176 15.5996C18.4064 15.6921 18.4229 15.7887 18.4561 15.9819L19.5189 22.1785C19.631 22.8321 19.687 23.1589 19.5817 23.3528C19.49 23.5215 19.3271 23.6399 19.1383 23.6749C18.9214 23.7151 18.6279 23.5608 18.041 23.2521L12.4741 20.3245C12.3006 20.2333 12.2139 20.1877 12.1225 20.1698C12.0416 20.1539 11.9584 20.1539 11.8775 20.1698C11.7861 20.1877 11.6994 20.2333 11.5259 20.3245L5.95901 23.2521C5.3721 23.5608 5.07865 23.7151 4.86166 23.6749C4.67287 23.6399 4.50997 23.5215 4.41832 23.3528C4.31299 23.1589 4.36904 22.8321 4.48113 22.1785L5.54393 15.9819C5.57707 15.7887 5.59364 15.6921 5.58243 15.5996C5.5725 15.5178 5.54677 15.4386 5.50666 15.3666C5.46136 15.2852 5.39115 15.2169 5.25074 15.0801L0.746471 10.6929C0.271736 10.2305 0.0343686 9.99935 0.00548393 9.78062C-0.0196473 9.59032 0.0424386 9.39884 0.174456 9.25949C0.32619 9.09933 0.654059 9.05141 1.3098 8.95556L7.53688 8.04538C7.73054 8.01708 7.82736 8.00292 7.91169 7.96371C7.98635 7.92899 8.05357 7.88011 8.10962 7.81979C8.17292 7.75166 8.21623 7.66391 8.30286 7.48841L11.0867 1.84861Z" fill="url(#paint0_linear_2963_2888)"/>
</g>
<path d="M33.1641 18.4V6.94687H36.875C38.2812 6.94687 39.1979 7.00416 39.625 7.11874C40.2812 7.29062 40.8307 7.66562 41.2734 8.24374C41.7161 8.81666 41.9375 9.55885 41.9375 10.4703C41.9375 11.1734 41.8099 11.7646 41.5547 12.2437C41.2995 12.7229 40.974 13.1005 40.5781 13.3766C40.1875 13.6474 39.7891 13.8271 39.3828 13.9156C38.8307 14.025 38.0312 14.0797 36.9844 14.0797H35.4766V18.4H33.1641ZM35.4766 8.88437V12.1344H36.7422C37.6536 12.1344 38.263 12.0745 38.5703 11.9547C38.8776 11.8349 39.1172 11.6474 39.2891 11.3922C39.4661 11.137 39.5547 10.8401 39.5547 10.5016C39.5547 10.0849 39.4323 9.74114 39.1875 9.47031C38.9427 9.19947 38.6328 9.0302 38.2578 8.96249C37.9818 8.91041 37.4271 8.88437 36.5938 8.88437H35.4766Z" fill="#F46901"/>
<path d="M48.2188 15.7594L50.4062 16.1266C50.125 16.9286 49.6797 17.5406 49.0703 17.9625C48.4661 18.3792 47.7083 18.5875 46.7969 18.5875C45.3542 18.5875 44.2865 18.1161 43.5938 17.1734C43.0469 16.4182 42.7734 15.4651 42.7734 14.3141C42.7734 12.9391 43.1328 11.8635 43.8516 11.0875C44.5703 10.3062 45.4792 9.91562 46.5781 9.91562C47.8125 9.91562 48.7865 10.3245 49.5 11.1422C50.2135 11.9547 50.5547 13.2021 50.5234 14.8844H45.0234C45.0391 15.5354 45.2161 16.0432 45.5547 16.4078C45.8932 16.7672 46.3151 16.9469 46.8203 16.9469C47.1641 16.9469 47.4531 16.8531 47.6875 16.6656C47.9219 16.4781 48.099 16.176 48.2188 15.7594ZM48.3438 13.5406C48.3281 12.9052 48.1641 12.4234 47.8516 12.0953C47.5391 11.762 47.1589 11.5953 46.7109 11.5953C46.2318 11.5953 45.8359 11.7698 45.5234 12.1187C45.2109 12.4677 45.0573 12.9417 45.0625 13.5406H48.3438Z" fill="#F46901"/>
<path d="M52.2656 10.1031H54.375V15.3141L57.75 10.1031H59.9062V18.4H57.7969V13.0953L54.375 18.4H52.2656V10.1031ZM57.5234 6.73593H58.5938C58.5312 7.44426 58.2812 8.00156 57.8438 8.40781C57.4115 8.80885 56.849 9.00937 56.1562 9.00937C55.4635 9.00937 54.8984 8.80885 54.4609 8.40781C54.0286 8.00156 53.7812 7.44426 53.7188 6.73593H54.7891C54.8255 7.10572 54.9557 7.38697 55.1797 7.57968C55.4036 7.76718 55.7292 7.86093 56.1562 7.86093C56.5833 7.86093 56.9089 7.76718 57.1328 7.57968C57.3568 7.38697 57.487 7.10572 57.5234 6.73593Z" fill="#F46901"/>
<path d="M61.1797 10.1031H68.6875V11.8766H66.0312V18.4H63.8359V11.8766H61.1797V10.1031Z" fill="#F46901"/>
<path d="M69.9531 10.1031H72.0625V15.3141L75.4375 10.1031H77.5938V18.4H75.4844V13.0953L72.0625 18.4H69.9531V10.1031Z" fill="#F46901"/>
<path d="M79.7656 10.1031H81.9609V13.1422H85.1016V10.1031H87.3047V18.4H85.1016V14.9156H81.9609V18.4H79.7656V10.1031Z" fill="#F46901"/>
<path d="M89.4375 10.1031H95.0391V11.8766H91.6328V18.4H89.4375V10.1031Z" fill="#F46901"/>
<path d="M96.1406 10.1031H98.25V15.3141L101.625 10.1031H103.781V18.4H101.672V13.0953L98.25 18.4H96.1406V10.1031Z" fill="#F46901"/>
<path d="M110.023 9.14218V7.10312H117.531V8.69687C116.911 9.30624 116.281 10.1812 115.641 11.3219C115 12.4625 114.51 13.676 114.172 14.9625C113.839 16.2437 113.674 17.3896 113.68 18.4H111.562C111.599 16.8167 111.924 15.2021 112.539 13.5562C113.159 11.9104 113.984 10.4391 115.016 9.14218H110.023Z" fill="#F46901"/>
<path d="M126.508 10.1031V18.4H124.328V14.9547H124.125C123.651 14.9547 123.302 15.0172 123.078 15.1422C122.859 15.262 122.615 15.5198 122.344 15.9156L122.211 16.0797L120.766 18.4H118.211L119.781 15.9937C120.229 15.3062 120.635 14.9104 121 14.8062C120.385 14.7698 119.885 14.538 119.5 14.1109C119.12 13.6786 118.93 13.1292 118.93 12.4625C118.93 11.926 119.055 11.4677 119.305 11.0875C119.56 10.7073 119.896 10.4495 120.312 10.3141C120.734 10.1734 121.359 10.1031 122.188 10.1031H126.508ZM124.328 11.5172H122.758C122.18 11.5172 121.773 11.6005 121.539 11.7672C121.305 11.9286 121.188 12.1995 121.188 12.5797C121.188 12.9599 121.32 13.2333 121.586 13.4C121.852 13.5667 122.286 13.65 122.891 13.65H124.328V11.5172Z" fill="#F46901"/>
<path d="M128.742 18.4V16.2047H130.938V18.4H128.742Z" fill="#F46901"/>
<path d="M133.133 10.1031H135.18V11.3219C135.445 10.9052 135.805 10.5667 136.258 10.3062C136.711 10.0458 137.214 9.91562 137.766 9.91562C138.729 9.91562 139.547 10.2932 140.219 11.0484C140.891 11.8036 141.227 12.8557 141.227 14.2047C141.227 15.5901 140.888 16.6682 140.211 17.4391C139.534 18.2047 138.714 18.5875 137.75 18.5875C137.292 18.5875 136.875 18.4963 136.5 18.3141C136.13 18.1318 135.74 17.8193 135.328 17.3766V21.5562H133.133V10.1031ZM135.305 14.1109C135.305 15.0432 135.49 15.7333 135.859 16.1812C136.229 16.624 136.68 16.8453 137.211 16.8453C137.721 16.8453 138.146 16.6422 138.484 16.2359C138.823 15.8245 138.992 15.1526 138.992 14.2203C138.992 13.3505 138.818 12.7047 138.469 12.2828C138.12 11.8609 137.688 11.65 137.172 11.65C136.635 11.65 136.19 11.8583 135.836 12.275C135.482 12.6865 135.305 13.2984 135.305 14.1109Z" fill="#F46901"/>
<path d="M141.719 10.1031H144.055L146.039 15.9937L147.977 10.1031H150.25L147.32 18.0875L146.797 19.5328C146.604 20.0172 146.419 20.387 146.242 20.6422C146.07 20.8974 145.87 21.1031 145.641 21.2594C145.417 21.4208 145.138 21.5458 144.805 21.6344C144.477 21.7229 144.104 21.7672 143.688 21.7672C143.266 21.7672 142.852 21.7229 142.445 21.6344L142.25 19.9156C142.594 19.9833 142.904 20.0172 143.18 20.0172C143.69 20.0172 144.068 19.8661 144.312 19.5641C144.557 19.2672 144.745 18.887 144.875 18.4234L141.719 10.1031Z" fill="#F46901"/>
<defs>
<filter id="filter0_i_2963_2888" x="0" y="0" width="24" height="24" filterUnits="userSpaceOnUse" color-interpolation-filters="sRGB">
<feFlood flood-opacity="0" result="BackgroundImageFix"/>
<feBlend mode="normal" in="SourceGraphic" in2="BackgroundImageFix" result="shape"/>
<feColorMatrix in="SourceAlpha" type="matrix" values="0 0 0 0 0 0 0 0 0 0 0 0 0 0 0 0 0 0 127 0" result="hardAlpha"/>
<feOffset/>
<feGaussianBlur stdDeviation="1.5"/>
<feComposite in2="hardAlpha" operator="arithmetic" k2="-1" k3="1"/>
<feColorMatrix type="matrix" values="0 0 0 0 0.920833 0 0 0 0 0.397731 0 0 0 0 0 0 0 0 1 0"/>
<feBlend mode="normal" in2="shape" result="effect1_innerShadow_2963_2888"/>
</filter>
<linearGradient id="paint0_linear_2963_2888" x1="12" y1="0.799988" x2="12" y2="23.6812" gradientUnits="userSpaceOnUse">
<stop offset="0.42" stop-color="#FFD76F"/>
<stop offset="1" stop-color="#F7961E"/>
</linearGradient>
<clipPath id="clip0_2963_2888">
<rect width="24" height="24" fill="white"/>
</clipPath>
</defs>
</svg>
