<svg width="137" height="24" viewBox="0 0 137 24" fill="none" xmlns="http://www.w3.org/2000/svg">
<path d="M36.313 18.538H38.6222V5.25558H35.2579C31.8755 5.25558 30.1029 6.992 30.1029 9.55442C30.1029 11.5983 31.0736 12.8042 32.816 14.0462L29.7954 18.538H32.2975L35.6618 13.5096L34.4982 12.7258C33.0813 11.7732 32.394 11.0255 32.394 9.42178C32.394 8.00491 33.3888 7.05229 35.282 7.05229H36.313V18.538ZM80.8991 18.7249C81.9542 18.7249 82.6958 18.538 83.2505 18.134V16.283C82.6777 16.681 81.9904 16.9282 81.0377 16.9282C79.4099 16.9282 78.7406 15.668 78.7406 13.6844C78.7406 11.5983 79.5666 10.5312 81.0558 10.5312C81.9361 10.5312 82.7922 10.8326 83.2505 11.122V9.19267C82.7742 8.92135 81.9361 8.73444 80.8086 8.73444C77.9026 8.73444 76.3892 10.8145 76.3892 13.7387C76.3892 16.9523 77.8604 18.7249 80.8991 18.7249ZM66.6822 17.8868V16.0298C65.9768 16.5121 64.789 16.9282 63.6796 16.9282C62.0156 16.9282 61.3885 16.1504 61.2921 14.5406H66.7786V13.3408C66.7786 9.99455 65.3075 8.73444 63.0285 8.73444C60.2611 8.73444 58.9407 10.8507 58.9407 13.7568C58.9407 17.103 60.5866 18.7249 63.4927 18.7249C64.9397 18.7249 66.0129 18.345 66.6822 17.8868ZM73.9474 18.538H76.5219L72.8742 13.4312L76.0878 8.92135H73.7906L70.5831 13.4312V8.92135H68.304V18.538H70.5831V13.8894L73.9474 18.538ZM58.386 16.7413H57.3731V8.92135H50.7409V9.74735C50.7409 12.0927 50.5902 15.1314 49.7883 16.7413H49.0769V20.7326H51.1811V18.538H56.2818V20.7326H58.386V16.7413ZM45.8512 8.92135V12.7258H42.8125V8.92135H40.5335V18.538H42.8125V14.5225H45.8512V18.538H48.1242V8.92135H45.8512ZM62.9923 10.5312C64.1198 10.5312 64.4634 11.4657 64.4634 12.6715V12.8584H61.2921C61.3523 11.333 61.901 10.5312 62.9923 10.5312ZM55.1 16.7413H51.8865C52.5195 15.2882 52.6944 12.6715 52.6944 11.0075V10.7181H55.1V16.7413ZM95.122 18.538H97.8171L93.0962 11.5621L97.3769 5.25558H95.0255L90.9136 11.3692V5.25558H88.6044V18.538H90.9136V12.3037L95.122 18.538ZM105.577 11.9782C105.577 9.65089 104.389 8.77062 101.983 8.77062C100.476 8.77062 99.2882 9.24693 98.6009 9.65089V11.5441C99.2098 11.0798 100.548 10.5854 101.718 10.5854C102.803 10.5854 103.304 10.9653 103.304 12.0023V12.5329H102.936C99.457 12.5329 97.9135 13.6844 97.9135 15.6319C97.9135 17.5793 99.0953 18.6706 100.856 18.6706C102.194 18.6706 102.767 18.2305 103.207 17.7722H103.304C103.322 18.0194 103.4 18.345 103.472 18.538H105.691C105.613 17.7542 105.577 16.9704 105.577 16.1866V11.9782ZM103.304 16.2408C103.014 16.6629 102.478 17.0065 101.676 17.0065C100.723 17.0065 100.241 16.4699 100.241 15.65C100.241 14.5587 101.025 14.1607 102.978 14.1607H103.304V16.2408ZM109.514 8.92135H107.41V21.3054H109.683V17.4105C110.261 18.2666 111.099 18.7249 112.076 18.7249C114.289 18.7249 115.82 16.9523 115.82 13.7206C115.82 10.507 114.331 8.73444 112.191 8.73444C111.118 8.73444 110.237 9.22884 109.628 10.1634L109.514 8.92135ZM111.503 16.9282C110.298 16.9282 109.683 15.9575 109.683 13.7387C109.683 11.5019 110.334 10.5312 111.618 10.5312C112.86 10.5312 113.469 11.5019 113.469 13.7206C113.469 15.9575 112.818 16.9282 111.503 16.9282ZM123.827 10.7181V8.92135H116.2V10.7181H118.877V18.538H121.15V10.7181H123.827ZM125.166 8.92135V18.538H128.626C130.863 18.538 132.449 17.3924 132.449 15.1314C132.449 12.9911 131.032 11.8636 128.663 11.8636H127.439V8.92135H125.166ZM133.287 8.92135V18.538H135.566V8.92135H133.287ZM128.494 16.7413H127.439V13.6603H128.548C129.525 13.6603 130.098 14.1005 130.098 15.2098C130.098 16.3192 129.464 16.7413 128.494 16.7413Z" fill="black"/>
<path d="M12 1.5C7.0293 1.5 3 5.5293 3 10.5C3 12.9845 4.00665 15.234 5.63475 16.8626C7.2633 18.492 11.1 20.85 11.325 23.325C11.3587 23.6961 11.6274 24 12 24C12.3726 24 12.6413 23.6961 12.675 23.325C12.9 20.85 16.7367 18.492 18.3653 16.8626C19.9934 15.234 21 12.9845 21 10.5C21 5.5293 16.9707 1.5 12 1.5Z" fill="#FF4433"/>
<path d="M12.0001 13.6502C13.7398 13.6502 15.1501 12.2399 15.1501 10.5002C15.1501 8.76052 13.7398 7.35022 12.0001 7.35022C10.2604 7.35022 8.8501 8.76052 8.8501 10.5002C8.8501 12.2399 10.2604 13.6502 12.0001 13.6502Z" fill="white"/>
</svg>
