<svg width="378" height="220" viewBox="0 0 378 220" fill="none" xmlns="http://www.w3.org/2000/svg">
<g opacity="0.08">
<path d="M37.2384 140.123C37.7825 131.622 45.2658 124.467 53.5148 122.445L108.784 107.658C116.959 105.655 125.501 108.167 129.981 115.31L163.295 167.902C167.813 175.088 167.187 184.362 161.756 190.862L123.574 236.528C118.143 243.028 109.03 245.717 101.193 242.516L45.5029 219.303C37.7124 216.129 32.8108 208.294 33.3692 199.895" fill="#FDAE38"/>
<path d="M286.657 73.312C287.21 64.7957 293.631 57.917 301.88 55.8948L357.149 41.1081C365.3 39.1122 375.28 41.2465 379.763 48.4023L412.751 101.178C417.259 108.38 416.637 117.667 411.22 124.171L373.039 169.892C367.61 176.4 358.613 178.622 350.774 175.414L294.966 152.608C287.161 149.429 282.268 141.578 282.811 133.17" fill="#5A85EB"/>
<path d="M180.541 38.9638C185.879 32.1755 195.027 29.7281 203.049 32.9421L258.607 55.1363C266.365 58.249 271.323 65.9356 270.963 74.3038L268.283 135.624C267.901 144.157 263.068 155.517 254.853 157.715L197.989 172.928C189.775 175.126 180.073 167.668 175.466 160.457L142.466 108.695C137.952 101.631 138.381 92.4898 143.541 85.9213" fill="#23C1A1"/>
<path d="M243.868 121.104L228.926 109.173L234.814 107.598C236.091 107.256 236.847 105.94 236.504 104.659C236.367 104.152 236.081 103.71 235.673 103.392L220.574 91.5954L223.825 90.7255C225.101 90.3841 225.858 89.0678 225.514 87.7869C225.385 87.3036 225.117 86.8831 224.736 86.5705L203.313 71.4571C202.224 70.6217 200.655 70.8342 199.828 71.9362C199.704 72.0989 199.599 72.2826 199.52 72.4719L188.576 96.2448C188.133 97.4773 188.775 98.8597 190.008 99.3197C190.48 99.4914 190.988 99.5107 191.458 99.3851L194.721 98.512L187.279 116.339C186.784 117.573 187.39 118.965 188.606 119.455C189.096 119.648 189.623 119.688 190.129 119.553L196.005 117.981L189.272 135.71C188.777 136.943 189.734 138.15 190.95 138.64C191.44 138.833 191.967 138.873 192.473 138.738L243.336 125.13C244.612 124.789 245.018 123.658 244.686 122.374C244.55 121.866 244.264 121.425 243.856 121.107" fill="white"/>
<path d="M336.664 76.3119L358.15 89.5655C369.827 96.3271 373.858 111.292 367.118 122.981C360.395 134.68 345.476 138.672 333.785 131.914C322.108 125.152 318.078 110.187 324.804 98.502C324.814 98.4844 324.814 98.4844 324.814 98.4844" fill="white"/>
<path d="M91.3224 158.057C99.9633 155.743 108.869 160.874 111.189 169.525C113.508 178.177 108.363 187.069 99.7225 189.383C91.0694 191.699 82.1762 186.566 79.8563 177.914C77.5364 169.263 82.6693 160.374 91.3224 158.057Z" fill="white"/>
<path d="M85.4676 136.133C88.9191 135.209 92.4855 137.258 93.4141 140.721C94.3427 144.184 92.2791 147.74 88.8277 148.664C85.364 149.591 81.8098 147.539 80.8812 144.076C79.9526 140.613 82.0039 137.061 85.4676 136.133Z" fill="white"/>
<path d="M102.25 198.767C105.701 197.843 109.268 199.892 110.196 203.355C111.125 206.818 109.061 210.373 105.61 211.298C102.146 212.225 98.592 210.173 97.6634 206.71C96.7348 203.247 98.7862 199.695 102.25 198.767Z" fill="white"/>
<path d="M57.9105 183.796C56.9819 180.333 59.0455 176.778 62.4969 175.853C65.9606 174.926 69.5148 176.978 70.4434 180.441C71.372 183.904 69.3206 187.456 65.857 188.384C62.4055 189.308 58.8391 187.259 57.9105 183.796Z" fill="white"/>
<path d="M120.579 167.004C119.651 163.541 121.714 159.985 125.166 159.061C128.63 158.134 132.184 160.186 133.112 163.649C134.041 167.112 131.99 170.664 128.526 171.592C125.074 172.516 121.508 170.467 120.579 167.004Z" fill="white"/>
<path d="M76.0383 207.419C72.9464 205.624 71.8833 201.659 73.6626 198.56C75.4542 195.457 79.4197 194.396 82.536 196.184C85.6279 197.979 86.691 201.944 84.9117 205.044C83.1079 208.15 79.1424 209.211 76.0383 207.419Z" fill="white"/>
<path d="M108.512 151.254C105.408 149.463 104.345 145.498 106.137 142.395C107.928 139.292 111.894 138.231 114.998 140.023C118.09 141.818 119.153 145.783 117.373 148.882C115.582 151.985 111.616 153.046 108.512 151.254Z" fill="white"/>
<path d="M129.214 193.16C127.423 196.262 123.457 197.324 120.353 195.532C117.249 193.74 116.186 189.776 117.977 186.673C119.769 183.57 123.735 182.508 126.839 184.3C129.943 186.092 131.006 190.057 129.214 193.16Z" fill="white"/>
<path d="M73.0799 160.763C71.2883 163.866 67.3228 164.928 64.2065 163.139C61.1024 161.347 60.0393 157.383 61.8276 154.268C63.6347 151.174 67.6002 150.112 70.701 151.892C73.7961 153.699 74.8592 157.664 73.0799 160.763Z" fill="white"/>
</g>
</svg>
