<svg width="157" height="92" viewBox="0 0 157 92" fill="none" xmlns="http://www.w3.org/2000/svg">
<path fill-rule="evenodd" clip-rule="evenodd" d="M87.7181 15.3529C84.2474 13.9675 80.2866 15.0294 77.9731 17.9658L61.9361 38.2782C59.6997 41.1195 59.5098 45.0706 61.4607 48.1217L75.7209 70.4785C77.7117 73.5932 81.4776 75.0597 85.0343 74.1061L109.655 67.5047C113.211 66.5511 115.739 63.3916 115.908 59.7034L117.096 33.1989C117.255 29.5819 115.113 26.2619 111.756 24.9201L87.7181 15.3529ZM98.6714 47.8143L105.185 53.014L105.179 53.0154C105.359 53.1553 105.485 53.3494 105.545 53.5727C105.69 54.1377 105.356 54.7173 104.794 54.8682L82.3693 60.8807C82.1463 60.9405 81.914 60.923 81.6979 60.8385C81.1623 60.6231 80.8959 60.0108 81.1147 59.4678L84.1572 51.7059L81.5665 52.4005C81.3435 52.4603 81.1112 52.4428 80.8952 52.3583C80.3595 52.1429 80.0931 51.5305 80.3119 50.9875L83.5313 43.1212L82.0926 43.507C81.8856 43.5625 81.6614 43.5542 81.4535 43.4789C80.9101 43.277 80.6278 42.6689 80.8239 42.1263L85.2255 30.0056C85.2601 29.9222 85.3067 29.8413 85.3615 29.7697C85.7266 29.2843 86.4182 29.19 86.8978 29.5572L96.7661 37.8518C96.9338 37.9892 97.0516 38.1741 97.1085 38.3868C97.2594 38.9503 96.9253 39.53 96.3626 39.6809L94.9292 40.0652L101.648 45.2668C101.828 45.4067 101.954 45.6009 102.013 45.8241C102.164 46.3877 101.83 46.9673 101.267 47.1182L98.6714 47.8143Z" fill="white" fill-opacity="0.06"/>
<path fill-rule="evenodd" clip-rule="evenodd" d="M129.683 24.2974C126.111 25.1751 123.706 28.7491 123.462 32.4302L122.205 58.2975C121.966 61.9318 123.646 65.3291 127.023 66.6993L151.168 76.531C154.56 77.9143 158.455 76.9498 160.808 74.1346L177.355 54.356C179.702 51.5422 179.976 47.5279 178.028 44.4172L163.773 21.6218C161.836 18.531 157.141 17.015 153.612 17.8813L129.683 24.2974ZM154.401 39.4297L145.233 34.128L139.966 43.3002L139.962 43.3078C137.046 48.3664 138.786 54.8407 143.839 57.7626C148.898 60.6829 155.358 58.9507 158.273 53.8861C161.195 48.8259 159.454 42.3516 154.401 39.4297Z" fill="white" fill-opacity="0.06"/>
<path fill-rule="evenodd" clip-rule="evenodd" d="M22.4928 53.0188C18.9214 53.8966 15.8132 57.6588 15.5752 61.3386L13.8834 87.2118C13.6394 90.8476 15.759 94.2373 19.1305 95.609L43.2761 105.441C46.6677 106.824 50.5683 105.858 52.921 103.043L69.4625 83.2657C71.8153 80.4505 72.0888 76.4362 70.1353 73.327L55.7288 50.5724C53.7916 47.4816 49.9616 45.7336 46.4221 46.6028L22.4928 53.0188ZM36.15 59.3178C37.6464 58.9164 39.1927 59.8064 39.5954 61.3107C39.9981 62.8151 39.1035 64.3597 37.6071 64.7611C36.1055 65.1638 34.5645 64.2725 34.1618 62.7681C33.7591 61.2638 34.6484 59.7205 36.15 59.3178ZM38.6991 68.8437C42.4453 67.839 46.3065 70.0679 47.3125 73.8262C48.3185 77.5844 46.0881 81.4472 42.3419 82.452C38.5904 83.4582 34.7345 81.2278 33.7285 77.4696C32.7225 73.7114 34.9476 69.85 38.6991 68.8437ZM46.8808 88.5273C46.4782 87.0229 44.9319 86.133 43.4355 86.5343C41.9338 86.9371 41.0446 88.4803 41.4473 89.9847C41.8499 91.489 43.3909 92.3804 44.8926 91.9776C46.389 91.5763 47.2835 90.0316 46.8808 88.5273ZM24.2168 80.0208C23.8141 78.5164 24.7087 76.9718 26.2051 76.5705C27.7067 76.1677 29.2477 77.0591 29.6504 78.5634C30.0531 80.0678 29.1638 81.611 27.6622 82.0138C26.1658 82.4151 24.6195 81.5251 24.2168 80.0208ZM53.3709 69.2842C51.8746 69.6855 50.98 71.2302 51.3827 72.7345C51.7854 74.2389 53.3317 75.1288 54.828 74.7275C56.3297 74.3247 57.219 72.7815 56.8163 71.2772C56.4136 69.7728 54.8726 68.8814 53.3709 69.2842ZM32.0833 90.2856C30.7427 89.5057 30.2817 87.7834 31.0531 86.437C31.8297 85.0892 33.5489 84.6281 34.9001 85.4052C36.2406 86.1851 36.7016 87.9074 35.9303 89.2538C35.1483 90.603 33.4291 91.0641 32.0833 90.2856ZM45.1169 62.0404C44.3402 63.3882 44.8012 65.1105 46.1471 65.889C47.4929 66.6675 49.2121 66.2064 49.9888 64.8586C50.7601 63.5123 50.2991 61.79 48.9586 61.01C47.6127 60.2315 45.8935 60.6926 45.1169 62.0404ZM55.132 84.0978C54.3554 85.4456 52.6361 85.9067 51.2903 85.1282C49.9445 84.3497 49.4834 82.6274 50.2601 81.2797C51.0368 79.9319 52.756 79.4708 54.1018 80.2493C55.4476 81.0278 55.9087 82.7501 55.132 84.0978ZM26.9376 71.0469C28.2888 71.824 30.008 71.3629 30.7847 70.0151C31.556 68.6687 31.095 66.9465 29.753 66.1612C28.4086 65.388 26.6894 65.8491 25.906 67.193C25.1308 68.5461 25.5918 70.2684 26.9376 71.0469Z" fill="white" fill-opacity="0.06"/>
</svg>
