<svg width="126" height="220" viewBox="0 0 126 220" fill="none" xmlns="http://www.w3.org/2000/svg">
<path d="M68.5421 170.151C71.0236 163.604 74.2557 157.366 78.1737 151.563C80.8336 147.549 83.1625 143.325 85.1369 138.933C86.4346 135.727 86.6401 132.184 85.7213 128.85C85.1818 126.55 84.076 124.422 82.5045 122.658C80.9329 120.894 78.9454 119.55 76.7225 118.75C71.2942 116.96 65.438 116.939 59.9963 118.688C54.1797 120.1 48.8132 122.957 44.3933 126.993C40.2308 130.916 37.0273 135.745 35.0307 141.105L7.18572 133.468C10.5218 123.512 16.5131 114.656 24.5133 107.855C33.7727 100.118 44.6982 94.631 56.4334 91.8228C69.2194 87.742 82.9519 87.699 95.7623 91.6996C100.946 93.4813 105.594 96.5456 109.274 100.607C112.954 104.669 115.546 109.596 116.809 114.929C118.235 119.822 118.611 124.961 117.913 130.01C117.351 134.249 116.092 138.366 114.186 142.193C112.346 145.762 109.893 149.914 106.779 154.733C103.742 159.13 101.132 163.808 98.9867 168.703C97.5069 172.448 97.3339 176.583 98.4955 180.438L68.4238 188.496C66.5628 182.516 66.6041 176.106 68.5421 170.151ZM81.8944 232.768C79.6584 231.591 77.7006 229.949 76.1526 227.952C74.6046 225.956 73.5023 223.651 72.92 221.192C72.2347 218.843 72.0623 216.374 72.4145 213.952C72.7668 211.53 73.6354 209.212 74.9615 207.155C77.9034 202.848 82.2912 199.738 87.3295 198.388C92.3678 197.038 97.723 197.537 102.424 199.796C104.591 200.924 106.491 202.503 107.995 204.427C109.5 206.351 110.574 208.575 111.146 210.95C111.87 213.37 112.068 215.917 111.726 218.421C111.384 220.924 110.509 223.324 109.161 225.461C106.346 229.86 101.989 233.048 96.9441 234.4C91.8992 235.752 86.5314 235.17 81.8944 232.768Z" fill="#10A2EC" fill-opacity="0.08"/>
<path d="M104.725 35.5657C107.611 33.2083 110.761 31.1933 114.111 29.561C116.406 28.4186 118.603 27.0913 120.682 25.5923C122.134 24.4602 123.171 22.8815 123.635 21.1004C123.998 19.8967 124.055 18.6212 123.8 17.3898C123.545 16.1585 122.987 15.0104 122.175 14.0497C120.149 11.7803 117.455 10.2118 114.482 9.56996C111.424 8.67308 108.191 8.56153 105.079 9.24566C102.116 9.94647 99.3547 11.3197 97.008 13.2589L86.2055 2.32824C90.3926 -1.37278 95.511 -3.86047 101.009 -4.86648C107.336 -5.96841 113.832 -5.59024 119.989 -3.76164C126.968 -2.23998 133.31 1.39483 138.15 6.6481C140.065 8.84887 141.392 11.4984 142.008 14.3499C142.623 17.2014 142.507 20.1622 141.669 22.9564C141.025 25.5915 139.83 28.0607 138.165 30.2023C136.778 32.0065 135.102 33.5688 133.205 34.8259C131.407 35.9811 129.171 37.2422 126.453 38.6347C123.883 39.8535 121.435 41.3155 119.144 43.0007C117.465 44.3332 116.285 46.1929 115.794 48.2792L99.7883 43.9904C100.522 40.7389 102.247 37.7952 104.725 35.5657ZM94.2157 67.9821C93.4982 66.8447 93.0327 65.5668 92.8505 64.2345C92.6683 62.9022 92.7736 61.5464 93.1594 60.2583C93.4688 58.9929 94.0465 57.8089 94.8534 56.7862C95.6603 55.7636 96.6775 54.9263 97.8363 54.331C100.338 53.1287 103.189 52.8628 105.87 53.5813C108.552 54.2999 110.888 55.9554 112.453 58.2476C113.152 59.344 113.607 60.5775 113.789 61.8648C113.97 63.152 113.874 64.4632 113.505 65.7099C113.195 67.0183 112.609 68.2452 111.785 69.3079C110.961 70.3706 109.919 71.2445 108.729 71.8708C106.26 73.1493 103.403 73.4593 100.718 72.7398C98.0332 72.0203 95.7138 70.3234 94.2157 67.9821Z" fill="#10A2EC" fill-opacity="0.08"/>
</svg>
