<svg width="113" height="72" viewBox="0 0 113 72" fill="none" xmlns="http://www.w3.org/2000/svg">
<path d="M77.9729 39.0605C81.3863 36.2725 85.1114 33.8894 89.0736 31.959C91.7871 30.6079 94.3861 29.0382 96.8447 27.2654C98.561 25.9265 99.7882 24.0595 100.337 21.9531C100.766 20.5295 100.833 19.0211 100.532 17.5648C100.23 16.1086 99.5698 14.7508 98.61 13.6146C96.214 10.9307 93.0284 9.0758 89.5114 8.31669C85.896 7.25599 82.0715 7.12407 78.3918 7.93315C74.8878 8.76197 71.6217 10.386 68.8464 12.6794L56.0708 -0.247711C61.0227 -4.62471 67.076 -7.56677 73.5779 -8.75652C81.0604 -10.0597 88.7434 -9.61247 96.0245 -7.44989C104.279 -5.6503 111.779 -1.3516 117.503 4.86115C119.768 7.46389 121.337 10.5973 122.065 13.9696C122.793 17.342 122.655 20.8435 121.665 24.1481C120.902 27.2645 119.49 30.1847 117.52 32.7174C115.88 34.8512 113.898 36.6989 111.654 38.1855C109.528 39.5517 106.884 41.0432 103.67 42.69C100.63 44.1313 97.7351 45.8604 95.0249 47.8535C93.0395 49.4293 91.6439 51.6287 91.0637 54.096L72.1346 49.0239C73.0021 45.1785 75.042 41.6972 77.9729 39.0605ZM65.5441 77.3976C64.6955 76.0524 64.145 74.5412 63.9295 72.9655C63.7141 71.3899 63.8386 69.7864 64.2949 68.263C64.6607 66.7666 65.344 65.3662 66.2982 64.1568C67.2525 62.9474 68.4555 61.9572 69.826 61.2531C72.7851 59.8313 76.156 59.5168 79.3274 60.3666C82.4989 61.2164 85.2609 63.1742 87.1127 65.8851C87.939 67.1818 88.4777 68.6405 88.6923 70.1629C88.9069 71.6853 88.7924 73.236 88.3567 74.7103C87.9901 76.2578 87.2963 77.7087 86.3219 78.9655C85.3474 80.2223 84.1151 81.2559 82.7076 81.9965C79.7888 83.5086 76.4099 83.8751 73.2344 83.0242C70.0588 82.1733 67.3158 80.1665 65.5441 77.3976Z" fill="white" fill-opacity="0.1"/>
<path d="M22.4804 50.636C24.3284 48.0687 26.4677 45.7242 28.8554 43.6496C30.4852 42.2086 31.995 40.6374 33.3698 38.9513C34.3107 37.7041 34.8146 36.1816 34.8034 34.6192C34.8369 33.5522 34.6033 32.4938 34.1239 31.5401C33.6445 30.5864 32.9344 29.7676 32.0582 29.1582C29.8991 27.7424 27.3467 27.048 24.7681 27.1751C22.0653 27.1114 19.39 27.7304 16.9899 28.9751C14.7152 30.2008 12.7531 31.9337 11.2554 34.0395L0 27.4497C2.61927 23.4947 6.26842 20.3301 10.5539 18.2972C15.498 16.0034 20.9061 14.8861 26.3542 15.0328C32.4095 14.747 38.4058 16.3343 43.5271 19.5786C45.5804 20.9624 47.2501 22.8435 48.3808 25.0466C49.5115 27.2497 50.0663 29.7031 49.9937 32.1785C50.044 34.481 49.6074 36.7682 48.7126 38.8903C47.972 40.6746 46.9413 42.324 45.6623 43.7716C44.4422 45.114 42.8866 46.6394 40.9649 48.3784C39.1256 49.9426 37.4403 51.6793 35.932 53.5648C34.8486 55.0263 34.2898 56.8106 34.3459 58.6292H20.2842C20.1713 55.8016 20.9386 53.0088 22.4804 50.636ZM20.9857 79.5274C20.1478 78.7523 19.4856 77.8067 19.0436 76.7542C18.6017 75.7018 18.3902 74.5668 18.4235 73.4257C18.3992 72.3202 18.6126 71.2223 19.0494 70.2064C19.4862 69.1905 20.1362 68.2804 20.9552 67.5376C22.7422 66.0019 25.0201 65.1576 27.376 65.1576C29.7319 65.1576 32.0099 66.0019 33.7968 67.5376C34.6104 68.2832 35.2546 69.1946 35.6861 70.2103C36.1175 71.226 36.3262 72.3225 36.298 73.4257C36.3313 74.5668 36.1199 75.7018 35.6779 76.7542C35.236 77.8067 34.5738 78.7523 33.7358 79.5274C31.9936 81.1181 29.7198 82 27.3608 82C25.0018 82 22.728 81.1181 20.9857 79.5274Z" fill="white" fill-opacity="0.1"/>
</svg>
