<svg width="124" height="192" viewBox="0 0 124 192" fill="none" xmlns="http://www.w3.org/2000/svg">
<path d="M112.803 192L0 143.272C11.8668 133.487 21.1579 120.951 27.0632 106.756L59.9852 27.7808C63.1091 20.577 67.9808 14.2645 74.1599 9.41399C80.3389 4.56352 87.6305 1.32804 95.3755 0L200 45.2813C188.681 51.8447 179.768 61.8635 174.573 73.8644L137.011 160.416C131.634 172.755 123.324 183.596 112.803 192Z" fill="#23C1A1" fill-opacity="0.08"/>
<path d="M153.459 77.9939C153.28 78.3802 134.812 70.6847 112.18 60.7608C89.548 50.837 71.3473 42.5176 71.5257 42.1313C71.7042 41.745 90.1725 49.4405 112.804 59.3644C135.436 69.2882 153.637 77.6077 153.459 77.9939Z" fill="white"/>
<path d="M148.907 93.5332C148.729 93.9194 129.636 85.9268 106.231 75.7059C82.8254 65.4849 64.0299 56.8386 64.2083 56.4524C64.3867 56.0661 83.4797 64.029 106.855 74.2797C130.231 84.5304 148.907 93.1469 148.907 93.5332Z" fill="white"/>
<path d="M142.961 107.261C142.812 107.647 123.689 99.6546 100.314 89.4336C76.9382 79.2126 58.1129 70.5961 58.2616 70.2098C58.4103 69.8236 77.533 77.7864 100.938 88.0371C124.343 98.2878 142.961 106.845 142.961 107.261Z" fill="white"/>
<path d="M136.806 120.987C136.627 121.374 117.534 113.381 94.129 103.16C70.7238 92.9391 51.9283 84.3225 52.1067 83.9065C52.2852 83.4906 71.3781 91.5128 94.7536 101.734C118.129 111.955 137.014 120.69 136.806 120.987Z" fill="white"/>
<path d="M130.764 134.685C130.764 135.101 111.493 127.108 88.1173 116.858C64.7419 106.607 45.9166 98.0202 46.095 97.6042C46.2734 97.1882 65.3366 105.211 88.7419 115.432C112.147 125.653 131.062 134.299 130.764 134.685Z" fill="white"/>
<path d="M84.0467 130.584C81.742 130.078 79.5057 129.3 77.385 128.267C73.3404 126.662 67.8088 124.345 61.7418 121.671C55.6749 118.996 50.2028 116.53 46.2771 114.658C44.0839 113.792 41.9983 112.675 40.0615 111.331C42.3562 111.871 44.5888 112.648 46.7233 113.648C50.7679 115.282 56.2994 117.6 62.3664 120.244C68.4333 122.889 73.9054 125.414 77.8311 127.286C80.0156 128.159 82.0996 129.265 84.0467 130.584Z" fill="white"/>
<path d="M112.448 162.288C112.299 162.288 112.775 161.218 113.042 159.316C113.371 156.578 112.808 153.807 111.436 151.413C110.328 149.522 108.718 147.974 106.784 146.941C104.85 145.907 102.668 145.427 100.478 145.555C98.2888 145.683 96.1772 146.413 94.377 147.664C92.5767 148.916 91.1578 150.641 90.2771 152.647C89.3964 154.654 89.0881 156.865 89.3864 159.036C89.6847 161.207 90.5779 163.253 91.9673 164.949C93.3567 166.644 95.1883 167.923 97.2595 168.643C99.3308 169.364 101.561 169.499 103.704 169.032C106.401 168.429 108.826 166.957 110.604 164.843C111.853 163.327 112.329 162.288 112.448 162.347C112.256 163.439 111.785 164.462 111.08 165.318C109.37 167.739 106.848 169.468 103.972 170.191C101.823 170.753 99.5665 170.761 97.4135 170.215C95.2604 169.67 93.2808 168.588 91.6596 167.071C89.6576 165.188 88.2882 162.731 87.7391 160.039C87.1899 157.347 87.488 154.551 88.5925 152.035C89.6969 149.519 91.5536 147.406 93.9078 145.986C96.262 144.566 98.9984 143.908 101.741 144.104C103.958 144.262 106.097 144.98 107.96 146.191C109.822 147.402 111.346 149.066 112.388 151.027C113.787 153.637 114.219 156.657 113.608 159.554C113.435 160.542 113.038 161.477 112.448 162.288Z" fill="white"/>
<path d="M111.018 40.997L78.3301 26.6885L76.2654 31.3966L108.953 45.7051L111.018 40.997Z" fill="white"/>
</svg>
