<svg width="145" height="72" viewBox="0 0 145 72" fill="none" xmlns="http://www.w3.org/2000/svg">
<path d="M65.4215 99.213L20.5959 116.802C17.0497 95.0554 10.0993 74.0026 0 54.4159L27.5487 42.6203C30.0628 41.543 32.7712 40.9916 35.5068 41.0001C38.2424 41.0086 40.9473 41.5768 43.4547 42.6697C45.9621 43.7626 48.2188 45.357 50.0858 47.3546C51.9528 49.3523 53.3905 51.7108 54.3102 54.2848C59.5928 68.8265 63.3174 83.8867 65.4215 99.213Z" fill="white" fill-opacity="0.1"/>
<path d="M29.0459 42.0041C29.0459 42.0041 35.7363 55.7132 35.146 56.1981C34.5556 56.6831 51.7539 49.7892 51.9638 49.645C52.0162 49.6843 43.0695 37.7576 29.0459 42.0041Z" fill="white" fill-opacity="0.1"/>
<path d="M26.5405 60.4841C24.6223 61.6688 22.5869 62.6526 20.4666 63.4199C18.4392 64.3928 16.3214 65.1653 14.1436 65.7266C16.0544 64.537 18.086 63.553 20.2043 62.7908C22.2349 61.8147 24.3573 61.042 26.5405 60.4841Z" fill="#23C1A1"/>
<path d="M48.7881 58.5179C48.8668 58.6883 41.5992 62.2139 32.5607 66.3817C23.5221 70.5494 16.1233 73.7867 16.0446 73.6163C15.9659 73.4459 23.2335 69.9335 32.272 65.7526C41.3106 61.5717 48.7094 58.3475 48.7881 58.5179Z" fill="#23C1A1"/>
<path d="M51.8037 66.5915C51.8825 66.7619 44.6149 70.2744 35.5763 74.4552C26.5377 78.6361 19.1389 81.8734 19.0602 81.703C18.9815 81.5326 26.2491 78.0201 35.2877 73.8393C44.3263 69.6584 51.725 66.408 51.8037 66.5915Z" fill="#23C1A1"/>
<path d="M116.339 68L57 42.3671C63.2425 37.2198 68.1299 30.6251 71.2364 23.158L88.5547 -18.3861C90.198 -22.1757 92.7607 -25.4963 96.0112 -28.0478C99.2616 -30.5994 103.097 -32.3014 107.171 -33L162.208 -9.18014C156.254 -5.72751 151.566 -0.457202 148.832 5.85578L129.074 51.3855C126.245 57.8761 121.873 63.5792 116.339 68Z" fill="white" fill-opacity="0.1"/>
<path d="M137.726 8.02807C137.632 8.23126 127.917 4.18313 116.012 -1.03724C104.106 -6.25761 94.5318 -10.634 94.6257 -10.8372C94.7196 -11.0403 104.435 -6.99221 116.34 -1.77184C128.245 3.44852 137.82 7.82488 137.726 8.02807Z" fill="#23C1A1"/>
<path d="M135.331 16.2022C135.237 16.4054 125.194 12.201 112.882 6.82431C100.569 1.44764 90.6822 -3.10064 90.7761 -3.30382C90.8699 -3.50701 100.914 0.681786 113.21 6.07408C125.507 11.4664 135.331 15.999 135.331 16.2022Z" fill="#23C1A1"/>
<path d="M132.203 23.4239C132.125 23.6271 122.066 19.4227 109.769 14.046C97.4726 8.66932 87.5697 4.13667 87.6479 3.93348C87.7261 3.73029 97.7855 7.91909 110.098 13.3114C122.41 18.7037 132.203 23.2051 132.203 23.4239Z" fill="#23C1A1"/>
<path d="M128.965 30.6442C128.871 30.8474 118.827 26.643 106.515 21.2663C94.2032 15.8896 84.316 11.357 84.4098 11.1381C84.5037 10.9193 94.5474 15.1394 106.844 20.516C119.14 25.8927 129.074 30.4879 128.965 30.6442Z" fill="#23C1A1"/>
<path d="M125.787 37.85C125.787 38.0688 115.65 33.8644 103.353 28.4721C91.0568 23.0798 81.1539 18.5628 81.2477 18.344C81.3416 18.1251 91.3696 22.3452 103.682 27.7219C115.994 33.0985 125.944 37.6468 125.787 37.85Z" fill="#23C1A1"/>
<path d="M101.212 35.6928C99.9999 35.4268 98.8235 35.0175 97.7079 34.4737C95.5803 33.6297 92.6704 32.4106 89.479 31.0039C86.2875 29.5972 83.4089 28.2999 81.3439 27.3152C80.1902 26.8594 79.093 26.272 78.0742 25.5647C79.2813 25.8491 80.4557 26.2577 81.5786 26.7838C83.7062 27.6435 86.616 28.8626 89.8075 30.2536C92.9989 31.6447 95.8775 32.9732 97.9426 33.9579C99.0917 34.4171 100.188 34.9987 101.212 35.6928Z" fill="#23C1A1"/>
<path d="M116.152 52.37C116.073 52.37 116.324 51.8074 116.465 50.8071C116.637 49.3665 116.341 47.9087 115.62 46.6495C115.037 45.6549 114.19 44.8407 113.172 44.2969C112.155 43.7531 111.007 43.5009 109.855 43.5681C108.703 43.6353 107.593 44.0193 106.646 44.6777C105.699 45.3361 104.952 46.2433 104.489 47.2989C104.026 48.3546 103.864 49.5177 104.02 50.6596C104.177 51.8016 104.647 52.878 105.378 53.7699C106.109 54.6618 107.072 55.3344 108.162 55.7135C109.252 56.0926 110.425 56.1634 111.552 55.918C112.971 55.6007 114.246 54.8264 115.182 53.7142C115.839 52.9171 116.089 52.37 116.152 52.4013C116.051 52.9756 115.803 53.5141 115.432 53.9643C114.533 55.2379 113.206 56.1473 111.693 56.5276C110.563 56.823 109.376 56.8275 108.243 56.5405C107.11 56.2535 106.069 55.6844 105.216 54.8864C104.163 53.8956 103.443 52.6034 103.154 51.1873C102.865 49.7711 103.022 48.3003 103.603 46.9768C104.184 45.6532 105.16 44.5417 106.399 43.7947C107.637 43.0477 109.077 42.7018 110.52 42.8046C111.686 42.8879 112.811 43.2658 113.791 43.9028C114.77 44.5398 115.572 45.415 116.12 46.4463C116.856 47.8194 117.084 49.408 116.762 50.9321C116.671 51.4517 116.462 51.9436 116.152 52.37Z" fill="#23C1A1"/>
</svg>
