<svg width="132" height="44" viewBox="0 0 132 44" fill="none" xmlns="http://www.w3.org/2000/svg">
<g clip-path="url(#clip0_2907_5118)">
<path fill-rule="evenodd" clip-rule="evenodd" d="M123.25 0H8.02224C1.14529 0 0 2.38118 0 8.04424V36.0062C0 41.6654 2.35529 44 8.01447 44H123.252C128.915 44 131.353 41.6615 131.353 35.9985V8.04424C131.353 2.38118 128.914 0 123.25 0Z" fill="black"/>
<path fill-rule="evenodd" clip-rule="evenodd" d="M34.2462 27.3885C33.5849 28.8547 33.2679 29.5095 32.4163 30.8049C31.227 32.6141 29.5524 34.8672 27.4767 34.8866C25.6326 34.9034 25.1589 33.6856 22.6561 33.6999C20.1533 33.7141 19.6304 34.9073 17.785 34.8905C15.7093 34.8711 14.1227 32.8367 12.9334 31.0275C9.6101 25.9675 9.26198 20.0301 11.3119 16.8738C12.769 14.6311 15.0661 13.3175 17.2273 13.3175C19.4273 13.3175 20.8107 14.5236 22.6289 14.5236C24.3928 14.5236 25.4682 13.3149 28.0124 13.3149C29.9355 13.3149 31.9724 14.3619 33.4231 16.1724C28.6686 18.78 29.4411 25.5728 34.2462 27.3885Z" fill="white"/>
<path fill-rule="evenodd" clip-rule="evenodd" d="M26.0828 11.2966C27.0068 10.1111 27.7082 8.43526 27.4546 6.72314C25.9457 6.82667 24.1792 7.7869 23.1478 9.0396C22.2121 10.1758 21.4395 11.8621 21.7411 13.5004C23.3885 13.5509 25.0928 12.5674 26.0828 11.2966Z" fill="white"/>
<path d="M44.6964 16.7273C46.3342 16.7273 47.4615 15.8779 47.775 14.4321H46.6376C46.3798 15.246 45.6771 15.7212 44.7014 15.7212C43.3618 15.7212 42.5126 14.6445 42.5126 12.9409C42.5126 11.2525 43.372 10.1657 44.6964 10.1657C45.6417 10.1657 46.4 10.7268 46.6376 11.5912H47.775C47.5323 10.1353 46.3039 9.15967 44.6964 9.15967C42.6592 9.15967 41.355 10.6307 41.355 12.9409C41.355 15.2663 42.6491 16.7273 44.6964 16.7273Z" fill="white"/>
<path d="M50.9281 13.7697L53.2838 11.2725H51.9796L49.8968 13.5472H49.8565V11.2725H48.7695V16.5905H49.8565V14.1388H49.8968L52.0048 16.5905H53.3748L50.9281 13.7697Z" fill="white"/>
<path d="M55.7923 15.8173C55.2059 15.8173 54.8217 15.5141 54.8217 15.049C54.8217 14.594 55.1908 14.3059 55.8429 14.2604L57.1521 14.1795V14.599C57.1521 15.2917 56.5557 15.8173 55.7923 15.8173ZM55.4889 16.6818C56.1866 16.6818 56.8589 16.3077 57.1673 15.7163H57.1926V16.5908H58.2389V12.9259C58.2389 11.8592 57.415 11.1768 56.1259 11.1768C54.8116 11.1768 53.9927 11.8845 53.932 12.845H54.9632C55.0593 12.3698 55.4536 12.0665 56.0855 12.0665C56.7528 12.0665 57.1521 12.4203 57.1521 13.0118V13.4213L55.6962 13.5072C54.4324 13.578 53.7197 14.1492 53.7197 15.0793C53.7197 16.0347 54.4477 16.6818 55.4889 16.6818Z" fill="white"/>
<path d="M63.6774 16.5905V11.2725H62.5955V13.3653C62.3731 13.6281 61.9738 13.8506 61.3822 13.8506C60.7099 13.8506 60.3511 13.4361 60.3511 12.7739V11.2725H59.2642V12.8548C59.2642 14.0174 59.9568 14.7808 61.2104 14.7808C61.7967 14.7808 62.2366 14.5987 62.5247 14.3258H62.5955V16.5905H63.6774Z" fill="white"/>
<path d="M65.9323 16.5905L68.3891 12.8548H68.4294V16.5905H69.5063V11.2725H68.4294L65.9727 14.9981H65.9323V11.2725H64.8555V16.5905H65.9323Z" fill="white"/>
<path d="M72.8721 12.0661C73.403 12.0661 73.6912 12.3138 73.6912 12.7537C73.6912 13.2237 73.3828 13.4613 72.766 13.4613H71.7551V12.0661H72.8721ZM72.8368 14.2247C73.5547 14.2247 73.9085 14.4875 73.9085 15.0132C73.9085 15.5239 73.5748 15.7968 72.9581 15.7968H71.7551V14.2247H72.8368ZM70.6782 16.5905H73.1249C74.2776 16.5905 74.9954 15.994 74.9954 15.0588C74.9954 14.3915 74.5404 13.9062 73.8529 13.8152V13.7747C74.3635 13.6787 74.7578 13.1783 74.7578 12.6272C74.7578 11.7881 74.1309 11.2725 73.0946 11.2725H70.6782V16.5905Z" fill="white"/>
<path d="M77.8319 15.8173C77.2454 15.8173 76.8613 15.5141 76.8613 15.049C76.8613 14.594 77.2303 14.3059 77.8824 14.2604L79.1918 14.1795V14.599C79.1918 15.2917 78.5952 15.8173 77.8319 15.8173ZM77.5286 16.6818C78.2263 16.6818 78.8985 16.3077 79.2069 15.7163H79.2322V16.5908H80.2786V12.9259C80.2786 11.8592 79.4546 11.1768 78.1656 11.1768C76.8513 11.1768 76.0322 11.8845 75.9716 12.845H77.0028C77.0989 12.3698 77.4931 12.0665 78.1251 12.0665C78.7924 12.0665 79.1918 12.4203 79.1918 13.0118V13.4213L77.7359 13.5072C76.4721 13.578 75.7593 14.1492 75.7593 15.0793C75.7593 16.0347 76.4872 16.6818 77.5286 16.6818Z" fill="white"/>
<path d="M82.5025 16.5905L84.9594 12.8548H84.9997V16.5905H86.0766V11.2725H84.9997L82.543 14.9981H82.5025V11.2725H81.4258V16.5905H82.5025ZM82.1487 8.93701C82.1487 9.89243 82.826 10.5395 83.827 10.5395C84.8329 10.5395 85.5104 9.89243 85.5104 8.93701H84.7722C84.7672 9.50824 84.4033 9.94298 83.827 9.94298C83.2558 9.94298 82.8918 9.50824 82.8867 8.93701H82.1487Z" fill="white"/>
<path d="M91.2939 11.2725H86.8706V12.1369H88.5389V16.5905H89.6257V12.1369H91.2939V11.2725Z" fill="white"/>
<path d="M94.2206 12.0563C94.984 12.0563 95.4996 12.6276 95.5248 13.4415H92.8659C92.9214 12.6377 93.4573 12.0563 94.2206 12.0563ZM95.5198 15.0288C95.3733 15.4938 94.9132 15.8072 94.2914 15.8072C93.4168 15.8072 92.8607 15.1956 92.8607 14.2705V14.2047H96.6168V13.8307C96.6168 12.2181 95.6968 11.1768 94.2206 11.1768C92.7193 11.1768 91.7588 12.2889 91.7588 13.957C91.7588 15.6354 92.7041 16.6919 94.2661 16.6919C95.4844 16.6919 96.4044 15.9994 96.5561 15.0288H95.5198Z" fill="white"/>
<path d="M101.849 12.0661C102.38 12.0661 102.668 12.3138 102.668 12.7537C102.668 13.2237 102.359 13.4613 101.743 13.4613H100.732V12.0661H101.849ZM101.813 14.2247C102.531 14.2247 102.885 14.4875 102.885 15.0132C102.885 15.5239 102.551 15.7968 101.935 15.7968H100.732V14.2247H101.813ZM99.6548 16.5905H102.102C103.254 16.5905 103.972 15.994 103.972 15.0588C103.972 14.3915 103.517 13.9062 102.83 13.8152V13.7747C103.34 13.6787 103.734 13.1783 103.734 12.6272C103.734 11.7881 103.107 11.2725 102.071 11.2725H99.6548V16.5905Z" fill="white"/>
<path d="M49.7482 34.612H51.9282L47.1359 21.4424H44.9099L40.1177 34.612H42.2609L43.475 31.0526H48.5341L49.7482 34.612ZM45.9769 23.6327H46.0322L48.0097 29.4099H43.9994L45.9769 23.6327Z" fill="white"/>
<path d="M58.1734 24.856C56.7754 24.856 55.6623 25.5588 55.092 26.6631H55.0552V25.0111H53.1328V37.7883H55.1197V33.0334H55.1656C55.7176 34.1013 56.8213 34.7765 58.2103 34.7765C60.6386 34.7765 62.2483 32.8509 62.2483 29.8118C62.2483 26.7725 60.6294 24.856 58.1734 24.856ZM57.6492 33.1063C56.1222 33.1063 55.1105 31.8104 55.1105 29.8118C55.1105 27.8313 56.1314 26.5171 57.6492 26.5171C59.222 26.5171 60.2062 27.8038 60.2062 29.8118C60.2062 31.8287 59.222 33.1063 57.6492 33.1063Z" fill="white"/>
<path d="M68.8062 24.856C67.4082 24.856 66.2951 25.5588 65.7248 26.6631H65.688V25.0111H63.7656V37.7883H65.7525V33.0334H65.7984C66.3504 34.1013 67.4541 34.7765 68.8431 34.7765C71.2714 34.7765 72.8811 32.8509 72.8811 29.8118C72.8811 26.7725 71.2622 24.856 68.8062 24.856ZM68.282 33.1063C66.755 33.1063 65.7433 31.8104 65.7433 29.8118C65.7433 27.8313 66.7642 26.5171 68.282 26.5171C69.8548 26.5171 70.839 27.8038 70.839 29.8118C70.839 31.8287 69.8548 33.1063 68.282 33.1063Z" fill="white"/>
<path d="M77.8564 30.9434C77.9852 33.3254 79.9719 34.8313 82.9154 34.8313C86.0613 34.8313 88.0388 33.2889 88.0388 30.8248C88.0388 28.899 86.9075 27.813 84.1848 27.1741L82.7223 26.8182C81.0114 26.3984 80.3123 25.8507 80.3123 24.9199C80.3123 23.7517 81.407 22.9486 83.0074 22.9486C84.6079 22.9486 85.7025 23.7425 85.8221 25.0568H87.8272C87.7629 22.7843 85.8405 21.2236 83.035 21.2236C80.2019 21.2236 78.206 22.7843 78.206 25.0568C78.206 26.8912 79.3373 28.0229 81.7749 28.607L83.4949 29.0177C85.2151 29.4375 85.9417 30.049 85.9417 31.0712C85.9417 32.2485 84.7368 33.1063 83.0626 33.1063C81.315 33.1063 80.0364 32.2485 79.8892 30.9434H77.8564Z" fill="white"/>
<path d="M90.2091 22.7388V25.0112H88.8018V26.5719H90.2091V32.0844C90.2091 33.937 90.9726 34.6764 92.9318 34.6764C93.3734 34.6764 93.8148 34.6397 94.0356 34.585V33.0244C93.9068 33.0517 93.5848 33.07 93.3825 33.07C92.5731 33.07 92.2052 32.6958 92.2052 31.8653V26.5719H94.0447V25.0112H92.2052V22.7388H90.2091Z" fill="white"/>
<path d="M99.5817 34.7945C102.35 34.7945 104.172 32.9053 104.172 29.8115C104.172 26.7267 102.341 24.8374 99.5817 24.8374C96.8221 24.8374 94.9917 26.7267 94.9917 29.8115C94.9917 32.9053 96.8129 34.7945 99.5817 34.7945ZM99.5817 33.17C98.0271 33.17 97.0153 31.947 97.0153 29.8115C97.0153 27.685 98.0271 26.4619 99.5817 26.4619C101.136 26.4619 102.148 27.685 102.148 29.8115C102.148 31.947 101.145 33.17 99.5817 33.17Z" fill="white"/>
<path d="M105.689 34.6123H107.676V28.8625C107.676 27.5027 108.467 26.6539 109.746 26.6539C110.132 26.6539 110.481 26.6996 110.638 26.7635V24.9291C110.491 24.9016 110.242 24.856 109.957 24.856C108.816 24.856 107.952 25.5223 107.63 26.6448H107.584V25.0111H105.689V34.6123Z" fill="white"/>
<path d="M115.476 26.4254C116.865 26.4254 117.803 27.4567 117.849 28.9262H113.011C113.112 27.4751 114.087 26.4254 115.476 26.4254ZM117.84 31.7919C117.573 32.6315 116.736 33.1974 115.604 33.1974C114.013 33.1974 113.001 32.093 113.001 30.4229V30.3043H119.836V29.6289C119.836 26.7175 118.161 24.8374 115.476 24.8374C112.744 24.8374 110.996 26.8452 110.996 29.857C110.996 32.8871 112.716 34.7945 115.558 34.7945C117.775 34.7945 119.449 33.5442 119.725 31.7919H117.84Z" fill="white"/>
</g>
<defs>
<clipPath id="clip0_2907_5118">
<rect width="131.353" height="44" fill="white"/>
</clipPath>
</defs>
</svg>
