<svg width="60" height="53" viewBox="0 0 60 53" fill="none" xmlns="http://www.w3.org/2000/svg">
<path fill-rule="evenodd" clip-rule="evenodd" d="M36.5292 12.45C35.9529 11.9441 35.1242 11.9557 34.6486 12.1026C34.9601 11.7197 35.6856 11.4056 35.8994 11.3675C36.0623 11.4286 36.5292 11.9091 36.5292 12.45ZM38.3691 10.3553C37.9901 8.32563 33.2787 9.67044 30.9061 8.80833C30.8606 9.4 31.6365 10.3481 32.3787 10.699C31.11 11.8013 29.9711 14.0223 29.7413 16.7358C29.5122 14.0223 28.3731 11.8013 27.1046 10.699C27.8467 10.3481 28.6232 9.4 28.5771 8.80833C26.2044 9.67044 21.4931 8.32563 21.1134 10.3553C21.0335 10.7848 21.2399 11.4395 21.463 11.6277C21.5029 11.4916 21.7112 11.0463 22.3679 10.9464C25.6873 10.4443 28.4585 15.5663 25.957 17.6372C25.9189 17.6687 25.9403 17.7268 25.9919 17.7268H33.4918C33.5428 17.7268 33.5643 17.6687 33.5268 17.6372C31.0246 15.5663 33.7959 10.4443 37.1152 10.9464C37.7726 11.0463 37.9802 11.4916 38.0202 11.6277C38.2432 11.4395 38.4496 10.785 38.3691 10.3553ZM39.1764 5.69681C39.1168 5.50505 41.0631 5.50025 41.0631 6.71984C41.0631 7.53727 39.8989 7.92442 39.8989 8.77269C39.8989 9.16773 40.3234 9.45757 40.4537 9.45757C40.1538 8.0957 41.3937 8.80833 41.7285 9.06308C41.0631 7.23167 42.561 7.24318 42.4135 6.40348C42.3109 5.81655 41.0091 5.99385 40.5378 5.69681C39.7018 5.16984 38.7127 3.11947 38.0609 5.16984C39.276 6.29945 38.569 7.96198 37.0263 7.96198C37.0263 7.96198 37.0177 8.20576 37.0318 8.22509C38.8718 8.1349 39.5131 6.78105 39.1764 5.69681ZM17.7099 9.06308C18.0448 8.80833 19.2845 8.0957 18.9854 9.45757C19.1149 9.45757 19.5394 9.16773 19.5394 8.77269C19.5394 7.92442 18.3752 7.53727 18.3752 6.71984C18.3752 5.50019 20.3215 5.50505 20.2619 5.69681C19.9259 6.78098 20.5673 8.13497 22.4072 8.22509C22.4207 8.20576 22.4121 7.96198 22.4121 7.96198C20.8701 7.96198 20.163 6.29931 21.3776 5.16984C20.7257 3.11947 19.7366 5.16984 18.9006 5.69681C18.4294 5.99392 17.1275 5.81655 17.0249 6.40348C16.878 7.24318 18.3752 7.23167 17.7099 9.06308ZM22.9343 12.4499C23.5111 11.944 24.34 11.9556 24.8149 12.1026C24.5046 11.7196 23.7779 11.4056 23.5647 11.3674C23.4018 11.4286 22.9343 11.909 22.9343 12.4499ZM30.6167 1.09568L29.7192 0L28.8217 1.09568L29.7192 2.24879L30.6167 1.09568ZM35.7404 4.40876L35.1021 3.63005L34.4644 4.40876L35.1021 5.16978L35.7404 4.40876ZM40.9175 26.9162L40.1084 26.0588L39.2993 26.9162L40.1084 27.6681L40.9175 26.9162ZM24.9745 4.40862L24.3362 3.62992L23.6985 4.40862L24.3362 5.16971L24.9745 4.40862ZM23.1462 8.22495H25.5269C27.5283 8.22495 28.429 6.99501 28.7011 5.9284H30.7377C31.0099 6.99508 31.9098 8.22502 33.9121 8.22502H36.2927C36.2927 8.22502 36.7091 7.6594 36.8135 7.37929C37.1896 6.37134 36.7091 5.90119 36.0082 5.90119L35.102 6.72341L34.1958 5.90119C33.4949 5.90119 33.0145 6.37134 33.3905 7.37929C33.4384 7.50821 33.5533 7.6975 33.662 7.86384C32.8172 7.74767 31.7391 7.16875 31.5025 5.9284C31.5025 5.9284 32.1267 4.93559 32.2834 4.5339C32.8462 3.08924 32.1273 2.49867 31.0762 2.49867L29.7191 4.09589L28.3621 2.49867C27.311 2.49867 26.5922 3.08917 27.1555 4.5339C27.3116 4.93566 27.9364 5.92846 27.9364 5.92846C27.6993 7.16882 26.621 7.74774 25.7763 7.86391C25.8857 7.6975 26 7.50821 26.0479 7.37936C26.4232 6.37134 25.9441 5.90126 25.2424 5.90126L24.3363 6.72348L23.4302 5.90126C22.7287 5.90126 22.2494 6.37134 22.6248 7.37936C22.7292 7.65947 23.1462 8.22495 23.1462 8.22495ZM47.7589 15.6134C47.2992 15.8463 44.6035 17.1107 41.1503 16.643C41.1861 16.4781 41.2164 16.3121 41.2412 16.1451C43.5395 15.8699 45.4077 15.4796 46.5983 14.8166C47.9554 14.0603 48.5489 12.255 47.8639 10.9119C47.8461 10.878 47.797 10.872 47.7724 10.9003C47.3971 11.333 45.0366 13.9036 41.318 14.7028C41.3086 14.5099 41.2909 14.3176 41.2652 14.1263C43.0713 13.1007 44.8346 11.9191 45.6744 10.8386C46.9437 9.20501 46.8269 7.12146 45.6192 6.05902C45.6066 6.04826 45.5901 6.0434 45.5737 6.04573C45.5574 6.04806 45.5428 6.05731 45.5337 6.07116C45.1517 6.70216 41.5749 12.4903 37.648 14.9889C37.6001 15.0196 37.5518 15.0497 37.5031 15.0791C37.3906 15.1475 37.3783 15.2938 37.4742 15.381C37.9269 15.7918 38.2083 16.3635 38.2083 16.9982C38.2083 18.1017 37.3587 19.0194 36.2356 19.2185C35.6648 19.3292 34.841 19.2971 34.0497 19.0352C34.0141 19.0237 33.9772 19.0473 33.9772 19.083V22.5782C33.9772 22.6344 34.0627 22.6483 34.0829 22.5943C34.5639 21.3185 36.0039 21.0473 36.6337 21.0473C36.8604 22.4111 37.2652 23.5407 37.7911 24.1487C38.6473 25.1367 40.0457 25.1227 40.6521 24.4397C40.6621 24.4284 40.6664 24.4131 40.6638 24.3983C40.6611 24.3834 40.6518 24.3706 40.6385 24.3634C40.2823 24.1584 38.2438 22.9054 37.8358 20.852C37.9969 20.7964 38.1541 20.7334 38.3047 20.659C38.9626 21.7492 39.9204 22.7202 40.6914 23.0911C41.9865 23.7132 43.1721 23.4106 43.698 22.5001C43.7171 22.4679 43.6937 22.4281 43.655 22.4244C42.8539 22.3603 40.3952 21.6548 39.3483 19.936C39.4683 19.8258 39.5855 19.7109 39.6949 19.5887C40.7902 20.4236 42.3391 21.1617 43.4481 21.3124C44.7454 21.4891 46.2156 21.0746 46.2513 19.5639C46.2519 19.5336 46.2248 19.5088 46.193 19.5107C45.7315 19.5385 42.6776 19.6716 40.5015 18.421C40.5772 18.2771 40.6476 18.1306 40.7129 17.9817C40.7129 17.9817 44.0009 18.7599 45.5588 18.5021C47.107 18.2462 48.0138 17.0906 47.8387 15.6532C47.8338 15.6173 47.7921 15.5964 47.7589 15.6134ZM18.7254 17.982C18.7908 18.1308 18.8615 18.2773 18.9373 18.4212C16.7619 19.6711 13.7092 19.5392 13.246 19.5109C13.2134 19.509 13.1865 19.535 13.187 19.5646C13.2234 21.0748 14.6929 21.4891 15.9903 21.3125C17.0987 21.1619 18.6481 20.4237 19.7434 19.5889C19.8534 19.7111 19.9702 19.826 20.0898 19.9362C19.0424 21.6548 16.5845 22.3603 15.7833 22.4245C15.7446 22.4281 15.7218 22.468 15.7404 22.5001C16.2663 23.4107 17.452 23.7132 18.7476 23.0911C19.5181 22.7203 20.4757 21.7493 21.1338 20.6591C21.2848 20.7334 21.4421 20.7964 21.6024 20.8521C21.1945 22.9055 19.1561 24.1584 18.7997 24.3634C18.7866 24.3707 18.7775 24.3836 18.7748 24.3984C18.7722 24.4132 18.7764 24.4284 18.7862 24.4398C19.3926 25.1228 20.7916 25.1367 21.6478 24.1487C22.1738 23.5407 22.578 22.4111 22.8047 21.0475C23.435 21.0475 24.8744 21.3186 25.3554 22.5945C25.3763 22.6483 25.4617 22.6344 25.4617 22.5782V19.083C25.4617 19.0473 25.4243 19.0238 25.3886 19.0352C24.5973 19.2971 23.7735 19.3292 23.2034 19.2185C22.0798 19.0195 21.2301 18.1018 21.2301 16.9982C21.2301 16.3634 21.5121 15.7911 21.9642 15.3803C22.0607 15.2938 22.0478 15.1474 21.936 15.079C21.8868 15.0496 21.8381 15.0195 21.7897 14.9889C17.8653 12.4914 14.2904 6.70758 13.9052 6.07225C13.8873 6.04264 13.8443 6.03661 13.8179 6.05957C12.6119 7.12256 12.4946 9.20556 13.7639 10.8385C14.6037 11.919 16.3668 13.1006 18.1724 14.1261C18.1469 14.3175 18.1295 14.5098 18.1202 14.7026C14.4047 13.904 12.0462 11.3375 11.6671 10.902C11.6419 10.8723 11.5915 10.8784 11.5743 10.9123C10.8907 12.256 11.4841 14.0601 12.84 14.8164C14.0306 15.4794 15.8988 15.8697 18.197 16.145C18.2219 16.3119 18.2522 16.4779 18.2879 16.6429C14.8384 17.11 12.1439 15.8486 11.6807 15.6138C11.6463 15.5962 11.6044 15.618 11.6002 15.6543C11.4258 17.0918 12.3319 18.2462 13.88 18.5021C15.4374 18.7599 18.7254 17.982 18.7254 17.982ZM40.1084 28.7723L38.9104 27.8285C38.4324 28.1134 38.081 28.5661 37.9446 29.0966C37.224 29.1977 35.2593 28.7609 35.4503 28.4711C37.6036 25.4388 35.9565 23.6334 33.9771 23.7339V25.7703C33.9771 26.4244 33.407 26.9543 32.7048 26.9543H31.338C30.3574 26.9543 29.7191 27.9411 29.7191 27.9411C29.7191 27.9411 29.0809 26.9543 28.1003 26.9543H26.7334C26.0308 26.9543 25.4618 26.4244 25.4618 25.7703V23.7339C23.4824 23.6335 21.834 25.4389 23.988 28.4712C24.1772 28.7579 22.1578 29.2171 21.2106 29.101C20.9611 28.842 20.6011 28.6786 20.198 28.6786C20.0267 28.6787 19.8568 28.7092 19.6961 28.7688C19.6961 28.7688 15.9738 25.2404 15.9057 25.2059L15.9363 25.1345C16.1483 24.7376 15.824 24.305 15.6188 24.3353C15.8571 24.0492 15.8683 22.7962 14.5461 22.5064C14.5848 22.7581 14.6044 23.2717 14.6044 23.2717C14.6044 23.2717 13.5841 22.7193 13.0716 23.196C12.6214 23.7298 13.2462 24.6977 13.2462 24.6977C13.2462 24.6977 12.724 24.7104 12.4666 24.6886C12.8451 25.97 14.1143 25.8793 14.389 25.6264C14.3711 25.8303 14.8301 26.1207 15.2189 25.8877L15.3897 25.8049C15.4198 25.8453 19.0451 29.2746 19.0451 29.2746C18.8786 29.522 18.7993 29.8258 18.854 30.1495C18.94 30.6553 19.3609 31.0745 19.8985 31.1833C20.2781 31.2597 20.635 31.1858 20.9213 31.0182L21.8809 31.91C21.9663 31.9875 22.0818 32.0359 22.2108 32.0268C22.4455 32.011 22.6212 31.8204 22.6034 31.6021C22.596 31.5035 22.5457 31.4188 22.4762 31.3547C22.4608 31.3377 21.4988 30.4435 21.4988 30.4435C22.2925 29.8862 23.7712 29.4937 24.9987 29.4937C25.2143 29.4937 25.3156 29.311 25.2413 29.1318C24.6853 27.7929 25.8809 26.8231 27.1175 27.6126C27.657 27.9569 28.205 28.6351 28.6179 29.7664C26.5886 30.2584 24.041 31.6135 23.5255 33.0928C23.3271 33.664 23.9826 34.4426 24.7788 34.5994C24.7929 34.6024 24.8076 34.5998 24.8197 34.592C24.8319 34.5841 24.8403 34.5717 24.8432 34.5576C25.2592 32.3492 27.6312 30.7035 28.8654 30.424C28.9275 30.5904 28.9072 30.5366 28.9692 30.7024C27.6251 31.3388 26.3214 32.6813 25.9491 34.2773C25.7783 35.0082 26.5923 35.667 27.2644 35.8474C27.2982 35.8564 27.3314 35.8329 27.3332 35.8002C27.461 33.7819 28.3512 32.0679 29.1486 31.288C29.1704 31.4404 29.1868 31.5936 29.1978 31.7472C29.1978 31.7472 28.3813 34.0251 28.3813 35.687C28.3813 36.4602 29.5289 36.9999 29.6985 37.0756C29.9104 36.9999 31.0574 36.4602 31.0574 35.687C31.0574 34.025 30.241 31.7472 30.241 31.7472C30.2521 31.5936 30.2687 31.4404 30.2907 31.288C31.0875 32.0679 31.9783 33.7812 32.1055 35.7995C32.1073 35.8322 32.1411 35.8564 32.1742 35.8473C32.847 35.6671 33.6604 35.0082 33.4902 34.2774C33.1172 32.6814 31.8142 31.3389 30.47 30.7024C30.5315 30.5366 30.5112 30.5905 30.5732 30.4241C31.8081 30.7036 34.1795 32.3492 34.5954 34.5575C34.5984 34.5716 34.6069 34.5839 34.619 34.5918C34.6311 34.5996 34.6459 34.6024 34.66 34.5993C35.4555 34.4426 36.1122 33.6639 35.9126 33.0929C35.3984 31.6135 32.85 30.2585 30.8209 29.7665C31.2343 28.6352 31.7823 27.957 32.3217 27.6127C33.5578 26.8232 34.7533 27.7931 34.1973 29.1319C34.1229 29.3109 34.2237 29.4937 34.44 29.4937C35.8283 29.4937 37.5386 29.9958 38.2156 30.6692C38.6482 31.319 39.4474 31.7346 40.3493 31.6456C41.374 31.5453 42.2096 30.7745 42.3251 29.8216C42.4258 28.9866 41.9945 28.2371 41.3071 27.8287L40.1084 28.7723ZM31.2783 22.6901C31.7053 22.5317 32.3743 22.6599 32.3516 23.2769C32.3461 23.4167 32.5421 23.4167 32.5562 23.2739C32.684 22.3501 32.0604 22.0838 31.408 22.1922C31.3269 21.8745 31.2606 21.5969 31.185 21.3216C31.1248 21.0989 31.1027 20.6808 31.3601 20.6808C31.499 20.6808 31.4431 21.0699 31.4302 21.2375C31.4185 21.3845 31.4713 21.4734 31.5905 21.4776C31.665 21.4806 31.7578 21.3857 31.813 21.3227C32.1866 20.8999 32.2732 20.2453 31.8357 19.9295C31.4697 19.6644 30.553 19.8617 30.301 20.2392C30.263 20.097 30.0811 19.8623 29.9938 19.76C29.9092 19.6602 29.887 19.5919 30.0043 19.5041C30.0597 19.4618 30.2267 19.2954 30.2267 19.1235C30.2267 19.0219 30.1481 18.8343 29.8981 18.8343C29.7008 18.8343 29.4816 18.9711 29.4816 19.276C29.4816 19.3438 29.4981 19.4165 29.5417 19.4945C29.417 19.4739 29.0785 19.4824 28.9047 19.5254L31.3087 26.1302C31.9967 25.7902 32.5011 25.2517 32.5011 24.674C32.5011 24.1815 31.7766 24.3448 31.4247 24.729C31.3117 24.1047 31.2109 23.5281 31.101 22.9533C31.0709 22.7948 31.1512 22.7379 31.2783 22.6901ZM27.8792 18.2035L28.3841 19.6082C27.9517 19.7112 27.2562 20.0269 27.2562 20.4449C27.2562 21.0016 28.2398 21.364 28.8087 21.3204C28.7804 21.4475 28.8131 21.5606 28.9015 21.664C28.6951 21.664 28.3056 21.7602 28.1778 21.8981C27.8762 21.6169 27.4043 21.5145 27.1801 21.6858C26.9547 21.8583 26.9479 22.1505 27.1832 22.4808C27.3471 22.7095 27.4087 22.9352 27.2243 23.2001C27.91 23.2001 27.6574 22.3078 27.9259 22.3078C27.8909 22.4808 27.9123 22.6811 27.9904 22.9031C28.0421 23.0507 28.0421 23.1554 27.9536 23.2976C27.7325 23.6515 27.3884 24.4646 27.4351 25.1997C27.2102 25.1985 27.096 25.1434 27.1753 24.8361C27.2047 24.7216 27.1341 24.64 27.0407 24.781C26.9375 24.9365 26.8877 25.2021 26.8877 25.3157C26.8877 25.9705 27.6666 26.1023 27.964 25.9638C28.8241 26.7971 30.5136 26.5748 31.0794 26.2953L28.1048 18.1235C28.0439 17.9692 27.8257 18.0432 27.8792 18.2035ZM27.7759 24.9347C27.7145 24.5982 28.182 23.9969 28.7768 23.4167C28.6502 23.7948 28.7288 24.4464 28.9769 24.671C28.5456 24.671 28.0333 24.752 27.7759 24.9347Z" fill="#2A3338"/>
<path d="M1.54123 47.0068V50.3217H0V41.4004H3.39311C4.38405 41.4004 5.16989 41.6598 5.75064 42.1785C6.33547 42.6973 6.62786 43.3836 6.62786 44.2373C6.62786 45.1115 6.34154 45.7916 5.7689 46.2777C5.20035 46.7638 4.40231 47.0068 3.37485 47.0068H1.54123ZM1.54123 45.763H3.39311C3.94142 45.763 4.35972 45.6343 4.64802 45.377C4.93638 45.1156 5.08056 44.7397 5.08056 44.2495C5.08056 43.7675 4.93434 43.3836 4.64195 43.0976C4.34957 42.8076 3.94748 42.6585 3.43576 42.6503H1.54123V45.763ZM7.22509 46.9455C7.22509 46.2961 7.35306 45.712 7.60892 45.1931C7.86478 44.6703 8.22415 44.27 8.68715 43.9922C9.15008 43.7104 9.68211 43.5694 10.2832 43.5694C11.1726 43.5694 11.8935 43.8574 12.4458 44.4334C13.0022 45.0093 13.3027 45.7732 13.3474 46.725L13.3534 47.0742C13.3534 47.7278 13.2276 48.3119 12.9757 48.8266C12.7281 49.3413 12.3707 49.7396 11.9036 50.0215C11.4406 50.3033 10.9045 50.4442 10.2954 50.4442C9.36533 50.4442 8.6201 50.1338 8.05966 49.5129C7.50331 48.8879 7.22509 48.0566 7.22509 47.0191V46.9455ZM8.70541 47.0742C8.70541 47.7564 8.8455 48.2915 9.12576 48.6796C9.40594 49.0636 9.79583 49.2555 10.2954 49.2555C10.7949 49.2555 11.1827 49.0594 11.4589 48.6674C11.7392 48.2752 11.8792 47.7013 11.8792 46.9455C11.8792 46.2757 11.7351 45.7446 11.4467 45.3525C11.1624 44.9603 10.7746 44.7643 10.2832 44.7643C9.79992 44.7643 9.4161 44.9583 9.13182 45.3463C8.84755 45.7303 8.70541 46.3063 8.70541 47.0742ZM17.0636 49.2555C17.4332 49.2555 17.7398 49.1473 17.9835 48.9308C18.2271 48.7143 18.3571 48.4467 18.3733 48.1281H19.7684C19.7521 48.5407 19.6242 48.9267 19.3846 49.2862C19.145 49.6416 18.8201 49.9234 18.4099 50.1318C17.9997 50.34 17.557 50.4442 17.0818 50.4442C16.16 50.4442 15.4289 50.144 14.8888 49.5435C14.3487 48.9431 14.0786 48.1138 14.0786 47.0559V46.9027C14.0786 45.8937 14.3467 45.087 14.8827 44.4824C15.4188 43.8738 16.1498 43.5694 17.0758 43.5694C17.8596 43.5694 18.4972 43.8002 18.9886 44.2618C19.4841 44.7193 19.744 45.3219 19.7684 46.0694H18.3733C18.3571 45.6895 18.2271 45.377 17.9835 45.1319C17.7439 44.8868 17.4373 44.7643 17.0636 44.7643C16.5844 44.7643 16.2148 44.9399 15.9549 45.2912C15.6949 45.6384 15.563 46.1674 15.5589 46.8782V47.1171C15.5589 47.8361 15.6868 48.3732 15.9427 48.7286C16.2027 49.0799 16.5763 49.2555 17.0636 49.2555ZM25.8238 44.8745H23.6857V50.3217H22.2053V44.8745H20.0915V43.692H25.8238V44.8745ZM28.9431 48.1894L30.2833 43.692H31.8611L29.2415 51.3265C28.8395 52.4417 28.1573 52.9993 27.1947 52.9993C26.9795 52.9993 26.7419 52.9625 26.482 52.889V51.7371L26.7623 51.7554C27.1359 51.7554 27.416 51.686 27.6029 51.5472C27.7937 51.4123 27.9441 51.1836 28.0537 50.8609L28.2669 50.291L25.952 43.692H27.548L28.9431 48.1894ZM38.2394 47.0742C38.2394 48.0995 38.0079 48.9185 37.5449 49.5312C37.0819 50.1399 36.4606 50.4442 35.6809 50.4442C34.958 50.4442 34.3792 50.2053 33.9447 49.7273V52.8706H32.4644V43.692H33.8289L33.8898 44.366C34.3244 43.835 34.9153 43.5694 35.6625 43.5694C36.4667 43.5694 37.0962 43.8717 37.551 44.4763C38.0099 45.0768 38.2394 45.9121 38.2394 46.9823V47.0742ZM36.7652 46.9455C36.7652 46.2838 36.6332 45.7589 36.3692 45.3709C36.1093 44.9828 35.7357 44.7888 35.2483 44.7888C34.6432 44.7888 34.2087 45.04 33.9447 45.5424V48.4835C34.2127 48.9982 34.6514 49.2555 35.2605 49.2555C35.7316 49.2555 36.0992 49.0656 36.3631 48.6857C36.6311 48.3017 36.7652 47.7217 36.7652 46.9455ZM43.3628 43.692H44.8371V50.3217H43.3628V45.8978L40.7799 50.3217H39.3057V43.692H40.7799V48.1158L43.3628 43.692ZM51.1545 45.5057C51.1545 45.7998 51.0651 46.0714 50.8864 46.3206C50.7118 46.5656 50.4641 46.7617 50.1433 46.9088C50.8986 47.1743 51.2763 47.687 51.2763 48.4467C51.2763 49.0554 51.0306 49.5415 50.5392 49.905C50.0478 50.2645 49.3899 50.4442 48.5655 50.4442C48.0619 50.4442 47.603 50.3605 47.1888 50.193C46.7745 50.0215 46.4516 49.7804 46.2202 49.47C45.9886 49.1555 45.8729 48.7837 45.8729 48.3548H47.3471C47.3471 48.6244 47.4669 48.8512 47.7065 49.035C47.9461 49.2147 48.2487 49.3045 48.6142 49.3045C48.9756 49.3045 49.2619 49.2208 49.4732 49.0533C49.6884 48.8818 49.796 48.6591 49.796 48.3855C49.796 48.0627 49.7026 47.8299 49.5158 47.687C49.329 47.544 49.0406 47.4725 48.6507 47.4725H47.5908V46.4003H48.6873C49.3493 46.392 49.6803 46.1184 49.6803 45.5792C49.6803 45.3096 49.5849 45.0992 49.3939 44.9481C49.2031 44.7969 48.9412 44.7213 48.6081 44.7213C48.2832 44.7213 48.0091 44.803 47.7857 44.9664C47.5624 45.1258 47.4507 45.328 47.4507 45.573H45.9764C45.9764 44.9889 46.2202 44.511 46.7075 44.1393C47.1948 43.7635 47.8141 43.5756 48.5655 43.5756C49.3818 43.5756 50.0173 43.7431 50.4722 44.078C50.9271 44.4129 51.1545 44.8888 51.1545 45.5057ZM56.1985 48.4896L58.148 43.692H60V50.3217H58.52V45.9346L56.7041 50.3217H55.6991L53.8777 45.91V50.3217H52.3974V43.692H54.2614L56.1985 48.4896Z" fill="#2A3338"/>
</svg>
