<svg width="240" height="52" viewBox="0 0 240 52" fill="none" xmlns="http://www.w3.org/2000/svg">
<g clip-path="url(#clip0_2476_10479)">
<path d="M70.3696 11.3399H70.5641C71.5566 11.3399 72.4568 11.5652 73.2655 12.0157C74.08 12.4603 74.7114 13.0887 75.1607 13.9009C75.6149 14.7132 75.8424 15.6261 75.8424 16.6398C75.8424 17.6477 75.6149 18.5547 75.1607 19.3609C74.7114 20.1612 74.0857 20.7837 73.2828 21.2284C72.4865 21.673 71.5921 21.8983 70.5995 21.9042H70.3696V23.5938H68.218V21.9042H68.0053C67.0078 21.9042 66.1011 21.6819 65.2867 21.2373C64.472 20.7867 63.8404 20.1612 63.3917 19.3609C62.9489 18.5607 62.7275 17.6595 62.7275 16.6576C62.7275 15.6439 62.9519 14.731 63.4005 13.9187C63.8492 13.1065 64.4779 12.4752 65.2867 12.0246C66.0953 11.5681 67.0021 11.3399 68.0053 11.3399H68.218V9.5791H70.3696V11.3399ZM68.0053 13.1451C67.0136 13.1451 66.2371 13.4563 65.6765 14.0788C65.1214 14.7012 64.8439 15.5609 64.8439 16.6576C64.8439 17.7247 65.1214 18.5665 65.6765 19.1831C66.2313 19.7937 67.0161 20.0991 68.0317 20.0991H68.218V13.1451H68.0053ZM70.3696 13.1451V20.0991H70.5822C71.5739 20.0991 72.3447 19.7878 72.8937 19.1653C73.4485 18.5429 73.7255 17.701 73.7255 16.6398C73.7255 15.555 73.4485 14.7012 72.8937 14.0788C72.3447 13.4563 71.5649 13.1451 70.5559 13.1451H70.3696ZM81.4389 23.238C80.0754 23.238 78.9683 22.8082 78.1184 21.9486C77.2743 21.0832 76.8522 19.933 76.8522 18.4984V18.2316C76.8522 17.2712 77.0352 16.4146 77.4013 15.6617C77.773 14.9028 78.2924 14.313 78.9593 13.892C79.627 13.4711 80.3706 13.2607 81.1916 13.2607C82.4957 13.2607 83.5023 13.6786 84.2112 14.5146C84.9251 15.3504 85.282 16.5331 85.282 18.0626V18.9341H79.0219C79.0862 19.7285 79.3492 20.3569 79.81 20.8193C80.2758 21.2818 80.8602 21.513 81.5634 21.513C82.5493 21.513 83.3522 21.1128 83.9722 20.3125L85.132 21.424C84.7479 21.9991 84.2343 22.4467 83.5913 22.7668C82.9533 23.081 82.2361 23.238 81.4389 23.238ZM81.1826 14.9947C80.5923 14.9947 80.1142 15.2022 79.7482 15.6172C79.3879 16.0322 79.1571 16.6102 79.0574 17.3512H83.1569V17.1912C83.1099 16.4679 82.9178 15.9225 82.5815 15.555C82.2451 15.1814 81.7786 14.9947 81.1826 14.9947ZM86.6373 21.3351C87.2341 20.6652 87.6323 20.0309 87.8334 19.4321C88.0395 18.8274 88.164 18.0567 88.2052 17.12L88.3288 13.4386H94.9797V21.3351H96.3077V25.9236H94.1644V23.0602H88.0189V25.9236H85.841L85.8492 21.3351H86.6373ZM89.1614 21.3351H92.8364V15.2971H90.4186L90.3568 17.1378C90.2743 18.9044 89.8753 20.3035 89.1614 21.3351ZM101.7 23.238C100.337 23.238 99.2301 22.8082 98.3802 21.9486C97.536 21.0832 97.1139 19.933 97.1139 18.4984V18.2316C97.1139 17.2712 97.2969 16.4146 97.663 15.6617C98.0347 14.9028 98.5541 14.313 99.221 13.892C99.8887 13.4711 100.632 13.2607 101.453 13.2607C102.757 13.2607 103.764 13.6786 104.473 14.5146C105.187 15.3504 105.544 16.5331 105.544 18.0626V18.9341H99.2836C99.3479 19.7285 99.6109 20.3569 100.072 20.8193C100.537 21.2818 101.122 21.513 101.825 21.513C102.811 21.513 103.614 21.1128 104.234 20.3125L105.394 21.424C105.009 21.9991 104.496 22.4467 103.853 22.7668C103.215 23.081 102.498 23.238 101.7 23.238ZM101.444 14.9947C100.854 14.9947 100.376 15.2022 100.01 15.6172C99.6496 16.0322 99.4188 16.6102 99.3191 17.3512H103.418V17.1912C103.371 16.4679 103.179 15.9225 102.843 15.555C102.507 15.1814 102.04 14.9947 101.444 14.9947ZM115.249 18.3472C115.249 19.8352 114.913 21.0238 114.24 21.9131C113.567 22.7964 112.664 23.238 111.531 23.238C110.48 23.238 109.638 22.8913 109.007 22.1977V26.7596H106.855V13.4386H108.838L108.927 14.4167C109.559 13.646 110.418 13.2607 111.504 13.2607C112.673 13.2607 113.588 13.6994 114.249 14.5768C114.916 15.4483 115.249 16.6606 115.249 18.2138V18.3472ZM113.107 18.1605C113.107 17.2001 112.915 16.4383 112.531 15.8751C112.153 15.3119 111.61 15.0303 110.902 15.0303C110.022 15.0303 109.391 15.3949 109.007 16.1241V20.3924C109.397 21.1395 110.034 21.513 110.919 21.513C111.604 21.513 112.138 21.2373 112.522 20.6859C112.912 20.1287 113.107 19.2868 113.107 18.1605ZM122.44 23.0602C122.346 22.8765 122.264 22.577 122.193 22.1621C121.508 22.8794 120.67 23.238 119.678 23.238C118.715 23.238 117.93 22.9624 117.322 22.4111C116.714 21.8597 116.41 21.178 116.41 20.3658C116.41 19.3402 116.788 18.5547 117.544 18.0093C118.305 17.4579 119.391 17.1823 120.802 17.1823H122.122V16.5509C122.122 16.053 121.983 15.6557 121.706 15.3593C121.428 15.0569 121.006 14.9058 120.44 14.9058C119.949 14.9058 119.548 15.0303 119.235 15.2793C118.922 15.5223 118.765 15.8336 118.765 16.213H116.614C116.614 15.6853 116.788 15.1933 117.136 14.7368C117.484 14.2744 117.957 13.9128 118.553 13.652C119.155 13.3911 119.825 13.2607 120.563 13.2607C121.685 13.2607 122.58 13.5453 123.246 14.1144C123.913 14.6776 124.256 15.4719 124.274 16.4976V20.8371C124.274 21.7026 124.395 22.3933 124.636 22.9091V23.0602H122.44ZM120.076 21.504C120.501 21.504 120.9 21.4003 121.271 21.1928C121.65 20.9853 121.932 20.7067 122.122 20.3569V18.5429H120.961C120.165 18.5429 119.566 18.6822 119.164 18.9608C118.763 19.2394 118.562 19.6337 118.562 20.1435C118.562 20.5585 118.698 20.8905 118.969 21.1395C119.247 21.3825 119.616 21.504 120.076 21.504ZM134.307 13.4386V23.0602H132.155V15.1814H129.446L129.268 18.5339C129.156 20.1464 128.846 21.3054 128.338 22.0109C127.836 22.7105 127.067 23.0602 126.027 23.0602H125.363L125.354 21.264L125.797 21.2195C126.269 21.1543 126.611 20.8668 126.824 20.3569C127.043 19.8411 127.181 18.9045 127.24 17.5468L127.418 13.4386H134.307ZM138.549 16.4976H140.657C141.442 16.4976 142.127 16.6339 142.711 16.9066C143.295 17.1793 143.738 17.5617 144.039 18.0537C144.347 18.5458 144.5 19.1179 144.5 19.77C144.5 20.7601 144.151 21.5544 143.455 22.1532C142.758 22.752 141.831 23.0543 140.674 23.0602H136.397V13.4386H138.549V16.4976ZM138.549 18.2316V21.3351H140.648C141.174 21.3351 141.587 21.2047 141.888 20.9438C142.194 20.677 142.348 20.3006 142.348 19.8145C142.348 19.3284 142.197 18.9459 141.897 18.6674C141.601 18.3828 141.2 18.2376 140.692 18.2316H138.549ZM153.976 23.0602H151.823V19.1742H148.096V23.0602H145.943V13.4386H148.096V17.4491H151.823V13.4386H153.976V23.0602ZM155.507 18.1605C155.507 17.2179 155.694 16.3701 156.065 15.6172C156.437 14.8584 156.96 14.2774 157.633 13.8743C158.306 13.4652 159.079 13.2607 159.953 13.2607C161.246 13.2607 162.293 13.6786 163.096 14.5146C163.906 15.3504 164.343 16.459 164.407 17.8403L164.416 18.3472C164.416 19.2958 164.233 20.1435 163.867 20.8905C163.507 21.6374 162.988 22.2154 162.308 22.6245C161.636 23.0336 160.857 23.238 159.97 23.238C158.619 23.238 157.535 22.7875 156.721 21.8864C155.912 20.9794 155.507 19.773 155.507 18.2672V18.1605ZM157.66 18.3472C157.66 19.3372 157.863 20.1139 158.271 20.677C158.678 21.2343 159.245 21.513 159.97 21.513C160.697 21.513 161.261 21.2284 161.662 20.6592C162.069 20.0901 162.273 19.2572 162.273 18.1605C162.273 17.1882 162.063 16.4175 161.645 15.8484C161.231 15.2793 160.668 14.9947 159.953 14.9947C159.251 14.9947 158.693 15.2763 158.28 15.8395C157.866 16.3968 157.66 17.2327 157.66 18.3472ZM170.093 23.238C168.729 23.238 167.622 22.8082 166.772 21.9486C165.928 21.0832 165.506 19.933 165.506 18.4984V18.2316C165.506 17.2712 165.689 16.4146 166.055 15.6617C166.427 14.9028 166.946 14.313 167.613 13.892C168.281 13.4711 169.024 13.2607 169.845 13.2607C171.149 13.2607 172.156 13.6786 172.865 14.5146C173.579 15.3504 173.936 16.5331 173.936 18.0626V18.9341H167.676C167.74 19.7285 168.003 20.3569 168.464 20.8193C168.929 21.2818 169.514 21.513 170.217 21.513C171.203 21.513 172.006 21.1128 172.625 20.3125L173.786 21.424C173.402 21.9991 172.888 22.4467 172.245 22.7668C171.607 23.081 170.89 23.238 170.093 23.238ZM169.836 14.9947C169.246 14.9947 168.767 15.2022 168.401 15.6172C168.042 16.0322 167.811 16.6102 167.711 17.3512H171.811V17.1912C171.764 16.4679 171.572 15.9225 171.235 15.555C170.899 15.1814 170.432 14.9947 169.836 14.9947ZM68.8552 41.2721C68.7612 41.0883 68.678 40.7889 68.6071 40.3739C67.9229 41.0913 67.0845 41.4499 66.0928 41.4499C65.1302 41.4499 64.3451 41.1742 63.737 40.6229C63.1289 40.0716 62.8249 39.3898 62.8249 38.5776C62.8249 37.5521 63.2027 36.7666 63.9584 36.2211C64.7199 35.6698 65.8059 35.3941 67.2172 35.3941H68.537V34.7628C68.537 34.2648 68.3977 33.8676 68.1207 33.5712C67.8429 33.2688 67.4208 33.1176 66.8537 33.1176C66.364 33.1176 65.9626 33.2422 65.6501 33.4912C65.3369 33.7342 65.1804 34.0455 65.1804 34.4248H63.0286C63.0286 33.8972 63.2027 33.4051 63.5511 32.9487C63.8994 32.4863 64.3717 32.1247 64.9679 31.8638C65.5702 31.603 66.2404 31.4725 66.9782 31.4725C68.1001 31.4725 68.9945 31.7571 69.6614 32.3263C70.3283 32.8894 70.6704 33.6838 70.6886 34.7095V39.049C70.6886 39.9145 70.8098 40.6051 71.0513 41.1209V41.2721H68.8552ZM66.491 39.7159C66.9163 39.7159 67.3145 39.6122 67.6863 39.4046C68.0647 39.1972 68.3474 38.9185 68.537 38.5688V36.7547H67.3763C66.5792 36.7547 65.9807 36.894 65.5792 37.1727C65.1775 37.4512 64.9767 37.8455 64.9767 38.3554C64.9767 38.7704 65.1126 39.1023 65.3839 39.3513C65.6617 39.5944 66.0302 39.7159 66.491 39.7159ZM78.9593 33.3933H74.798V41.2721H72.6546V31.6504H78.9593V33.3933ZM83.8567 41.4499C82.4933 41.4499 81.3862 41.0201 80.5363 40.1605C79.6921 39.295 79.2701 38.1449 79.2701 36.7103V36.4435C79.2701 35.483 79.4531 34.6264 79.8191 33.8735C80.1909 33.1147 80.7102 32.5249 81.3779 32.1039C82.0448 31.683 82.7884 31.4725 83.6094 31.4725C84.9136 31.4725 85.9201 31.8905 86.629 32.7264C87.3429 33.5623 87.6999 34.745 87.6999 36.2745V37.146H81.4397C81.5049 37.9404 81.767 38.5688 82.2278 39.0312C82.6944 39.4936 83.2789 39.7248 83.9812 39.7248C84.9671 39.7248 85.7701 39.3247 86.39 38.5243L87.5498 39.6358C87.1657 40.2109 86.6521 40.6585 86.0091 40.9786C85.3711 41.2929 84.6539 41.4499 83.8567 41.4499ZM83.6004 33.2066C83.0101 33.2066 82.532 33.4141 82.166 33.8291C81.8058 34.2441 81.5749 34.822 81.4752 35.5631H85.5747V35.4031C85.5277 34.6798 85.3356 34.1344 84.9993 33.7668C84.663 33.3933 84.1964 33.2066 83.6004 33.2066ZM97.1313 41.2721H94.9797V37.3861H91.252V41.2721H89.0996V31.6504H91.252V35.6609H94.9797V31.6504H97.1313V41.2721ZM106.607 33.3667H103.498V41.2721H101.347V33.3667H98.2738V31.6504H106.607V33.3667ZM111.053 39.7248C111.59 39.7248 112.035 39.5677 112.39 39.2535C112.744 38.9393 112.933 38.551 112.956 38.0886H114.984C114.961 38.6873 114.775 39.2476 114.427 39.7693C114.078 40.285 113.606 40.6941 113.01 40.9964C112.414 41.2987 111.77 41.4499 111.079 41.4499C109.739 41.4499 108.676 41.0142 107.891 40.1427C107.106 39.2713 106.713 38.0678 106.713 36.5324V36.3101C106.713 34.8458 107.103 33.6749 107.882 32.7975C108.662 31.9142 109.725 31.4725 111.07 31.4725C112.21 31.4725 113.137 31.8075 113.851 32.4774C114.571 33.1414 114.949 34.0158 114.984 35.1007H112.956C112.933 34.5493 112.744 34.0959 112.39 33.7402C112.041 33.3845 111.596 33.2066 111.053 33.2066C110.356 33.2066 109.819 33.4615 109.441 33.9714C109.063 34.4753 108.871 35.243 108.866 36.2745V36.6213C108.866 37.6647 109.051 38.4443 109.423 38.96C109.801 39.4699 110.345 39.7248 111.053 39.7248ZM123.787 33.3667H120.679V41.2721H118.527V33.3667H115.454V31.6504H123.787V33.3667ZM125.027 41.2721V31.6504H128.915C130.225 31.6504 131.223 31.8816 131.908 32.344C132.592 32.8005 132.935 33.4585 132.935 34.3181C132.935 34.7628 132.796 35.1629 132.519 35.5186C132.247 35.8684 131.843 36.1382 131.305 36.3278C131.931 36.4583 132.427 36.7221 132.793 37.1193C133.159 37.5165 133.342 37.9849 133.342 38.5243C133.342 39.4195 133.012 40.1012 132.351 40.5696C131.695 41.0379 130.751 41.2721 129.516 41.2721H125.027ZM127.179 37.1727V39.5647H129.535C130.638 39.5647 131.19 39.1674 131.19 38.3731C131.19 37.5728 130.629 37.1727 129.507 37.1727H127.179ZM127.179 35.6253H128.95C130.172 35.6253 130.783 35.2638 130.783 34.5405C130.783 33.7816 130.205 33.3903 129.047 33.3667H127.179V35.6253ZM134.44 36.3724C134.44 35.4297 134.627 34.582 134.998 33.8291C135.37 33.0702 135.893 32.4893 136.565 32.0861C137.239 31.6771 138.012 31.4725 138.886 31.4725C140.179 31.4725 141.226 31.8905 142.029 32.7264C142.838 33.5623 143.275 34.6709 143.34 36.0522L143.349 36.559C143.349 37.5076 143.166 38.3554 142.8 39.1023C142.44 39.8492 141.92 40.4273 141.241 40.8363C140.569 41.2454 139.79 41.4499 138.903 41.4499C137.551 41.4499 136.468 40.9994 135.654 40.0983C134.845 39.1912 134.44 37.9849 134.44 36.4791V36.3724ZM136.593 36.559C136.593 37.5491 136.796 38.3257 137.204 38.8889C137.611 39.4462 138.178 39.7248 138.903 39.7248C139.63 39.7248 140.193 39.4402 140.595 38.8711C141.002 38.302 141.206 37.469 141.206 36.3724C141.206 35.4001 140.996 34.6294 140.578 34.0603C140.164 33.4912 139.6 33.2066 138.886 33.2066C138.184 33.2066 137.626 33.4882 137.213 34.0513C136.799 34.6086 136.593 35.4445 136.593 36.559ZM157.084 41.2721H154.933V33.3933H151.195V41.2721H149.044V31.6504H157.084V41.2721ZM158.608 36.3724C158.608 35.4297 158.794 34.582 159.166 33.8291C159.538 33.0702 160.06 32.4893 160.733 32.0861C161.406 31.6771 162.18 31.4725 163.054 31.4725C164.346 31.4725 165.394 31.8905 166.197 32.7264C167.005 33.5623 167.442 34.6709 167.507 36.0522L167.517 36.559C167.517 37.5076 167.334 38.3554 166.968 39.1023C166.607 39.8492 166.088 40.4273 165.409 40.8363C164.736 41.2454 163.956 41.4499 163.071 41.4499C161.719 41.4499 160.636 40.9994 159.821 40.0983C159.013 39.1912 158.608 37.9849 158.608 36.4791V36.3724ZM160.759 36.559C160.759 37.5491 160.963 38.3257 161.371 38.8889C161.778 39.4462 162.345 39.7248 163.071 39.7248C163.797 39.7248 164.361 39.4402 164.762 38.8711C165.17 38.302 165.373 37.469 165.373 36.3724C165.373 35.4001 165.164 34.6294 164.744 34.0603C164.331 33.4912 163.767 33.2066 163.054 33.2066C162.35 33.2066 161.793 33.4882 161.379 34.0513C160.966 34.6086 160.759 35.4445 160.759 36.559ZM180.667 33.3667H177.559V41.2721H175.407V33.3667H172.334V31.6504H180.667V33.3667ZM185.201 38.1775L187.149 31.6504H189.443L185.635 42.7305C185.05 44.3489 184.059 45.1581 182.66 45.1581C182.347 45.1581 182.002 45.1048 181.624 44.9981V43.3262L182.031 43.353C182.574 43.353 182.981 43.2521 183.253 43.0506C183.53 42.855 183.749 42.523 183.909 42.0546L184.219 41.2276L180.854 31.6504H183.173L185.201 38.1775ZM198.715 36.559C198.715 38.0471 198.379 39.2357 197.705 40.125C197.032 41.0083 196.129 41.4499 194.995 41.4499C193.945 41.4499 193.104 41.1031 192.472 40.4095V44.9714H190.321V31.6504H192.304L192.392 32.6286C193.024 31.8579 193.883 31.4725 194.969 31.4725C196.138 31.4725 197.053 31.9113 197.714 32.7887C198.381 33.6601 198.715 34.8724 198.715 36.4257V36.559ZM196.572 36.3724C196.572 35.4119 196.38 34.6502 195.996 34.0869C195.619 33.5238 195.075 33.2421 194.367 33.2421C193.488 33.2421 192.855 33.6067 192.472 34.3359V38.6043C192.862 39.3513 193.499 39.7248 194.385 39.7248C195.07 39.7248 195.604 39.4492 195.988 38.8978C196.377 38.3406 196.572 37.4987 196.572 36.3724ZM206.163 31.6504H208.305V41.2721H206.163V34.8517L202.408 41.2721H200.265V31.6504H202.408V38.0708L206.163 31.6504ZM217.489 34.2825C217.489 34.7095 217.359 35.1037 217.1 35.4653C216.846 35.8209 216.485 36.1056 216.019 36.319C217.117 36.7043 217.666 37.4483 217.666 38.551C217.666 39.4343 217.309 40.1398 216.594 40.6674C215.88 41.1891 214.924 41.4499 213.725 41.4499C212.993 41.4499 212.327 41.3284 211.724 41.0853C211.122 40.8363 210.652 40.4866 210.316 40.036C209.98 39.5795 209.811 39.0401 209.811 38.4176H211.955C211.955 38.8089 212.129 39.1379 212.477 39.4046C212.825 39.6655 213.265 39.7959 213.796 39.7959C214.322 39.7959 214.738 39.6744 215.045 39.4314C215.358 39.1824 215.514 38.8593 215.514 38.4621C215.514 37.9937 215.378 37.6558 215.107 37.4483C214.835 37.2408 214.416 37.1371 213.849 37.1371H212.308V35.5809H213.903C214.865 35.569 215.346 35.1719 215.346 34.3893C215.346 33.998 215.208 33.6927 214.93 33.4734C214.652 33.254 214.271 33.1443 213.787 33.1443C213.315 33.1443 212.917 33.2629 212.592 33.5C212.267 33.7312 212.105 34.0247 212.105 34.3804H209.962C209.962 33.5326 210.316 32.839 211.025 32.2995C211.733 31.7542 212.633 31.4815 213.725 31.4815C214.912 31.4815 215.836 31.7245 216.497 32.2106C217.158 32.6968 217.489 33.3874 217.489 34.2825ZM224.821 38.6132L227.655 31.6504H230.347V41.2721H228.195V34.9051L225.557 41.2721H224.096L221.448 34.8695V41.2721H219.296V31.6504H222.005L224.821 38.6132ZM235.758 38.1775L237.707 31.6504H240L236.192 42.7305C235.608 44.3489 234.616 45.1581 233.216 45.1581C232.904 45.1581 232.559 45.1048 232.181 44.9981V43.3262L232.588 43.353C233.132 43.353 233.539 43.2521 233.81 43.0506C234.088 42.855 234.306 42.523 234.465 42.0546L234.775 41.2276L231.41 31.6504H233.73L235.758 38.1775Z" fill="#2A3338"/>
<path fill-rule="evenodd" clip-rule="evenodd" d="M35.482 17.4616C34.6719 16.7521 33.5069 16.7684 32.8383 16.9744C33.2763 16.4373 34.2961 15.9968 34.5968 15.9435C34.8256 16.0292 35.482 16.703 35.482 17.4616ZM38.0685 14.5238C37.5358 11.677 30.9127 13.5632 27.5772 12.3541C27.5133 13.184 28.604 14.5136 29.6473 15.0058C27.8639 16.5519 26.2628 19.6669 25.9398 23.4726C25.6176 19.6669 24.0164 16.5519 22.233 15.0058C23.2763 14.5136 24.3679 13.184 24.3032 12.3541C20.9678 13.5632 14.3445 11.677 13.8108 14.5238C13.6986 15.1263 13.9888 16.0445 14.3023 16.3084C14.3583 16.1175 14.6512 15.4929 15.5744 15.3528C20.2406 14.6486 24.1365 21.8324 20.6198 24.737C20.5663 24.781 20.5964 24.8627 20.669 24.8627H31.2121C31.2839 24.8627 31.3141 24.781 31.2614 24.737C27.7438 21.8324 31.6397 14.6486 36.3059 15.3528C37.23 15.4929 37.5218 16.1175 37.578 16.3083C37.8915 16.0445 38.1817 15.1264 38.0685 14.5238ZM39.2034 7.98997C39.1197 7.72105 41.8556 7.71437 41.8556 9.42491C41.8556 10.5713 40.2191 11.1144 40.2191 12.3041C40.2191 12.8581 40.8159 13.2646 40.999 13.2646C40.5774 11.3545 42.3204 12.3541 42.791 12.7113C41.8557 10.1427 43.9613 10.1589 43.7541 8.98118C43.6098 8.15802 41.7797 8.40667 41.1173 7.98997C39.942 7.25097 38.5515 4.37519 37.6352 7.25097C39.3435 8.83523 38.3494 11.167 36.1808 11.167C36.1808 11.167 36.1687 11.5089 36.1885 11.536C38.7752 11.4096 39.6768 9.51071 39.2034 7.98997ZM9.0263 12.7113C9.49707 12.3541 11.2398 11.3545 10.8193 13.2646C11.0014 13.2646 11.5982 12.8581 11.5982 12.3041C11.5982 11.1144 9.96162 10.5713 9.96162 9.42491C9.96162 7.71429 12.6977 7.72105 12.6138 7.98997C12.1414 9.51063 13.0432 11.4097 15.6297 11.536C15.6487 11.5089 15.6366 11.167 15.6366 11.167C13.4688 11.167 12.4748 8.83515 14.1823 7.25097C13.2659 4.37519 11.8754 7.25097 10.7001 7.98997C10.0377 8.40675 8.20766 8.15802 8.06335 8.98118C7.85685 10.1589 9.96162 10.1428 9.0263 12.7113ZM16.3707 17.4615C17.1815 16.7521 18.3467 16.7683 19.0143 16.9744C18.5781 16.4372 17.5565 15.9968 17.2568 15.9434C17.0279 16.0291 16.3707 16.7029 16.3707 17.4615ZM27.1704 1.53669L25.9087 0L24.6469 1.53669L25.9088 3.15406L27.1704 1.53669ZM34.3732 6.18349L33.4758 5.09132L32.5794 6.18349L33.4758 7.25088L34.3732 6.18349ZM41.651 37.751L40.5136 36.5486L39.3761 37.751L40.5136 38.8058L41.651 37.751ZM19.2388 6.18332L18.3414 5.09115L17.4449 6.18332L18.3414 7.25079L19.2388 6.18332ZM16.6685 11.5359H20.0151C22.8289 11.5359 24.0949 9.81084 24.4775 8.3148H27.3406C27.7232 9.81093 28.9883 11.536 31.803 11.536H35.1496C35.1496 11.536 35.7349 10.7426 35.8818 10.3498C36.4104 8.93603 35.7349 8.27667 34.7496 8.27667L33.4758 9.42994L32.2018 8.27667C31.2165 8.27667 30.5411 8.93603 31.0697 10.3498C31.137 10.5306 31.2986 10.7961 31.4514 11.0294C30.2638 10.8664 28.7482 10.0545 28.4156 8.3148C28.4156 8.3148 29.2931 6.92241 29.5134 6.35899C30.3045 4.33281 29.294 3.50445 27.8164 3.50445L25.9086 5.7447L24.0009 3.50445C22.5232 3.50445 21.5128 4.33273 22.3047 6.35899C22.5242 6.9225 23.4025 8.31489 23.4025 8.31489C23.0691 10.0545 21.5534 10.8665 20.3659 11.0295C20.5197 10.7962 20.6803 10.5306 20.7477 10.3498C21.2753 8.93611 20.6017 8.27675 19.6153 8.27675L18.3416 9.43003L17.0677 8.27675C16.0815 8.27675 15.4078 8.93611 15.9356 10.3498C16.0824 10.7427 16.6685 11.5359 16.6685 11.5359ZM51.2684 21.8984C50.6222 22.2251 46.8327 23.9986 41.9782 23.3426C42.0285 23.1113 42.0711 22.8784 42.1061 22.6443C45.3369 22.2582 47.9633 21.7109 49.6369 20.7808C51.5448 19.7202 52.379 17.1882 51.416 15.3044C51.3911 15.2569 51.322 15.2484 51.2875 15.2882C50.7598 15.8949 47.4416 19.5004 42.2141 20.6213C42.2007 20.3509 42.1759 20.0811 42.1398 19.8127C44.6788 18.3743 47.1576 16.717 48.3382 15.2017C50.1225 12.9105 49.9583 9.98816 48.2604 8.4981C48.2428 8.48293 48.2196 8.47617 48.1965 8.47947C48.1736 8.48267 48.1531 8.49567 48.1403 8.51509C47.6032 9.40004 42.5752 17.5181 37.0548 21.0226C36.9875 21.0656 36.9195 21.1078 36.8511 21.1491C36.693 21.2449 36.6757 21.4503 36.8105 21.5725C37.4468 22.1486 37.8425 22.9505 37.8425 23.8407C37.8425 25.3884 36.6481 26.6756 35.0693 26.9548C34.2669 27.11 33.1087 27.065 31.9964 26.6978C31.9463 26.6815 31.8945 26.7146 31.8945 26.7647V31.6669C31.8945 31.7457 32.0147 31.7652 32.0431 31.6896C32.7192 29.9001 34.7436 29.5198 35.6289 29.5198C35.9476 31.4325 36.5166 33.0168 37.256 33.8696C38.4597 35.2552 40.4254 35.2358 41.2779 34.2777C41.2919 34.2618 41.298 34.2404 41.2943 34.2196C41.2905 34.1988 41.2775 34.1807 41.2588 34.1707C40.758 33.8832 37.8924 32.1259 37.3189 29.2458C37.5453 29.1678 37.7662 29.0794 37.9779 28.975C38.9029 30.5042 40.2493 31.8661 41.333 32.3863C43.1537 33.2587 44.8204 32.8344 45.5598 31.5573C45.5865 31.5123 45.5537 31.4563 45.4992 31.4512C44.3731 31.3613 40.9169 30.3718 39.4451 27.9612C39.6137 27.8066 39.7786 27.6454 39.9323 27.474C41.4721 28.645 43.6495 29.6802 45.2083 29.8915C47.0323 30.1393 49.0989 29.558 49.1491 27.4392C49.1499 27.3967 49.112 27.362 49.0672 27.3647C48.4184 27.4036 44.1253 27.5902 41.0663 25.8363C41.1726 25.6344 41.2716 25.429 41.3633 25.2202C41.3633 25.2202 45.9856 26.3116 48.1757 25.9499C50.3522 25.5911 51.6269 23.9704 51.3807 21.9543C51.3738 21.904 51.315 21.8747 51.2684 21.8984ZM10.4538 25.2204C10.5458 25.4292 10.6452 25.6347 10.7517 25.8365C7.69363 27.5896 3.40222 27.4046 2.75112 27.3649C2.70535 27.3622 2.66735 27.3987 2.66813 27.4403C2.71925 29.5583 4.78507 30.1395 6.6089 29.8918C8.16707 29.6805 10.3452 28.6452 11.8849 27.4743C12.0395 27.6456 12.2037 27.8068 12.3719 27.9613C10.8995 30.3718 7.44412 31.3614 6.31794 31.4513C6.26353 31.4564 6.23158 31.5123 6.25757 31.5574C6.99684 32.8344 8.66366 33.2587 10.4851 32.3864C11.5682 31.8662 12.9145 30.5043 13.8395 28.9753C14.0518 29.0795 14.2729 29.1678 14.4983 29.2459C13.9248 32.1259 11.0594 33.8833 10.5584 34.1708C10.5399 34.181 10.527 34.199 10.5233 34.2197C10.5196 34.2405 10.5255 34.2618 10.5394 34.2778C11.3918 35.2358 13.3584 35.2553 14.5621 33.8697C15.3016 33.0168 15.8698 31.4326 16.1884 29.52C17.0744 29.52 19.0979 29.9003 19.7742 31.6897C19.8035 31.7652 19.9235 31.7457 19.9235 31.6669V26.7647C19.9235 26.7147 19.8709 26.6816 19.8208 26.6978C18.7085 27.065 17.5504 27.1101 16.7489 26.9548C15.1693 26.6757 13.9749 25.3885 13.9749 23.8407C13.9749 22.9505 14.3713 22.1478 15.0069 21.5716C15.1425 21.4502 15.1244 21.2449 14.9672 21.149C14.8982 21.1077 14.8296 21.0655 14.7616 21.0225C9.24472 17.5198 4.21922 9.40767 3.67772 8.51665C3.65259 8.47505 3.59213 8.46664 3.555 8.49879C1.85968 9.98972 1.69472 12.9112 3.47899 15.2015C4.65967 16.7169 7.13814 18.3742 9.67645 19.8125C9.64069 20.0809 9.61617 20.3506 9.60313 20.621C4.37985 19.501 1.06435 15.9013 0.531404 15.2905C0.496081 15.2489 0.425091 15.2574 0.400996 15.3049C-0.560059 17.1896 0.274127 19.72 2.18026 20.7807C3.85399 21.7106 6.48022 22.2579 9.71117 22.644C9.74606 22.8782 9.78863 23.1111 9.8389 23.3424C4.98958 23.9975 1.20167 22.2284 0.550491 21.899C0.502127 21.8744 0.443399 21.905 0.437354 21.9559C0.192254 23.9721 1.46594 25.5911 3.64231 25.9499C5.83163 26.3116 10.4538 25.2204 10.4538 25.2204ZM40.5135 40.3543L38.8294 39.0306C38.1575 39.4303 37.6635 40.0651 37.4718 40.8093C36.4588 40.951 33.6968 40.3383 33.9653 39.9319C36.9924 35.6789 34.6769 33.1469 31.8944 33.2877V36.1441C31.8944 37.0613 31.0929 37.8046 30.1058 37.8046H28.1843C26.8059 37.8046 25.9086 39.1886 25.9086 39.1886C25.9086 39.1886 25.0113 37.8046 23.633 37.8046H21.7114C20.7236 37.8046 19.9238 37.0613 19.9238 36.1441V33.2878C17.1411 33.147 14.8239 35.6791 17.8519 39.932C18.1179 40.3342 15.2791 40.9783 13.9475 40.8153C13.5968 40.4521 13.0906 40.223 12.524 40.223C12.2832 40.2231 12.0443 40.2659 11.8184 40.3495C11.8184 40.3495 6.58575 35.4007 6.48989 35.3524L6.53307 35.2522C6.83103 34.6956 6.37503 34.0889 6.08666 34.1314C6.42166 33.7301 6.43729 31.9726 4.57875 31.5662C4.63307 31.9192 4.66071 32.6396 4.66071 32.6396C4.66071 32.6396 3.2263 31.8648 2.50594 32.5335C1.87298 33.282 2.75138 34.6396 2.75138 34.6396C2.75138 34.6396 2.0172 34.6574 1.65543 34.6269C2.18743 36.4241 3.9717 36.2968 4.35774 35.9421C4.33261 36.2281 4.97792 36.6354 5.52452 36.3087L5.76461 36.1924C5.80693 36.2492 10.9032 41.0589 10.9032 41.0589C10.6692 41.406 10.5578 41.8319 10.6346 42.2859C10.7556 42.9953 11.3472 43.5834 12.1029 43.736C12.6366 43.843 13.1383 43.7395 13.5408 43.5043L14.8898 44.7552C15.0099 44.8639 15.1723 44.9316 15.3536 44.919C15.6835 44.8969 15.9305 44.6295 15.9055 44.3233C15.8951 44.1849 15.8243 44.0663 15.7267 43.9762C15.7051 43.9524 14.3526 42.6982 14.3526 42.6982C15.4683 41.9167 17.5471 41.3661 19.2727 41.3661C19.5758 41.3661 19.7182 41.1099 19.6138 40.8586C18.8321 38.9808 20.5128 37.6206 22.2513 38.728C23.0097 39.2108 23.7801 40.162 24.3604 41.7487C21.5077 42.4388 17.9263 44.3393 17.2017 46.4141C16.9228 47.2152 17.8443 48.3072 18.9636 48.5271C18.9833 48.5314 19.0041 48.5277 19.0212 48.5167C19.0382 48.5057 19.0501 48.4883 19.0542 48.4684C19.6389 45.3712 22.9734 43.063 24.7085 42.671C24.7957 42.9043 24.7671 42.8288 24.8544 43.0614C22.9648 43.954 21.1322 45.837 20.6088 48.0754C20.3687 49.1005 21.513 50.0245 22.4578 50.2775C22.5052 50.2901 22.552 50.257 22.5546 50.2113C22.7342 47.3805 23.9856 44.9765 25.1065 43.8828C25.1372 44.0965 25.1603 44.3114 25.1757 44.5268C25.1757 44.5268 24.0279 47.7216 24.0279 50.0526C24.0279 51.137 25.6412 51.8939 25.8796 52C26.1774 51.8939 27.7899 51.137 27.7899 50.0526C27.7899 47.7215 26.6422 44.5268 26.6422 44.5268C26.6578 44.3114 26.6811 44.0965 26.7121 43.8828C27.8322 44.9765 29.0844 47.3796 29.2633 50.2103C29.2659 50.2562 29.3134 50.2902 29.3598 50.2774C30.3056 50.0246 31.4492 49.1006 31.2098 48.0756C30.6855 45.837 28.8538 43.9542 26.9641 43.0616C27.0505 42.8289 27.0221 42.9044 27.1093 42.6711C28.8453 43.0631 32.1788 45.3711 32.7635 48.4683C32.7677 48.4882 32.7797 48.5055 32.7968 48.5165C32.8138 48.5275 32.8345 48.5313 32.8543 48.527C33.9726 48.3072 34.8958 47.2151 34.6152 46.4142C33.8924 44.3394 30.3099 42.4388 27.4574 41.7488C28.0386 40.162 28.8089 39.2109 29.5672 38.728C31.3048 37.6207 32.9855 38.9809 32.2039 40.8588C32.0993 41.1099 32.2409 41.3661 32.545 41.3661C34.4967 41.3661 36.901 42.0704 37.8527 43.0149C38.4608 43.9262 39.5843 44.5092 40.8522 44.3843C42.2927 44.2436 43.4673 43.1624 43.6297 41.8261C43.7713 40.6551 43.1651 39.6036 42.1987 39.0309L40.5135 40.3543ZM28.1004 31.8238C28.7007 31.6016 29.6412 31.7815 29.6093 32.647C29.6015 32.8429 29.8771 32.8429 29.8969 32.6427C30.0765 31.347 29.1999 30.9735 28.2827 31.1255C28.1688 30.6799 28.0755 30.2905 27.9693 29.9044C27.8847 29.5922 27.8535 29.0058 28.2154 29.0058C28.4107 29.0058 28.3321 29.5514 28.314 29.7864C28.2975 29.9926 28.3718 30.1174 28.5394 30.1233C28.644 30.1275 28.7744 29.9944 28.8521 29.906C29.3772 29.3129 29.499 28.3949 28.8841 27.952C28.3694 27.5802 27.0808 27.8568 26.7266 28.3863C26.6732 28.1869 26.4175 27.8577 26.2947 27.7142C26.1757 27.5743 26.1446 27.4784 26.3096 27.3554C26.3873 27.2959 26.6222 27.0627 26.6222 26.8216C26.6222 26.6791 26.5117 26.416 26.1602 26.416C25.8829 26.416 25.5746 26.6078 25.5746 27.0354C25.5746 27.1306 25.5979 27.2325 25.6592 27.3419C25.4838 27.313 25.0081 27.3249 24.7637 27.3851L28.1431 36.6487C29.1103 36.1718 29.8194 35.4167 29.8194 34.6063C29.8194 33.9155 28.801 34.1447 28.3062 34.6836C28.1473 33.8079 28.0057 32.9992 27.8511 32.1929C27.8089 31.9706 27.9217 31.8908 28.1004 31.8238ZM23.322 25.5311L24.0319 27.5014C23.424 27.6457 22.4464 28.0886 22.4464 28.6749C22.4464 29.4557 23.829 29.9639 24.6288 29.9028C24.5889 30.081 24.6348 30.2396 24.7592 30.3847C24.469 30.3847 23.9215 30.5197 23.7418 30.7131C23.3178 30.3185 22.6545 30.1751 22.3392 30.4153C22.0223 30.6571 22.0129 31.067 22.3436 31.5303C22.5741 31.851 22.6605 32.1676 22.4014 32.5392C23.3653 32.5392 23.0102 31.2876 23.3877 31.2876C23.3385 31.5303 23.3687 31.8112 23.4784 32.1226C23.551 32.3296 23.551 32.4764 23.4267 32.6758C23.1158 33.1723 22.6321 34.3126 22.6978 35.3437C22.3817 35.3419 22.221 35.2647 22.3324 34.8337C22.3739 34.6732 22.2746 34.5587 22.1434 34.7565C21.9982 34.9745 21.9283 35.347 21.9283 35.5064C21.9283 36.4246 23.0233 36.6096 23.4413 36.4153C24.6504 37.5841 27.0254 37.2724 27.8208 36.8803L23.6391 25.4189C23.5536 25.2026 23.2469 25.3062 23.322 25.5311ZM23.1769 34.972C23.0905 34.5001 23.7478 33.6567 24.5838 32.843C24.4059 33.3733 24.5164 34.2872 24.8653 34.602C24.2589 34.602 23.5387 34.7157 23.1769 34.972Z" fill="#2A3338"/>
</g>
<defs>
<clipPath id="clip0_2476_10479">
<rect width="240" height="52" fill="white"/>
</clipPath>
</defs>
</svg>
