<svg width="132" height="44" viewBox="0 0 132 44" fill="none" xmlns="http://www.w3.org/2000/svg">
<g clip-path="url(#clip0_2907_5141)">
<path fill-rule="evenodd" clip-rule="evenodd" d="M123.604 0H8.37575C1.49881 0 0.353516 2.38118 0.353516 8.04424V36.0062C0.353516 41.6654 2.70882 44 8.368 44H123.605C129.268 44 131.706 41.6615 131.706 35.9985V8.04424C131.706 2.38118 129.267 0 123.604 0Z" fill="black"/>
<path d="M11.6188 8.7417C11.3238 8.84523 11.0947 9.12088 11.0947 9.47676V35.1378C11.0947 35.4911 11.3199 35.7642 11.6111 35.8703L25.2433 22.3028L11.6188 8.7417Z" fill="#00D6FF"/>
<path d="M29.0846 18.4799L12.2623 8.80116C12.0514 8.67951 11.821 8.67046 11.6191 8.74163L25.2436 22.3027L29.0846 18.4799Z" fill="#00F076"/>
<path d="M12.2623 35.8122L29.091 26.1296L25.2435 22.3003L11.6113 35.8678C11.8145 35.9429 12.0488 35.9351 12.2623 35.8122Z" fill="#FF3A44"/>
<path d="M29.0906 26.1308L34.5634 22.9822C35.0836 22.6833 35.0836 21.9314 34.5634 21.6325L29.0841 18.48L25.2432 22.3028L29.0906 26.1308Z" fill="#FFD000"/>
<path d="M66.3168 25.1853C63.9501 25.1853 62.0765 26.9597 62.0765 29.4255C62.0765 31.7923 63.9501 33.6658 66.3168 33.6658C68.6835 33.6658 70.5571 31.8914 70.5571 29.4255C70.5571 26.8618 68.6835 25.1853 66.3168 25.1853ZM66.3168 31.8901C65.0356 31.8901 63.9501 30.8059 63.9501 29.3264C63.9501 27.8469 65.0343 26.7626 66.3168 26.7626C67.5981 26.7626 68.6835 27.749 68.6835 29.3264C68.6835 30.8059 67.5993 31.8901 66.3168 31.8901ZM57.1473 25.1853C54.7806 25.1853 52.907 26.9597 52.907 29.4255C52.907 31.7923 54.7806 33.6658 57.1473 33.6658C59.514 33.6658 61.3876 31.8914 61.3876 29.4255C61.3863 26.8618 59.514 25.1853 57.1473 25.1853ZM57.1473 31.8901C55.8661 31.8901 54.7806 30.8059 54.7806 29.3264C54.7806 27.8469 55.8649 26.7626 57.1473 26.7626C58.4298 26.7626 59.514 27.749 59.514 29.3264C59.514 30.8059 58.4286 31.8901 57.1473 31.8901ZM46.2022 26.4678V28.2422H50.4425C50.3434 29.2285 49.9493 30.0165 49.4561 30.5097C48.8651 31.1009 47.8787 31.791 46.2022 31.791C43.5406 31.791 41.5678 29.7204 41.5678 27.0588C41.5678 24.3972 43.6384 22.3266 46.2022 22.3266C47.5825 22.3266 48.6668 22.9176 49.4561 23.6079L50.7373 22.3266C49.6531 21.3402 48.2728 20.5522 46.3 20.5522C42.75 20.5522 39.6943 23.51 39.6943 27.0601C39.6943 30.6101 42.7513 33.568 46.3 33.568C48.2715 33.568 49.6518 32.9769 50.8353 31.6943C52.0186 30.511 52.4127 28.8345 52.4127 27.5533C52.4127 27.1592 52.4127 26.7639 52.3134 26.4691L46.2022 26.4678ZM90.9666 27.8481C90.5726 26.8618 89.5862 25.1865 87.4165 25.1865C85.2468 25.1865 83.4724 26.863 83.4724 29.4268C83.4724 31.7935 85.2468 33.6671 87.6136 33.6671C89.4871 33.6671 90.6704 32.4838 91.0645 31.7935L89.684 30.8072C89.1908 31.4974 88.5998 31.9906 87.6136 31.9906C86.6272 31.9906 86.0362 31.5965 85.543 30.7093L91.1636 28.3426L90.9666 27.8481ZM85.2481 29.2285C85.2481 27.6511 86.5294 26.7639 87.4178 26.7639C88.1079 26.7639 88.7982 27.1579 88.9952 27.6511L85.2481 29.2285ZM80.6137 33.2704H82.4873V20.945H80.6137V33.2704ZM77.656 26.0724C77.1628 25.5792 76.3748 25.0861 75.3884 25.0861C73.3178 25.0861 71.3464 26.9597 71.3464 29.3264C71.3464 31.693 73.22 33.4675 75.3884 33.4675C76.3748 33.4675 77.1628 32.9744 77.5581 32.4812H77.6573V33.0722C77.6573 34.6496 76.77 35.5368 75.3897 35.5368C74.3055 35.5368 73.5161 34.7474 73.3191 34.0573L71.7417 34.7474C72.2349 35.8318 73.4183 37.2121 75.4889 37.2121C77.6586 37.2121 79.4329 35.9309 79.4329 32.8739V25.3797H77.6586V26.0724H77.656ZM75.4863 31.8901C74.2051 31.8901 73.1196 30.8059 73.1196 29.3264C73.1196 27.8469 74.2038 26.7626 75.4863 26.7626C76.7687 26.7626 77.7538 27.8469 77.7538 29.3264C77.7538 30.8059 76.7687 31.8901 75.4863 31.8901ZM99.5451 20.9463H95.1077V33.2717H96.9813V28.6375H99.5451C101.616 28.6375 103.587 27.1579 103.587 24.7926C103.587 22.427 101.616 20.9463 99.5451 20.9463ZM99.6442 26.8618H96.9826V22.6215H99.6442C101.025 22.6215 101.814 23.8049 101.814 24.6921C101.715 25.7776 100.925 26.8618 99.6442 26.8618ZM110.982 25.0874C109.602 25.0874 108.221 25.6784 107.728 26.961L109.405 27.6511C109.799 26.961 110.391 26.7639 111.081 26.7639C112.067 26.7639 112.955 27.3549 113.053 28.3413V28.4404C112.756 28.2434 111.968 27.9472 111.179 27.9472C109.405 27.9472 107.629 28.9336 107.629 30.7081C107.629 32.3846 109.108 33.4688 110.686 33.4688C111.967 33.4688 112.56 32.8777 113.053 32.2854H113.152V33.2717H114.926V28.5395C114.729 26.3687 113.053 25.0874 110.982 25.0874ZM110.785 31.8901C110.194 31.8901 109.306 31.5939 109.306 30.8059C109.306 29.8196 110.39 29.5246 111.277 29.5246C112.066 29.5246 112.46 29.7217 112.953 29.9187C112.758 31.102 111.771 31.8901 110.785 31.8901ZM121.138 25.3823L119.067 30.7068H118.969L116.8 25.3823H114.828L118.082 32.8765L116.209 37.0176H118.082L123.111 25.3823H121.138ZM104.573 33.2704H106.447V20.945H104.573V33.2704Z" fill="white"/>
<path d="M43.2897 16.7273C44.9275 16.7273 46.0548 15.8779 46.3682 14.4321H45.2308C44.973 15.246 44.2703 15.7212 43.2947 15.7212C41.955 15.7212 41.1058 14.6445 41.1058 12.9409C41.1058 11.2525 41.9653 10.1657 43.2897 10.1657C44.235 10.1657 44.9932 10.7268 45.2308 11.5912H46.3682C46.1256 10.1353 44.8972 9.15967 43.2897 9.15967C41.2525 9.15967 39.9482 10.6307 39.9482 12.9409C39.9482 15.2663 41.2424 16.7273 43.2897 16.7273Z" fill="white"/>
<path d="M49.5219 13.7697L51.8776 11.2725H50.5733L48.4906 13.5472H48.4502V11.2725H47.3633V16.5905H48.4502V14.1388H48.4906L50.5986 16.5905H51.9685L49.5219 13.7697Z" fill="white"/>
<path d="M54.386 15.8173C53.7996 15.8173 53.4154 15.5141 53.4154 15.049C53.4154 14.594 53.7845 14.3059 54.4366 14.2604L55.7459 14.1795V14.599C55.7459 15.2917 55.1494 15.8173 54.386 15.8173ZM54.0827 16.6818C54.7803 16.6818 55.4526 16.3077 55.761 15.7163H55.7864V16.5908H56.8327V12.9259C56.8327 11.8592 56.0087 11.1768 54.7196 11.1768C53.4053 11.1768 52.5864 11.8845 52.5257 12.845H53.557C53.653 12.3698 54.0473 12.0665 54.6793 12.0665C55.3465 12.0665 55.7459 12.4203 55.7459 13.0118V13.4213L54.29 13.5072C53.0261 13.578 52.3135 14.1492 52.3135 15.0793C52.3135 16.0347 53.0414 16.6818 54.0827 16.6818Z" fill="white"/>
<path d="M62.2706 16.5905V11.2725H61.1887V13.3653C60.9664 13.6281 60.567 13.8506 59.9755 13.8506C59.3032 13.8506 58.9443 13.4361 58.9443 12.7739V11.2725H57.8574V12.8548C57.8574 14.0174 58.55 14.7808 59.8036 14.7808C60.39 14.7808 60.8299 14.5987 61.118 14.3258H61.1887V16.5905H62.2706Z" fill="white"/>
<path d="M64.5261 16.5905L66.9828 12.8548H67.0232V16.5905H68.1V11.2725H67.0232L64.5664 14.9981H64.5261V11.2725H63.4492V16.5905H64.5261Z" fill="white"/>
<path d="M71.4654 12.0661C71.9962 12.0661 72.2844 12.3138 72.2844 12.7537C72.2844 13.2237 71.9761 13.4613 71.3593 13.4613H70.3483V12.0661H71.4654ZM71.4301 14.2247C72.1479 14.2247 72.5017 14.4875 72.5017 15.0132C72.5017 15.5239 72.1681 15.7968 71.5513 15.7968H70.3483V14.2247H71.4301ZM69.2715 16.5905H71.7181C72.8708 16.5905 73.5887 15.994 73.5887 15.0588C73.5887 14.3915 73.1336 13.9062 72.4462 13.8152V13.7747C72.9567 13.6787 73.3511 13.1783 73.3511 12.6272C73.3511 11.7881 72.7242 11.2725 71.6879 11.2725H69.2715V16.5905Z" fill="white"/>
<path d="M76.4252 15.8173C75.8387 15.8173 75.4546 15.5141 75.4546 15.049C75.4546 14.594 75.8236 14.3059 76.4757 14.2604L77.7851 14.1795V14.599C77.7851 15.2917 77.1885 15.8173 76.4252 15.8173ZM76.1219 16.6818C76.8195 16.6818 77.4918 16.3077 77.8002 15.7163H77.8254V16.5908H78.8719V12.9259C78.8719 11.8592 78.0479 11.1768 76.7588 11.1768C75.4445 11.1768 74.6255 11.8845 74.5649 12.845H75.5961C75.6922 12.3698 76.0864 12.0665 76.7183 12.0665C77.3857 12.0665 77.7851 12.4203 77.7851 13.0118V13.4213L76.3292 13.5072C75.0653 13.578 74.3525 14.1492 74.3525 15.0793C74.3525 16.0347 75.0805 16.6818 76.1219 16.6818Z" fill="white"/>
<path d="M81.0962 16.5905L83.5531 12.8548H83.5935V16.5905H84.6703V11.2725H83.5935L81.1367 14.9981H81.0962V11.2725H80.0195V16.5905H81.0962ZM80.7424 8.93701C80.7424 9.89243 81.4198 10.5395 82.4208 10.5395C83.4267 10.5395 84.1042 9.89243 84.1042 8.93701H83.366C83.3609 9.50824 82.997 9.94298 82.4208 9.94298C81.8495 9.94298 81.4855 9.50824 81.4805 8.93701H80.7424Z" fill="white"/>
<path d="M89.8872 11.2725H85.4639V12.1369H87.1321V16.5905H88.2189V12.1369H89.8872V11.2725Z" fill="white"/>
<path d="M92.8143 12.0563C93.5777 12.0563 94.0933 12.6276 94.1186 13.4415H91.4597C91.5152 12.6377 92.0511 12.0563 92.8143 12.0563ZM94.1135 15.0288C93.967 15.4938 93.507 15.8072 92.8851 15.8072C92.0106 15.8072 91.4545 15.1956 91.4545 14.2705V14.2047H95.2105V13.8307C95.2105 12.2181 94.2905 11.1768 92.8143 11.1768C91.313 11.1768 90.3525 12.2889 90.3525 13.957C90.3525 15.6354 91.2979 16.6919 92.8599 16.6919C94.0782 16.6919 94.9982 15.9994 95.1498 15.0288H94.1135Z" fill="white"/>
<path d="M100.442 12.0661C100.973 12.0661 101.261 12.3138 101.261 12.7537C101.261 13.2237 100.953 13.4613 100.336 13.4613H99.3249V12.0661H100.442ZM100.407 14.2247C101.124 14.2247 101.478 14.4875 101.478 15.0132C101.478 15.5239 101.145 15.7968 100.528 15.7968H99.3249V14.2247H100.407ZM98.248 16.5905H100.695C101.847 16.5905 102.565 15.994 102.565 15.0588C102.565 14.3915 102.11 13.9062 101.423 13.8152V13.7747C101.933 13.6787 102.328 13.1783 102.328 12.6272C102.328 11.7881 101.701 11.2725 100.664 11.2725H98.248V16.5905Z" fill="white"/>
</g>
<defs>
<clipPath id="clip0_2907_5141">
<rect width="131.353" height="44" fill="white" transform="translate(0.353516)"/>
</clipPath>
</defs>
</svg>
