<svg width="166" height="36" viewBox="0 0 166 36" fill="none" xmlns="http://www.w3.org/2000/svg">
<g clip-path="url(#clip0_2907_4767)">
<path d="M156.199 14.3486H159.604V10.44H162.751V14.3486H166.155V4.57714H162.751V8.02286H159.604V4.57714H156.199V14.3486ZM135.409 7.35429C136.131 6.89143 137.111 6.53143 137.936 6.53143C138.349 6.53143 139.329 6.58286 139.329 7.40571C139.329 8.22857 138.504 8.22857 138.194 8.22857H136.492V10.3371H137.988C138.452 10.3371 139.381 10.3886 139.381 11.16C139.381 11.4686 139.175 12.0857 137.988 12.0857C136.801 12.0857 136.028 11.7771 135.047 11.16L134.17 13.4743C136.028 14.5543 137.73 14.6571 138.555 14.6571C142.476 14.6571 142.941 12.3943 142.941 11.6743C142.941 10.6457 142.321 9.61714 140.98 9.25714C141.857 8.89714 142.373 8.02286 142.373 6.99429C142.373 4.73143 139.948 4.26857 138.504 4.26857C137.111 4.26857 135.563 4.68 134.532 5.24571L135.409 7.35429ZM128.031 3.34286C129.579 3.34286 131.178 2.72571 131.901 1.08L129.682 0.257143C129.424 1.38857 128.444 1.44 128.031 1.44C127.619 1.44 126.69 1.38857 126.432 0.257143L124.214 1.08C124.833 2.72571 126.484 3.34286 128.031 3.34286ZM122.666 4.57714V14.2971H126.019L129.424 8.94857V14.2971H132.829V4.57714H129.527L126.123 9.77143V4.57714H122.666ZM99.9155 12.24V6.84C98.7805 6.84 97.594 7.66286 97.594 9.56571C97.594 11.3657 98.7805 12.24 99.9155 12.24ZM102.959 6.84V12.24C104.094 12.24 105.281 11.4171 105.281 9.56571C105.281 7.66286 104.094 6.84 102.959 6.84ZM99.7091 18.5657V14.5029C97.6456 14.5029 94.2923 13.68 94.2923 9.46286C94.2923 5.29714 97.6456 4.42286 99.7091 4.47429V0.205714H103.114V4.42286C105.178 4.42286 108.531 5.24571 108.531 9.41143C108.531 13.6286 105.178 14.4514 103.114 14.4514V18.5143H99.7091V18.5657ZM84.542 12.24V6.84C83.4071 6.84 82.2205 7.66286 82.2205 9.56571C82.1689 11.3657 83.3555 12.24 84.542 12.24ZM87.5342 6.84V12.24C88.6691 12.24 89.8557 11.4171 89.8557 9.56571C89.8557 7.66286 88.6691 6.84 87.5342 6.84ZM84.2841 18.5657V14.5029C82.2205 14.5029 78.8673 13.68 78.8673 9.46286C78.8673 5.29714 82.2205 4.42286 84.2841 4.47429V0.205714H87.6889V4.42286C89.7525 4.42286 93.1058 5.24571 93.1058 9.41143C93.1058 13.6286 89.7525 14.4514 87.6889 14.4514V18.5143H84.2841V18.5657ZM72.4703 3.34286C74.0179 3.34286 75.6172 2.72571 76.3394 1.08L74.1211 0.257143C73.8631 1.38857 72.883 1.44 72.4703 1.44C72.0575 1.44 71.1289 1.38857 70.8194 0.257143L68.6011 1.08C69.3233 2.72571 70.9226 3.34286 72.4703 3.34286ZM67.105 4.57714V14.2971H70.4067L73.8116 8.94857V14.2971H77.2164V4.57714H73.9147L70.5099 9.77143V4.57714H67.105ZM46.2116 3.08571V6.32571H47.4497C49.1521 6.32571 49.3069 5.29714 49.3069 4.68C49.3069 4.01143 49.1005 3.08571 47.4497 3.08571H46.3663H46.2116ZM42.4972 14.3486V0H48.2751C52.1959 0 53.2792 2.77714 53.2792 4.73143C53.2792 6.68571 52.1443 9.46286 48.2751 9.46286H46.16V14.3486H42.4972ZM120.551 4.57714V14.2971H117.146V13.2171H117.095C116.475 14.1943 115.289 14.6057 114.206 14.6057C111.368 14.6057 109.356 12.1886 109.356 9.41143C109.356 6.63428 111.317 4.21714 114.206 4.21714C115.289 4.21714 116.475 4.62857 117.198 5.50286V4.57714H120.551ZM115.031 7.25143C113.638 7.25143 112.813 8.28 112.813 9.46286C112.813 10.6971 113.638 11.6229 115.031 11.6229C116.424 11.6229 117.249 10.6457 117.249 9.46286C117.249 8.28 116.424 7.25143 115.031 7.25143ZM64.9899 4.57714V14.2971H61.585V13.2171H61.5334C60.9144 14.1943 59.7278 14.6057 58.6445 14.6057C55.8071 14.6057 53.7951 12.1886 53.7951 9.41143C53.7951 6.63428 55.7555 4.21714 58.6445 4.21714C59.7278 4.21714 60.9144 4.62857 61.6366 5.50286V4.57714H64.9899ZM59.4699 7.25143C58.077 7.25143 57.2516 8.28 57.2516 9.46286C57.2516 10.6971 58.077 11.6229 59.4699 11.6229C60.8628 11.6229 61.6882 10.6457 61.6882 9.46286C61.6882 8.28 60.8628 7.25143 59.4699 7.25143ZM154.496 9.87429V10.2343H147.326C147.326 11.6229 148.048 12.3943 149.441 12.3943C150.163 12.3943 150.679 12.1371 151.092 11.52H154.393C153.826 13.8343 151.711 14.8629 149.492 14.8629C146.294 14.8629 143.921 13.0629 143.921 9.66857C143.921 6.42857 146.139 4.47429 149.234 4.47429C152.588 4.47429 154.496 6.53143 154.496 9.87429ZM147.377 8.22857H151.35C151.195 7.30286 150.318 6.68571 149.389 6.68571C148.409 6.68571 147.584 7.25143 147.377 8.22857ZM47.9656 29.88H46.9338L46.4179 32.9143H47.3981C49.668 32.9143 50.0807 32.2971 50.2355 31.4743C50.3902 30.5486 50.1839 29.88 47.9656 29.88ZM54.1562 31.4743C54.0015 32.4514 53.6919 33.4286 52.9697 34.0971C51.422 35.64 49.1005 35.7429 47.656 35.7943H41.9297L44.3544 21.4971H54.1562L53.6919 24.3257H47.7592L47.2949 27.2057H48.9974C50.2871 27.2057 51.8863 27.36 53.0213 28.3371C53.9499 29.0571 54.4142 30.1371 54.1562 31.4743ZM64.474 33.3257H59.0572L57.6127 35.7943H53.434L61.6366 21.4971H65.9185L69.2202 35.7943H65.0415L64.474 33.3257ZM63.9065 30.4457L63.0811 25.8686H63.0295L60.6564 30.4457H63.9065ZM91.1454 21.4971H87.1731L84.8 35.7943H88.7207L89.7525 29.5714H89.8041L93.828 35.7943H98.9353L93.6217 28.2857L100.741 21.4971H95.8916L90.1652 27.4114H90.1136L91.1454 21.4971ZM75.9783 21.4971L75.1013 26.8457H80.3117L81.1888 21.4971H85.0063L82.6848 35.7943H78.8673L79.8475 29.6229H74.637L73.6568 35.7943H69.8392L72.1607 21.4971H75.9783Z" fill="black"/>
<path d="M35.1196 1.18262H1.58691V34.6112H35.1196V1.18262Z" fill="#FAEB00"/>
<path d="M1.58693 1.18286H35.1196V34.6114H1.58693V1.18286ZM0.400391 35.7943H36.3062V0H0.400391V35.7943Z" fill="black"/>
<path d="M18.3533 21.9601L8.03549 32.2458L3.95998 28.1829L14.2777 17.8972L12.111 15.7372V11.52L10.6149 10.0286V13.7315L9.32521 15.0172L4.06316 9.82291L2.77344 11.1086C2.77344 10.1315 2.97979 7.30291 5.35288 4.98862C7.93232 2.52005 10.7181 3.65148 11.6983 4.57719L16.9604 9.77148L15.619 11.1086L18.3533 13.8343L21.0875 11.1086L19.7461 9.77148L25.0082 4.52576C25.9884 3.60005 28.7742 2.46862 31.3536 4.93719C33.7267 7.30291 33.9331 10.08 33.9331 11.0572L32.6433 9.77148L27.3813 15.0172L26.0916 13.7315V10.0286L24.5955 11.52V15.7372L22.4288 17.8972L32.7465 28.1829L28.671 32.2458L18.3533 21.9601Z" fill="black"/>
</g>
<defs>
<clipPath id="clip0_2907_4767">
<rect width="165.6" height="36" fill="white" transform="translate(0.400391)"/>
</clipPath>
</defs>
</svg>
