<svg width="189" height="46" viewBox="0 0 189 46" fill="none" xmlns="http://www.w3.org/2000/svg">
<path d="M96.734 7.134V8.534H90.546V7.134H96.734ZM91.344 3.2V13H89.748V3.2H91.344ZM95.936 13V3.2H97.532V13H95.936ZM102.524 13.098C102.03 13.098 101.572 13.0233 101.152 12.874C100.742 12.7153 100.387 12.496 100.088 12.216C99.7898 11.936 99.5565 11.6 99.3885 11.208C99.2205 10.8067 99.1365 10.3587 99.1365 9.864C99.1365 9.35067 99.2252 8.89333 99.4025 8.492C99.5798 8.08133 99.8178 7.736 100.116 7.456C100.424 7.16667 100.779 6.94733 101.18 6.798C101.582 6.64867 102.006 6.574 102.454 6.574C102.949 6.574 103.388 6.66267 103.77 6.84C104.162 7.008 104.489 7.24133 104.75 7.54C105.021 7.83867 105.226 8.184 105.366 8.576C105.506 8.95867 105.576 9.36933 105.576 9.808V10.172H100.032V9.192H105.03L104.134 9.92V9.486C104.134 9.25267 104.092 9.03333 104.008 8.828C103.924 8.62267 103.803 8.44533 103.644 8.296C103.495 8.14667 103.313 8.03 103.098 7.946C102.884 7.85267 102.641 7.806 102.37 7.806C102.109 7.806 101.866 7.85267 101.642 7.946C101.428 8.03933 101.241 8.17467 101.082 8.352C100.924 8.52 100.798 8.72533 100.704 8.968C100.62 9.21067 100.578 9.486 100.578 9.794C100.578 10.1207 100.63 10.4147 100.732 10.676C100.835 10.928 100.975 11.1473 101.152 11.334C101.33 11.5113 101.544 11.6467 101.796 11.74C102.058 11.8333 102.338 11.88 102.636 11.88C103.01 11.88 103.36 11.81 103.686 11.67C104.022 11.53 104.293 11.334 104.498 11.082L105.366 11.866C105.049 12.2767 104.638 12.5847 104.134 12.79C103.64 12.9953 103.103 13.098 102.524 13.098ZM109.976 16.36V3.2H111.46V16.36H109.976ZM109.878 13.084C109.412 13.084 108.978 13.014 108.576 12.874C108.175 12.7247 107.825 12.51 107.526 12.23C107.228 11.95 106.99 11.6093 106.812 11.208C106.644 10.8067 106.56 10.3493 106.56 9.836C106.56 9.304 106.654 8.83733 106.84 8.436C107.027 8.02533 107.274 7.68467 107.582 7.414C107.9 7.14333 108.254 6.938 108.646 6.798C109.048 6.658 109.458 6.588 109.878 6.588H110.06V7.848H109.934C109.664 7.848 109.416 7.89467 109.192 7.988C108.968 8.072 108.772 8.20267 108.604 8.38C108.446 8.548 108.32 8.75333 108.226 8.996C108.133 9.23867 108.086 9.51867 108.086 9.836C108.086 10.144 108.133 10.424 108.226 10.676C108.32 10.9187 108.446 11.1287 108.604 11.306C108.772 11.474 108.968 11.6047 109.192 11.698C109.416 11.782 109.664 11.824 109.934 11.824H110.06V13.084H109.878ZM111.39 13.084V11.824H111.502C111.773 11.824 112.02 11.782 112.244 11.698C112.478 11.6047 112.674 11.474 112.832 11.306C113 11.138 113.131 10.9327 113.224 10.69C113.318 10.438 113.364 10.1533 113.364 9.836C113.364 9.51867 113.318 9.23867 113.224 8.996C113.131 8.75333 113 8.548 112.832 8.38C112.674 8.20267 112.478 8.072 112.244 7.988C112.02 7.89467 111.773 7.848 111.502 7.848H111.39V6.588H111.572C112.039 6.588 112.473 6.66267 112.874 6.812C113.276 6.96133 113.626 7.176 113.924 7.456C114.223 7.72667 114.456 8.06267 114.624 8.464C114.792 8.86533 114.876 9.32267 114.876 9.836C114.876 10.368 114.783 10.8393 114.596 11.25C114.41 11.6513 114.162 11.992 113.854 12.272C113.546 12.5427 113.192 12.748 112.79 12.888C112.398 13.0187 111.992 13.084 111.572 13.084H111.39ZM117.486 13V8.002H115.442V6.686H121.014V8.002H118.97V13H117.486ZM124.892 13.098C124.397 13.098 123.94 13.0233 123.52 12.874C123.109 12.7153 122.754 12.496 122.456 12.216C122.157 11.936 121.924 11.6 121.756 11.208C121.588 10.8067 121.504 10.3587 121.504 9.864C121.504 9.35067 121.592 8.89333 121.77 8.492C121.947 8.08133 122.185 7.736 122.484 7.456C122.792 7.16667 123.146 6.94733 123.548 6.798C123.949 6.64867 124.374 6.574 124.822 6.574C125.316 6.574 125.755 6.66267 126.138 6.84C126.53 7.008 126.856 7.24133 127.118 7.54C127.388 7.83867 127.594 8.184 127.734 8.576C127.874 8.95867 127.944 9.36933 127.944 9.808V10.172H122.4V9.192H127.398L126.502 9.92V9.486C126.502 9.25267 126.46 9.03333 126.376 8.828C126.292 8.62267 126.17 8.44533 126.012 8.296C125.862 8.14667 125.68 8.03 125.466 7.946C125.251 7.85267 125.008 7.806 124.738 7.806C124.476 7.806 124.234 7.85267 124.01 7.946C123.795 8.03933 123.608 8.17467 123.45 8.352C123.291 8.52 123.165 8.72533 123.072 8.968C122.988 9.21067 122.946 9.486 122.946 9.794C122.946 10.1207 122.997 10.4147 123.1 10.676C123.202 10.928 123.342 11.1473 123.52 11.334C123.697 11.5113 123.912 11.6467 124.164 11.74C124.425 11.8333 124.705 11.88 125.004 11.88C125.377 11.88 125.727 11.81 126.054 11.67C126.39 11.53 126.66 11.334 126.866 11.082L127.734 11.866C127.416 12.2767 127.006 12.5847 126.502 12.79C126.007 12.9953 125.47 13.098 124.892 13.098ZM129.348 13V6.686H133.632V8.002H130.832V13H129.348ZM139.385 13V11.446L139.301 11.236V8.52L139.385 8.422V6.686H140.785V8.422V8.52V13H139.385ZM137.215 13.098C136.823 13.098 136.445 13.0233 136.081 12.874C135.726 12.7153 135.409 12.496 135.129 12.216C134.858 11.9267 134.639 11.5813 134.471 11.18C134.303 10.7787 134.219 10.3307 134.219 9.836C134.219 9.34133 134.298 8.89333 134.457 8.492C134.625 8.09067 134.844 7.75 135.115 7.47C135.385 7.18067 135.703 6.96133 136.067 6.812C136.431 6.65333 136.813 6.574 137.215 6.574C137.551 6.574 137.859 6.62067 138.139 6.714C138.419 6.798 138.661 6.91933 138.867 7.078C139.081 7.22733 139.254 7.4 139.385 7.596C139.515 7.792 139.595 7.99267 139.623 8.198V9.752H139.301C139.301 9.49067 139.259 9.248 139.175 9.024C139.1 8.8 138.988 8.604 138.839 8.436C138.689 8.268 138.503 8.13733 138.279 8.044C138.064 7.94133 137.821 7.89 137.551 7.89C137.317 7.89 137.093 7.932 136.879 8.016C136.664 8.1 136.473 8.226 136.305 8.394C136.146 8.55267 136.02 8.75333 135.927 8.996C135.843 9.23867 135.801 9.51867 135.801 9.836C135.801 10.1347 135.843 10.4053 135.927 10.648C136.011 10.8907 136.132 11.1007 136.291 11.278C136.449 11.446 136.636 11.5767 136.851 11.67C137.065 11.754 137.299 11.796 137.551 11.796C137.812 11.796 138.05 11.7493 138.265 11.656C138.489 11.5533 138.675 11.4133 138.825 11.236C138.974 11.0587 139.091 10.8533 139.175 10.62C139.259 10.3867 139.301 10.1347 139.301 9.864H139.693V11.348C139.637 11.5907 139.534 11.8193 139.385 12.034C139.245 12.2487 139.063 12.4353 138.839 12.594C138.624 12.7433 138.377 12.8647 138.097 12.958C137.826 13.0513 137.532 13.098 137.215 13.098ZM144.583 13.098C144.247 13.098 143.935 13.0653 143.645 13C143.365 12.9253 143.113 12.832 142.889 12.72C142.675 12.608 142.488 12.4913 142.329 12.37C142.18 12.2393 142.059 12.118 141.965 12.006L142.917 11.096C143.076 11.3013 143.295 11.474 143.575 11.614C143.855 11.754 144.182 11.824 144.555 11.824C144.761 11.824 144.938 11.8053 145.087 11.768C145.246 11.7307 145.377 11.6747 145.479 11.6C145.591 11.5253 145.675 11.4367 145.731 11.334C145.787 11.222 145.815 11.096 145.815 10.956C145.815 10.844 145.792 10.7413 145.745 10.648C145.699 10.5547 145.629 10.4753 145.535 10.41C145.442 10.3447 145.321 10.2933 145.171 10.256C145.022 10.2093 144.845 10.186 144.639 10.186H143.743V9.066H144.443C144.77 9.066 145.027 9.01933 145.213 8.926C145.4 8.82333 145.493 8.66467 145.493 8.45C145.493 8.26333 145.395 8.11867 145.199 8.016C145.013 7.904 144.765 7.848 144.457 7.848C144.177 7.848 143.916 7.904 143.673 8.016C143.431 8.11867 143.216 8.254 143.029 8.422L142.245 7.498C142.357 7.386 142.488 7.27867 142.637 7.176C142.787 7.064 142.955 6.96133 143.141 6.868C143.337 6.77467 143.557 6.70467 143.799 6.658C144.042 6.602 144.308 6.574 144.597 6.574C144.952 6.574 145.274 6.616 145.563 6.7C145.853 6.77467 146.1 6.88667 146.305 7.036C146.52 7.176 146.683 7.34867 146.795 7.554C146.907 7.75933 146.963 7.988 146.963 8.24C146.963 8.47333 146.912 8.68333 146.809 8.87C146.707 9.05667 146.562 9.21533 146.375 9.346C146.189 9.47667 145.965 9.57933 145.703 9.654C145.451 9.72867 145.167 9.766 144.849 9.766L144.919 9.388C145.311 9.388 145.657 9.43 145.955 9.514C146.263 9.58867 146.515 9.70533 146.711 9.864C146.917 10.0133 147.071 10.1907 147.173 10.396C147.276 10.6013 147.327 10.8347 147.327 11.096C147.327 11.376 147.262 11.6373 147.131 11.88C147.01 12.1227 146.833 12.3373 146.599 12.524C146.366 12.7013 146.077 12.8413 145.731 12.944C145.395 13.0467 145.013 13.098 144.583 13.098ZM151.509 13.098C151.014 13.098 150.562 13.0187 150.151 12.86C149.74 12.7013 149.39 12.4773 149.101 12.188C148.821 11.8987 148.602 11.558 148.443 11.166C148.284 10.7647 148.205 10.3213 148.205 9.836C148.205 9.32267 148.289 8.86533 148.457 8.464C148.634 8.05333 148.868 7.71267 149.157 7.442C149.456 7.162 149.806 6.94733 150.207 6.798C150.608 6.64867 151.042 6.574 151.509 6.574C151.77 6.574 152.022 6.59733 152.265 6.644C152.508 6.69067 152.732 6.756 152.937 6.84C153.152 6.91467 153.348 7.01267 153.525 7.134C153.702 7.25533 153.856 7.386 153.987 7.526L153.189 8.576C152.993 8.36133 152.76 8.18867 152.489 8.058C152.228 7.92733 151.934 7.862 151.607 7.862C151.336 7.862 151.089 7.90867 150.865 8.002C150.641 8.09533 150.445 8.226 150.277 8.394C150.109 8.562 149.978 8.76733 149.885 9.01C149.801 9.24333 149.759 9.50933 149.759 9.808C149.759 10.0973 149.801 10.368 149.885 10.62C149.978 10.8627 150.109 11.0773 150.277 11.264C150.454 11.4413 150.66 11.5813 150.893 11.684C151.126 11.7773 151.383 11.824 151.663 11.824C151.999 11.824 152.298 11.7587 152.559 11.628C152.82 11.488 153.044 11.3107 153.231 11.096L154.113 11.978C153.842 12.3327 153.483 12.608 153.035 12.804C152.596 13 152.088 13.098 151.509 13.098ZM156.724 13V8.002H154.68V6.686H160.252V8.002H158.208V13H156.724ZM162.933 16.36H161.449V8.52V8.422V6.686H162.849V8.422L162.933 8.52V11.25V11.446V16.36ZM165.019 13.098C164.711 13.098 164.417 13.0513 164.137 12.958C163.857 12.8647 163.605 12.7433 163.381 12.594C163.166 12.4353 162.984 12.2487 162.835 12.034C162.695 11.8193 162.597 11.5907 162.541 11.348V9.864H162.933C162.933 10.1347 162.975 10.3867 163.059 10.62C163.143 10.8533 163.26 11.0587 163.409 11.236C163.558 11.4133 163.74 11.5533 163.955 11.656C164.179 11.7493 164.422 11.796 164.683 11.796C164.935 11.796 165.168 11.754 165.383 11.67C165.598 11.5767 165.784 11.446 165.943 11.278C166.102 11.1007 166.223 10.8907 166.307 10.648C166.391 10.4053 166.433 10.1347 166.433 9.836C166.433 9.51867 166.386 9.23867 166.293 8.996C166.209 8.75333 166.083 8.55267 165.915 8.394C165.756 8.226 165.57 8.1 165.355 8.016C165.15 7.932 164.926 7.89 164.683 7.89C164.412 7.89 164.165 7.94133 163.941 8.044C163.726 8.13733 163.544 8.268 163.395 8.436C163.246 8.604 163.129 8.8 163.045 9.024C162.97 9.248 162.933 9.49067 162.933 9.752H162.611V8.198C162.639 7.99267 162.718 7.792 162.849 7.596C162.98 7.4 163.148 7.22733 163.353 7.078C163.568 6.91933 163.815 6.798 164.095 6.714C164.375 6.62067 164.683 6.574 165.019 6.574C165.42 6.574 165.803 6.65333 166.167 6.812C166.531 6.96133 166.848 7.18067 167.119 7.47C167.39 7.75 167.604 8.09067 167.763 8.492C167.931 8.89333 168.015 9.34133 168.015 9.836C168.015 10.3307 167.931 10.7787 167.763 11.18C167.595 11.5813 167.371 11.9267 167.091 12.216C166.82 12.496 166.503 12.7153 166.139 12.874C165.784 13.0233 165.411 13.098 165.019 13.098ZM172.36 13.098C171.874 13.098 171.426 13.0187 171.016 12.86C170.605 12.7013 170.25 12.4773 169.952 12.188C169.653 11.8893 169.42 11.544 169.252 11.152C169.084 10.7507 169 10.3073 169 9.822C169 9.346 169.084 8.90733 169.252 8.506C169.429 8.10467 169.667 7.75933 169.966 7.47C170.264 7.18067 170.619 6.96133 171.03 6.812C171.44 6.65333 171.884 6.574 172.36 6.574C172.845 6.574 173.293 6.65333 173.704 6.812C174.114 6.97067 174.469 7.19467 174.768 7.484C175.066 7.764 175.295 8.10467 175.454 8.506C175.622 8.90733 175.706 9.346 175.706 9.822C175.706 10.3073 175.622 10.7507 175.454 11.152C175.286 11.5533 175.052 11.8987 174.754 12.188C174.455 12.4773 174.1 12.7013 173.69 12.86C173.279 13.0187 172.836 13.098 172.36 13.098ZM172.36 11.824C172.64 11.824 172.887 11.7773 173.102 11.684C173.326 11.5813 173.517 11.4413 173.676 11.264C173.834 11.0867 173.956 10.8767 174.04 10.634C174.124 10.382 174.166 10.1113 174.166 9.822C174.166 9.53267 174.124 9.27133 174.04 9.038C173.956 8.79533 173.834 8.58533 173.676 8.408C173.526 8.23067 173.34 8.09533 173.116 8.002C172.892 7.90867 172.64 7.862 172.36 7.862C172.08 7.862 171.828 7.91333 171.604 8.016C171.389 8.10933 171.202 8.24467 171.044 8.422C170.885 8.59 170.764 8.79533 170.68 9.038C170.596 9.28067 170.554 9.542 170.554 9.822C170.554 10.102 170.596 10.368 170.68 10.62C170.764 10.8627 170.88 11.0727 171.03 11.25C171.188 11.4273 171.38 11.5673 171.604 11.67C171.828 11.7727 172.08 11.824 172.36 11.824ZM177.103 13V6.686H178.587V11.698L177.593 11.796L181.807 6.686H182.899V13H181.415V8.044L182.227 7.946L178.069 13H177.103ZM180.015 5.804C179.726 5.804 179.455 5.76667 179.203 5.692C178.951 5.608 178.732 5.48667 178.545 5.328C178.359 5.16933 178.209 4.97333 178.097 4.74C177.995 4.49733 177.943 4.21733 177.943 3.9H179.077C179.087 4.17067 179.166 4.39 179.315 4.558C179.474 4.726 179.717 4.81 180.043 4.81C180.351 4.81 180.585 4.73067 180.743 4.572C180.911 4.404 181 4.18 181.009 3.9H182.129C182.12 4.21733 182.059 4.49733 181.947 4.74C181.835 4.97333 181.681 5.16933 181.485 5.328C181.299 5.48667 181.079 5.608 180.827 5.692C180.575 5.76667 180.305 5.804 180.015 5.804ZM188.373 9.08V10.326H184.621V9.08H188.373ZM89.412 28V21.686H95.124V28H93.626V23.002H90.896V28H89.412ZM98.4155 31.36H96.9315V23.52V23.422V21.686H98.3315V23.422L98.4155 23.52V26.25V26.446V31.36ZM100.501 28.098C100.193 28.098 99.8995 28.0513 99.6195 27.958C99.3395 27.8647 99.0875 27.7433 98.8635 27.594C98.6488 27.4353 98.4668 27.2487 98.3175 27.034C98.1775 26.8193 98.0795 26.5907 98.0235 26.348V24.864H98.4155C98.4155 25.1347 98.4575 25.3867 98.5415 25.62C98.6255 25.8533 98.7422 26.0587 98.8915 26.236C99.0408 26.4133 99.2228 26.5533 99.4375 26.656C99.6615 26.7493 99.9042 26.796 100.165 26.796C100.417 26.796 100.651 26.754 100.865 26.67C101.08 26.5767 101.267 26.446 101.425 26.278C101.584 26.1007 101.705 25.8907 101.789 25.648C101.873 25.4053 101.915 25.1347 101.915 24.836C101.915 24.5187 101.869 24.2387 101.775 23.996C101.691 23.7533 101.565 23.5527 101.397 23.394C101.239 23.226 101.052 23.1 100.837 23.016C100.632 22.932 100.408 22.89 100.165 22.89C99.8948 22.89 99.6475 22.9413 99.4235 23.044C99.2088 23.1373 99.0268 23.268 98.8775 23.436C98.7282 23.604 98.6115 23.8 98.5275 24.024C98.4528 24.248 98.4155 24.4907 98.4155 24.752H98.0935V23.198C98.1215 22.9927 98.2008 22.792 98.3315 22.596C98.4622 22.4 98.6302 22.2273 98.8355 22.078C99.0502 21.9193 99.2975 21.798 99.5775 21.714C99.8575 21.6207 100.165 21.574 100.501 21.574C100.903 21.574 101.285 21.6533 101.649 21.812C102.013 21.9613 102.331 22.1807 102.601 22.47C102.872 22.75 103.087 23.0907 103.245 23.492C103.413 23.8933 103.497 24.3413 103.497 24.836C103.497 25.3307 103.413 25.7787 103.245 26.18C103.077 26.5813 102.853 26.9267 102.573 27.216C102.303 27.496 101.985 27.7153 101.621 27.874C101.267 28.0233 100.893 28.098 100.501 28.098ZM107.842 28.098C107.357 28.098 106.909 28.0187 106.498 27.86C106.088 27.7013 105.733 27.4773 105.434 27.188C105.136 26.8893 104.902 26.544 104.734 26.152C104.566 25.7507 104.482 25.3073 104.482 24.822C104.482 24.346 104.566 23.9073 104.734 23.506C104.912 23.1047 105.15 22.7593 105.448 22.47C105.747 22.1807 106.102 21.9613 106.512 21.812C106.923 21.6533 107.366 21.574 107.842 21.574C108.328 21.574 108.776 21.6533 109.186 21.812C109.597 21.9707 109.952 22.1947 110.25 22.484C110.549 22.764 110.778 23.1047 110.936 23.506C111.104 23.9073 111.188 24.346 111.188 24.822C111.188 25.3073 111.104 25.7507 110.936 26.152C110.768 26.5533 110.535 26.8987 110.236 27.188C109.938 27.4773 109.583 27.7013 109.172 27.86C108.762 28.0187 108.318 28.098 107.842 28.098ZM107.842 26.824C108.122 26.824 108.37 26.7773 108.584 26.684C108.808 26.5813 109 26.4413 109.158 26.264C109.317 26.0867 109.438 25.8767 109.522 25.634C109.606 25.382 109.648 25.1113 109.648 24.822C109.648 24.5327 109.606 24.2713 109.522 24.038C109.438 23.7953 109.317 23.5853 109.158 23.408C109.009 23.2307 108.822 23.0953 108.598 23.002C108.374 22.9087 108.122 22.862 107.842 22.862C107.562 22.862 107.31 22.9133 107.086 23.016C106.872 23.1093 106.685 23.2447 106.526 23.422C106.368 23.59 106.246 23.7953 106.162 24.038C106.078 24.2807 106.036 24.542 106.036 24.822C106.036 25.102 106.078 25.368 106.162 25.62C106.246 25.8627 106.363 26.0727 106.512 26.25C106.671 26.4273 106.862 26.5673 107.086 26.67C107.31 26.7727 107.562 26.824 107.842 26.824ZM115.582 31.36V18.2H117.066V31.36H115.582ZM115.484 28.084C115.017 28.084 114.583 28.014 114.182 27.874C113.78 27.7247 113.43 27.51 113.132 27.23C112.833 26.95 112.595 26.6093 112.418 26.208C112.25 25.8067 112.166 25.3493 112.166 24.836C112.166 24.304 112.259 23.8373 112.446 23.436C112.632 23.0253 112.88 22.6847 113.188 22.414C113.505 22.1433 113.86 21.938 114.252 21.798C114.653 21.658 115.064 21.588 115.484 21.588H115.666V22.848H115.54C115.269 22.848 115.022 22.8947 114.798 22.988C114.574 23.072 114.378 23.2027 114.21 23.38C114.051 23.548 113.925 23.7533 113.832 23.996C113.738 24.2387 113.692 24.5187 113.692 24.836C113.692 25.144 113.738 25.424 113.832 25.676C113.925 25.9187 114.051 26.1287 114.21 26.306C114.378 26.474 114.574 26.6047 114.798 26.698C115.022 26.782 115.269 26.824 115.54 26.824H115.666V28.084H115.484ZM116.996 28.084V26.824H117.108C117.378 26.824 117.626 26.782 117.85 26.698C118.083 26.6047 118.279 26.474 118.438 26.306C118.606 26.138 118.736 25.9327 118.83 25.69C118.923 25.438 118.97 25.1533 118.97 24.836C118.97 24.5187 118.923 24.2387 118.83 23.996C118.736 23.7533 118.606 23.548 118.438 23.38C118.279 23.2027 118.083 23.072 117.85 22.988C117.626 22.8947 117.378 22.848 117.108 22.848H116.996V21.588H117.178C117.644 21.588 118.078 21.6627 118.48 21.812C118.881 21.9613 119.231 22.176 119.53 22.456C119.828 22.7267 120.062 23.0627 120.23 23.464C120.398 23.8653 120.482 24.3227 120.482 24.836C120.482 25.368 120.388 25.8393 120.202 26.25C120.015 26.6513 119.768 26.992 119.46 27.272C119.152 27.5427 118.797 27.748 118.396 27.888C118.004 28.0187 117.598 28.084 117.178 28.084H116.996ZM124.767 28.098C124.272 28.098 123.819 28.0187 123.409 27.86C122.998 27.7013 122.648 27.4773 122.359 27.188C122.079 26.8987 121.859 26.558 121.701 26.166C121.542 25.7647 121.463 25.3213 121.463 24.836C121.463 24.3227 121.547 23.8653 121.715 23.464C121.892 23.0533 122.125 22.7127 122.415 22.442C122.713 22.162 123.063 21.9473 123.465 21.798C123.866 21.6487 124.3 21.574 124.767 21.574C125.028 21.574 125.28 21.5973 125.523 21.644C125.765 21.6907 125.989 21.756 126.195 21.84C126.409 21.9147 126.605 22.0127 126.783 22.134C126.96 22.2553 127.114 22.386 127.245 22.526L126.447 23.576C126.251 23.3613 126.017 23.1887 125.747 23.058C125.485 22.9273 125.191 22.862 124.865 22.862C124.594 22.862 124.347 22.9087 124.123 23.002C123.899 23.0953 123.703 23.226 123.535 23.394C123.367 23.562 123.236 23.7673 123.143 24.01C123.059 24.2433 123.017 24.5093 123.017 24.808C123.017 25.0973 123.059 25.368 123.143 25.62C123.236 25.8627 123.367 26.0773 123.535 26.264C123.712 26.4413 123.917 26.5813 124.151 26.684C124.384 26.7773 124.641 26.824 124.921 26.824C125.257 26.824 125.555 26.7587 125.817 26.628C126.078 26.488 126.302 26.3107 126.489 26.096L127.371 26.978C127.1 27.3327 126.741 27.608 126.293 27.804C125.854 28 125.345 28.098 124.767 28.098ZM131.454 28.098C130.968 28.098 130.52 28.0187 130.11 27.86C129.699 27.7013 129.344 27.4773 129.046 27.188C128.747 26.8893 128.514 26.544 128.346 26.152C128.178 25.7507 128.094 25.3073 128.094 24.822C128.094 24.346 128.178 23.9073 128.346 23.506C128.523 23.1047 128.761 22.7593 129.06 22.47C129.358 22.1807 129.713 21.9613 130.124 21.812C130.534 21.6533 130.978 21.574 131.454 21.574C131.939 21.574 132.387 21.6533 132.798 21.812C133.208 21.9707 133.563 22.1947 133.862 22.484C134.16 22.764 134.389 23.1047 134.548 23.506C134.716 23.9073 134.8 24.346 134.8 24.822C134.8 25.3073 134.716 25.7507 134.548 26.152C134.38 26.5533 134.146 26.8987 133.848 27.188C133.549 27.4773 133.194 27.7013 132.784 27.86C132.373 28.0187 131.93 28.098 131.454 28.098ZM131.454 26.824C131.734 26.824 131.981 26.7773 132.196 26.684C132.42 26.5813 132.611 26.4413 132.77 26.264C132.928 26.0867 133.05 25.8767 133.134 25.634C133.218 25.382 133.26 25.1113 133.26 24.822C133.26 24.5327 133.218 24.2713 133.134 24.038C133.05 23.7953 132.928 23.5853 132.77 23.408C132.62 23.2307 132.434 23.0953 132.21 23.002C131.986 22.9087 131.734 22.862 131.454 22.862C131.174 22.862 130.922 22.9133 130.698 23.016C130.483 23.1093 130.296 23.2447 130.138 23.422C129.979 23.59 129.858 23.7953 129.774 24.038C129.69 24.2807 129.648 24.542 129.648 24.822C129.648 25.102 129.69 25.368 129.774 25.62C129.858 25.8627 129.974 26.0727 130.124 26.25C130.282 26.4273 130.474 26.5673 130.698 26.67C130.922 26.7727 131.174 26.824 131.454 26.824ZM141.811 26.782C142.072 26.782 142.306 26.7353 142.511 26.642C142.726 26.5487 142.908 26.418 143.057 26.25C143.206 26.082 143.318 25.8813 143.393 25.648C143.477 25.4053 143.519 25.144 143.519 24.864C143.519 24.5653 143.477 24.2947 143.393 24.052C143.309 23.8093 143.192 23.604 143.043 23.436C142.894 23.2587 142.712 23.1233 142.497 23.03C142.282 22.9273 142.04 22.876 141.769 22.876C141.508 22.876 141.27 22.9273 141.055 23.03C140.85 23.1233 140.672 23.254 140.523 23.422C140.374 23.59 140.257 23.7907 140.173 24.024C140.098 24.2573 140.061 24.514 140.061 24.794C140.061 25.0927 140.103 25.3633 140.187 25.606C140.271 25.8487 140.388 26.0587 140.537 26.236C140.696 26.4133 140.882 26.5487 141.097 26.642C141.312 26.7353 141.55 26.782 141.811 26.782ZM139.375 24.01V25.27H136.827V24.01H139.375ZM141.769 28.098C141.312 28.098 140.887 28.0233 140.495 27.874C140.112 27.7153 139.776 27.496 139.487 27.216C139.207 26.9267 138.988 26.5813 138.829 26.18C138.68 25.7693 138.605 25.312 138.605 24.808C138.605 24.304 138.689 23.8513 138.857 23.45C139.034 23.0487 139.268 22.708 139.557 22.428C139.856 22.148 140.196 21.938 140.579 21.798C140.971 21.6487 141.382 21.574 141.811 21.574C142.287 21.574 142.721 21.6487 143.113 21.798C143.514 21.9473 143.86 22.162 144.149 22.442C144.438 22.722 144.662 23.0673 144.821 23.478C144.98 23.8793 145.059 24.332 145.059 24.836C145.059 25.3587 144.97 25.8253 144.793 26.236C144.616 26.6373 144.373 26.978 144.065 27.258C143.766 27.5287 143.416 27.7387 143.015 27.888C142.623 28.028 142.208 28.098 141.769 28.098ZM136.197 28V21.686H137.681V28H136.197ZM148.261 28.098C147.925 28.098 147.612 28.0653 147.323 28C147.043 27.9253 146.791 27.832 146.567 27.72C146.352 27.608 146.166 27.4913 146.007 27.37C145.858 27.2393 145.736 27.118 145.643 27.006L146.595 26.096C146.754 26.3013 146.973 26.474 147.253 26.614C147.533 26.754 147.86 26.824 148.233 26.824C148.438 26.824 148.616 26.8053 148.765 26.768C148.924 26.7307 149.054 26.6747 149.157 26.6C149.269 26.5253 149.353 26.4367 149.409 26.334C149.465 26.222 149.493 26.096 149.493 25.956C149.493 25.844 149.47 25.7413 149.423 25.648C149.376 25.5547 149.306 25.4753 149.213 25.41C149.12 25.3447 148.998 25.2933 148.849 25.256C148.7 25.2093 148.522 25.186 148.317 25.186H147.421V24.066H148.121C148.448 24.066 148.704 24.0193 148.891 23.926C149.078 23.8233 149.171 23.6647 149.171 23.45C149.171 23.2633 149.073 23.1187 148.877 23.016C148.69 22.904 148.443 22.848 148.135 22.848C147.855 22.848 147.594 22.904 147.351 23.016C147.108 23.1187 146.894 23.254 146.707 23.422L145.923 22.498C146.035 22.386 146.166 22.2787 146.315 22.176C146.464 22.064 146.632 21.9613 146.819 21.868C147.015 21.7747 147.234 21.7047 147.477 21.658C147.72 21.602 147.986 21.574 148.275 21.574C148.63 21.574 148.952 21.616 149.241 21.7C149.53 21.7747 149.778 21.8867 149.983 22.036C150.198 22.176 150.361 22.3487 150.473 22.554C150.585 22.7593 150.641 22.988 150.641 23.24C150.641 23.4733 150.59 23.6833 150.487 23.87C150.384 24.0567 150.24 24.2153 150.053 24.346C149.866 24.4767 149.642 24.5793 149.381 24.654C149.129 24.7287 148.844 24.766 148.527 24.766L148.597 24.388C148.989 24.388 149.334 24.43 149.633 24.514C149.941 24.5887 150.193 24.7053 150.389 24.864C150.594 25.0133 150.748 25.1907 150.851 25.396C150.954 25.6013 151.005 25.8347 151.005 26.096C151.005 26.376 150.94 26.6373 150.809 26.88C150.688 27.1227 150.51 27.3373 150.277 27.524C150.044 27.7013 149.754 27.8413 149.409 27.944C149.073 28.0467 148.69 28.098 148.261 28.098ZM92.604 33.2C93.1173 33.2 93.584 33.27 94.004 33.41C94.424 33.55 94.7786 33.7507 95.068 34.012C95.3666 34.2733 95.5953 34.5907 95.754 34.964C95.9126 35.328 95.992 35.734 95.992 36.182C95.992 36.6393 95.9126 37.0593 95.754 37.442C95.5953 37.8153 95.3666 38.1373 95.068 38.408C94.7693 38.6787 94.4053 38.8933 93.976 39.052C93.5466 39.2013 93.0706 39.276 92.548 39.276H91.344V43H89.748V33.2H92.604ZM92.45 37.862C92.7673 37.862 93.0426 37.82 93.276 37.736C93.5186 37.652 93.7193 37.5353 93.878 37.386C94.0366 37.2367 94.158 37.064 94.242 36.868C94.326 36.672 94.368 36.4573 94.368 36.224C94.368 36 94.326 35.79 94.242 35.594C94.1673 35.398 94.0506 35.2253 93.892 35.076C93.7333 34.9267 93.5326 34.81 93.29 34.726C93.0473 34.642 92.7626 34.6 92.436 34.6H91.344V37.862H92.45ZM99.7074 43.098C99.2221 43.098 98.7741 43.0187 98.3634 42.86C97.9528 42.7013 97.5981 42.4773 97.2994 42.188C97.0008 41.8893 96.7674 41.544 96.5994 41.152C96.4314 40.7507 96.3474 40.3073 96.3474 39.822C96.3474 39.346 96.4314 38.9073 96.5994 38.506C96.7768 38.1047 97.0148 37.7593 97.3134 37.47C97.6121 37.1807 97.9668 36.9613 98.3774 36.812C98.7881 36.6533 99.2314 36.574 99.7074 36.574C100.193 36.574 100.641 36.6533 101.051 36.812C101.462 36.9707 101.817 37.1947 102.115 37.484C102.414 37.764 102.643 38.1047 102.801 38.506C102.969 38.9073 103.053 39.346 103.053 39.822C103.053 40.3073 102.969 40.7507 102.801 41.152C102.633 41.5533 102.4 41.8987 102.101 42.188C101.803 42.4773 101.448 42.7013 101.037 42.86C100.627 43.0187 100.183 43.098 99.7074 43.098ZM99.7074 41.824C99.9874 41.824 100.235 41.7773 100.449 41.684C100.673 41.5813 100.865 41.4413 101.023 41.264C101.182 41.0867 101.303 40.8767 101.387 40.634C101.471 40.382 101.513 40.1113 101.513 39.822C101.513 39.5327 101.471 39.2713 101.387 39.038C101.303 38.7953 101.182 38.5853 101.023 38.408C100.874 38.2307 100.687 38.0953 100.463 38.002C100.239 37.9087 99.9874 37.862 99.7074 37.862C99.4274 37.862 99.1754 37.9133 98.9514 38.016C98.7368 38.1093 98.5501 38.2447 98.3914 38.422C98.2328 38.59 98.1114 38.7953 98.0274 39.038C97.9434 39.2807 97.9014 39.542 97.9014 39.822C97.9014 40.102 97.9434 40.368 98.0274 40.62C98.1114 40.8627 98.2281 41.0727 98.3774 41.25C98.5361 41.4273 98.7274 41.5673 98.9514 41.67C99.1754 41.7727 99.4274 41.824 99.7074 41.824ZM107.335 43.098C106.84 43.098 106.388 43.0187 105.977 42.86C105.566 42.7013 105.216 42.4773 104.927 42.188C104.647 41.8987 104.428 41.558 104.269 41.166C104.11 40.7647 104.031 40.3213 104.031 39.836C104.031 39.3227 104.115 38.8653 104.283 38.464C104.46 38.0533 104.694 37.7127 104.983 37.442C105.282 37.162 105.632 36.9473 106.033 36.798C106.434 36.6487 106.868 36.574 107.335 36.574C107.596 36.574 107.848 36.5973 108.091 36.644C108.334 36.6907 108.558 36.756 108.763 36.84C108.978 36.9147 109.174 37.0127 109.351 37.134C109.528 37.2553 109.682 37.386 109.813 37.526L109.015 38.576C108.819 38.3613 108.586 38.1887 108.315 38.058C108.054 37.9273 107.76 37.862 107.433 37.862C107.162 37.862 106.915 37.9087 106.691 38.002C106.467 38.0953 106.271 38.226 106.103 38.394C105.935 38.562 105.804 38.7673 105.711 39.01C105.627 39.2433 105.585 39.5093 105.585 39.808C105.585 40.0973 105.627 40.368 105.711 40.62C105.804 40.8627 105.935 41.0773 106.103 41.264C106.28 41.4413 106.486 41.5813 106.719 41.684C106.952 41.7773 107.209 41.824 107.489 41.824C107.825 41.824 108.124 41.7587 108.385 41.628C108.646 41.488 108.87 41.3107 109.057 41.096L109.939 41.978C109.668 42.3327 109.309 42.608 108.861 42.804C108.422 43 107.914 43.098 107.335 43.098ZM113.966 43.098C113.471 43.098 113.019 43.0187 112.608 42.86C112.197 42.7013 111.847 42.4773 111.558 42.188C111.278 41.8987 111.059 41.558 110.9 41.166C110.741 40.7647 110.662 40.3213 110.662 39.836C110.662 39.3227 110.746 38.8653 110.914 38.464C111.091 38.0533 111.325 37.7127 111.614 37.442C111.913 37.162 112.263 36.9473 112.664 36.798C113.065 36.6487 113.499 36.574 113.966 36.574C114.227 36.574 114.479 36.5973 114.722 36.644C114.965 36.6907 115.189 36.756 115.394 36.84C115.609 36.9147 115.805 37.0127 115.982 37.134C116.159 37.2553 116.313 37.386 116.444 37.526L115.646 38.576C115.45 38.3613 115.217 38.1887 114.946 38.058C114.685 37.9273 114.391 37.862 114.064 37.862C113.793 37.862 113.546 37.9087 113.322 38.002C113.098 38.0953 112.902 38.226 112.734 38.394C112.566 38.562 112.435 38.7673 112.342 39.01C112.258 39.2433 112.216 39.5093 112.216 39.808C112.216 40.0973 112.258 40.368 112.342 40.62C112.435 40.8627 112.566 41.0773 112.734 41.264C112.911 41.4413 113.117 41.5813 113.35 41.684C113.583 41.7773 113.84 41.824 114.12 41.824C114.456 41.824 114.755 41.7587 115.016 41.628C115.277 41.488 115.501 41.3107 115.688 41.096L116.57 41.978C116.299 42.3327 115.94 42.608 115.492 42.804C115.053 43 114.545 43.098 113.966 43.098ZM117.767 43V36.686H119.251V41.698L118.257 41.796L122.471 36.686H123.563V43H122.079V38.044L122.891 37.946L118.733 43H117.767ZM125.383 43V36.686H126.867V41.698L125.873 41.796L130.087 36.686H131.179V43H129.695V38.044L130.507 37.946L126.349 43H125.383Z" fill="#263141"/>
<path fill-rule="evenodd" clip-rule="evenodd" d="M72.5014 23.1042C72.5014 10.9464 56.5544 1 37.1005 1C17.5086 1 1.55957 10.9464 1.55957 23.1042C1.55957 24.5494 1.83704 25.9385 2.31959 27.308C5.50309 37.3809 19.9078 45 37.1423 45C55.0265 45 69.9312 36.6791 72.183 25.9325L72.226 25.9358C72.3058 25.4567 72.3818 24.8648 72.435 24.2879C72.438 24.2545 72.4407 24.2207 72.4434 24.1868C72.4768 23.8019 72.5014 23.4253 72.5014 23.1042Z" fill="#004797"/>
<path fill-rule="evenodd" clip-rule="evenodd" d="M37.1406 1.39941C56.3413 1.39941 72.0806 11.1678 72.0806 23.1085C72.0806 35.0481 56.3413 44.7477 37.1406 44.7477C17.8045 44.7477 2.06348 35.0481 2.06348 23.1085C2.06348 11.1678 17.8045 1.39941 37.1406 1.39941Z" fill="#E30016"/>
<path fill-rule="evenodd" clip-rule="evenodd" d="M37.0996 23.103L3.73417 29.5906C2.64501 27.4729 1.9668 25.356 1.9668 23.103C1.9668 11.0844 17.7327 1.25244 37.0996 1.25244C56.3304 1.25244 72.0947 11.0844 72.0947 23.103C72.0947 23.9214 71.9587 25.0827 71.8223 25.9022L37.0996 23.103Z" fill="white"/>
<path fill-rule="evenodd" clip-rule="evenodd" d="M3.828 29.4176C1.04728 24.6015 1.76736 19.7581 4.82017 14.6702C13.6382 18.4002 25.4032 17.9519 36.6657 14.3553C49.2836 10.0813 60.0678 10.8277 69.5671 15.1054C72.7558 21.0737 72.6904 25.9581 69.9765 30.2334C60.343 25.9581 49.2836 25.9581 36.6657 30.2994C24.7917 33.624 13.462 34.2339 3.828 29.4176Z" fill="#004696"/>
<path d="M37.1406 1.39941C56.341 1.39941 72.0806 11.1678 72.0806 23.1085C72.0806 35.048 56.341 44.7476 37.1406 44.7476C17.8044 44.7476 2.06348 35.048 2.06348 23.1085C2.06348 11.1678 17.8044 1.39941 37.1406 1.39941Z" stroke="#004696" stroke-width="2.5"/>
<path fill-rule="evenodd" clip-rule="evenodd" d="M36.4626 14.5581C40.4647 14.5581 43.6533 17.8145 43.6533 21.8174C43.6533 25.7535 40.4647 29.0108 36.4626 29.0108C32.5267 29.0108 29.2705 25.7535 29.2705 21.8174C29.2705 17.8145 32.5267 14.5581 36.4626 14.5581Z" fill="#009EE0"/>
<path fill-rule="evenodd" clip-rule="evenodd" d="M36.4623 14.3267C38.5225 14.3267 40.3747 15.1634 41.7132 16.5147C43.0579 17.872 43.8847 19.7486 43.8847 21.8173C43.8847 23.8565 43.0548 25.72 41.7057 27.0697C40.3675 28.4084 38.5186 29.2424 36.4623 29.2424C34.4314 29.2424 32.5752 28.4015 31.227 27.053C29.8795 25.7052 29.0391 23.8487 29.0391 21.8173C29.0391 19.7568 29.8762 17.8872 31.2194 16.5314C32.568 15.1703 34.427 14.3267 36.4623 14.3267ZM41.3859 16.8403C40.1314 15.5737 38.3947 14.7896 36.4623 14.7896C34.5544 14.7896 32.8113 15.5806 31.5468 16.8569C30.2873 18.1283 29.502 19.8827 29.502 21.8173C29.502 23.7219 30.2902 25.463 31.5544 26.7275C32.8179 27.9912 34.5579 28.7795 36.4623 28.7795C38.3912 28.7795 40.1249 27.9981 41.3783 26.7441C42.6433 25.4785 43.4218 23.7306 43.4218 21.8173C43.4218 19.8742 42.6467 18.1129 41.3859 16.8403Z" fill="#D7B369"/>
<path fill-rule="evenodd" clip-rule="evenodd" d="M36.0156 5.46726C35.8957 4.82047 35.2424 4.16981 35.826 3.45749C36.029 3.11697 36.0978 2.64164 35.826 2.10059L36.2325 2.36963C37.5803 3.18029 37.8575 4.18998 36.5971 5.46726H36.0156Z" fill="#E30016"/>
<path fill-rule="evenodd" clip-rule="evenodd" d="M34.9667 11.8933H37.4191L35.203 10.544L34.9667 11.8933ZM34.7657 5.44775H37.7499H37.7698V5.46758V6.41764V6.43746H37.7499H37.2072L38.4584 13.7779C38.1257 13.8794 37.7914 13.9853 37.4559 14.0938L34.8408 12.6134L34.4516 14.8373L33.9961 14.7576L35.4522 6.43746H34.7657H34.7458V6.41764V5.46758V5.44775H34.7657ZM36.7384 6.43746H35.9216L35.693 7.74416H36.9612L36.7384 6.43746ZM37.04 8.20708H35.7874L37.2172 9.24622L37.04 8.20708ZM35.341 9.75542H37.1384L35.5437 8.59647L35.341 9.75542ZM37.383 10.2183H35.5519L37.595 11.4623L37.383 10.2183ZM37.7474 12.3562H35.316L38.007 13.8796L37.7474 12.3562Z" fill="#D7B369"/>
<path fill-rule="evenodd" clip-rule="evenodd" d="M36.455 14.543C32.2695 15.2233 32.4917 20.121 36.3941 21.6158C41.5508 22.4273 41.2777 27.8559 36.3941 28.9421C26.8474 28.1052 27.0633 14.543 36.455 14.543Z" fill="#1B1918"/>
<path fill-rule="evenodd" clip-rule="evenodd" d="M36.4752 14.7734C35.4409 14.9451 34.6963 15.3858 34.2292 15.967C33.8627 16.4229 33.6642 16.9684 33.6283 17.5385C33.5922 18.1142 33.7214 18.7171 34.0094 19.2824C34.4543 20.1545 35.2781 20.9357 36.4588 21.3925C38.0888 21.6554 39.2007 22.3698 39.8154 23.2684C40.1909 23.8172 40.3809 24.4353 40.3904 25.0626C40.3996 25.6866 40.2296 26.3184 39.8861 26.898C39.2764 27.9262 38.1182 28.7952 36.4441 29.1674C36.4208 29.1726 36.3971 29.1738 36.3745 29.172V29.1728C32.8634 28.8649 30.6335 26.8794 29.6586 24.455C29.246 23.4288 29.0594 22.3232 29.0964 21.2339C29.1336 20.1431 29.3956 19.0666 29.8796 18.1C30.9667 15.9293 33.1672 14.3115 36.455 14.3115C36.5828 14.3115 36.6865 14.4152 36.6865 14.543C36.6865 14.6639 36.5935 14.7632 36.4752 14.7734ZM33.8692 15.6778C34.0859 15.4084 34.3525 15.1658 34.6699 14.9595C32.5582 15.4208 31.0954 16.7014 30.2918 18.3062C29.838 19.2124 29.5923 20.223 29.5575 21.2483C29.5225 22.2746 29.6984 23.3163 30.087 24.2831C30.9988 26.5503 33.088 28.4089 36.3817 28.7085C37.8993 28.3621 38.9435 27.5818 39.4884 26.6628C39.7886 26.1562 39.9372 25.6072 39.9293 25.0682C39.9212 24.532 39.7574 24.0016 39.434 23.5287C38.8848 22.7259 37.8732 22.085 36.3754 21.846C36.3543 21.8441 36.333 21.8397 36.3121 21.8317C35.0069 21.3319 34.0931 20.4641 33.5972 19.492C33.2719 18.8533 33.1261 18.1678 33.1673 17.5096C33.2089 16.8461 33.4409 16.2107 33.8692 15.6778Z" fill="#D7B369"/>
<path fill-rule="evenodd" clip-rule="evenodd" d="M7.15321 24.0705C7.76395 24.262 8.44153 24.5236 9.05227 24.7122C9.05227 25.463 9.05227 26.2097 9.05227 27.0267C9.05227 27.7737 9.05227 28.5232 9.05227 29.3427C9.59427 29.4559 10.0698 29.6299 10.5427 29.7335C10.5427 28.8506 10.5427 27.9636 10.5427 27.0794C10.5427 26.1937 10.5427 25.2408 10.5427 24.3576C10.5427 23.4706 10.5427 22.5877 10.5427 21.7023C10.5427 20.8166 10.6117 19.9362 10.6117 18.9859C10.0698 18.8727 9.59427 18.7662 9.05227 18.6514C9.05227 19.3335 9.05227 19.9459 9.05227 20.6276C9.05227 21.3084 9.05227 21.9878 9.05227 22.6699C8.44153 22.4154 7.76395 22.221 7.08446 22.0269C7.08446 21.3448 7.1532 20.6708 7.08446 20.0536C7.08446 19.3728 7.1532 18.7 7.08446 18.0813C6.60896 17.9032 6.1338 17.7283 5.5918 17.5435C5.5918 18.4263 5.5918 19.3108 5.5918 20.1236C5.5918 21.0065 5.5918 21.8897 5.5918 22.7022C5.5918 23.5854 5.5918 24.467 5.5918 25.2798C5.5918 26.1627 5.5918 27.0443 5.5918 27.8571C6.1338 28.1145 6.60896 28.3694 7.08446 28.5526C7.1532 27.8114 7.08446 27.0564 7.08446 26.3094C7.1532 25.567 7.08446 24.8133 7.15321 24.0705ZM13.1903 21.6211C14.0032 21.7397 14.8854 21.8625 15.7024 21.9057C15.7024 21.2262 15.7024 20.5496 15.7024 19.8755C14.3434 19.6584 12.986 19.5007 11.6977 19.2731C11.6977 20.1546 11.6977 21.0414 11.6977 21.9258C11.6289 22.8033 11.6289 23.7577 11.6289 24.6406C11.6289 25.5222 11.6289 26.4095 11.6289 27.2937C11.6289 28.2482 11.6289 29.131 11.6289 30.0152C12.1709 30.1204 12.6461 30.2147 13.1216 30.3078C13.1216 29.5611 13.1216 28.8829 13.1216 28.1347C13.1903 27.3922 13.1903 26.7127 13.1903 25.9673C13.1903 25.2203 13.1903 24.5408 13.1903 23.7929C13.1903 23.0447 13.1903 22.2977 13.1903 21.6211ZM19.9073 26.9378C19.7717 28.4787 19.363 28.9462 18.7545 28.9395C18.4815 28.9357 18.1415 28.8615 17.8704 28.3895C17.5995 27.9124 17.3952 27.0296 17.3952 25.4157C17.3952 23.7309 17.666 22.8007 17.9395 22.3357C18.2103 21.8759 18.5502 21.8181 18.7545 21.8248C19.363 21.7749 19.7717 22.1174 19.9073 23.6592C20.3805 23.6663 20.8557 23.6042 21.3312 23.6055C21.3312 23.1377 21.3312 22.1375 20.9913 21.3339C20.5845 20.4619 19.9741 19.7137 18.6855 19.7434C17.5327 19.699 16.7864 20.4041 16.3777 21.5338C16.1756 22.0633 16.0401 22.732 15.9026 23.4006C15.8338 24.0717 15.7692 24.7458 15.7692 25.4227C15.7692 26.4364 15.8338 27.2505 15.9713 27.9988C16.1069 28.6779 16.3112 29.2928 16.5133 29.7037C17.0575 30.6595 17.7348 31.0128 18.6189 31.0196C19.5005 31.0221 20.1094 30.6838 20.5845 29.9468C21.06 29.2727 21.2643 28.205 21.3977 26.869C20.9248 26.8719 20.3805 26.9416 19.9073 26.9378ZM23.5033 21.9258C24.1806 21.8449 24.8582 21.7602 25.538 21.6697C25.538 22.3936 25.538 23.0543 25.538 23.7808C25.538 24.506 25.538 25.2312 25.4692 25.959C25.4692 26.6845 25.4692 27.4082 25.4692 28.1321C25.4692 28.8573 25.4692 29.5838 25.4692 30.2445C25.9444 30.2134 26.4199 30.1811 26.9616 30.0772C26.9616 29.1566 26.9616 28.3048 26.9616 27.3826C26.9616 26.4632 27.0306 25.6044 27.0306 24.685C27.0306 23.7657 27.0306 22.9139 27.0306 21.9933C27.0306 21.074 27.0994 20.2167 27.0994 19.2974C25.4024 19.6344 23.7054 19.8026 22.0775 19.943C22.0084 20.8757 22.0084 21.7397 22.0084 22.604C22.0084 23.5368 22.0084 24.4008 22.0084 25.2661C21.9419 26.2004 21.9419 27.0631 21.9419 27.9284C21.9419 28.8586 21.9419 29.7267 21.9419 30.5924C22.4171 30.5786 22.8926 30.5639 23.4346 30.4763C23.4346 29.7469 23.4346 29.0837 23.4346 28.3547C23.4346 27.6253 23.4346 26.8959 23.5033 26.1665C23.5033 25.5033 23.5033 24.7743 23.5033 24.0449C23.5033 23.3142 23.5033 22.5864 23.5033 21.9258Z" fill="#D7B369"/>
<path fill-rule="evenodd" clip-rule="evenodd" d="M58.9666 25.1986C58.9666 24.4568 58.9666 23.7136 58.9666 22.9731C58.9666 22.2325 58.9666 21.489 58.9666 20.7472C58.9666 21.3103 58.9666 21.8117 59.0315 22.3764C59.0315 23.3184 59.0315 24.2591 59.0965 25.1986C59.0315 25.1986 59.0315 25.1986 58.9666 25.1986ZM58.9621 15.7244C59.0593 16.4489 59.1575 17.1719 59.256 17.8978C59.3539 18.6192 59.4527 19.3412 59.5521 20.0658C59.6493 20.9448 59.7651 21.8398 59.885 22.7323C60.0052 23.6248 60.1373 24.5175 60.2668 25.3937C60.6575 25.4583 61.0464 25.5225 61.4371 25.5859C61.4697 24.962 61.5023 24.3532 61.5414 23.7459C61.5807 23.14 61.6315 22.5321 61.6964 21.9083C61.7287 21.2876 61.7623 20.6772 61.7933 20.0712C61.8247 19.4653 61.856 18.8574 61.8883 18.2339C61.9532 18.8897 62.0354 19.5321 62.1172 20.1624C62.1994 20.7942 62.2816 21.4165 62.3462 22.0403C62.4111 22.6639 62.476 23.2877 62.5406 23.91C62.6052 24.5322 62.6701 25.1545 62.7373 25.7755C63.1258 25.8398 63.5169 25.9651 63.9054 26.0294C63.9703 25.1906 64.0534 24.3532 64.1321 23.516C64.2107 22.6786 64.2942 21.8414 64.3588 21.004C64.4234 20.1678 64.4896 19.3319 64.5599 18.4945C64.6303 17.6586 64.7128 16.8212 64.8074 15.984C64.4189 15.8561 64.0304 15.7864 63.6371 15.7164C63.607 16.3076 63.5735 16.8963 63.5354 17.4853C63.497 18.0749 63.4475 18.6652 63.3829 19.2539C63.3525 19.8439 63.3199 20.4501 63.2876 21.0551C63.2556 21.6598 63.223 22.2674 63.1907 22.8548C63.1258 22.2338 63.0586 21.6102 62.987 20.9889C62.9154 20.367 62.8319 19.7444 62.735 19.1209C62.6679 18.4986 62.602 17.8738 62.5358 17.2499C62.4703 16.628 62.4041 16 62.3392 15.3749C62.0133 15.3064 61.6245 15.2351 61.2987 15.2271C61.266 15.8187 61.236 16.4125 61.1966 17.0041C61.1573 17.594 61.1087 18.1869 61.0441 18.7794C61.0118 19.4032 60.9814 20.0133 60.9492 20.6129C60.9169 21.2121 60.8846 21.8063 60.8519 22.3962C60.7873 21.7727 60.7039 21.161 60.623 20.5509C60.5424 19.9408 60.4586 19.3281 60.394 18.703C60.3291 18.0765 60.2601 17.4488 60.1951 16.8224C60.1306 16.1963 60.0656 15.567 60.003 14.9397C59.6122 14.9272 59.2883 14.8562 58.9621 14.7836C58.9621 15.098 58.9621 15.4113 58.9621 15.7244ZM64.8074 15.984C64.81 17.0402 64.8771 18.0954 64.8771 19.1503C64.8794 20.2017 64.944 21.3199 64.944 22.3722C64.944 23.4892 65.0738 24.5441 65.335 25.4113C65.5963 26.2148 66.0497 26.7741 66.8293 26.9596C67.5443 27.1434 67.9999 26.8358 68.2589 26.1573C68.5202 25.4771 68.5851 24.4257 68.5851 23.313C68.5851 22.2606 68.5851 21.2109 68.5851 20.1598C68.5829 19.1087 68.5829 18.0589 68.5806 17.0066C68.1895 16.8832 67.801 16.7594 67.4746 16.6961C67.4746 17.6842 67.4771 18.6748 67.4794 19.6638C67.4794 20.6516 67.5443 21.6409 67.5443 22.6328C67.5443 24.6103 67.3499 25.1046 66.8293 24.9812C66.2441 24.8549 66.0497 24.2364 65.9851 22.1935C65.9851 21.2029 65.9851 20.211 65.9825 19.2216C65.9179 18.231 65.9157 17.2407 65.9157 16.2501C65.5224 16.1829 65.1985 16.0537 64.8074 15.984ZM58.9621 14.7836C58.9621 15.098 58.9621 15.4113 58.9621 15.7244C58.8972 15.4072 58.8326 15.0928 58.8326 14.7807C58.8326 14.7807 58.8972 14.782 58.9621 14.7836ZM58.9666 20.7472C58.9666 20.305 58.902 19.926 58.902 19.5523C58.2497 19.4771 57.6022 19.4007 56.9499 19.3226C57.0167 19.9542 57.0167 20.5873 57.0167 21.2176C57.3429 21.223 57.6044 21.2902 57.928 21.2943C57.928 22.1746 57.7963 23.3683 57.0167 23.2983C56.6282 23.2337 56.3692 22.9782 56.1748 22.4071C55.9781 21.8373 55.8486 20.9474 55.8486 19.684C55.7815 18.1008 55.9113 17.2193 56.1054 16.7809C56.2995 16.2795 56.6259 16.2257 56.8226 16.2312C57.0145 16.2338 57.5996 16.3764 57.6646 18.0174C58.0531 18.0254 58.4441 18.098 58.8349 18.1693C58.7031 16.5954 58.4416 15.6467 58.0508 15.0052C57.662 14.4274 57.2089 14.2244 56.7532 14.2109C55.8438 14.0536 55.2586 14.7945 54.9325 15.7995C54.7729 16.3345 54.6754 16.9529 54.6271 17.5927C54.5788 18.2323 54.5788 18.899 54.6134 19.5347C54.6457 20.8361 54.7592 21.8376 54.921 22.6156C55.0828 23.3923 55.2957 23.9487 55.5225 24.3628C55.9781 25.1235 56.5633 25.3131 56.9518 25.3144C57.4701 25.3815 57.928 25.1315 58.187 24.0011C58.187 24.38 58.1871 24.7538 58.252 25.1327C58.4464 25.1344 58.7076 25.1974 58.9666 25.1986C58.9666 24.4568 58.9666 23.7136 58.9666 22.9731C58.9666 22.2325 58.9666 21.489 58.9666 20.7472ZM52.0156 25.1666C52.0156 24.4664 52.0156 23.7648 52.0156 23.0632C52.0805 23.0645 52.0805 23.0645 52.1451 23.0645C52.3395 23.067 52.5985 23.0024 52.793 22.4959C52.9893 21.9891 53.1191 21.0995 53.1191 19.5065C53.052 18.1034 52.9225 17.2096 52.7281 16.6315C52.5314 16.18 52.2724 15.984 52.0134 15.914C52.0134 15.2124 52.0134 14.5108 52.0134 13.8077C52.9871 13.965 53.57 14.9342 53.8961 16.1519C54.0583 16.7607 54.1555 17.4152 54.2108 18.0202C54.2661 18.6236 54.285 19.1787 54.2872 19.5912C54.3195 19.973 54.3355 20.5134 54.3032 21.1072C54.2709 21.7013 54.19 22.3521 54.0282 22.9542C53.7689 24.1597 53.2486 25.172 52.1451 25.1679C52.1451 25.1679 52.0805 25.1666 52.0156 25.1666ZM47.4008 21.1722C47.5952 21.1734 48.0509 21.0484 48.1155 22.3319C48.1804 23.8077 48.1155 24.3225 48.3121 25.0912C48.7655 25.0295 49.1566 25.0308 49.5451 24.9677C49.2212 23.8761 49.2212 22.6584 49.2212 21.7618C49.2212 20.7984 49.1566 20.156 48.5714 20.0885C48.5714 20.0255 48.5714 20.0255 48.5714 19.9583C49.1566 19.7687 49.4134 18.2339 49.3485 17.2081C49.3485 16.5027 49.2836 15.734 49.0223 15.1504C48.8279 14.5713 48.4372 14.1799 47.7893 14.2352C47.6576 14.234 47.5281 14.2323 47.3986 14.2311C47.3986 14.9397 47.3986 15.6467 47.3986 16.3521C47.3986 16.3521 47.3986 16.3521 47.4635 16.3521C47.8542 16.3562 48.1781 16.5509 48.1781 17.7082C48.1781 18.9907 47.7893 19.1183 47.5281 19.1167C47.4635 19.1775 47.4635 19.1775 47.3986 19.1775C47.4008 19.8426 47.4008 20.508 47.4008 21.1722ZM52.0134 13.8077C52.0134 14.5108 52.0134 15.2124 52.0134 15.914C52.0134 15.914 52.0134 15.914 51.9462 15.9127C51.6223 15.9044 51.3633 16.0899 51.2338 16.598C51.0371 17.172 50.9726 18.066 50.9748 19.5389C51.0394 21.137 51.1711 22.0337 51.3659 22.4826C51.56 22.9312 51.8215 23.0616 52.0156 23.0632C52.0156 23.7648 52.0156 24.4664 52.0156 25.1666C51.0394 25.1008 50.4542 24.1396 50.1306 22.984C49.9663 22.3748 49.8665 21.7161 49.8112 21.1086C49.7558 20.5001 49.7395 19.9382 49.7395 19.5229C49.7373 19.1385 49.7373 18.5751 49.7696 17.9595C49.8019 17.344 49.8665 16.6706 49.9985 16.063C50.3221 14.8547 50.8427 13.7783 51.8839 13.8052C51.9462 13.8064 52.0134 13.8077 52.0134 13.8077ZM45.4531 25.473C45.8416 25.41 46.2973 25.3467 46.6861 25.2808C46.6861 24.6397 46.6861 23.9327 46.6861 23.2887C46.6861 22.5833 46.6861 21.9409 46.6238 21.2323C46.8828 21.2323 47.1418 21.1722 47.4008 21.1722C47.4008 20.508 47.4008 19.8426 47.3986 19.1775C47.1396 19.1758 46.8802 19.1733 46.6212 19.2392C46.6212 18.2754 46.6212 17.375 46.6212 16.4745C46.8802 16.4125 47.1396 16.4167 47.3986 16.3521C47.3986 15.6467 47.3986 14.9397 47.3986 14.2311C46.7485 14.2902 46.1006 14.3507 45.4531 14.4114C45.4531 15.3438 45.4531 16.2782 45.4531 17.2017C45.4531 18.1248 45.4531 19.0416 45.4531 19.9408C45.4531 20.8748 45.4531 21.7928 45.4531 22.708C45.4531 23.6235 45.4531 24.5402 45.4531 25.473Z" fill="#D7B369"/>
</svg>
