<svg width="131" height="36" viewBox="0 0 131 36" fill="none" xmlns="http://www.w3.org/2000/svg">
<path d="M103.457 10.783L108.283 7.16553H92.1211V28.837H108.283V25.2166H96.7376V19.6853H106.606V16.0679H96.7376V10.783H103.457Z" fill="#21A038"/>
<path d="M79.91 15.6052H74.3109V10.783H83.2683L88.0975 7.16553H69.6943V28.837H79.3138C84.7033 28.837 87.8159 26.3523 87.8159 22.0258C87.8159 17.8766 85.0178 15.6052 79.91 15.6052ZM79.1401 25.2166H74.3109V19.2226H79.1401C82.079 19.2226 83.4421 20.2171 83.4421 22.2391C83.4421 24.2612 81.9741 25.2166 79.1401 25.2166Z" fill="#21A038"/>
<path d="M121.369 7.16553H112.588V28.837H117.204V22.6988H121.405C127.001 22.6988 130.5 19.7214 130.5 14.9322C130.5 10.143 127.001 7.16553 121.369 7.16553ZM121.264 19.0814H117.171V10.783H121.264C124.239 10.783 125.847 12.2732 125.847 14.9322C125.847 17.5912 124.239 19.0814 121.264 19.0814Z" fill="#21A038"/>
<path d="M61.7856 24.1533C60.5633 24.8293 59.1972 25.1838 57.7982 25.1838C53.634 25.1838 50.6262 22.1673 50.6262 18.0181C50.6262 13.8689 53.634 10.8523 57.7982 10.8523C59.302 10.8193 60.773 11.315 61.9953 12.2014L65.3206 9.71963L65.1109 9.50631C63.1876 7.7667 60.5962 6.88037 57.6574 6.88037C54.4758 6.88037 51.5699 7.98002 49.4728 9.966C47.3728 12.0241 46.1834 14.8964 46.2523 17.8769C46.2164 20.8904 47.3728 23.7987 49.4728 25.9259C51.6747 28.0201 54.6136 29.1918 57.6244 29.1197C60.9467 29.1197 63.8497 27.948 65.8089 25.8208L62.8371 23.5854L61.7856 24.1533Z" fill="#21A038"/>
<path d="M31.8032 7.02441C32.642 8.12406 33.343 9.32887 33.9362 10.6058L17.7738 22.6989L10.9854 18.3724V13.1957L17.7379 17.4861L31.8032 7.02441Z" fill="#21A038"/>
<path d="M4.09226 18.0181C4.09226 17.7687 4.09226 17.5584 4.12821 17.309L0.0359496 17.0957C0.0359496 17.3811 0 17.6996 0 17.982C0 22.9485 1.9952 27.4522 5.21269 30.7151L8.11562 27.7707C5.6321 25.289 4.09226 21.8488 4.09226 18.0181Z" fill="url(#paint0_linear_2907_2535)"/>
<path d="M17.7383 4.18536C17.984 4.18536 18.1937 4.18536 18.4393 4.22141L18.6491 0.0721861C18.3674 0.0721861 18.0529 0.0361328 17.7743 0.0361328C12.8761 0.0361328 8.43337 2.05817 5.21289 5.32106L8.11582 8.26548C10.5664 5.7477 13.9936 4.18536 17.7383 4.18536Z" fill="url(#paint1_linear_2907_2535)"/>
<path d="M17.7384 31.8506C17.4927 31.8506 17.283 31.8506 17.0373 31.8146L16.8276 35.9638C17.1092 35.9638 17.4238 35.9999 17.7024 35.9999C22.6005 35.9999 27.0463 33.9778 30.2638 30.7149L27.3609 27.7705C24.9103 30.3243 21.5161 31.8506 17.7384 31.8506Z" fill="url(#paint2_linear_2907_2535)"/>
<path d="M25.4345 6.5979L28.8976 4.00801C25.8539 1.52629 21.9713 0 17.7383 0V4.14922C20.6083 4.18528 23.2655 5.07161 25.4345 6.5979Z" fill="url(#paint3_linear_2907_2535)"/>
<path d="M35.5122 18.0179C35.5122 16.9182 35.4074 15.8546 35.2306 14.791L31.4169 17.6633C31.4169 17.7685 31.4169 17.9127 31.4169 18.0179C31.4169 22.098 29.6674 25.7515 26.9053 28.2692L29.6674 31.3549C33.2384 28.092 35.5122 23.3028 35.5122 18.0179Z" fill="#21A038"/>
<path d="M17.738 31.8508C13.7147 31.8508 10.1107 30.0781 7.62723 27.2749L4.5835 30.0781C7.83693 33.7316 12.5254 36 17.738 36V31.8508Z" fill="url(#paint4_linear_2907_2535)"/>
<path d="M8.60693 7.76678L5.84181 4.68115C2.23786 7.9801 0 12.7332 0 18.0182H4.09226C4.09226 13.9741 5.84181 10.2876 8.60693 7.76678Z" fill="url(#paint5_linear_2907_2535)"/>
<defs>
<linearGradient id="paint0_linear_2907_2535" x1="4.7763" y1="30.2106" x2="0.551519" y2="17.9788" gradientUnits="userSpaceOnUse">
<stop offset="0.1444" stop-color="#F2E913"/>
<stop offset="0.3037" stop-color="#E7E518"/>
<stop offset="0.5823" stop-color="#CADB26"/>
<stop offset="0.891" stop-color="#A3CD39"/>
</linearGradient>
<linearGradient id="paint1_linear_2907_2535" x1="6.38015" y1="4.85267" x2="17.0073" y2="0.796266" gradientUnits="userSpaceOnUse">
<stop offset="0.0592" stop-color="#0FA8E0"/>
<stop offset="0.5385" stop-color="#0099F9"/>
<stop offset="0.9234" stop-color="#0291EB"/>
</linearGradient>
<linearGradient id="paint2_linear_2907_2535" x1="16.5885" y1="32.4708" x2="29.2457" y2="29.6057" gradientUnits="userSpaceOnUse">
<stop offset="0.1226" stop-color="#A3CD39"/>
<stop offset="0.2846" stop-color="#86C339"/>
<stop offset="0.8693" stop-color="#21A038"/>
</linearGradient>
<linearGradient id="paint3_linear_2907_2535" x1="16.8974" y1="2.64378" x2="27.4259" y2="5.89757" gradientUnits="userSpaceOnUse">
<stop offset="0.0566" stop-color="#0291EB"/>
<stop offset="0.79" stop-color="#0C8ACB"/>
</linearGradient>
<linearGradient id="paint4_linear_2907_2535" x1="5.6241" y1="30.7345" x2="16.9377" y2="34.9686" gradientUnits="userSpaceOnUse">
<stop offset="0.1324" stop-color="#F2E913"/>
<stop offset="0.2977" stop-color="#EBE716"/>
<stop offset="0.5306" stop-color="#D9E01F"/>
<stop offset="0.8023" stop-color="#BBD62D"/>
<stop offset="0.9829" stop-color="#A3CD39"/>
</linearGradient>
<linearGradient id="paint5_linear_2907_2535" x1="3.13658" y1="18.5195" x2="7.70277" y2="6.62194" gradientUnits="userSpaceOnUse">
<stop offset="0.0698" stop-color="#A3CD39"/>
<stop offset="0.2599" stop-color="#81C55F"/>
<stop offset="0.9216" stop-color="#0FA8E0"/>
</linearGradient>
</defs>
</svg>
