<svg width="102" height="36" viewBox="0 0 102 36" fill="none" xmlns="http://www.w3.org/2000/svg">
<g clip-path="url(#clip0_2907_2549)">
<path fill-rule="evenodd" clip-rule="evenodd" d="M7.47579 0L5.8358 4.67248H28.5624L30.2024 0H7.47579ZM5.01529 7.00767L3.3753 11.6791H26.1019L27.7419 7.00767H5.01529ZM2.55991 14.0153L0.919922 18.6868H23.6465L25.2855 14.0153H2.55991Z" fill="#009FDF"/>
<mask id="mask0_2907_2549" style="mask-type:luminance" maskUnits="userSpaceOnUse" x="35" y="7" width="63" height="29">
<path d="M35.0166 35.7195H97.2281V7.09766H35.0166V35.7195Z" fill="white"/>
</mask>
<g mask="url(#mask0_2907_2549)">
<path fill-rule="evenodd" clip-rule="evenodd" d="M49.2348 20.4675V20.5661C50.2734 20.9626 51.2655 21.6559 51.7853 22.1012C53.3913 23.4879 54.1002 25.3199 54.1002 27.6968C54.1002 31.6099 52.116 34.4321 48.8565 35.3237C47.8644 35.6205 46.8258 35.7202 44.8881 35.7202H35.0166V7.09766H43.7554C45.5505 7.09766 46.7783 7.19624 47.8644 7.49309C51.0299 8.3847 53.1081 10.663 53.1081 14.2771C53.1081 16.2088 52.4467 17.8436 51.3606 18.9324C50.8883 19.4275 50.2269 20.0222 49.2348 20.4675ZM40.4959 23.4879V31.0151H44.2753C45.4079 31.0151 46.4476 30.9166 47.204 30.1734C47.9595 29.4302 48.2902 28.4898 48.2902 27.2515C48.2902 26.3112 48.0535 25.4196 47.5813 24.776C46.7783 23.736 45.7862 23.4879 44.0861 23.4879H40.4959ZM40.4484 18.5358H43.5188C44.4633 18.5358 44.9356 18.5358 45.4079 18.3874C46.6842 17.9909 47.4872 16.8035 47.4872 15.1687C47.4872 13.2382 46.6367 12.3953 45.4079 11.9999C44.8881 11.8515 44.3693 11.8016 43.3296 11.8016H40.4484V18.5358ZM62.3192 35.7202V11.9002H54.4309V7.09766H76.3493L74.7909 11.9002H67.7986V35.7202H62.3192ZM78.0494 35.7202V7.09766H95.8112L94.2528 11.9002H83.4822V18.239H87.8754C91.418 18.239 93.2607 19.1306 94.5359 20.2692C95.528 21.1608 97.2281 23.1412 97.2281 27.0544C97.2281 30.9166 95.4805 33.0454 94.0161 34.1352C92.3161 35.3724 90.521 35.7202 86.8833 35.7202H78.0494ZM83.4822 30.9166H87.5922C89.1506 30.9166 90.0952 30.52 90.7566 29.6284C91.0873 29.1832 91.5596 28.3901 91.5596 26.9049C91.5596 25.4196 91.0873 24.3795 90.1428 23.6363C89.5764 23.1911 88.8199 22.9441 87.5447 22.9441H83.4822V30.9166Z" fill="#0A2973"/>
</g>
</g>
<defs>
<clipPath id="clip0_2907_2549">
<rect width="100.8" height="36" fill="white" transform="translate(0.919922)"/>
</clipPath>
</defs>
</svg>
