<svg width="44" height="44" viewBox="0 0 44 44" fill="none" xmlns="http://www.w3.org/2000/svg">
<g clip-path="url(#clip0_2907_5108)">
<path d="M39.5999 0.879883H4.39988C2.46388 0.879883 0.879883 2.46388 0.879883 4.39988V39.5999C0.879883 41.5359 2.46388 43.1199 4.39988 43.1199H39.5999C41.5359 43.1199 43.1199 41.5359 43.1199 39.5999V4.39988C43.1199 2.46388 41.5359 0.879883 39.5999 0.879883Z" fill="#F2720C"/>
<path d="M28.1601 22C27.2801 22 25.5201 23.76 22.0001 23.76C18.4801 23.76 16.7201 22 15.8401 22C14.8721 22 14.0801 22.792 14.0801 23.76C14.0801 24.64 14.6081 25.08 14.9601 25.256C16.0161 25.872 19.3601 27.28 19.3601 27.28L15.5761 32.032C15.5761 32.032 14.8721 32.824 14.8721 33.44C14.8721 34.408 15.6641 35.2 16.6321 35.2C17.5121 35.2 17.9521 34.584 17.9521 34.584L22.0001 29.92L25.9601 34.584C25.9601 34.584 26.4001 35.2 27.2801 35.2C28.2481 35.2 29.0401 34.408 29.0401 33.44C29.0401 32.912 28.3361 32.032 28.3361 32.032L24.6401 27.28C24.6401 27.28 27.9841 25.872 29.0401 25.256C29.3921 24.992 29.9201 24.64 29.9201 23.76C29.9201 22.792 29.1281 22 28.1601 22Z" fill="white"/>
<path d="M21.9998 8.7998C18.5678 8.7998 15.8398 11.5278 15.8398 14.9598C15.8398 18.3918 18.5678 21.1198 21.9998 21.1198C25.4318 21.1198 28.1598 18.3918 28.1598 14.9598C28.1598 11.5278 25.4318 8.7998 21.9998 8.7998ZM21.9998 18.0398C20.3278 18.0398 18.9198 16.6318 18.9198 14.9598C18.9198 13.2878 20.3278 11.8798 21.9998 11.8798C23.6718 11.8798 25.0798 13.2878 25.0798 14.9598C25.0798 16.6318 23.6718 18.0398 21.9998 18.0398Z" fill="white"/>
</g>
<defs>
<clipPath id="clip0_2907_5108">
<rect width="44" height="44" fill="white"/>
</clipPath>
</defs>
</svg>
