<svg width="44" height="44" viewBox="0 0 44 44" fill="none" xmlns="http://www.w3.org/2000/svg">
<g clip-path="url(#clip0_2907_5102)">
<path d="M39.5999 0.879883H4.39988C2.46388 0.879883 0.879883 2.46388 0.879883 4.39988V39.5999C0.879883 41.5359 2.46388 43.1199 4.39988 43.1199H39.5999C41.5359 43.1199 43.1199 41.5359 43.1199 39.5999V4.39988C43.1199 2.46388 41.5359 0.879883 39.5999 0.879883Z" fill="#4B85C1"/>
<path d="M22.8803 29.9201C23.7603 29.9201 23.7603 28.6881 23.7603 28.1601C23.7603 27.2801 24.6403 26.4001 25.5203 26.4001C26.4003 26.4001 27.8963 27.8961 29.0403 29.0401C29.9203 29.9201 29.9203 29.9201 30.8003 29.9201C31.6803 29.9201 33.4403 29.9201 33.4403 29.9201C33.4403 29.9201 35.2003 29.8321 35.2003 28.1601C35.2003 27.6321 34.5843 26.6641 32.5603 24.6401C30.8003 22.8801 29.9203 23.7601 32.5603 20.2401C34.1443 18.0401 35.3763 16.1041 35.2003 15.5761C35.0243 15.0481 30.5363 14.1681 29.9203 14.9601C28.1603 17.6001 27.8083 18.2161 27.2803 19.3601C26.4003 21.1201 26.3123 22.0001 25.5203 22.0001C24.7283 22.0001 24.6403 20.3281 24.6403 19.3601C24.6403 16.4561 25.0803 14.4321 23.7603 14.0801C23.7603 14.0801 22.0003 14.0801 21.1203 14.0801C19.7123 14.0801 18.4803 14.9601 18.4803 14.9601C18.4803 14.9601 17.4243 15.8401 17.6003 15.8401C17.8643 15.8401 19.3603 15.4881 19.3603 16.7201C19.3603 17.6001 19.3603 18.4801 19.3603 18.4801C19.3603 18.4801 19.3603 22.0001 18.4803 22.0001C17.6003 22.0001 15.8403 18.4801 14.0803 15.8401C13.3763 14.7841 13.2003 14.9601 12.3203 14.9601C11.3523 14.9601 10.5603 14.9601 9.68031 14.9601C8.80031 14.9601 8.71231 15.4881 8.80031 15.8401C10.5603 20.2401 11.7923 22.9681 15.1363 26.4881C18.2163 29.6561 20.2403 29.8321 22.0003 29.9201C22.4403 29.9201 22.0003 29.9201 22.8803 29.9201Z" fill="white"/>
</g>
<defs>
<clipPath id="clip0_2907_5102">
<rect width="44" height="44" fill="white"/>
</clipPath>
</defs>
</svg>
