<svg width="80" height="80" viewBox="0 0 80 80" fill="none" xmlns="http://www.w3.org/2000/svg">
<path fill-rule="evenodd" clip-rule="evenodd" d="M36.68 53.76C36.8277 53.5504 36.988 53.3501 37.16 53.16C37.5319 52.7851 37.9743 52.4875 38.4617 52.2844C38.9492 52.0814 39.472 51.9768 40 51.9768C40.5281 51.9768 41.0509 52.0814 41.5383 52.2844C42.0258 52.4875 42.4682 52.7851 42.84 53.16C43.2107 53.5338 43.504 53.977 43.7031 54.4644C43.9022 54.9517 44.0031 55.4736 44 56C44.0191 56.5174 43.9376 57.0336 43.76 57.52C43.5804 58.0164 43.2938 58.4672 42.9205 58.8405C42.5472 59.2137 42.0964 59.5004 41.6 59.68C41.1212 59.8916 40.6035 60.0009 40.08 60.0009C39.5565 60.0009 39.0388 59.8916 38.56 59.68C38.0636 59.5004 37.6128 59.2137 37.2396 58.8405C36.8663 58.4672 36.5797 58.0164 36.4 57.52C36.1761 57.0453 36.0665 56.5247 36.08 56C36.0604 55.7337 36.0604 55.4663 36.08 55.2C36.1238 54.9494 36.2047 54.7067 36.32 54.48C36.4076 54.2251 36.5286 53.983 36.68 53.76ZM33.9957 21.6058C35.8214 20.5525 37.8923 19.9986 40 20C42.8142 20.0218 45.5312 21.0321 47.676 22.8541C49.8208 24.6761 51.257 27.194 51.7336 29.9676C52.2102 32.7412 51.6968 35.594 50.2831 38.0275C48.8694 40.4609 46.6455 42.3201 44 43.28V44C44 45.0609 43.5786 46.0783 42.8284 46.8284C42.0783 47.5786 41.0609 48 40 48C38.9392 48 37.9217 47.5786 37.1716 46.8284C36.4214 46.0783 36 45.0609 36 44V40C36 38.9391 36.4214 37.9217 37.1716 37.1716C37.9217 36.4214 38.9392 36 40 36C41.0609 36 42.0783 35.5786 42.8284 34.8284C43.5786 34.0783 44 33.0609 44 32C44 30.9391 43.5786 29.9217 42.8284 29.1716C42.0783 28.4214 41.0609 28 40 28C39.2952 27.9972 38.6021 28.1807 37.991 28.5319C37.3799 28.8831 36.8724 29.3896 36.52 30C36.27 30.478 35.9258 30.9005 35.5082 31.2421C35.0906 31.5836 34.6083 31.8372 34.0902 31.9875C33.5721 32.1378 33.0289 32.1818 32.4934 32.1167C31.9578 32.0517 31.441 31.879 30.9739 31.609C30.5068 31.339 30.0992 30.9773 29.7756 30.5457C29.4519 30.1141 29.2189 29.6215 29.0905 29.0975C28.9622 28.5736 28.9412 28.029 29.0287 27.4967C29.1163 26.9644 29.3106 26.4553 29.6 26C30.6539 24.1746 32.17 22.6591 33.9957 21.6058Z" fill="#4E78DA"/>
<path fill-rule="evenodd" clip-rule="evenodd" d="M40 0C32.0888 0 24.3552 2.34596 17.7772 6.74122C11.1992 11.1365 6.07234 17.3836 3.04484 24.6927C0.0173314 32.0017 -0.774802 40.0444 0.768607 47.8036C2.31202 55.5629 6.12165 62.6902 11.7157 68.2843C17.3098 73.8784 24.4372 77.688 32.1964 79.2314C39.9556 80.7748 47.9983 79.9827 55.3074 76.9552C62.6164 73.9277 68.8635 68.8008 73.2588 62.2228C77.6541 55.6448 80 47.9113 80 40C80 34.7471 78.9654 29.5457 76.9552 24.6927C74.945 19.8396 71.9986 15.4301 68.2843 11.7157C64.5699 8.00139 60.1604 5.05501 55.3074 3.04482C50.4543 1.03463 45.2529 0 40 0ZM22.2218 66.607C27.4841 70.1232 33.671 72 40 72C48.4869 72 56.6263 68.6286 62.6274 62.6274C68.6286 56.6263 72 48.4869 72 40C72 33.671 70.1232 27.4841 66.607 22.2218C63.0908 16.9594 58.0931 12.8579 52.2459 10.4359C46.3987 8.01385 39.9645 7.38015 33.7571 8.61487C27.5497 9.8496 21.8479 12.8973 17.3726 17.3726C12.8973 21.8479 9.84962 27.5497 8.61489 33.7571C7.38016 39.9645 8.01387 46.3986 10.4359 52.2459C12.8579 58.0931 16.9594 63.0908 22.2218 66.607Z" fill="#23C1A1"/>
</svg>
