<svg width="98" height="108" viewBox="0 0 98 108" fill="none" xmlns="http://www.w3.org/2000/svg">
<g opacity="0.07">
<path fill-rule="evenodd" clip-rule="evenodd" d="M58.688 66.016C58.9243 65.6807 59.1808 65.3601 59.456 65.056C60.051 64.4561 60.7588 63.98 61.5387 63.6551C62.3186 63.3301 63.1551 63.1629 64 63.1629C64.8449 63.1629 65.6814 63.3301 66.4613 63.6551C67.2412 63.98 67.9491 64.4561 68.544 65.056C69.1372 65.654 69.6065 66.3632 69.9249 67.143C70.2434 67.9227 70.4049 68.7577 70.4 69.6C70.4306 70.4278 70.3002 71.2538 70.016 72.032C69.7286 72.8262 69.27 73.5475 68.6728 74.1447C68.0755 74.7419 67.3542 75.2005 66.56 75.488C65.7939 75.8266 64.9656 76.0015 64.128 76.0015C63.2904 76.0015 62.4621 75.8266 61.696 75.488C60.9018 75.2005 60.1805 74.7419 59.5833 74.1447C58.986 73.5475 58.5275 72.8262 58.24 72.032C57.8817 71.2724 57.7064 70.4395 57.728 69.6C57.6966 69.1739 57.6966 68.7461 57.728 68.32C57.7981 67.919 57.9275 67.5308 58.112 67.168C58.2521 66.7601 58.4458 66.3727 58.688 66.016ZM54.393 14.5692C57.3142 12.884 60.6276 11.9978 64 12C68.5027 12.0349 72.8498 13.6513 76.2816 16.5665C79.7133 19.4817 82.0113 23.5103 82.7738 27.9481C83.5363 32.3858 82.7148 36.9504 80.4529 40.8439C78.1911 44.7374 74.6328 47.7121 70.4 49.248V50.4C70.4 52.0974 69.7257 53.7252 68.5255 54.9255C67.3253 56.1257 65.6974 56.8 64 56.8C62.3026 56.8 60.6748 56.1257 59.4745 54.9255C58.2743 53.7252 57.6 52.0974 57.6 50.4V44C57.6 42.3026 58.2743 40.6747 59.4745 39.4745C60.6748 38.2743 62.3026 37.6 64 37.6C65.6974 37.6 67.3253 36.9257 68.5255 35.7255C69.7257 34.5252 70.4 32.8974 70.4 31.2C70.4 29.5026 69.7257 27.8747 68.5255 26.6745C67.3253 25.4743 65.6974 24.8 64 24.8C62.8723 24.7955 61.7634 25.0891 60.7856 25.651C59.8078 26.213 58.9959 27.0233 58.432 28C58.0319 28.7648 57.4812 29.4408 56.8131 29.9873C56.145 30.5338 55.3732 30.9395 54.5443 31.18C53.7153 31.4205 52.8462 31.4908 51.9893 31.3867C51.1325 31.2826 50.3055 31.0063 49.5582 30.5743C48.8109 30.1424 48.1587 29.5637 47.6409 28.8732C47.123 28.1826 46.7502 27.3944 46.5448 26.5561C46.3395 25.7177 46.3058 24.8464 46.4459 23.9947C46.586 23.143 46.8969 22.3284 47.36 21.6C49.0462 18.6794 51.4719 16.2545 54.393 14.5692Z" fill="#4E78DA"/>
<path fill-rule="evenodd" clip-rule="evenodd" d="M64 -20C51.342 -20 38.9683 -16.2465 28.4435 -9.21406C17.9188 -2.18165 9.71574 7.81378 4.87174 19.5082C0.0277302 31.2027 -1.23968 44.071 1.22977 56.4857C3.69922 68.9005 9.79463 80.3042 18.7452 89.2548C27.6957 98.2054 39.0995 104.301 51.5142 106.77C63.929 109.24 76.7973 107.972 88.4918 103.128C100.186 98.2842 110.182 90.0812 117.214 79.5565C124.246 69.0317 128 56.658 128 44C128 35.5954 126.345 27.2731 123.128 19.5082C119.912 11.7434 115.198 4.68811 109.255 -1.25484C103.312 -7.19779 96.2566 -11.912 88.4918 -15.1283C80.7269 -18.3446 72.4046 -20 64 -20ZM35.5548 86.5712C43.9746 92.1971 53.8736 95.2 64 95.2C77.5791 95.2 90.602 89.8057 100.204 80.2038C109.806 70.602 115.2 57.5791 115.2 44C115.2 33.8736 112.197 23.9746 106.571 15.5548C100.945 7.135 92.949 0.572569 83.5934 -3.30264C74.2378 -7.17784 63.9432 -8.19177 54.0114 -6.21621C44.0796 -4.24065 34.9566 0.635677 27.7962 7.79612C20.6357 14.9566 15.7594 24.0795 13.7838 34.0114C11.8083 43.9432 12.8222 54.2378 16.6974 63.5934C20.5726 72.9489 27.135 80.9453 35.5548 86.5712Z" fill="#23C1A1"/>
</g>
</svg>
