<svg width="536" height="1670" viewBox="0 0 536 1670" fill="none" xmlns="http://www.w3.org/2000/svg">
<path d="M526 2C482.667 7 405.958 -1.47318 378 75C354.602 139 418.299 243 388.998 320C362.741 389 316.999 428 225.998 446C134.997 464 47.998 469 33.9975 559C28.9054 591.734 -21.7355 657.396 15.9991 716C35.5468 746.359 76.9997 749 135 837C196.305 930.015 155 1007.56 259 1071C359 1132 464.818 1075.73 519.998 1128C539 1146 559.002 1373.02 436 1412C300.002 1455.1 257 1421 137 1469C17 1517 41 1633 46 1669" stroke="#0BAB8B" stroke-opacity="0.25" stroke-width="3" stroke-dasharray="10 10"/>
</svg>
